solid OpenSCAD_Model
  facet normal 0 1 -1.22461e-16
    outer loop
      vertex -27.5 1.83691e-16 3
      vertex -18.5 4.46981e-15 38
      vertex -27.5 -1.83691e-16 0
    endloop
  endfacet
  facet normal 0 1 -1.22461e-16
    outer loop
      vertex -13.7533 4.28519e-15 36.4923
      vertex -18.5 4.46981e-15 38
      vertex -12.3958 4.46981e-15 38
    endloop
  endfacet
  facet normal 0 1 -1.22461e-16
    outer loop
      vertex -15.5303 3.90827e-15 33.4145
      vertex -18.5 4.46981e-15 38
      vertex -13.7533 4.28519e-15 36.4923
    endloop
  endfacet
  facet normal 0 1 -1.22461e-16
    outer loop
      vertex -27.5 -1.83691e-16 0
      vertex -18.5 4.46981e-15 38
      vertex -15.5303 3.90827e-15 33.4145
    endloop
  endfacet
  facet normal 0 1 -1.22461e-16
    outer loop
      vertex -27.5 -1.83691e-16 0
      vertex -15.5303 3.90827e-15 33.4145
      vertex -16.6285 3.49435e-15 30.0345
    endloop
  endfacet
  facet normal 0 1 -1.22461e-16
    outer loop
      vertex -16.6285 2.62868e-15 22.9655
      vertex -27.5 -1.83691e-16 0
      vertex -17 3.06152e-15 26.5
    endloop
  endfacet
  facet normal 0 1 -1.22461e-16
    outer loop
      vertex -20 4.28612e-16 5
      vertex -1.77698 9.9109e-16 9.59313
      vertex 1.77698 9.9109e-16 9.59313
    endloop
  endfacet
  facet normal 0 1 -1.22461e-16
    outer loop
      vertex 14 4.28612e-16 5
      vertex 27.5 1.83691e-16 3
      vertex 14 -1.83691e-16 0
    endloop
  endfacet
  facet normal 0 1 -1.22461e-16
    outer loop
      vertex -27.5 -1.83691e-16 0
      vertex -16.6285 2.62868e-15 22.9655
      vertex -15.5303 2.21476e-15 19.5855
    endloop
  endfacet
  facet normal 0 1 -1.22461e-16
    outer loop
      vertex -15.5303 2.21476e-15 19.5855
      vertex -13.7533 1.83785e-15 16.5077
      vertex -27.5 -1.83691e-16 0
    endloop
  endfacet
  facet normal 0 1 -1.22461e-16
    outer loop
      vertex -22.5 -1.83691e-16 0
      vertex -27.5 -1.83691e-16 0
      vertex -22.5 4.28612e-16 5
    endloop
  endfacet
  facet normal 0 1 -1.22461e-16
    outer loop
      vertex -22.5 4.28612e-16 5
      vertex -11.3752 1.51441e-15 13.8665
      vertex -20 4.28612e-16 5
    endloop
  endfacet
  facet normal 0 1 -1.22461e-16
    outer loop
      vertex -12 4.28612e-16 5
      vertex 5.25329 1.08158e-15 10.332
      vertex 14 4.28612e-16 5
    endloop
  endfacet
  facet normal 0 1 -1.22461e-16
    outer loop
      vertex 8.5 1.2586e-15 11.7776
      vertex 27.5 1.83691e-16 3
      vertex 5.25329 1.08158e-15 10.332
    endloop
  endfacet
  facet normal 0 1 -1.22461e-16
    outer loop
      vertex 11.3752 1.51441e-15 13.8665
      vertex 27.5 1.83691e-16 3
      vertex 8.5 1.2586e-15 11.7776
    endloop
  endfacet
  facet normal 0 1 -1.22461e-16
    outer loop
      vertex 13.7533 1.83785e-15 16.5077
      vertex 27.5 1.83691e-16 3
      vertex 11.3752 1.51441e-15 13.8665
    endloop
  endfacet
  facet normal 0 1 -1.22461e-16
    outer loop
      vertex 15.5303 2.21476e-15 19.5855
      vertex 27.5 1.83691e-16 3
      vertex 13.7533 1.83785e-15 16.5077
    endloop
  endfacet
  facet normal 0 1 -1.22461e-16
    outer loop
      vertex 17 3.06152e-15 26.5
      vertex 18.5 4.46981e-15 38
      vertex 16.6285 2.62868e-15 22.9655
    endloop
  endfacet
  facet normal 0 1 -1.22461e-16
    outer loop
      vertex 16.6285 3.49435e-15 30.0345
      vertex 18.5 4.46981e-15 38
      vertex 17 3.06152e-15 26.5
    endloop
  endfacet
  facet normal 0 1 -1.22461e-16
    outer loop
      vertex 15.5303 3.90827e-15 33.4145
      vertex 18.5 4.46981e-15 38
      vertex 16.6285 3.49435e-15 30.0345
    endloop
  endfacet
  facet normal 0 1 -1.22461e-16
    outer loop
      vertex 13.7533 4.28519e-15 36.4923
      vertex 12.3958 4.46981e-15 38
      vertex 18.5 4.46981e-15 38
    endloop
  endfacet
  facet normal 0 1 -1.22461e-16
    outer loop
      vertex 13.7533 4.28519e-15 36.4923
      vertex 18.5 4.46981e-15 38
      vertex 15.5303 3.90827e-15 33.4145
    endloop
  endfacet
  facet normal 0 1 -1.22461e-16
    outer loop
      vertex 16.6285 2.62868e-15 22.9655
      vertex 18.5 4.46981e-15 38
      vertex 27.5 1.83691e-16 3
    endloop
  endfacet
  facet normal 0 1 -1.22461e-16
    outer loop
      vertex 16.6285 2.62868e-15 22.9655
      vertex 27.5 1.83691e-16 3
      vertex 15.5303 2.21476e-15 19.5855
    endloop
  endfacet
  facet normal 0 1 -1.22461e-16
    outer loop
      vertex 14 -1.83691e-16 0
      vertex 27.5 1.83691e-16 3
      vertex 27.5 -1.83691e-16 0
    endloop
  endfacet
  facet normal 0 1 -1.22461e-16
    outer loop
      vertex -20 4.28612e-16 5
      vertex -12 4.28612e-16 5
      vertex -20 -1.83691e-16 0
    endloop
  endfacet
  facet normal 0 1 -1.22461e-16
    outer loop
      vertex 5.25329 1.08158e-15 10.332
      vertex 27.5 1.83691e-16 3
      vertex 14 4.28612e-16 5
    endloop
  endfacet
  facet normal 0 1 -1.22461e-16
    outer loop
      vertex 1.77698 9.9109e-16 9.59313
      vertex 5.25329 1.08158e-15 10.332
      vertex -12 4.28612e-16 5
    endloop
  endfacet
  facet normal 0 1 -1.22461e-16
    outer loop
      vertex -12 -1.83691e-16 0
      vertex -20 -1.83691e-16 0
      vertex -12 4.28612e-16 5
    endloop
  endfacet
  facet normal 0 1 -1.22461e-16
    outer loop
      vertex -11.3752 1.51441e-15 13.8665
      vertex -8.5 1.2586e-15 11.7776
      vertex -20 4.28612e-16 5
    endloop
  endfacet
  facet normal 0 1 -1.22461e-16
    outer loop
      vertex -13.7533 1.83785e-15 16.5077
      vertex -11.3752 1.51441e-15 13.8665
      vertex -22.5 4.28612e-16 5
    endloop
  endfacet
  facet normal 0 1 -1.22461e-16
    outer loop
      vertex -13.7533 1.83785e-15 16.5077
      vertex -22.5 4.28612e-16 5
      vertex -27.5 -1.83691e-16 0
    endloop
  endfacet
  facet normal 0 1 -1.22461e-16
    outer loop
      vertex -20 4.28612e-16 5
      vertex 1.77698 9.9109e-16 9.59313
      vertex -12 4.28612e-16 5
    endloop
  endfacet
  facet normal 0 1 -1.22461e-16
    outer loop
      vertex -17 3.06152e-15 26.5
      vertex -27.5 -1.83691e-16 0
      vertex -16.6285 3.49435e-15 30.0345
    endloop
  endfacet
  facet normal 0 1 -1.22461e-16
    outer loop
      vertex -20 4.28612e-16 5
      vertex -5.25329 1.08158e-15 10.332
      vertex -1.77698 9.9109e-16 9.59313
    endloop
  endfacet
  facet normal 0 1 -1.22461e-16
    outer loop
      vertex -20 4.28612e-16 5
      vertex -8.5 1.2586e-15 11.7776
      vertex -5.25329 1.08158e-15 10.332
    endloop
  endfacet
  facet normal -0.968493 3.04977e-17 0.249041
    outer loop
      vertex -27.5 1.83691e-16 3
      vertex -27.5 -6 3
      vertex -18.5 4.46981e-15 38
    endloop
  endfacet
  facet normal -0.968493 3.04977e-17 0.249041
    outer loop
      vertex -18.5 4.46981e-15 38
      vertex -27.5 -6 3
      vertex -18.5 -6 38
    endloop
  endfacet
  facet normal -1 0 0
    outer loop
      vertex -27.5 1.83691e-16 3
      vertex -27.5 -1.83691e-16 0
      vertex -27.5 -6 3
    endloop
  endfacet
  facet normal -1 0 0
    outer loop
      vertex -27.5 -6 3
      vertex -27.5 -1.83691e-16 0
      vertex -27.5 -6 7.34764e-16
    endloop
  endfacet
  facet normal 0 -1.22461e-16 -1
    outer loop
      vertex -27.5 -1.83691e-16 0
      vertex -22.5 -1.83691e-16 0
      vertex -27.5 -6 7.34764e-16
    endloop
  endfacet
  facet normal 0 -1.22461e-16 -1
    outer loop
      vertex -27.5 -6 7.34764e-16
      vertex -22.5 -1.83691e-16 0
      vertex -22.5 -6 7.34764e-16
    endloop
  endfacet
  facet normal 1 0 0
    outer loop
      vertex -22.5 -6 5
      vertex -22.5 -6 7.34764e-16
      vertex -22.5 -1.83691e-16 0
    endloop
  endfacet
  facet normal 1 0 0
    outer loop
      vertex -22.5 4.28612e-16 5
      vertex -22.5 -6 5
      vertex -22.5 -1.83691e-16 0
    endloop
  endfacet
  facet normal 0 -1.22461e-16 -1
    outer loop
      vertex -20 -6 5
      vertex -22.5 -6 5
      vertex -20 4.28612e-16 5
    endloop
  endfacet
  facet normal 0 -1.22461e-16 -1
    outer loop
      vertex -20 4.28612e-16 5
      vertex -22.5 -6 5
      vertex -22.5 4.28612e-16 5
    endloop
  endfacet
  facet normal -1 0 0
    outer loop
      vertex -20 4.28612e-16 5
      vertex -20 -1.83691e-16 0
      vertex -20 -6 5
    endloop
  endfacet
  facet normal -1 0 0
    outer loop
      vertex -20 -6 5
      vertex -20 -1.83691e-16 0
      vertex -20 -36.8 4.50655e-15
    endloop
  endfacet
  facet normal -1 0 0
    outer loop
      vertex -20 -6 5
      vertex -20 -36.8 4.50655e-15
      vertex -20 -36.8 6
    endloop
  endfacet
  facet normal -1 0 0
    outer loop
      vertex -20 -6 5
      vertex -20 -36.8 6
      vertex -20 -6 6
    endloop
  endfacet
  facet normal 0 -1.22461e-16 -1
    outer loop
      vertex -20 -1.83691e-16 0
      vertex -12 -1.83691e-16 0
      vertex -20 -36.8 4.50655e-15
    endloop
  endfacet
  facet normal 0 -1.22461e-16 -1
    outer loop
      vertex -20 -36.8 4.50655e-15
      vertex -12 -1.83691e-16 0
      vertex -12 -36.8 4.50655e-15
    endloop
  endfacet
  facet normal 1 0 0
    outer loop
      vertex -12 -1.83691e-16 0
      vertex -12 4.28612e-16 5
      vertex -12 -6 5
    endloop
  endfacet
  facet normal 1 0 0
    outer loop
      vertex -12 -36.8 6
      vertex -12 -1.83691e-16 0
      vertex -12 -6 5
    endloop
  endfacet
  facet normal 1 0 0
    outer loop
      vertex -12 -6 6
      vertex -12 -36.8 6
      vertex -12 -6 5
    endloop
  endfacet
  facet normal 1 0 0
    outer loop
      vertex -12 -36.8 6
      vertex -12 -36.8 4.50655e-15
      vertex -12 -1.83691e-16 0
    endloop
  endfacet
  facet normal 0 -1.22461e-16 -1
    outer loop
      vertex 11.1 -0.2 5
      vertex 8.8 -0.8 5
      vertex -12 -6 5
    endloop
  endfacet
  facet normal 0 -1.22461e-16 -1
    outer loop
      vertex 8.8 -0.8 5
      vertex 6.8 -1.9 5
      vertex -12 -6 5
    endloop
  endfacet
  facet normal 0 -1.22461e-16 -1
    outer loop
      vertex -12 -6 5
      vertex 4.8 -3.6 5
      vertex 3.1 -5.7 5
    endloop
  endfacet
  facet normal 0 -1.22461e-16 -1
    outer loop
      vertex -12 -6 5
      vertex 3.1 -5.7 5
      vertex 2.95652 -6 5
    endloop
  endfacet
  facet normal 0 -1.22461e-16 -1
    outer loop
      vertex 6.8 -1.9 5
      vertex 4.8 -3.6 5
      vertex -12 -6 5
    endloop
  endfacet
  facet normal 0 -1.22461e-16 -1
    outer loop
      vertex 11.1 -0.2 5
      vertex -12 -6 5
      vertex -12 4.28612e-16 5
    endloop
  endfacet
  facet normal 0 -1.22461e-16 -1
    outer loop
      vertex 11.1 -0.2 5
      vertex -12 4.28612e-16 5
      vertex 14 4.28612e-16 5
    endloop
  endfacet
  facet normal -0.0688021 0.99763 -1.2217e-16
    outer loop
      vertex 14 -1.83691e-16 0
      vertex 11.1 -0.2 2.44921e-17
      vertex 14 4.28612e-16 5
    endloop
  endfacet
  facet normal -0.0688021 0.99763 -1.2217e-16
    outer loop
      vertex 14 4.28612e-16 5
      vertex 11.1 -0.2 2.44921e-17
      vertex 11.1 -0.2 5
    endloop
  endfacet
  facet normal 0 -1.22461e-16 -1
    outer loop
      vertex 1.2 -12.8 1.5675e-15
      vertex 1.4 -10.4 1.27359e-15
      vertex 1.2 -24 2.93906e-15
    endloop
  endfacet
  facet normal 0 -1.22461e-16 -1
    outer loop
      vertex 1.2 -24 2.93906e-15
      vertex 1.4 -10.4 1.27359e-15
      vertex 2 -8 9.79685e-16
    endloop
  endfacet
  facet normal 0 -1.22461e-16 -1
    outer loop
      vertex 1.2 -24 2.93906e-15
      vertex 2 -8 9.79685e-16
      vertex 3.1 -5.7 6.98026e-16
    endloop
  endfacet
  facet normal 0 -1.22461e-16 -1
    outer loop
      vertex 1.2 -24 2.93906e-15
      vertex 3.1 -5.7 6.98026e-16
      vertex 4.8 -3.6 4.40858e-16
    endloop
  endfacet
  facet normal 0 -1.22461e-16 -1
    outer loop
      vertex 1.2 -24 2.93906e-15
      vertex 4.8 -3.6 4.40858e-16
      vertex 6.8 -1.9 2.32675e-16
    endloop
  endfacet
  facet normal 0 -1.22461e-16 -1
    outer loop
      vertex 1.2 -24 2.93906e-15
      vertex 6.8 -1.9 2.32675e-16
      vertex 8.8 -0.8 9.79685e-17
    endloop
  endfacet
  facet normal 0 -1.22461e-16 -1
    outer loop
      vertex 1.2 -24 2.93906e-15
      vertex 8.8 -0.8 9.79685e-17
      vertex 11.1 -0.2 2.44921e-17
    endloop
  endfacet
  facet normal 0 -1.22461e-16 -1
    outer loop
      vertex 1.2 -24 2.93906e-15
      vertex 11.1 -0.2 2.44921e-17
      vertex 14 -1.83691e-16 0
    endloop
  endfacet
  facet normal 0 -1.22461e-16 -1
    outer loop
      vertex 14 -7.2 8.81717e-16
      vertex 14 -1.83691e-16 0
      vertex 27.5 -1.83691e-16 0
    endloop
  endfacet
  facet normal 0 -1.22461e-16 -1
    outer loop
      vertex 28.4 -0.8 9.79685e-17
      vertex 29.2 -1.83691e-16 0
      vertex 37.2 -1.83691e-16 0
    endloop
  endfacet
  facet normal 0 -1.22461e-16 -1
    outer loop
      vertex 22 -12.8 1.5675e-15
      vertex 34.8 -4.8 5.87811e-16
      vertex 35.6 -6.5 7.95994e-16
    endloop
  endfacet
  facet normal 0 -1.22461e-16 -1
    outer loop
      vertex 29.1 -27.1 3.31868e-15
      vertex 36.4 -28.8 3.52687e-15
      vertex 28.4 -28 3.4289e-15
    endloop
  endfacet
  facet normal 0 -1.22461e-16 -1
    outer loop
      vertex 30 -12.8 1.5675e-15
      vertex 36.4 -8.4 1.02867e-15
      vertex 37 -10.5 1.28584e-15
    endloop
  endfacet
  facet normal 0 -1.22461e-16 -1
    outer loop
      vertex 8.5 -24.9 3.04927e-15
      vertex 1.2 -24 2.93906e-15
      vertex 8.4 -24 2.93906e-15
    endloop
  endfacet
  facet normal 0 -1.22461e-16 -1
    outer loop
      vertex 29.9 -24.9 3.04927e-15
      vertex 37.2 -24 2.93906e-15
      vertex 37 -26.4 3.23296e-15
    endloop
  endfacet
  facet normal 0 -1.22461e-16 -1
    outer loop
      vertex 29.1 -27.1 3.31868e-15
      vertex 37 -26.4 3.23296e-15
      vertex 36.4 -28.8 3.52687e-15
    endloop
  endfacet
  facet normal 0 -1.22461e-16 -1
    outer loop
      vertex 26.8 -28.8 3.52687e-15
      vertex 36.4 -28.8 3.52687e-15
      vertex 35.3 -31 3.79628e-15
    endloop
  endfacet
  facet normal 0 -1.22461e-16 -1
    outer loop
      vertex 14 -7.2 8.81717e-16
      vertex 27.6 -0.7 8.57224e-17
      vertex 28.4 -0.8 9.79685e-17
    endloop
  endfacet
  facet normal 0 -1.22461e-16 -1
    outer loop
      vertex 12.6 -28.7 3.51462e-15
      vertex 29.2 -35.6 4.3596e-15
      vertex 11.6 -28.4 3.47788e-15
    endloop
  endfacet
  facet normal 0 -1.22461e-16 -1
    outer loop
      vertex 14 -28.8 3.52687e-15
      vertex 31.5 -34.3 4.2004e-15
      vertex 29.2 -35.6 4.3596e-15
    endloop
  endfacet
  facet normal 0 -1.22461e-16 -1
    outer loop
      vertex 11.6 -28.4 3.47788e-15
      vertex 29.2 -35.6 4.3596e-15
      vertex 26.8 -36.5 4.46981e-15
    endloop
  endfacet
  facet normal 0 -1.22461e-16 -1
    outer loop
      vertex 1.2 -24 2.93906e-15
      vertex 26.8 -36.5 4.46981e-15
      vertex 24.4 -36.8 4.50655e-15
    endloop
  endfacet
  facet normal 0 -1.22461e-16 -1
    outer loop
      vertex 1.2 -24 2.93906e-15
      vertex 24.4 -36.8 4.50655e-15
      vertex 14 -36.8 4.50655e-15
    endloop
  endfacet
  facet normal 0 -1.22461e-16 -1
    outer loop
      vertex 1.2 -24 2.93906e-15
      vertex 14 -36.8 4.50655e-15
      vertex 11.6 -36.5 4.46981e-15
    endloop
  endfacet
  facet normal 0 -1.22461e-16 -1
    outer loop
      vertex 1.2 -24 2.93906e-15
      vertex 11.6 -36.5 4.46981e-15
      vertex 9.2 -35.6 4.3596e-15
    endloop
  endfacet
  facet normal 0 -1.22461e-16 -1
    outer loop
      vertex 1.2 -24 2.93906e-15
      vertex 9.2 -35.6 4.3596e-15
      vertex 6.9 -34.3 4.2004e-15
    endloop
  endfacet
  facet normal 0 -1.22461e-16 -1
    outer loop
      vertex 1.2 -24 2.93906e-15
      vertex 6.9 -34.3 4.2004e-15
      vertex 4.8 -32.8 4.01671e-15
    endloop
  endfacet
  facet normal 0 -1.22461e-16 -1
    outer loop
      vertex 1.2 -24 2.93906e-15
      vertex 4.8 -32.8 4.01671e-15
      vertex 3.1 -31 3.79628e-15
    endloop
  endfacet
  facet normal 0 -1.22461e-16 -1
    outer loop
      vertex 1.2 -24 2.93906e-15
      vertex 3.1 -31 3.79628e-15
      vertex 2 -28.8 3.52687e-15
    endloop
  endfacet
  facet normal 0 -1.22461e-16 -1
    outer loop
      vertex 1.2 -24 2.93906e-15
      vertex 2 -28.8 3.52687e-15
      vertex 1.4 -26.4 3.23296e-15
    endloop
  endfacet
  facet normal 0 -1.22461e-16 -1
    outer loop
      vertex 8.5 -11.9 1.45728e-15
      vertex 1.2 -24 2.93906e-15
      vertex 8.8 -10.8 1.32257e-15
    endloop
  endfacet
  facet normal 0 -1.22461e-16 -1
    outer loop
      vertex 29.9 -24.9 3.04927e-15
      vertex 37 -26.4 3.23296e-15
      vertex 29.6 -26 3.18398e-15
    endloop
  endfacet
  facet normal 0 -1.22461e-16 -1
    outer loop
      vertex 9.3 -27 3.30644e-15
      vertex 1.2 -24 2.93906e-15
      vertex 8.8 -26 3.18398e-15
    endloop
  endfacet
  facet normal 0 -1.22461e-16 -1
    outer loop
      vertex 11.6 -28.4 3.47788e-15
      vertex 1.2 -24 2.93906e-15
      vertex 10 -27.6 3.37991e-15
    endloop
  endfacet
  facet normal 0 -1.22461e-16 -1
    outer loop
      vertex 26.8 -28.8 3.52687e-15
      vertex 33.6 -32.8 4.01671e-15
      vertex 31.5 -34.3 4.2004e-15
    endloop
  endfacet
  facet normal 0 -1.22461e-16 -1
    outer loop
      vertex 1.2 -24 2.93906e-15
      vertex 9.3 -27 3.30644e-15
      vertex 10 -27.6 3.37991e-15
    endloop
  endfacet
  facet normal 0 -1.22461e-16 -1
    outer loop
      vertex 26.8 -28.8 3.52687e-15
      vertex 31.5 -34.3 4.2004e-15
      vertex 14 -28.8 3.52687e-15
    endloop
  endfacet
  facet normal 0 -1.22461e-16 -1
    outer loop
      vertex 14 -28.8 3.52687e-15
      vertex 29.2 -35.6 4.3596e-15
      vertex 12.6 -28.7 3.51462e-15
    endloop
  endfacet
  facet normal 0 -1.22461e-16 -1
    outer loop
      vertex 1.2 -24 2.93906e-15
      vertex 11.6 -28.4 3.47788e-15
      vertex 26.8 -36.5 4.46981e-15
    endloop
  endfacet
  facet normal 0 -1.22461e-16 -1
    outer loop
      vertex 26.8 -28.8 3.52687e-15
      vertex 35.3 -31 3.79628e-15
      vertex 33.6 -32.8 4.01671e-15
    endloop
  endfacet
  facet normal 0 -1.22461e-16 -1
    outer loop
      vertex 27.6 -28.6 3.50237e-15
      vertex 36.4 -28.8 3.52687e-15
      vertex 26.8 -28.8 3.52687e-15
    endloop
  endfacet
  facet normal 0 -1.22461e-16 -1
    outer loop
      vertex 14 -7.2 8.81717e-16
      vertex 28.4 -0.8 9.79685e-17
      vertex 25.2 -7.2 8.81717e-16
    endloop
  endfacet
  facet normal 0 -1.22461e-16 -1
    outer loop
      vertex 28.4 -28 3.4289e-15
      vertex 36.4 -28.8 3.52687e-15
      vertex 27.6 -28.6 3.50237e-15
    endloop
  endfacet
  facet normal 0 -1.22461e-16 -1
    outer loop
      vertex 29.6 -26 3.18398e-15
      vertex 37 -26.4 3.23296e-15
      vertex 29.1 -27.1 3.31868e-15
    endloop
  endfacet
  facet normal 0 -1.22461e-16 -1
    outer loop
      vertex 8.8 -26 3.18398e-15
      vertex 1.2 -24 2.93906e-15
      vertex 8.5 -24.9 3.04927e-15
    endloop
  endfacet
  facet normal 0 -1.22461e-16 -1
    outer loop
      vertex 30 -24 2.93906e-15
      vertex 37.2 -24 2.93906e-15
      vertex 29.9 -24.9 3.04927e-15
    endloop
  endfacet
  facet normal 0 -1.22461e-16 -1
    outer loop
      vertex 30 -12.8 1.5675e-15
      vertex 37.2 -12.8 1.5675e-15
      vertex 30 -24 2.93906e-15
    endloop
  endfacet
  facet normal 0 -1.22461e-16 -1
    outer loop
      vertex 37.2 -12.8 1.5675e-15
      vertex 37.2 -24 2.93906e-15
      vertex 30 -24 2.93906e-15
    endloop
  endfacet
  facet normal 0 -1.22461e-16 -1
    outer loop
      vertex 28.4 -0.8 9.79685e-17
      vertex 37.2 -1.83691e-16 0
      vertex 25.2 -7.2 8.81717e-16
    endloop
  endfacet
  facet normal 0 -1.22461e-16 -1
    outer loop
      vertex 12.6 -7.3 8.93963e-16
      vertex 14 -1.83691e-16 0
      vertex 14 -7.2 8.81717e-16
    endloop
  endfacet
  facet normal 0 -1.22461e-16 -1
    outer loop
      vertex 10 -8.8 1.07765e-15
      vertex 14 -1.83691e-16 0
      vertex 10.8 -8.1 9.91931e-16
    endloop
  endfacet
  facet normal 0 -1.22461e-16 -1
    outer loop
      vertex 11.6 -7.6 9.30701e-16
      vertex 14 -1.83691e-16 0
      vertex 12.6 -7.3 8.93963e-16
    endloop
  endfacet
  facet normal 0 -1.22461e-16 -1
    outer loop
      vertex 10.8 -8.1 9.91931e-16
      vertex 14 -1.83691e-16 0
      vertex 11.6 -7.6 9.30701e-16
    endloop
  endfacet
  facet normal 0 -1.22461e-16 -1
    outer loop
      vertex 9.3 -9.7 1.18787e-15
      vertex 14 -1.83691e-16 0
      vertex 10 -8.8 1.07765e-15
    endloop
  endfacet
  facet normal 0 -1.22461e-16 -1
    outer loop
      vertex 1.2 -24 2.93906e-15
      vertex 14 -1.83691e-16 0
      vertex 9.3 -9.7 1.18787e-15
    endloop
  endfacet
  facet normal 0 -1.22461e-16 -1
    outer loop
      vertex 1.2 -24 2.93906e-15
      vertex 9.3 -9.7 1.18787e-15
      vertex 8.8 -10.8 1.32257e-15
    endloop
  endfacet
  facet normal 0 -1.22461e-16 -1
    outer loop
      vertex 1.2 -24 2.93906e-15
      vertex 8.5 -11.9 1.45728e-15
      vertex 8.4 -12.8 1.5675e-15
    endloop
  endfacet
  facet normal 0 -1.22461e-16 -1
    outer loop
      vertex 8.4 -24 2.93906e-15
      vertex 1.2 -24 2.93906e-15
      vertex 8.4 -12.8 1.5675e-15
    endloop
  endfacet
  facet normal 0 -1.22461e-16 -1
    outer loop
      vertex 25.2 -7.2 8.81717e-16
      vertex 37.2 -1.83691e-16 0
      vertex 34.8 -4.8 5.87811e-16
    endloop
  endfacet
  facet normal 0 -1.22461e-16 -1
    outer loop
      vertex 14 -7.2 8.81717e-16
      vertex 27.5 -1.83691e-16 0
      vertex 27.5 -0.6625 8.11302e-17
    endloop
  endfacet
  facet normal 0 -1.22461e-16 -1
    outer loop
      vertex 14 -7.2 8.81717e-16
      vertex 27.5 -0.6625 8.11302e-17
      vertex 27.6 -0.7 8.57224e-17
    endloop
  endfacet
  facet normal 0 -1.22461e-16 -1
    outer loop
      vertex 22 -12.8 1.5675e-15
      vertex 35.6 -6.5 7.95994e-16
      vertex 36.4 -8.4 1.02867e-15
    endloop
  endfacet
  facet normal 0 -1.22461e-16 -1
    outer loop
      vertex 22 -12.8 1.5675e-15
      vertex 36.4 -8.4 1.02867e-15
      vertex 30 -12.8 1.5675e-15
    endloop
  endfacet
  facet normal 0 -1.22461e-16 -1
    outer loop
      vertex 30 -12.8 1.5675e-15
      vertex 37 -10.5 1.28584e-15
      vertex 37.2 -12.8 1.5675e-15
    endloop
  endfacet
  facet normal 0 -1.22461e-16 -1
    outer loop
      vertex 25.2 -7.2 8.81717e-16
      vertex 34.8 -4.8 5.87811e-16
      vertex 22 -12.8 1.5675e-15
    endloop
  endfacet
  facet normal 1 0 0
    outer loop
      vertex 27.5 -1.83691e-16 0
      vertex 27.5 1.83691e-16 3
      vertex 27.5 -0.6625 3
    endloop
  endfacet
  facet normal 1 0 0
    outer loop
      vertex 27.5 -0.6625 8.11302e-17
      vertex 27.5 -1.83691e-16 0
      vertex 27.5 -0.6625 3
    endloop
  endfacet
  facet normal 0.968493 3.04977e-17 0.249041
    outer loop
      vertex 26.7286 -0.378571 6
      vertex 18.5 4.46981e-15 38
      vertex 18.5 -6 38
    endloop
  endfacet
  facet normal 0.968493 3.04977e-17 0.249041
    outer loop
      vertex 27.5 1.83691e-16 3
      vertex 18.5 4.46981e-15 38
      vertex 26.7286 -0.378571 6
    endloop
  endfacet
  facet normal 0.968493 3.04977e-17 0.249041
    outer loop
      vertex 26.8 -0.4 5.72222
      vertex 27.5 -0.6625 3
      vertex 27.5 1.83691e-16 3
    endloop
  endfacet
  facet normal 0.968493 3.04977e-17 0.249041
    outer loop
      vertex 27.5 1.83691e-16 3
      vertex 26.7286 -0.378571 6
      vertex 26.8 -0.4 5.72222
    endloop
  endfacet
  facet normal 0.968493 3.04977e-17 0.249041
    outer loop
      vertex 26.7286 -6 6
      vertex 26.7286 -0.378571 6
      vertex 18.5 -6 38
    endloop
  endfacet
  facet normal 0 1.22461e-16 1
    outer loop
      vertex 12.3958 4.46981e-15 38
      vertex 12.3958 -2 38
      vertex 15.0723 -2 38
    endloop
  endfacet
  facet normal 0 1.22461e-16 1
    outer loop
      vertex 18.5 4.46981e-15 38
      vertex 12.3958 4.46981e-15 38
      vertex 15.0723 -2 38
    endloop
  endfacet
  facet normal 0 1.22461e-16 1
    outer loop
      vertex 15.0723 -6 38
      vertex 18.5 -6 38
      vertex 15.0723 -2 38
    endloop
  endfacet
  facet normal 0 1.22461e-16 1
    outer loop
      vertex 18.5 -6 38
      vertex 18.5 4.46981e-15 38
      vertex 15.0723 -2 38
    endloop
  endfacet
  facet normal -0.743145 6.66347e-17 -0.669131
    outer loop
      vertex 13.7533 4.28519e-15 36.4923
      vertex 13.7533 -2 36.4923
      vertex 12.3958 4.46981e-15 38
    endloop
  endfacet
  facet normal -0.743145 6.66347e-17 -0.669131
    outer loop
      vertex 12.3958 4.46981e-15 38
      vertex 13.7533 -2 36.4923
      vertex 12.3958 -2 38
    endloop
  endfacet
  facet normal -0.866025 4.9792e-17 -0.5
    outer loop
      vertex 15.5303 -2 33.4145
      vertex 13.7533 -2 36.4923
      vertex 15.5303 3.90827e-15 33.4145
    endloop
  endfacet
  facet normal -0.866025 4.9792e-17 -0.5
    outer loop
      vertex 15.5303 3.90827e-15 33.4145
      vertex 13.7533 -2 36.4923
      vertex 13.7533 4.28519e-15 36.4923
    endloop
  endfacet
  facet normal -0.951057 3.07731e-17 -0.309017
    outer loop
      vertex 16.6285 -2 30.0345
      vertex 15.5303 -2 33.4145
      vertex 16.6285 3.49435e-15 30.0345
    endloop
  endfacet
  facet normal -0.951057 3.07731e-17 -0.309017
    outer loop
      vertex 16.6285 3.49435e-15 30.0345
      vertex 15.5303 -2 33.4145
      vertex 15.5303 3.90827e-15 33.4145
    endloop
  endfacet
  facet normal -0.994522 1.04094e-17 -0.104529
    outer loop
      vertex 17 -2 26.5
      vertex 16.6285 -2 30.0345
      vertex 17 3.06152e-15 26.5
    endloop
  endfacet
  facet normal -0.994522 1.04094e-17 -0.104529
    outer loop
      vertex 17 3.06152e-15 26.5
      vertex 16.6285 -2 30.0345
      vertex 16.6285 3.49435e-15 30.0345
    endloop
  endfacet
  facet normal -0.994522 -1.04094e-17 0.104529
    outer loop
      vertex 17 -2 26.5
      vertex 17 3.06152e-15 26.5
      vertex 16.6285 -2 22.9655
    endloop
  endfacet
  facet normal -0.994522 -1.04094e-17 0.104529
    outer loop
      vertex 16.6285 -2 22.9655
      vertex 17 3.06152e-15 26.5
      vertex 16.6285 2.62868e-15 22.9655
    endloop
  endfacet
  facet normal -0.951057 -3.07731e-17 0.309017
    outer loop
      vertex 16.6285 -2 22.9655
      vertex 16.6285 2.62868e-15 22.9655
      vertex 15.5303 -2 19.5855
    endloop
  endfacet
  facet normal -0.951057 -3.07731e-17 0.309017
    outer loop
      vertex 15.5303 -2 19.5855
      vertex 16.6285 2.62868e-15 22.9655
      vertex 15.5303 2.21476e-15 19.5855
    endloop
  endfacet
  facet normal -0.866025 -4.9792e-17 0.5
    outer loop
      vertex 15.5303 -2 19.5855
      vertex 15.5303 2.21476e-15 19.5855
      vertex 13.7533 -2 16.5077
    endloop
  endfacet
  facet normal -0.866025 -4.9792e-17 0.5
    outer loop
      vertex 13.7533 -2 16.5077
      vertex 15.5303 2.21476e-15 19.5855
      vertex 13.7533 1.83785e-15 16.5077
    endloop
  endfacet
  facet normal -0.743145 -6.66347e-17 0.669131
    outer loop
      vertex 13.7533 -2 16.5077
      vertex 13.7533 1.83785e-15 16.5077
      vertex 11.3752 -2 13.8665
    endloop
  endfacet
  facet normal -0.743145 -6.66347e-17 0.669131
    outer loop
      vertex 11.3752 -2 13.8665
      vertex 13.7533 1.83785e-15 16.5077
      vertex 11.3752 1.51441e-15 13.8665
    endloop
  endfacet
  facet normal -0.587785 -8.05651e-17 0.809017
    outer loop
      vertex 8.5 -2 11.7776
      vertex 11.3752 -2 13.8665
      vertex 11.3752 1.51441e-15 13.8665
    endloop
  endfacet
  facet normal -0.587785 -8.05651e-17 0.809017
    outer loop
      vertex 8.5 1.2586e-15 11.7776
      vertex 8.5 -2 11.7776
      vertex 11.3752 1.51441e-15 13.8665
    endloop
  endfacet
  facet normal -0.406737 -9.09745e-17 0.913545
    outer loop
      vertex 5.25329 -2 10.332
      vertex 8.5 -2 11.7776
      vertex 8.5 1.2586e-15 11.7776
    endloop
  endfacet
  facet normal -0.406737 -9.09745e-17 0.913545
    outer loop
      vertex 5.25329 1.08158e-15 10.332
      vertex 5.25329 -2 10.332
      vertex 8.5 1.2586e-15 11.7776
    endloop
  endfacet
  facet normal -0.207912 -9.74078e-17 0.978148
    outer loop
      vertex 1.77698 -2 9.59313
      vertex 5.25329 -2 10.332
      vertex 5.25329 1.08158e-15 10.332
    endloop
  endfacet
  facet normal -0.207912 -9.74078e-17 0.978148
    outer loop
      vertex 1.77698 9.9109e-16 9.59313
      vertex 1.77698 -2 9.59313
      vertex 5.25329 1.08158e-15 10.332
    endloop
  endfacet
  facet normal 0 -9.9584e-17 1
    outer loop
      vertex -1.77698 -2 9.59313
      vertex 1.77698 -2 9.59313
      vertex 1.77698 9.9109e-16 9.59313
    endloop
  endfacet
  facet normal 0 -9.9584e-17 1
    outer loop
      vertex -1.77698 9.9109e-16 9.59313
      vertex -1.77698 -2 9.59313
      vertex 1.77698 9.9109e-16 9.59313
    endloop
  endfacet
  facet normal 0.207912 -9.74078e-17 0.978148
    outer loop
      vertex -5.25329 -2 10.332
      vertex -1.77698 -2 9.59313
      vertex -1.77698 9.9109e-16 9.59313
    endloop
  endfacet
  facet normal 0.207912 -9.74078e-17 0.978148
    outer loop
      vertex -5.25329 1.08158e-15 10.332
      vertex -5.25329 -2 10.332
      vertex -1.77698 9.9109e-16 9.59313
    endloop
  endfacet
  facet normal 0.406737 -9.09745e-17 0.913545
    outer loop
      vertex -8.5 -2 11.7776
      vertex -5.25329 -2 10.332
      vertex -5.25329 1.08158e-15 10.332
    endloop
  endfacet
  facet normal 0.406737 -9.09745e-17 0.913545
    outer loop
      vertex -8.5 1.2586e-15 11.7776
      vertex -8.5 -2 11.7776
      vertex -5.25329 1.08158e-15 10.332
    endloop
  endfacet
  facet normal 0.587785 -8.05651e-17 0.809017
    outer loop
      vertex -11.3752 -2 13.8665
      vertex -8.5 -2 11.7776
      vertex -8.5 1.2586e-15 11.7776
    endloop
  endfacet
  facet normal 0.587785 -8.05651e-17 0.809017
    outer loop
      vertex -11.3752 1.51441e-15 13.8665
      vertex -11.3752 -2 13.8665
      vertex -8.5 1.2586e-15 11.7776
    endloop
  endfacet
  facet normal 0.743145 -6.66347e-17 0.669131
    outer loop
      vertex -13.7533 -2 16.5077
      vertex -11.3752 -2 13.8665
      vertex -11.3752 1.51441e-15 13.8665
    endloop
  endfacet
  facet normal 0.743145 -6.66347e-17 0.669131
    outer loop
      vertex -13.7533 1.83785e-15 16.5077
      vertex -13.7533 -2 16.5077
      vertex -11.3752 1.51441e-15 13.8665
    endloop
  endfacet
  facet normal 0.866025 -4.9792e-17 0.5
    outer loop
      vertex -15.5303 -2 19.5855
      vertex -13.7533 -2 16.5077
      vertex -13.7533 1.83785e-15 16.5077
    endloop
  endfacet
  facet normal 0.866025 -4.9792e-17 0.5
    outer loop
      vertex -15.5303 2.21476e-15 19.5855
      vertex -15.5303 -2 19.5855
      vertex -13.7533 1.83785e-15 16.5077
    endloop
  endfacet
  facet normal 0.951057 -3.07731e-17 0.309017
    outer loop
      vertex -16.6285 -2 22.9655
      vertex -15.5303 -2 19.5855
      vertex -15.5303 2.21476e-15 19.5855
    endloop
  endfacet
  facet normal 0.951057 -3.07731e-17 0.309017
    outer loop
      vertex -16.6285 2.62868e-15 22.9655
      vertex -16.6285 -2 22.9655
      vertex -15.5303 2.21476e-15 19.5855
    endloop
  endfacet
  facet normal 0.994522 -1.04094e-17 0.104529
    outer loop
      vertex -17 -2 26.5
      vertex -16.6285 -2 22.9655
      vertex -16.6285 2.62868e-15 22.9655
    endloop
  endfacet
  facet normal 0.994522 -1.04094e-17 0.104529
    outer loop
      vertex -17 3.06152e-15 26.5
      vertex -17 -2 26.5
      vertex -16.6285 2.62868e-15 22.9655
    endloop
  endfacet
  facet normal 0.994522 1.04094e-17 -0.104529
    outer loop
      vertex -16.6285 3.49435e-15 30.0345
      vertex -16.6285 -2 30.0345
      vertex -17 -2 26.5
    endloop
  endfacet
  facet normal 0.994522 1.04094e-17 -0.104529
    outer loop
      vertex -17 3.06152e-15 26.5
      vertex -16.6285 3.49435e-15 30.0345
      vertex -17 -2 26.5
    endloop
  endfacet
  facet normal 0.951057 3.07731e-17 -0.309017
    outer loop
      vertex -15.5303 3.90827e-15 33.4145
      vertex -15.5303 -2 33.4145
      vertex -16.6285 -2 30.0345
    endloop
  endfacet
  facet normal 0.951057 3.07731e-17 -0.309017
    outer loop
      vertex -16.6285 3.49435e-15 30.0345
      vertex -15.5303 3.90827e-15 33.4145
      vertex -16.6285 -2 30.0345
    endloop
  endfacet
  facet normal 0.866025 4.9792e-17 -0.5
    outer loop
      vertex -13.7533 4.28519e-15 36.4923
      vertex -13.7533 -2 36.4923
      vertex -15.5303 -2 33.4145
    endloop
  endfacet
  facet normal 0.866025 4.9792e-17 -0.5
    outer loop
      vertex -15.5303 3.90827e-15 33.4145
      vertex -13.7533 4.28519e-15 36.4923
      vertex -15.5303 -2 33.4145
    endloop
  endfacet
  facet normal 0.743145 6.66347e-17 -0.669131
    outer loop
      vertex -12.3958 4.46981e-15 38
      vertex -12.3958 -2 38
      vertex -13.7533 -2 36.4923
    endloop
  endfacet
  facet normal 0.743145 6.66347e-17 -0.669131
    outer loop
      vertex -13.7533 4.28519e-15 36.4923
      vertex -12.3958 4.46981e-15 38
      vertex -13.7533 -2 36.4923
    endloop
  endfacet
  facet normal 0 1.22461e-16 1
    outer loop
      vertex -15.0723 -2 38
      vertex -18.5 4.46981e-15 38
      vertex -18.5 -6 38
    endloop
  endfacet
  facet normal 0 1.22461e-16 1
    outer loop
      vertex -15.0723 -2 38
      vertex -12.3958 -2 38
      vertex -12.3958 4.46981e-15 38
    endloop
  endfacet
  facet normal 0 1.22461e-16 1
    outer loop
      vertex -12.3958 4.46981e-15 38
      vertex -18.5 4.46981e-15 38
      vertex -15.0723 -2 38
    endloop
  endfacet
  facet normal 0 1.22461e-16 1
    outer loop
      vertex -15.0723 -6 38
      vertex -15.0723 -2 38
      vertex -18.5 -6 38
    endloop
  endfacet
  facet normal 0 -1 1.22461e-16
    outer loop
      vertex -18.5 -6 38
      vertex -27.5 -6 3
      vertex -27.5 -6 7.34764e-16
    endloop
  endfacet
  facet normal 0 -1 1.22461e-16
    outer loop
      vertex -20 -6 6
      vertex -19 -6 26.5
      vertex -18.5 -6 38
    endloop
  endfacet
  facet normal 0 -1 1.22461e-16
    outer loop
      vertex -22.5 -6 5
      vertex -18.5 -6 38
      vertex -27.5 -6 7.34764e-16
    endloop
  endfacet
  facet normal 0 -1 1.22461e-16
    outer loop
      vertex -22.5 -6 7.34764e-16
      vertex -22.5 -6 5
      vertex -27.5 -6 7.34764e-16
    endloop
  endfacet
  facet normal 0 -1 1.22461e-16
    outer loop
      vertex -20 -6 6
      vertex -18.5848 -6 22.5497
      vertex -19 -6 26.5
    endloop
  endfacet
  facet normal 0 -1 1.22461e-16
    outer loop
      vertex -18.5848 -6 30.4503
      vertex -17.3574 -6 34.228
      vertex -18.5 -6 38
    endloop
  endfacet
  facet normal 0 -1 1.22461e-16
    outer loop
      vertex 2.95652 -6 5
      vertex -12 -6 6
      vertex -12 -6 5
    endloop
  endfacet
  facet normal 0 -1 1.22461e-16
    outer loop
      vertex -12.7135 -6 12.3802
      vertex -15.3713 -6 15.3321
      vertex -12 -6 6
    endloop
  endfacet
  facet normal 0 -1 1.22461e-16
    outer loop
      vertex 9.5 -6 10.0455
      vertex 5.87132 -6 8.42993
      vertex 2.95652 -6 6
    endloop
  endfacet
  facet normal 0 -1 1.22461e-16
    outer loop
      vertex 15.3713 -6 15.3321
      vertex 12.7135 -6 12.3802
      vertex 26.7286 -6 6
    endloop
  endfacet
  facet normal 0 -1 1.22461e-16
    outer loop
      vertex 1.98604 -6 7.60408
      vertex -1.98604 -6 7.60408
      vertex 2.95652 -6 5
    endloop
  endfacet
  facet normal 0 -1 1.22461e-16
    outer loop
      vertex 18.5 -6 38
      vertex 15.0723 -6 38
      vertex 15.3713 -6 37.6679
    endloop
  endfacet
  facet normal 0 -1 1.22461e-16
    outer loop
      vertex 18.5 -6 38
      vertex 17.3574 -6 34.228
      vertex 26.7286 -6 6
    endloop
  endfacet
  facet normal 0 -1 1.22461e-16
    outer loop
      vertex 18.5 -6 38
      vertex 15.3713 -6 37.6679
      vertex 17.3574 -6 34.228
    endloop
  endfacet
  facet normal 0 -1 1.22461e-16
    outer loop
      vertex 17.3574 -6 34.228
      vertex 18.5848 -6 30.4503
      vertex 26.7286 -6 6
    endloop
  endfacet
  facet normal 0 -1 1.22461e-16
    outer loop
      vertex 19 -6 26.5
      vertex 18.5848 -6 22.5497
      vertex 26.7286 -6 6
    endloop
  endfacet
  facet normal 0 -1 1.22461e-16
    outer loop
      vertex 18.5848 -6 22.5497
      vertex 17.3574 -6 18.772
      vertex 26.7286 -6 6
    endloop
  endfacet
  facet normal 0 -1 1.22461e-16
    outer loop
      vertex 17.3574 -6 18.772
      vertex 15.3713 -6 15.3321
      vertex 26.7286 -6 6
    endloop
  endfacet
  facet normal 0 -1 1.22461e-16
    outer loop
      vertex 1.98604 -6 7.60408
      vertex 2.95652 -6 5
      vertex 2.95652 -6 6
    endloop
  endfacet
  facet normal 0 -1 1.22461e-16
    outer loop
      vertex 26.7286 -6 6
      vertex 9.5 -6 10.0455
      vertex 2.95652 -6 6
    endloop
  endfacet
  facet normal 0 -1 1.22461e-16
    outer loop
      vertex 26.7286 -6 6
      vertex 12.7135 -6 12.3802
      vertex 9.5 -6 10.0455
    endloop
  endfacet
  facet normal 0 -1 1.22461e-16
    outer loop
      vertex 5.87132 -6 8.42993
      vertex 1.98604 -6 7.60408
      vertex 2.95652 -6 6
    endloop
  endfacet
  facet normal 0 -1 1.22461e-16
    outer loop
      vertex 2.95652 -6 5
      vertex -1.98604 -6 7.60408
      vertex -12 -6 6
    endloop
  endfacet
  facet normal 0 -1 1.22461e-16
    outer loop
      vertex -1.98604 -6 7.60408
      vertex -5.87132 -6 8.42993
      vertex -12 -6 6
    endloop
  endfacet
  facet normal 0 -1 1.22461e-16
    outer loop
      vertex -5.87132 -6 8.42993
      vertex -9.5 -6 10.0455
      vertex -12 -6 6
    endloop
  endfacet
  facet normal 0 -1 1.22461e-16
    outer loop
      vertex -9.5 -6 10.0455
      vertex -12.7135 -6 12.3802
      vertex -12 -6 6
    endloop
  endfacet
  facet normal 0 -1 1.22461e-16
    outer loop
      vertex 18.5848 -6 30.4503
      vertex 19 -6 26.5
      vertex 26.7286 -6 6
    endloop
  endfacet
  facet normal 0 -1 1.22461e-16
    outer loop
      vertex -18.5848 -6 30.4503
      vertex -18.5 -6 38
      vertex -19 -6 26.5
    endloop
  endfacet
  facet normal 0 -1 1.22461e-16
    outer loop
      vertex -15.0723 -6 38
      vertex -18.5 -6 38
      vertex -15.3713 -6 37.6679
    endloop
  endfacet
  facet normal 0 -1 1.22461e-16
    outer loop
      vertex -22.5 -6 5
      vertex -20 -6 6
      vertex -18.5 -6 38
    endloop
  endfacet
  facet normal 0 -1 1.22461e-16
    outer loop
      vertex -22.5 -6 5
      vertex -20 -6 5
      vertex -20 -6 6
    endloop
  endfacet
  facet normal 0 -1 1.22461e-16
    outer loop
      vertex -20 -6 6
      vertex -17.3574 -6 18.772
      vertex -18.5848 -6 22.5497
    endloop
  endfacet
  facet normal 0 -1 1.22461e-16
    outer loop
      vertex -20 -6 6
      vertex -15.3713 -6 15.3321
      vertex -17.3574 -6 18.772
    endloop
  endfacet
  facet normal 0 -1 1.22461e-16
    outer loop
      vertex -20 -6 6
      vertex -12 -6 6
      vertex -15.3713 -6 15.3321
    endloop
  endfacet
  facet normal 0 -1 1.22461e-16
    outer loop
      vertex -17.3574 -6 34.228
      vertex -15.3713 -6 37.6679
      vertex -18.5 -6 38
    endloop
  endfacet
  facet normal 0 1.22461e-16 1
    outer loop
      vertex -12 -6 6
      vertex -20 -6 6
      vertex -20 -36.8 6
    endloop
  endfacet
  facet normal 0 1.22461e-16 1
    outer loop
      vertex -12 -36.8 6
      vertex -12 -6 6
      vertex -20 -36.8 6
    endloop
  endfacet
  facet normal 0 -1 1.22461e-16
    outer loop
      vertex -12 -36.8 6
      vertex -20 -36.8 6
      vertex -20 -36.8 4.50655e-15
    endloop
  endfacet
  facet normal 0 -1 1.22461e-16
    outer loop
      vertex -12 -36.8 4.50655e-15
      vertex -12 -36.8 6
      vertex -20 -36.8 4.50655e-15
    endloop
  endfacet
  facet normal -0.902134 0.431455 -5.28363e-17
    outer loop
      vertex 2.95652 -6 5
      vertex 3.1 -5.7 5
      vertex 3.1 -5.7 6.98026e-16
    endloop
  endfacet
  facet normal -0.902134 0.431455 -5.28363e-17
    outer loop
      vertex 2.95652 -6 5
      vertex 3.1 -5.7 6.98026e-16
      vertex 2 -8 9.79685e-16
    endloop
  endfacet
  facet normal -0.902134 0.431455 -5.28363e-17
    outer loop
      vertex 2.95652 -6 5
      vertex 2 -8 9.79685e-16
      vertex 2.95652 -6 6
    endloop
  endfacet
  facet normal -0.902134 0.431455 -5.28363e-17
    outer loop
      vertex 2 -8 9.79685e-16
      vertex 2 -8 6
      vertex 2.95652 -6 6
    endloop
  endfacet
  facet normal -0.777245 0.629198 -7.7052e-17
    outer loop
      vertex 4.8 -3.6 4.40858e-16
      vertex 3.1 -5.7 6.98026e-16
      vertex 4.8 -3.6 5
    endloop
  endfacet
  facet normal -0.777245 0.629198 -7.7052e-17
    outer loop
      vertex 4.8 -3.6 5
      vertex 3.1 -5.7 6.98026e-16
      vertex 3.1 -5.7 5
    endloop
  endfacet
  facet normal -0.647648 0.761939 -9.33076e-17
    outer loop
      vertex 6.8 -1.9 2.32675e-16
      vertex 4.8 -3.6 4.40858e-16
      vertex 6.8 -1.9 5
    endloop
  endfacet
  facet normal -0.647648 0.761939 -9.33076e-17
    outer loop
      vertex 6.8 -1.9 5
      vertex 4.8 -3.6 4.40858e-16
      vertex 4.8 -3.6 5
    endloop
  endfacet
  facet normal -0.481919 0.876216 -1.07302e-16
    outer loop
      vertex 8.8 -0.8 9.79685e-17
      vertex 6.8 -1.9 2.32675e-16
      vertex 8.8 -0.8 5
    endloop
  endfacet
  facet normal -0.481919 0.876216 -1.07302e-16
    outer loop
      vertex 8.8 -0.8 5
      vertex 6.8 -1.9 2.32675e-16
      vertex 6.8 -1.9 5
    endloop
  endfacet
  facet normal -0.252422 0.967617 -1.18495e-16
    outer loop
      vertex 11.1 -0.2 2.44921e-17
      vertex 8.8 -0.8 9.79685e-17
      vertex 11.1 -0.2 5
    endloop
  endfacet
  facet normal -0.252422 0.967617 -1.18495e-16
    outer loop
      vertex 11.1 -0.2 5
      vertex 8.8 -0.8 9.79685e-17
      vertex 8.8 -0.8 5
    endloop
  endfacet
  facet normal -1 0 0
    outer loop
      vertex 1.2 -12.8 6
      vertex 1.2 -12.8 1.5675e-15
      vertex 1.2 -24 6
    endloop
  endfacet
  facet normal -1 0 0
    outer loop
      vertex 1.2 -24 6
      vertex 1.2 -12.8 1.5675e-15
      vertex 1.2 -24 2.93906e-15
    endloop
  endfacet
  facet normal -0.996546 -0.0830455 1.01698e-17
    outer loop
      vertex 1.4 -26.4 3.23296e-15
      vertex 1.4 -26.4 6
      vertex 1.2 -24 2.93906e-15
    endloop
  endfacet
  facet normal -0.996546 -0.0830455 1.01698e-17
    outer loop
      vertex 1.2 -24 2.93906e-15
      vertex 1.4 -26.4 6
      vertex 1.2 -24 6
    endloop
  endfacet
  facet normal -0.970143 -0.242536 2.97011e-17
    outer loop
      vertex 2 -28.8 3.52687e-15
      vertex 2 -28.8 6
      vertex 1.4 -26.4 3.23296e-15
    endloop
  endfacet
  facet normal -0.970143 -0.242536 2.97011e-17
    outer loop
      vertex 1.4 -26.4 3.23296e-15
      vertex 2 -28.8 6
      vertex 1.4 -26.4 6
    endloop
  endfacet
  facet normal -0.894427 -0.447214 5.47661e-17
    outer loop
      vertex 3.1 -31 3.79628e-15
      vertex 3.1 -31 6
      vertex 2 -28.8 3.52687e-15
    endloop
  endfacet
  facet normal -0.894427 -0.447214 5.47661e-17
    outer loop
      vertex 2 -28.8 3.52687e-15
      vertex 3.1 -31 6
      vertex 2 -28.8 6
    endloop
  endfacet
  facet normal -0.727013 -0.686624 8.40844e-17
    outer loop
      vertex 4.8 -32.8 4.01671e-15
      vertex 4.8 -32.8 6
      vertex 3.1 -31 3.79628e-15
    endloop
  endfacet
  facet normal -0.727013 -0.686624 8.40844e-17
    outer loop
      vertex 3.1 -31 3.79628e-15
      vertex 4.8 -32.8 6
      vertex 3.1 -31 6
    endloop
  endfacet
  facet normal -0.581238 -0.813733 9.96503e-17
    outer loop
      vertex 4.8 -32.8 4.01671e-15
      vertex 6.9 -34.3 4.2004e-15
      vertex 6.9 -34.3 6
    endloop
  endfacet
  facet normal -0.581238 -0.813733 9.96503e-17
    outer loop
      vertex 4.8 -32.8 6
      vertex 4.8 -32.8 4.01671e-15
      vertex 6.9 -34.3 6
    endloop
  endfacet
  facet normal -0.492057 -0.870563 1.0661e-16
    outer loop
      vertex 6.9 -34.3 4.2004e-15
      vertex 9.2 -35.6 4.3596e-15
      vertex 9.2 -35.6 6
    endloop
  endfacet
  facet normal -0.492057 -0.870563 1.0661e-16
    outer loop
      vertex 6.9 -34.3 6
      vertex 6.9 -34.3 4.2004e-15
      vertex 9.2 -35.6 6
    endloop
  endfacet
  facet normal -0.351123 -0.936329 1.14663e-16
    outer loop
      vertex 9.2 -35.6 4.3596e-15
      vertex 11.6 -36.5 4.46981e-15
      vertex 11.6 -36.5 6
    endloop
  endfacet
  facet normal -0.351123 -0.936329 1.14663e-16
    outer loop
      vertex 9.2 -35.6 6
      vertex 9.2 -35.6 4.3596e-15
      vertex 11.6 -36.5 6
    endloop
  endfacet
  facet normal -0.124035 -0.992278 1.21515e-16
    outer loop
      vertex 11.6 -36.5 4.46981e-15
      vertex 14 -36.8 4.50655e-15
      vertex 14 -36.8 6
    endloop
  endfacet
  facet normal -0.124035 -0.992278 1.21515e-16
    outer loop
      vertex 11.6 -36.5 6
      vertex 11.6 -36.5 4.46981e-15
      vertex 14 -36.8 6
    endloop
  endfacet
  facet normal 0 -1 1.22461e-16
    outer loop
      vertex 24.4 -36.8 6
      vertex 14 -36.8 6
      vertex 14 -36.8 4.50655e-15
    endloop
  endfacet
  facet normal 0 -1 1.22461e-16
    outer loop
      vertex 24.4 -36.8 4.50655e-15
      vertex 24.4 -36.8 6
      vertex 14 -36.8 4.50655e-15
    endloop
  endfacet
  facet normal 0.124035 -0.992278 1.21515e-16
    outer loop
      vertex 24.4 -36.8 4.50655e-15
      vertex 26.8 -36.5 4.46981e-15
      vertex 26.8 -36.5 6
    endloop
  endfacet
  facet normal 0.124035 -0.992278 1.21515e-16
    outer loop
      vertex 24.4 -36.8 6
      vertex 24.4 -36.8 4.50655e-15
      vertex 26.8 -36.5 6
    endloop
  endfacet
  facet normal 0.351123 -0.936329 1.14663e-16
    outer loop
      vertex 26.8 -36.5 4.46981e-15
      vertex 29.2 -35.6 4.3596e-15
      vertex 29.2 -35.6 6
    endloop
  endfacet
  facet normal 0.351123 -0.936329 1.14663e-16
    outer loop
      vertex 26.8 -36.5 6
      vertex 26.8 -36.5 4.46981e-15
      vertex 29.2 -35.6 6
    endloop
  endfacet
  facet normal 0.492057 -0.870563 1.0661e-16
    outer loop
      vertex 29.2 -35.6 4.3596e-15
      vertex 31.5 -34.3 4.2004e-15
      vertex 31.5 -34.3 6
    endloop
  endfacet
  facet normal 0.492057 -0.870563 1.0661e-16
    outer loop
      vertex 29.2 -35.6 6
      vertex 29.2 -35.6 4.3596e-15
      vertex 31.5 -34.3 6
    endloop
  endfacet
  facet normal 0.581238 -0.813733 9.96503e-17
    outer loop
      vertex 31.5 -34.3 4.2004e-15
      vertex 33.6 -32.8 4.01671e-15
      vertex 33.6 -32.8 6
    endloop
  endfacet
  facet normal 0.581238 -0.813733 9.96503e-17
    outer loop
      vertex 31.5 -34.3 6
      vertex 31.5 -34.3 4.2004e-15
      vertex 33.6 -32.8 6
    endloop
  endfacet
  facet normal 0.727013 -0.686624 8.40844e-17
    outer loop
      vertex 33.6 -32.8 4.01671e-15
      vertex 35.3 -31 3.79628e-15
      vertex 35.3 -31 6
    endloop
  endfacet
  facet normal 0.727013 -0.686624 8.40844e-17
    outer loop
      vertex 33.6 -32.8 6
      vertex 33.6 -32.8 4.01671e-15
      vertex 35.3 -31 6
    endloop
  endfacet
  facet normal 0.894427 -0.447214 5.47661e-17
    outer loop
      vertex 35.3 -31 3.79628e-15
      vertex 36.4 -28.8 3.52687e-15
      vertex 36.4 -28.8 6
    endloop
  endfacet
  facet normal 0.894427 -0.447214 5.47661e-17
    outer loop
      vertex 35.3 -31 6
      vertex 35.3 -31 3.79628e-15
      vertex 36.4 -28.8 6
    endloop
  endfacet
  facet normal 0.970143 -0.242536 2.97011e-17
    outer loop
      vertex 36.4 -28.8 3.52687e-15
      vertex 37 -26.4 3.23296e-15
      vertex 37 -26.4 6
    endloop
  endfacet
  facet normal 0.970143 -0.242536 2.97011e-17
    outer loop
      vertex 36.4 -28.8 6
      vertex 36.4 -28.8 3.52687e-15
      vertex 37 -26.4 6
    endloop
  endfacet
  facet normal 0.996546 -0.0830455 1.01698e-17
    outer loop
      vertex 37 -26.4 3.23296e-15
      vertex 37.2 -24 2.93906e-15
      vertex 37.2 -24 6
    endloop
  endfacet
  facet normal 0.996546 -0.0830455 1.01698e-17
    outer loop
      vertex 37 -26.4 6
      vertex 37 -26.4 3.23296e-15
      vertex 37.2 -24 6
    endloop
  endfacet
  facet normal 1 0 0
    outer loop
      vertex 37.2 -12.8 1.5675e-15
      vertex 37.2 -12.8 6
      vertex 37.2 -24 6
    endloop
  endfacet
  facet normal 1 0 0
    outer loop
      vertex 37.2 -24 2.93906e-15
      vertex 37.2 -12.8 1.5675e-15
      vertex 37.2 -24 6
    endloop
  endfacet
  facet normal 0.996241 0.0866296 -1.06087e-17
    outer loop
      vertex 37.2 -12.8 6
      vertex 37.2 -12.8 1.5675e-15
      vertex 37 -10.5 1.28584e-15
    endloop
  endfacet
  facet normal 0.996241 0.0866296 -1.06087e-17
    outer loop
      vertex 37 -10.5 6
      vertex 37.2 -12.8 6
      vertex 37 -10.5 1.28584e-15
    endloop
  endfacet
  facet normal 0.961524 0.274721 -3.36425e-17
    outer loop
      vertex 37 -10.5 6
      vertex 37 -10.5 1.28584e-15
      vertex 36.4 -8.4 1.02867e-15
    endloop
  endfacet
  facet normal 0.961524 0.274721 -3.36425e-17
    outer loop
      vertex 36.4 -8.4 6
      vertex 37 -10.5 6
      vertex 36.4 -8.4 1.02867e-15
    endloop
  endfacet
  facet normal 0.921635 0.388057 -4.75217e-17
    outer loop
      vertex 36.4 -8.4 6
      vertex 36.4 -8.4 1.02867e-15
      vertex 35.6 -6.5 7.95994e-16
    endloop
  endfacet
  facet normal 0.921635 0.388057 -4.75217e-17
    outer loop
      vertex 35.6 -6.5 6
      vertex 36.4 -8.4 6
      vertex 35.6 -6.5 7.95994e-16
    endloop
  endfacet
  facet normal 0.904819 0.425797 -5.21434e-17
    outer loop
      vertex 35.6 -6.5 6
      vertex 35.6 -6.5 7.95994e-16
      vertex 34.8 -4.8 5.87811e-16
    endloop
  endfacet
  facet normal 0.904819 0.425797 -5.21434e-17
    outer loop
      vertex 34.8 -4.8 6
      vertex 35.6 -6.5 6
      vertex 34.8 -4.8 5.87811e-16
    endloop
  endfacet
  facet normal 0.894427 -0.447214 5.47661e-17
    outer loop
      vertex 37.2 5.51073e-16 6
      vertex 34.8 -4.8 6
      vertex 34.8 -4.8 5.87811e-16
    endloop
  endfacet
  facet normal 0.894427 -0.447214 5.47661e-17
    outer loop
      vertex 37.2 -1.83691e-16 0
      vertex 37.2 5.51073e-16 6
      vertex 34.8 -4.8 5.87811e-16
    endloop
  endfacet
  facet normal 0 1 -1.22461e-16
    outer loop
      vertex 29.2 5.51073e-16 6
      vertex 37.2 5.51073e-16 6
      vertex 29.2 -1.83691e-16 0
    endloop
  endfacet
  facet normal 0 1 -1.22461e-16
    outer loop
      vertex 29.2 -1.83691e-16 0
      vertex 37.2 5.51073e-16 6
      vertex 37.2 -1.83691e-16 0
    endloop
  endfacet
  facet normal -0.707107 0.707107 -8.65927e-17
    outer loop
      vertex 28.4 -0.8 6
      vertex 29.2 5.51073e-16 6
      vertex 28.4 -0.8 9.79685e-17
    endloop
  endfacet
  facet normal -0.707107 0.707107 -8.65927e-17
    outer loop
      vertex 28.4 -0.8 9.79685e-17
      vertex 29.2 5.51073e-16 6
      vertex 29.2 -1.83691e-16 0
    endloop
  endfacet
  facet normal 0.124035 0.992278 -1.21515e-16
    outer loop
      vertex 27.6 -0.7 6
      vertex 28.4 -0.8 6
      vertex 27.6 -0.7 8.57224e-17
    endloop
  endfacet
  facet normal 0.124035 0.992278 -1.21515e-16
    outer loop
      vertex 27.6 -0.7 8.57224e-17
      vertex 28.4 -0.8 6
      vertex 28.4 -0.8 9.79685e-17
    endloop
  endfacet
  facet normal 0.351123 0.936329 -1.14663e-16
    outer loop
      vertex 26.8 -0.4 6
      vertex 27.6 -0.7 6
      vertex 26.8 -0.4 5.72222
    endloop
  endfacet
  facet normal 0.351123 0.936329 -1.14663e-16
    outer loop
      vertex 27.5 -0.6625 3
      vertex 27.6 -0.7 6
      vertex 27.6 -0.7 8.57224e-17
    endloop
  endfacet
  facet normal 0.351123 0.936329 -1.14663e-16
    outer loop
      vertex 26.8 -0.4 5.72222
      vertex 27.6 -0.7 6
      vertex 27.5 -0.6625 3
    endloop
  endfacet
  facet normal 0.351123 0.936329 -1.14663e-16
    outer loop
      vertex 27.5 -0.6625 3
      vertex 27.6 -0.7 8.57224e-17
      vertex 27.5 -0.6625 8.11302e-17
    endloop
  endfacet
  facet normal -0.970143 0.242536 -2.97011e-17
    outer loop
      vertex 2 -8 9.79685e-16
      vertex 1.4 -10.4 1.27359e-15
      vertex 2 -8 6
    endloop
  endfacet
  facet normal -0.970143 0.242536 -2.97011e-17
    outer loop
      vertex 2 -8 6
      vertex 1.4 -10.4 1.27359e-15
      vertex 1.4 -10.4 6
    endloop
  endfacet
  facet normal -0.996546 0.0830455 -1.01698e-17
    outer loop
      vertex 1.4 -10.4 1.27359e-15
      vertex 1.2 -12.8 1.5675e-15
      vertex 1.4 -10.4 6
    endloop
  endfacet
  facet normal -0.996546 0.0830455 -1.01698e-17
    outer loop
      vertex 1.4 -10.4 6
      vertex 1.2 -12.8 1.5675e-15
      vertex 1.2 -12.8 6
    endloop
  endfacet
  facet normal 0.993884 -0.110432 1.35235e-17
    outer loop
      vertex 8.5 -11.9 6
      vertex 8.4 -12.8 6
      vertex 8.4 -12.8 1.5675e-15
    endloop
  endfacet
  facet normal 0.993884 -0.110432 1.35235e-17
    outer loop
      vertex 8.5 -11.9 1.45728e-15
      vertex 8.5 -11.9 6
      vertex 8.4 -12.8 1.5675e-15
    endloop
  endfacet
  facet normal 1 0 0
    outer loop
      vertex 8.4 -24 6
      vertex 8.4 -24 2.93906e-15
      vertex 8.4 -12.8 1.5675e-15
    endloop
  endfacet
  facet normal 1 0 0
    outer loop
      vertex 8.4 -12.8 6
      vertex 8.4 -24 6
      vertex 8.4 -12.8 1.5675e-15
    endloop
  endfacet
  facet normal 0.964764 -0.263117 3.22215e-17
    outer loop
      vertex 8.8 -10.8 6
      vertex 8.5 -11.9 6
      vertex 8.5 -11.9 1.45728e-15
    endloop
  endfacet
  facet normal 0.964764 -0.263117 3.22215e-17
    outer loop
      vertex 8.8 -10.8 1.32257e-15
      vertex 8.8 -10.8 6
      vertex 8.5 -11.9 1.45728e-15
    endloop
  endfacet
  facet normal 0.910366 -0.413803 5.06746e-17
    outer loop
      vertex 9.3 -9.7 6
      vertex 8.8 -10.8 6
      vertex 8.8 -10.8 1.32257e-15
    endloop
  endfacet
  facet normal 0.910366 -0.413803 5.06746e-17
    outer loop
      vertex 9.3 -9.7 1.18787e-15
      vertex 9.3 -9.7 6
      vertex 8.8 -10.8 1.32257e-15
    endloop
  endfacet
  facet normal 0.789352 -0.613941 7.51836e-17
    outer loop
      vertex 10 -8.8 6
      vertex 9.3 -9.7 6
      vertex 9.3 -9.7 1.18787e-15
    endloop
  endfacet
  facet normal 0.789352 -0.613941 7.51836e-17
    outer loop
      vertex 10 -8.8 1.07765e-15
      vertex 10 -8.8 6
      vertex 9.3 -9.7 1.18787e-15
    endloop
  endfacet
  facet normal 0.658505 -0.752577 9.2161e-17
    outer loop
      vertex 10.8 -8.1 6
      vertex 10 -8.8 6
      vertex 10 -8.8 1.07765e-15
    endloop
  endfacet
  facet normal 0.658505 -0.752577 9.2161e-17
    outer loop
      vertex 10.8 -8.1 9.91931e-16
      vertex 10.8 -8.1 6
      vertex 10 -8.8 1.07765e-15
    endloop
  endfacet
  facet normal 0.529999 -0.847998 1.03846e-16
    outer loop
      vertex 11.6 -7.6 6
      vertex 10.8 -8.1 6
      vertex 10.8 -8.1 9.91931e-16
    endloop
  endfacet
  facet normal 0.529999 -0.847998 1.03846e-16
    outer loop
      vertex 11.6 -7.6 9.30701e-16
      vertex 11.6 -7.6 6
      vertex 10.8 -8.1 9.91931e-16
    endloop
  endfacet
  facet normal 0.287348 -0.957826 1.17296e-16
    outer loop
      vertex 12.6 -7.3 6
      vertex 11.6 -7.6 6
      vertex 11.6 -7.6 9.30701e-16
    endloop
  endfacet
  facet normal 0.287348 -0.957826 1.17296e-16
    outer loop
      vertex 12.6 -7.3 8.93963e-16
      vertex 12.6 -7.3 6
      vertex 11.6 -7.6 9.30701e-16
    endloop
  endfacet
  facet normal 0.071247 -0.997459 1.22149e-16
    outer loop
      vertex 14 -7.2 6
      vertex 12.6 -7.3 6
      vertex 12.6 -7.3 8.93963e-16
    endloop
  endfacet
  facet normal 0.071247 -0.997459 1.22149e-16
    outer loop
      vertex 14 -7.2 8.81717e-16
      vertex 14 -7.2 6
      vertex 12.6 -7.3 8.93963e-16
    endloop
  endfacet
  facet normal 0 -1 1.22461e-16
    outer loop
      vertex 14 -7.2 8.81717e-16
      vertex 25.2 -7.2 8.81717e-16
      vertex 25.2 -7.2 6
    endloop
  endfacet
  facet normal 0 -1 1.22461e-16
    outer loop
      vertex 14 -7.2 6
      vertex 14 -7.2 8.81717e-16
      vertex 25.2 -7.2 6
    endloop
  endfacet
  facet normal -0.868243 0.496139 -6.07575e-17
    outer loop
      vertex 25.2 -7.2 8.81717e-16
      vertex 22 -12.8 1.5675e-15
      vertex 25.2 -7.2 6
    endloop
  endfacet
  facet normal -0.868243 0.496139 -6.07575e-17
    outer loop
      vertex 25.2 -7.2 6
      vertex 22 -12.8 1.5675e-15
      vertex 22 -12.8 6
    endloop
  endfacet
  facet normal 0 -1 1.22461e-16
    outer loop
      vertex 22 -12.8 1.5675e-15
      vertex 30 -12.8 1.5675e-15
      vertex 30 -12.8 6
    endloop
  endfacet
  facet normal 0 -1 1.22461e-16
    outer loop
      vertex 22 -12.8 6
      vertex 22 -12.8 1.5675e-15
      vertex 30 -12.8 6
    endloop
  endfacet
  facet normal -1 0 0
    outer loop
      vertex 30 -24 2.93906e-15
      vertex 30 -24 6
      vertex 30 -12.8 1.5675e-15
    endloop
  endfacet
  facet normal -1 0 0
    outer loop
      vertex 30 -12.8 1.5675e-15
      vertex 30 -24 6
      vertex 30 -12.8 6
    endloop
  endfacet
  facet normal -0.993884 0.110432 -1.35235e-17
    outer loop
      vertex 29.9 -24.9 6
      vertex 30 -24 6
      vertex 29.9 -24.9 3.04927e-15
    endloop
  endfacet
  facet normal -0.993884 0.110432 -1.35235e-17
    outer loop
      vertex 29.9 -24.9 3.04927e-15
      vertex 30 -24 6
      vertex 30 -24 2.93906e-15
    endloop
  endfacet
  facet normal -0.964764 0.263117 -3.22215e-17
    outer loop
      vertex 29.6 -26 6
      vertex 29.9 -24.9 6
      vertex 29.6 -26 3.18398e-15
    endloop
  endfacet
  facet normal -0.964764 0.263117 -3.22215e-17
    outer loop
      vertex 29.6 -26 3.18398e-15
      vertex 29.9 -24.9 6
      vertex 29.9 -24.9 3.04927e-15
    endloop
  endfacet
  facet normal -0.910366 0.413803 -5.06746e-17
    outer loop
      vertex 29.1 -27.1 6
      vertex 29.6 -26 6
      vertex 29.1 -27.1 3.31868e-15
    endloop
  endfacet
  facet normal -0.910366 0.413803 -5.06746e-17
    outer loop
      vertex 29.1 -27.1 3.31868e-15
      vertex 29.6 -26 6
      vertex 29.6 -26 3.18398e-15
    endloop
  endfacet
  facet normal -0.789352 0.613941 -7.51836e-17
    outer loop
      vertex 28.4 -28 6
      vertex 29.1 -27.1 6
      vertex 28.4 -28 3.4289e-15
    endloop
  endfacet
  facet normal -0.789352 0.613941 -7.51836e-17
    outer loop
      vertex 28.4 -28 3.4289e-15
      vertex 29.1 -27.1 6
      vertex 29.1 -27.1 3.31868e-15
    endloop
  endfacet
  facet normal -0.6 0.8 -9.79685e-17
    outer loop
      vertex 27.6 -28.6 6
      vertex 28.4 -28 6
      vertex 27.6 -28.6 3.50237e-15
    endloop
  endfacet
  facet normal -0.6 0.8 -9.79685e-17
    outer loop
      vertex 27.6 -28.6 3.50237e-15
      vertex 28.4 -28 6
      vertex 28.4 -28 3.4289e-15
    endloop
  endfacet
  facet normal -0.242536 0.970143 -1.18804e-16
    outer loop
      vertex 26.8 -28.8 6
      vertex 27.6 -28.6 6
      vertex 26.8 -28.8 3.52687e-15
    endloop
  endfacet
  facet normal -0.242536 0.970143 -1.18804e-16
    outer loop
      vertex 26.8 -28.8 3.52687e-15
      vertex 27.6 -28.6 6
      vertex 27.6 -28.6 3.50237e-15
    endloop
  endfacet
  facet normal 0 1 -1.22461e-16
    outer loop
      vertex 26.8 -28.8 3.52687e-15
      vertex 14 -28.8 3.52687e-15
      vertex 26.8 -28.8 6
    endloop
  endfacet
  facet normal 0 1 -1.22461e-16
    outer loop
      vertex 26.8 -28.8 6
      vertex 14 -28.8 3.52687e-15
      vertex 14 -28.8 6
    endloop
  endfacet
  facet normal 0.071247 0.997459 -1.22149e-16
    outer loop
      vertex 12.6 -28.7 6
      vertex 14 -28.8 6
      vertex 12.6 -28.7 3.51462e-15
    endloop
  endfacet
  facet normal 0.071247 0.997459 -1.22149e-16
    outer loop
      vertex 12.6 -28.7 3.51462e-15
      vertex 14 -28.8 6
      vertex 14 -28.8 3.52687e-15
    endloop
  endfacet
  facet normal 0.287348 0.957826 -1.17296e-16
    outer loop
      vertex 11.6 -28.4 6
      vertex 12.6 -28.7 6
      vertex 11.6 -28.4 3.47788e-15
    endloop
  endfacet
  facet normal 0.287348 0.957826 -1.17296e-16
    outer loop
      vertex 11.6 -28.4 3.47788e-15
      vertex 12.6 -28.7 6
      vertex 12.6 -28.7 3.51462e-15
    endloop
  endfacet
  facet normal 0.447214 0.894427 -1.09532e-16
    outer loop
      vertex 11.6 -28.4 3.47788e-15
      vertex 10 -27.6 3.37991e-15
      vertex 11.6 -28.4 6
    endloop
  endfacet
  facet normal 0.447214 0.894427 -1.09532e-16
    outer loop
      vertex 11.6 -28.4 6
      vertex 10 -27.6 3.37991e-15
      vertex 10 -27.6 6
    endloop
  endfacet
  facet normal 0.650791 0.759257 -9.2979e-17
    outer loop
      vertex 9.3 -27 6
      vertex 10 -27.6 6
      vertex 9.3 -27 3.30644e-15
    endloop
  endfacet
  facet normal 0.650791 0.759257 -9.2979e-17
    outer loop
      vertex 9.3 -27 3.30644e-15
      vertex 10 -27.6 6
      vertex 10 -27.6 3.37991e-15
    endloop
  endfacet
  facet normal 0.894427 0.447214 -5.47661e-17
    outer loop
      vertex 8.8 -26 3.18398e-15
      vertex 8.8 -26 6
      vertex 9.3 -27 6
    endloop
  endfacet
  facet normal 0.894427 0.447214 -5.47661e-17
    outer loop
      vertex 9.3 -27 3.30644e-15
      vertex 8.8 -26 3.18398e-15
      vertex 9.3 -27 6
    endloop
  endfacet
  facet normal 0.964764 0.263117 -3.22215e-17
    outer loop
      vertex 8.5 -24.9 3.04927e-15
      vertex 8.5 -24.9 6
      vertex 8.8 -26 6
    endloop
  endfacet
  facet normal 0.964764 0.263117 -3.22215e-17
    outer loop
      vertex 8.8 -26 3.18398e-15
      vertex 8.5 -24.9 3.04927e-15
      vertex 8.8 -26 6
    endloop
  endfacet
  facet normal 0.993884 0.110432 -1.35235e-17
    outer loop
      vertex 8.4 -24 2.93906e-15
      vertex 8.4 -24 6
      vertex 8.5 -24.9 6
    endloop
  endfacet
  facet normal 0.993884 0.110432 -1.35235e-17
    outer loop
      vertex 8.5 -24.9 3.04927e-15
      vertex 8.4 -24 2.93906e-15
      vertex 8.5 -24.9 6
    endloop
  endfacet
  facet normal 0.287348 0.957826 -1.17296e-16
    outer loop
      vertex 26.8 -0.4 6
      vertex 26.8 -0.4 5.72222
      vertex 26.7286 -0.378571 6
    endloop
  endfacet
  facet normal 0 1.22461e-16 1
    outer loop
      vertex 1.4 -10.4 6
      vertex 1.2 -12.8 6
      vertex 1.2 -24 6
    endloop
  endfacet
  facet normal 0 1.22461e-16 1
    outer loop
      vertex 2 -28.8 6
      vertex 1.4 -10.4 6
      vertex 1.4 -26.4 6
    endloop
  endfacet
  facet normal 0 1.22461e-16 1
    outer loop
      vertex 1.4 -26.4 6
      vertex 1.4 -10.4 6
      vertex 1.2 -24 6
    endloop
  endfacet
  facet normal 0 1.22461e-16 1
    outer loop
      vertex 3.1 -31 6
      vertex 1.4 -10.4 6
      vertex 2 -28.8 6
    endloop
  endfacet
  facet normal 0 1.22461e-16 1
    outer loop
      vertex 4.8 -32.8 6
      vertex 1.4 -10.4 6
      vertex 3.1 -31 6
    endloop
  endfacet
  facet normal 0 1.22461e-16 1
    outer loop
      vertex 6.9 -34.3 6
      vertex 1.4 -10.4 6
      vertex 4.8 -32.8 6
    endloop
  endfacet
  facet normal 0 1.22461e-16 1
    outer loop
      vertex 9.2 -35.6 6
      vertex 1.4 -10.4 6
      vertex 6.9 -34.3 6
    endloop
  endfacet
  facet normal 0 1.22461e-16 1
    outer loop
      vertex 11.6 -36.5 6
      vertex 1.4 -10.4 6
      vertex 9.2 -35.6 6
    endloop
  endfacet
  facet normal 0 1.22461e-16 1
    outer loop
      vertex 8.8 -26 6
      vertex 1.4 -10.4 6
      vertex 11.6 -36.5 6
    endloop
  endfacet
  facet normal 0 1.22461e-16 1
    outer loop
      vertex 8.8 -26 6
      vertex 8.5 -24.9 6
      vertex 1.4 -10.4 6
    endloop
  endfacet
  facet normal 0 1.22461e-16 1
    outer loop
      vertex 25.2 -7.2 6
      vertex 30 -12.8 6
      vertex 37.2 -12.8 6
    endloop
  endfacet
  facet normal 0 1.22461e-16 1
    outer loop
      vertex 9.3 -9.7 6
      vertex 10 -8.8 6
      vertex 1.4 -10.4 6
    endloop
  endfacet
  facet normal 0 1.22461e-16 1
    outer loop
      vertex 8.5 -11.9 6
      vertex 8.8 -10.8 6
      vertex 1.4 -10.4 6
    endloop
  endfacet
  facet normal 0 1.22461e-16 1
    outer loop
      vertex 30 -12.8 6
      vertex 37 -26.4 6
      vertex 37.2 -24 6
    endloop
  endfacet
  facet normal 0 1.22461e-16 1
    outer loop
      vertex 26.8 -28.8 6
      vertex 14 -28.8 6
      vertex 24.4 -36.8 6
    endloop
  endfacet
  facet normal 0 1.22461e-16 1
    outer loop
      vertex 26.7286 -6 6
      vertex 25.2 -7.2 6
      vertex 34.8 -4.8 6
    endloop
  endfacet
  facet normal 0 1.22461e-16 1
    outer loop
      vertex 29.1 -27.1 6
      vertex 28.4 -28 6
      vertex 35.3 -31 6
    endloop
  endfacet
  facet normal 0 1.22461e-16 1
    outer loop
      vertex 29.2 5.51073e-16 6
      vertex 28.4 -0.8 6
      vertex 37.2 5.51073e-16 6
    endloop
  endfacet
  facet normal 0 1.22461e-16 1
    outer loop
      vertex 27.6 -28.6 6
      vertex 26.8 -28.8 6
      vertex 33.6 -32.8 6
    endloop
  endfacet
  facet normal 0 1.22461e-16 1
    outer loop
      vertex 29.9 -24.9 6
      vertex 29.6 -26 6
      vertex 36.4 -28.8 6
    endloop
  endfacet
  facet normal 0 1.22461e-16 1
    outer loop
      vertex 37.2 5.51073e-16 6
      vertex 26.7286 -6 6
      vertex 34.8 -4.8 6
    endloop
  endfacet
  facet normal 0 1.22461e-16 1
    outer loop
      vertex 2 -8 6
      vertex 1.4 -10.4 6
      vertex 2.95652 -6 6
    endloop
  endfacet
  facet normal 0 1.22461e-16 1
    outer loop
      vertex 37.2 -12.8 6
      vertex 30 -12.8 6
      vertex 37.2 -24 6
    endloop
  endfacet
  facet normal 0 1.22461e-16 1
    outer loop
      vertex 8.5 -11.9 6
      vertex 1.4 -10.4 6
      vertex 8.4 -12.8 6
    endloop
  endfacet
  facet normal 0 1.22461e-16 1
    outer loop
      vertex 26.8 -28.8 6
      vertex 24.4 -36.8 6
      vertex 26.8 -36.5 6
    endloop
  endfacet
  facet normal 0 1.22461e-16 1
    outer loop
      vertex 30 -12.8 6
      vertex 30 -24 6
      vertex 37 -26.4 6
    endloop
  endfacet
  facet normal 0 1.22461e-16 1
    outer loop
      vertex 25.2 -7.2 6
      vertex 36.4 -8.4 6
      vertex 35.6 -6.5 6
    endloop
  endfacet
  facet normal 0 1.22461e-16 1
    outer loop
      vertex 10.8 -8.1 6
      vertex 1.4 -10.4 6
      vertex 10 -8.8 6
    endloop
  endfacet
  facet normal 0 1.22461e-16 1
    outer loop
      vertex 11.6 -7.6 6
      vertex 1.4 -10.4 6
      vertex 10.8 -8.1 6
    endloop
  endfacet
  facet normal 0 1.22461e-16 1
    outer loop
      vertex 12.6 -7.3 6
      vertex 1.4 -10.4 6
      vertex 11.6 -7.6 6
    endloop
  endfacet
  facet normal 0 1.22461e-16 1
    outer loop
      vertex 12.6 -7.3 6
      vertex 2.95652 -6 6
      vertex 1.4 -10.4 6
    endloop
  endfacet
  facet normal 0 1.22461e-16 1
    outer loop
      vertex 26.7286 -6 6
      vertex 2.95652 -6 6
      vertex 12.6 -7.3 6
    endloop
  endfacet
  facet normal 0 1.22461e-16 1
    outer loop
      vertex 34.8 -4.8 6
      vertex 25.2 -7.2 6
      vertex 35.6 -6.5 6
    endloop
  endfacet
  facet normal 0 1.22461e-16 1
    outer loop
      vertex 14 -7.2 6
      vertex 25.2 -7.2 6
      vertex 26.7286 -6 6
    endloop
  endfacet
  facet normal 0 1.22461e-16 1
    outer loop
      vertex 26.8 -28.8 6
      vertex 29.2 -35.6 6
      vertex 31.5 -34.3 6
    endloop
  endfacet
  facet normal 0 1.22461e-16 1
    outer loop
      vertex 26.8 -28.8 6
      vertex 26.8 -36.5 6
      vertex 29.2 -35.6 6
    endloop
  endfacet
  facet normal 0 1.22461e-16 1
    outer loop
      vertex 37 -26.4 6
      vertex 30 -24 6
      vertex 36.4 -28.8 6
    endloop
  endfacet
  facet normal 0 1.22461e-16 1
    outer loop
      vertex 8.8 -10.8 6
      vertex 9.3 -9.7 6
      vertex 1.4 -10.4 6
    endloop
  endfacet
  facet normal 0 1.22461e-16 1
    outer loop
      vertex 30 -24 6
      vertex 29.9 -24.9 6
      vertex 36.4 -28.8 6
    endloop
  endfacet
  facet normal 0 1.22461e-16 1
    outer loop
      vertex 36.4 -28.8 6
      vertex 29.6 -26 6
      vertex 35.3 -31 6
    endloop
  endfacet
  facet normal 0 1.22461e-16 1
    outer loop
      vertex 25.2 -7.2 6
      vertex 37 -10.5 6
      vertex 36.4 -8.4 6
    endloop
  endfacet
  facet normal 0 1.22461e-16 1
    outer loop
      vertex 29.6 -26 6
      vertex 29.1 -27.1 6
      vertex 35.3 -31 6
    endloop
  endfacet
  facet normal 0 1.22461e-16 1
    outer loop
      vertex 25.2 -7.2 6
      vertex 37.2 -12.8 6
      vertex 37 -10.5 6
    endloop
  endfacet
  facet normal 0 1.22461e-16 1
    outer loop
      vertex 35.3 -31 6
      vertex 28.4 -28 6
      vertex 33.6 -32.8 6
    endloop
  endfacet
  facet normal 0 1.22461e-16 1
    outer loop
      vertex 25.2 -7.2 6
      vertex 22 -12.8 6
      vertex 30 -12.8 6
    endloop
  endfacet
  facet normal 0 1.22461e-16 1
    outer loop
      vertex 28.4 -28 6
      vertex 27.6 -28.6 6
      vertex 33.6 -32.8 6
    endloop
  endfacet
  facet normal 0 1.22461e-16 1
    outer loop
      vertex 33.6 -32.8 6
      vertex 26.8 -28.8 6
      vertex 31.5 -34.3 6
    endloop
  endfacet
  facet normal 0 1.22461e-16 1
    outer loop
      vertex 24.4 -36.8 6
      vertex 14 -28.8 6
      vertex 14 -36.8 6
    endloop
  endfacet
  facet normal 0 1.22461e-16 1
    outer loop
      vertex 14 -28.8 6
      vertex 12.6 -28.7 6
      vertex 14 -36.8 6
    endloop
  endfacet
  facet normal 0 1.22461e-16 1
    outer loop
      vertex 12.6 -28.7 6
      vertex 11.6 -28.4 6
      vertex 14 -36.8 6
    endloop
  endfacet
  facet normal 0 1.22461e-16 1
    outer loop
      vertex 11.6 -28.4 6
      vertex 10 -27.6 6
      vertex 14 -36.8 6
    endloop
  endfacet
  facet normal 0 1.22461e-16 1
    outer loop
      vertex 14 -36.8 6
      vertex 9.3 -27 6
      vertex 11.6 -36.5 6
    endloop
  endfacet
  facet normal 0 1.22461e-16 1
    outer loop
      vertex 9.3 -27 6
      vertex 8.8 -26 6
      vertex 11.6 -36.5 6
    endloop
  endfacet
  facet normal 0 1.22461e-16 1
    outer loop
      vertex 8.4 -24 6
      vertex 1.4 -10.4 6
      vertex 8.5 -24.9 6
    endloop
  endfacet
  facet normal 0 1.22461e-16 1
    outer loop
      vertex 26.7286 -6 6
      vertex 12.6 -7.3 6
      vertex 14 -7.2 6
    endloop
  endfacet
  facet normal 0 1.22461e-16 1
    outer loop
      vertex 26.7286 -0.378571 6
      vertex 27.6 -0.7 6
      vertex 26.8 -0.4 6
    endloop
  endfacet
  facet normal 0 1.22461e-16 1
    outer loop
      vertex 28.4 -0.8 6
      vertex 26.7286 -6 6
      vertex 37.2 5.51073e-16 6
    endloop
  endfacet
  facet normal 0 1.22461e-16 1
    outer loop
      vertex 27.6 -0.7 6
      vertex 26.7286 -6 6
      vertex 28.4 -0.8 6
    endloop
  endfacet
  facet normal 0 1.22461e-16 1
    outer loop
      vertex 26.7286 -0.378571 6
      vertex 26.7286 -6 6
      vertex 27.6 -0.7 6
    endloop
  endfacet
  facet normal 0 1.22461e-16 1
    outer loop
      vertex 10 -27.6 6
      vertex 9.3 -27 6
      vertex 14 -36.8 6
    endloop
  endfacet
  facet normal 0 1.22461e-16 1
    outer loop
      vertex 8.4 -24 6
      vertex 8.4 -12.8 6
      vertex 1.4 -10.4 6
    endloop
  endfacet
  facet normal -0.743145 6.66347e-17 -0.669131
    outer loop
      vertex 15.3713 -2 37.6679
      vertex 15.3713 -6 37.6679
      vertex 15.0723 -2 38
    endloop
  endfacet
  facet normal -0.743145 6.66347e-17 -0.669131
    outer loop
      vertex 15.0723 -2 38
      vertex 15.3713 -6 37.6679
      vertex 15.0723 -6 38
    endloop
  endfacet
  facet normal 0 -1 -9.9584e-17
    outer loop
      vertex -18.5848 -2 22.5497
      vertex -17.3574 -2 18.772
      vertex -15.3713 -2 15.3321
    endloop
  endfacet
  facet normal 0 -1 -9.9584e-17
    outer loop
      vertex -9.5 -2 10.0455
      vertex -18.5848 -2 22.5497
      vertex -12.7135 -2 12.3802
    endloop
  endfacet
  facet normal 0 -1 -9.9584e-17
    outer loop
      vertex -12.7135 -2 12.3802
      vertex -18.5848 -2 22.5497
      vertex -15.3713 -2 15.3321
    endloop
  endfacet
  facet normal 0 -1 -9.9584e-17
    outer loop
      vertex -13.7533 -2 16.5077
      vertex -18.5848 -2 22.5497
      vertex -9.5 -2 10.0455
    endloop
  endfacet
  facet normal 0 -1 -9.9584e-17
    outer loop
      vertex -8.5 -2 11.7776
      vertex -11.3752 -2 13.8665
      vertex -5.87132 -2 8.42993
    endloop
  endfacet
  facet normal 0 -1 -9.9584e-17
    outer loop
      vertex -1.77698 -2 9.59313
      vertex -5.25329 -2 10.332
      vertex -1.98604 -2 7.60408
    endloop
  endfacet
  facet normal 0 -1 -9.9584e-17
    outer loop
      vertex 1.77698 -2 9.59313
      vertex -1.77698 -2 9.59313
      vertex 1.98604 -2 7.60408
    endloop
  endfacet
  facet normal 0 -1 -9.9584e-17
    outer loop
      vertex 5.25329 -2 10.332
      vertex 1.77698 -2 9.59313
      vertex 5.87132 -2 8.42993
    endloop
  endfacet
  facet normal 0 -1 -9.9584e-17
    outer loop
      vertex 8.5 -2 11.7776
      vertex 5.25329 -2 10.332
      vertex 9.5 -2 10.0455
    endloop
  endfacet
  facet normal 0 -1 -9.9584e-17
    outer loop
      vertex 11.3752 -2 13.8665
      vertex 8.5 -2 11.7776
      vertex 12.7135 -2 12.3802
    endloop
  endfacet
  facet normal 0 -1 -9.9584e-17
    outer loop
      vertex 13.7533 -2 16.5077
      vertex 11.3752 -2 13.8665
      vertex 15.3713 -2 15.3321
    endloop
  endfacet
  facet normal 0 -1 -9.9584e-17
    outer loop
      vertex 15.5303 -2 19.5855
      vertex 13.7533 -2 16.5077
      vertex 17.3574 -2 18.772
    endloop
  endfacet
  facet normal 0 -1 -9.9584e-17
    outer loop
      vertex 16.6285 -2 22.9655
      vertex 15.5303 -2 19.5855
      vertex 18.5848 -2 22.5497
    endloop
  endfacet
  facet normal 0 -1 -9.9584e-17
    outer loop
      vertex -13.7533 -2 16.5077
      vertex -15.5303 -2 19.5855
      vertex -18.5848 -2 22.5497
    endloop
  endfacet
  facet normal 0 -1 -9.9584e-17
    outer loop
      vertex 13.7533 -2 36.4923
      vertex 15.5303 -2 33.4145
      vertex 17.3574 -2 34.228
    endloop
  endfacet
  facet normal 0 -1 -9.9584e-17
    outer loop
      vertex 16.6285 -2 30.0345
      vertex 17 -2 26.5
      vertex 18.5848 -2 30.4503
    endloop
  endfacet
  facet normal 0 -1 -9.9584e-17
    outer loop
      vertex 15.3713 -2 37.6679
      vertex 13.7533 -2 36.4923
      vertex 17.3574 -2 34.228
    endloop
  endfacet
  facet normal 0 -1 -9.9584e-17
    outer loop
      vertex 17.3574 -2 34.228
      vertex 15.5303 -2 33.4145
      vertex 18.5848 -2 30.4503
    endloop
  endfacet
  facet normal 0 -1 -9.9584e-17
    outer loop
      vertex 15.5303 -2 33.4145
      vertex 16.6285 -2 30.0345
      vertex 18.5848 -2 30.4503
    endloop
  endfacet
  facet normal 0 -1 -9.9584e-17
    outer loop
      vertex 18.5848 -2 30.4503
      vertex 17 -2 26.5
      vertex 19 -2 26.5
    endloop
  endfacet
  facet normal 0 -1 -9.9584e-17
    outer loop
      vertex 19 -2 26.5
      vertex 16.6285 -2 22.9655
      vertex 18.5848 -2 22.5497
    endloop
  endfacet
  facet normal 0 -1 -9.9584e-17
    outer loop
      vertex 18.5848 -2 22.5497
      vertex 15.5303 -2 19.5855
      vertex 17.3574 -2 18.772
    endloop
  endfacet
  facet normal 0 -1 -9.9584e-17
    outer loop
      vertex 17.3574 -2 18.772
      vertex 13.7533 -2 16.5077
      vertex 15.3713 -2 15.3321
    endloop
  endfacet
  facet normal 0 -1 -9.9584e-17
    outer loop
      vertex -16.6285 -2 22.9655
      vertex -17 -2 26.5
      vertex -18.5848 -2 22.5497
    endloop
  endfacet
  facet normal 0 -1 -9.9584e-17
    outer loop
      vertex 15.3713 -2 15.3321
      vertex 11.3752 -2 13.8665
      vertex 12.7135 -2 12.3802
    endloop
  endfacet
  facet normal 0 -1 -9.9584e-17
    outer loop
      vertex 12.7135 -2 12.3802
      vertex 8.5 -2 11.7776
      vertex 9.5 -2 10.0455
    endloop
  endfacet
  facet normal 0 -1 -9.9584e-17
    outer loop
      vertex 9.5 -2 10.0455
      vertex 5.25329 -2 10.332
      vertex 5.87132 -2 8.42993
    endloop
  endfacet
  facet normal 0 -1 -9.9584e-17
    outer loop
      vertex 5.87132 -2 8.42993
      vertex 1.77698 -2 9.59313
      vertex 1.98604 -2 7.60408
    endloop
  endfacet
  facet normal 0 -1 -9.9584e-17
    outer loop
      vertex 1.98604 -2 7.60408
      vertex -1.77698 -2 9.59313
      vertex -1.98604 -2 7.60408
    endloop
  endfacet
  facet normal 0 -1 -9.9584e-17
    outer loop
      vertex -1.98604 -2 7.60408
      vertex -5.25329 -2 10.332
      vertex -5.87132 -2 8.42993
    endloop
  endfacet
  facet normal 0 -1 -9.9584e-17
    outer loop
      vertex -5.25329 -2 10.332
      vertex -8.5 -2 11.7776
      vertex -5.87132 -2 8.42993
    endloop
  endfacet
  facet normal 0 -1 -9.9584e-17
    outer loop
      vertex -5.87132 -2 8.42993
      vertex -11.3752 -2 13.8665
      vertex -9.5 -2 10.0455
    endloop
  endfacet
  facet normal 0 -1 -9.9584e-17
    outer loop
      vertex -11.3752 -2 13.8665
      vertex -13.7533 -2 16.5077
      vertex -9.5 -2 10.0455
    endloop
  endfacet
  facet normal 0 -1 -9.9584e-17
    outer loop
      vertex 17 -2 26.5
      vertex 16.6285 -2 22.9655
      vertex 19 -2 26.5
    endloop
  endfacet
  facet normal 0 -1 -9.9584e-17
    outer loop
      vertex -16.6285 -2 30.0345
      vertex -18.5848 -2 22.5497
      vertex -17 -2 26.5
    endloop
  endfacet
  facet normal 0 -1 -9.9584e-17
    outer loop
      vertex -15.0723 -2 38
      vertex -18.5848 -2 22.5497
      vertex -16.6285 -2 30.0345
    endloop
  endfacet
  facet normal 0 -1 -9.9584e-17
    outer loop
      vertex -15.0723 -2 38
      vertex -16.6285 -2 30.0345
      vertex -15.5303 -2 33.4145
    endloop
  endfacet
  facet normal 0 -1 -9.9584e-17
    outer loop
      vertex -15.0723 -2 38
      vertex -15.5303 -2 33.4145
      vertex -13.7533 -2 36.4923
    endloop
  endfacet
  facet normal 0 -1 -9.9584e-17
    outer loop
      vertex -15.0723 -2 38
      vertex -13.7533 -2 36.4923
      vertex -12.3958 -2 38
    endloop
  endfacet
  facet normal 0 -1 -9.9584e-17
    outer loop
      vertex -15.3713 -2 37.6679
      vertex -18.5848 -2 22.5497
      vertex -15.0723 -2 38
    endloop
  endfacet
  facet normal 0 -1 -9.9584e-17
    outer loop
      vertex -17.3574 -2 34.228
      vertex -18.5848 -2 22.5497
      vertex -15.3713 -2 37.6679
    endloop
  endfacet
  facet normal 0 -1 -9.9584e-17
    outer loop
      vertex -18.5848 -2 30.4503
      vertex -18.5848 -2 22.5497
      vertex -17.3574 -2 34.228
    endloop
  endfacet
  facet normal 0 -1 -9.9584e-17
    outer loop
      vertex -19 -2 26.5
      vertex -18.5848 -2 22.5497
      vertex -18.5848 -2 30.4503
    endloop
  endfacet
  facet normal 0 -1 -9.9584e-17
    outer loop
      vertex 12.3958 -2 38
      vertex 15.3713 -2 37.6679
      vertex 15.0723 -2 38
    endloop
  endfacet
  facet normal 0 -1 -9.9584e-17
    outer loop
      vertex 12.3958 -2 38
      vertex 13.7533 -2 36.4923
      vertex 15.3713 -2 37.6679
    endloop
  endfacet
  facet normal 0 -1 -9.9584e-17
    outer loop
      vertex -15.5303 -2 19.5855
      vertex -16.6285 -2 22.9655
      vertex -18.5848 -2 22.5497
    endloop
  endfacet
  facet normal 0.743145 6.66347e-17 -0.669131
    outer loop
      vertex -15.0723 -2 38
      vertex -15.0723 -6 38
      vertex -15.3713 -6 37.6679
    endloop
  endfacet
  facet normal 0.743145 6.66347e-17 -0.669131
    outer loop
      vertex -15.3713 -2 37.6679
      vertex -15.0723 -2 38
      vertex -15.3713 -6 37.6679
    endloop
  endfacet
  facet normal 0.866025 4.9792e-17 -0.5
    outer loop
      vertex -15.3713 -2 37.6679
      vertex -15.3713 -6 37.6679
      vertex -17.3574 -6 34.228
    endloop
  endfacet
  facet normal 0.866025 4.9792e-17 -0.5
    outer loop
      vertex -17.3574 -2 34.228
      vertex -15.3713 -2 37.6679
      vertex -17.3574 -6 34.228
    endloop
  endfacet
  facet normal 0.951057 3.07731e-17 -0.309017
    outer loop
      vertex -17.3574 -2 34.228
      vertex -17.3574 -6 34.228
      vertex -18.5848 -6 30.4503
    endloop
  endfacet
  facet normal 0.951057 3.07731e-17 -0.309017
    outer loop
      vertex -18.5848 -2 30.4503
      vertex -17.3574 -2 34.228
      vertex -18.5848 -6 30.4503
    endloop
  endfacet
  facet normal 0.994522 1.04094e-17 -0.104529
    outer loop
      vertex -18.5848 -2 30.4503
      vertex -18.5848 -6 30.4503
      vertex -19 -6 26.5
    endloop
  endfacet
  facet normal 0.994522 1.04094e-17 -0.104529
    outer loop
      vertex -19 -2 26.5
      vertex -18.5848 -2 30.4503
      vertex -19 -6 26.5
    endloop
  endfacet
  facet normal 0.994522 -1.04094e-17 0.104529
    outer loop
      vertex -19 -6 26.5
      vertex -18.5848 -6 22.5497
      vertex -18.5848 -2 22.5497
    endloop
  endfacet
  facet normal 0.994522 -1.04094e-17 0.104529
    outer loop
      vertex -19 -2 26.5
      vertex -19 -6 26.5
      vertex -18.5848 -2 22.5497
    endloop
  endfacet
  facet normal 0.951057 -3.07731e-17 0.309017
    outer loop
      vertex -18.5848 -6 22.5497
      vertex -17.3574 -6 18.772
      vertex -17.3574 -2 18.772
    endloop
  endfacet
  facet normal 0.951057 -3.07731e-17 0.309017
    outer loop
      vertex -18.5848 -2 22.5497
      vertex -18.5848 -6 22.5497
      vertex -17.3574 -2 18.772
    endloop
  endfacet
  facet normal 0.866025 -4.9792e-17 0.5
    outer loop
      vertex -17.3574 -6 18.772
      vertex -15.3713 -6 15.3321
      vertex -15.3713 -2 15.3321
    endloop
  endfacet
  facet normal 0.866025 -4.9792e-17 0.5
    outer loop
      vertex -17.3574 -2 18.772
      vertex -17.3574 -6 18.772
      vertex -15.3713 -2 15.3321
    endloop
  endfacet
  facet normal 0.743145 -6.66347e-17 0.669131
    outer loop
      vertex -15.3713 -6 15.3321
      vertex -12.7135 -6 12.3802
      vertex -12.7135 -2 12.3802
    endloop
  endfacet
  facet normal 0.743145 -6.66347e-17 0.669131
    outer loop
      vertex -15.3713 -2 15.3321
      vertex -15.3713 -6 15.3321
      vertex -12.7135 -2 12.3802
    endloop
  endfacet
  facet normal 0.587785 -8.05651e-17 0.809017
    outer loop
      vertex -12.7135 -6 12.3802
      vertex -9.5 -6 10.0455
      vertex -9.5 -2 10.0455
    endloop
  endfacet
  facet normal 0.587785 -8.05651e-17 0.809017
    outer loop
      vertex -12.7135 -2 12.3802
      vertex -12.7135 -6 12.3802
      vertex -9.5 -2 10.0455
    endloop
  endfacet
  facet normal 0.406737 -9.09745e-17 0.913545
    outer loop
      vertex -9.5 -6 10.0455
      vertex -5.87132 -6 8.42993
      vertex -5.87132 -2 8.42993
    endloop
  endfacet
  facet normal 0.406737 -9.09745e-17 0.913545
    outer loop
      vertex -9.5 -2 10.0455
      vertex -9.5 -6 10.0455
      vertex -5.87132 -2 8.42993
    endloop
  endfacet
  facet normal 0.207912 -9.74078e-17 0.978148
    outer loop
      vertex -5.87132 -6 8.42993
      vertex -1.98604 -6 7.60408
      vertex -1.98604 -2 7.60408
    endloop
  endfacet
  facet normal 0.207912 -9.74078e-17 0.978148
    outer loop
      vertex -5.87132 -2 8.42993
      vertex -5.87132 -6 8.42993
      vertex -1.98604 -2 7.60408
    endloop
  endfacet
  facet normal 0 -9.9584e-17 1
    outer loop
      vertex -1.98604 -6 7.60408
      vertex 1.98604 -6 7.60408
      vertex 1.98604 -2 7.60408
    endloop
  endfacet
  facet normal 0 -9.9584e-17 1
    outer loop
      vertex -1.98604 -2 7.60408
      vertex -1.98604 -6 7.60408
      vertex 1.98604 -2 7.60408
    endloop
  endfacet
  facet normal -0.207912 -9.74078e-17 0.978148
    outer loop
      vertex 1.98604 -6 7.60408
      vertex 5.87132 -6 8.42993
      vertex 5.87132 -2 8.42993
    endloop
  endfacet
  facet normal -0.207912 -9.74078e-17 0.978148
    outer loop
      vertex 1.98604 -2 7.60408
      vertex 1.98604 -6 7.60408
      vertex 5.87132 -2 8.42993
    endloop
  endfacet
  facet normal -0.406737 -9.09745e-17 0.913545
    outer loop
      vertex 5.87132 -6 8.42993
      vertex 9.5 -6 10.0455
      vertex 9.5 -2 10.0455
    endloop
  endfacet
  facet normal -0.406737 -9.09745e-17 0.913545
    outer loop
      vertex 5.87132 -2 8.42993
      vertex 5.87132 -6 8.42993
      vertex 9.5 -2 10.0455
    endloop
  endfacet
  facet normal -0.587785 -8.05651e-17 0.809017
    outer loop
      vertex 9.5 -6 10.0455
      vertex 12.7135 -6 12.3802
      vertex 12.7135 -2 12.3802
    endloop
  endfacet
  facet normal -0.587785 -8.05651e-17 0.809017
    outer loop
      vertex 9.5 -2 10.0455
      vertex 9.5 -6 10.0455
      vertex 12.7135 -2 12.3802
    endloop
  endfacet
  facet normal -0.743145 -6.66347e-17 0.669131
    outer loop
      vertex 15.3713 -6 15.3321
      vertex 15.3713 -2 15.3321
      vertex 12.7135 -6 12.3802
    endloop
  endfacet
  facet normal -0.743145 -6.66347e-17 0.669131
    outer loop
      vertex 12.7135 -6 12.3802
      vertex 15.3713 -2 15.3321
      vertex 12.7135 -2 12.3802
    endloop
  endfacet
  facet normal -0.866025 -4.9792e-17 0.5
    outer loop
      vertex 17.3574 -6 18.772
      vertex 17.3574 -2 18.772
      vertex 15.3713 -6 15.3321
    endloop
  endfacet
  facet normal -0.866025 -4.9792e-17 0.5
    outer loop
      vertex 15.3713 -6 15.3321
      vertex 17.3574 -2 18.772
      vertex 15.3713 -2 15.3321
    endloop
  endfacet
  facet normal -0.951057 -3.07731e-17 0.309017
    outer loop
      vertex 18.5848 -6 22.5497
      vertex 18.5848 -2 22.5497
      vertex 17.3574 -6 18.772
    endloop
  endfacet
  facet normal -0.951057 -3.07731e-17 0.309017
    outer loop
      vertex 17.3574 -6 18.772
      vertex 18.5848 -2 22.5497
      vertex 17.3574 -2 18.772
    endloop
  endfacet
  facet normal -0.994522 -1.04094e-17 0.104529
    outer loop
      vertex 19 -6 26.5
      vertex 19 -2 26.5
      vertex 18.5848 -6 22.5497
    endloop
  endfacet
  facet normal -0.994522 -1.04094e-17 0.104529
    outer loop
      vertex 18.5848 -6 22.5497
      vertex 19 -2 26.5
      vertex 18.5848 -2 22.5497
    endloop
  endfacet
  facet normal -0.994522 1.04094e-17 -0.104529
    outer loop
      vertex 19 -6 26.5
      vertex 18.5848 -6 30.4503
      vertex 19 -2 26.5
    endloop
  endfacet
  facet normal -0.994522 1.04094e-17 -0.104529
    outer loop
      vertex 19 -2 26.5
      vertex 18.5848 -6 30.4503
      vertex 18.5848 -2 30.4503
    endloop
  endfacet
  facet normal -0.951057 3.07731e-17 -0.309017
    outer loop
      vertex 18.5848 -6 30.4503
      vertex 17.3574 -6 34.228
      vertex 18.5848 -2 30.4503
    endloop
  endfacet
  facet normal -0.951057 3.07731e-17 -0.309017
    outer loop
      vertex 18.5848 -2 30.4503
      vertex 17.3574 -6 34.228
      vertex 17.3574 -2 34.228
    endloop
  endfacet
  facet normal -0.866025 4.9792e-17 -0.5
    outer loop
      vertex 17.3574 -6 34.228
      vertex 15.3713 -6 37.6679
      vertex 17.3574 -2 34.228
    endloop
  endfacet
  facet normal -0.866025 4.9792e-17 -0.5
    outer loop
      vertex 17.3574 -2 34.228
      vertex 15.3713 -6 37.6679
      vertex 15.3713 -2 37.6679
    endloop
  endfacet
endsolid OpenSCAD_Model
