solid OpenSCAD_Model
  facet normal 0 1 -1.22461e-16
    outer loop
      vertex -27.5 1.83691e-16 3
      vertex -18.5 4.46981e-15 38
      vertex -27.5 -1.83691e-16 0
    endloop
  endfacet
  facet normal 0 1 -1.22461e-16
    outer loop
      vertex -13.7533 4.28519e-15 36.4923
      vertex -18.5 4.46981e-15 38
      vertex -12.3958 4.46981e-15 38
    endloop
  endfacet
  facet normal 0 1 -1.22461e-16
    outer loop
      vertex -15.5303 3.90827e-15 33.4145
      vertex -18.5 4.46981e-15 38
      vertex -13.7533 4.28519e-15 36.4923
    endloop
  endfacet
  facet normal 0 1 -1.22461e-16
    outer loop
      vertex -27.5 -1.83691e-16 0
      vertex -18.5 4.46981e-15 38
      vertex -15.5303 3.90827e-15 33.4145
    endloop
  endfacet
  facet normal 0 1 -1.22461e-16
    outer loop
      vertex -27.5 -1.83691e-16 0
      vertex -15.5303 3.90827e-15 33.4145
      vertex -16.6285 3.49435e-15 30.0345
    endloop
  endfacet
  facet normal 0 1 -1.22461e-16
    outer loop
      vertex -16.6285 2.62868e-15 22.9655
      vertex -27.5 -1.83691e-16 0
      vertex -17 3.06152e-15 26.5
    endloop
  endfacet
  facet normal 0 1 -1.22461e-16
    outer loop
      vertex -20 4.28612e-16 5
      vertex 1.77698 9.9109e-16 9.59313
      vertex -12 4.28612e-16 5
    endloop
  endfacet
  facet normal 0 1 -1.22461e-16
    outer loop
      vertex 22.5 4.28612e-16 5
      vertex 27.5 1.83691e-16 3
      vertex 22.5 -1.83691e-16 0
    endloop
  endfacet
  facet normal 0 1 -1.22461e-16
    outer loop
      vertex -27.5 -1.83691e-16 0
      vertex -16.6285 2.62868e-15 22.9655
      vertex -15.5303 2.21476e-15 19.5855
    endloop
  endfacet
  facet normal 0 1 -1.22461e-16
    outer loop
      vertex -15.5303 2.21476e-15 19.5855
      vertex -13.7533 1.83785e-15 16.5077
      vertex -27.5 -1.83691e-16 0
    endloop
  endfacet
  facet normal 0 1 -1.22461e-16
    outer loop
      vertex -22.5 -1.83691e-16 0
      vertex -27.5 -1.83691e-16 0
      vertex -22.5 4.28612e-16 5
    endloop
  endfacet
  facet normal 0 1 -1.22461e-16
    outer loop
      vertex -22.5 4.28612e-16 5
      vertex -11.3752 1.51441e-15 13.8665
      vertex -20 4.28612e-16 5
    endloop
  endfacet
  facet normal 0 1 -1.22461e-16
    outer loop
      vertex -20 4.28612e-16 5
      vertex -5.25329 1.08158e-15 10.332
      vertex -1.77698 9.9109e-16 9.59313
    endloop
  endfacet
  facet normal 0 1 -1.22461e-16
    outer loop
      vertex 8.8 4.28612e-16 5
      vertex 5.25329 1.08158e-15 10.332
      vertex 22.5 4.28612e-16 5
    endloop
  endfacet
  facet normal 0 1 -1.22461e-16
    outer loop
      vertex 11.3752 1.51441e-15 13.8665
      vertex 27.5 1.83691e-16 3
      vertex 8.5 1.2586e-15 11.7776
    endloop
  endfacet
  facet normal 0 1 -1.22461e-16
    outer loop
      vertex 13.7533 1.83785e-15 16.5077
      vertex 27.5 1.83691e-16 3
      vertex 11.3752 1.51441e-15 13.8665
    endloop
  endfacet
  facet normal 0 1 -1.22461e-16
    outer loop
      vertex 15.5303 2.21476e-15 19.5855
      vertex 27.5 1.83691e-16 3
      vertex 13.7533 1.83785e-15 16.5077
    endloop
  endfacet
  facet normal 0 1 -1.22461e-16
    outer loop
      vertex 17 3.06152e-15 26.5
      vertex 18.5 4.46981e-15 38
      vertex 16.6285 2.62868e-15 22.9655
    endloop
  endfacet
  facet normal 0 1 -1.22461e-16
    outer loop
      vertex 16.6285 3.49435e-15 30.0345
      vertex 18.5 4.46981e-15 38
      vertex 17 3.06152e-15 26.5
    endloop
  endfacet
  facet normal 0 1 -1.22461e-16
    outer loop
      vertex 15.5303 3.90827e-15 33.4145
      vertex 18.5 4.46981e-15 38
      vertex 16.6285 3.49435e-15 30.0345
    endloop
  endfacet
  facet normal 0 1 -1.22461e-16
    outer loop
      vertex 13.7533 4.28519e-15 36.4923
      vertex 12.3958 4.46981e-15 38
      vertex 18.5 4.46981e-15 38
    endloop
  endfacet
  facet normal 0 1 -1.22461e-16
    outer loop
      vertex 13.7533 4.28519e-15 36.4923
      vertex 18.5 4.46981e-15 38
      vertex 15.5303 3.90827e-15 33.4145
    endloop
  endfacet
  facet normal 0 1 -1.22461e-16
    outer loop
      vertex 16.6285 2.62868e-15 22.9655
      vertex 18.5 4.46981e-15 38
      vertex 27.5 1.83691e-16 3
    endloop
  endfacet
  facet normal 0 1 -1.22461e-16
    outer loop
      vertex 16.6285 2.62868e-15 22.9655
      vertex 27.5 1.83691e-16 3
      vertex 15.5303 2.21476e-15 19.5855
    endloop
  endfacet
  facet normal 0 1 -1.22461e-16
    outer loop
      vertex 22.5 -1.83691e-16 0
      vertex 27.5 1.83691e-16 3
      vertex 27.5 -1.83691e-16 0
    endloop
  endfacet
  facet normal 0 1 -1.22461e-16
    outer loop
      vertex 8.5 1.2586e-15 11.7776
      vertex 27.5 1.83691e-16 3
      vertex 22.5 4.28612e-16 5
    endloop
  endfacet
  facet normal 0 1 -1.22461e-16
    outer loop
      vertex 8.5 1.2586e-15 11.7776
      vertex 22.5 4.28612e-16 5
      vertex 5.25329 1.08158e-15 10.332
    endloop
  endfacet
  facet normal 0 1 -1.22461e-16
    outer loop
      vertex -12 4.28612e-16 5
      vertex 5.25329 1.08158e-15 10.332
      vertex 0.8 4.28612e-16 5
    endloop
  endfacet
  facet normal 0 1 -1.22461e-16
    outer loop
      vertex 5.25329 1.08158e-15 10.332
      vertex 8.8 4.28612e-16 5
      vertex 0.8 4.28612e-16 5
    endloop
  endfacet
  facet normal 0 1 -1.22461e-16
    outer loop
      vertex 1.77698 9.9109e-16 9.59313
      vertex 5.25329 1.08158e-15 10.332
      vertex -12 4.28612e-16 5
    endloop
  endfacet
  facet normal 0 1 -1.22461e-16
    outer loop
      vertex -11.3752 1.51441e-15 13.8665
      vertex -8.5 1.2586e-15 11.7776
      vertex -20 4.28612e-16 5
    endloop
  endfacet
  facet normal 0 1 -1.22461e-16
    outer loop
      vertex -13.7533 1.83785e-15 16.5077
      vertex -11.3752 1.51441e-15 13.8665
      vertex -22.5 4.28612e-16 5
    endloop
  endfacet
  facet normal 0 1 -1.22461e-16
    outer loop
      vertex -13.7533 1.83785e-15 16.5077
      vertex -22.5 4.28612e-16 5
      vertex -27.5 -1.83691e-16 0
    endloop
  endfacet
  facet normal 0 1 -1.22461e-16
    outer loop
      vertex -20 4.28612e-16 5
      vertex -8.5 1.2586e-15 11.7776
      vertex -5.25329 1.08158e-15 10.332
    endloop
  endfacet
  facet normal 0 1 -1.22461e-16
    outer loop
      vertex -17 3.06152e-15 26.5
      vertex -27.5 -1.83691e-16 0
      vertex -16.6285 3.49435e-15 30.0345
    endloop
  endfacet
  facet normal 0 1 -1.22461e-16
    outer loop
      vertex -12 -1.83691e-16 0
      vertex -20 -1.83691e-16 0
      vertex -12 4.28612e-16 5
    endloop
  endfacet
  facet normal 0 1 -1.22461e-16
    outer loop
      vertex -20 4.28612e-16 5
      vertex -12 4.28612e-16 5
      vertex -20 -1.83691e-16 0
    endloop
  endfacet
  facet normal 0 1 -1.22461e-16
    outer loop
      vertex 8.8 -1.83691e-16 0
      vertex 0.8 -1.83691e-16 0
      vertex 8.8 4.28612e-16 5
    endloop
  endfacet
  facet normal 0 1 -1.22461e-16
    outer loop
      vertex 0.8 4.28612e-16 5
      vertex 8.8 4.28612e-16 5
      vertex 0.8 -1.83691e-16 0
    endloop
  endfacet
  facet normal 0 1 -1.22461e-16
    outer loop
      vertex -20 4.28612e-16 5
      vertex -1.77698 9.9109e-16 9.59313
      vertex 1.77698 9.9109e-16 9.59313
    endloop
  endfacet
  facet normal -0.968493 3.04977e-17 0.249041
    outer loop
      vertex -27.5 1.83691e-16 3
      vertex -27.5 -6 3
      vertex -18.5 4.46981e-15 38
    endloop
  endfacet
  facet normal -0.968493 3.04977e-17 0.249041
    outer loop
      vertex -18.5 4.46981e-15 38
      vertex -27.5 -6 3
      vertex -18.5 -6 38
    endloop
  endfacet
  facet normal -1 0 0
    outer loop
      vertex -27.5 1.83691e-16 3
      vertex -27.5 -1.83691e-16 0
      vertex -27.5 -6 3
    endloop
  endfacet
  facet normal -1 0 0
    outer loop
      vertex -27.5 -6 3
      vertex -27.5 -1.83691e-16 0
      vertex -27.5 -6 7.34764e-16
    endloop
  endfacet
  facet normal 0 -1.22461e-16 -1
    outer loop
      vertex -27.5 -1.83691e-16 0
      vertex -22.5 -1.83691e-16 0
      vertex -27.5 -6 7.34764e-16
    endloop
  endfacet
  facet normal 0 -1.22461e-16 -1
    outer loop
      vertex -27.5 -6 7.34764e-16
      vertex -22.5 -1.83691e-16 0
      vertex -22.5 -6 7.34764e-16
    endloop
  endfacet
  facet normal 1 0 0
    outer loop
      vertex -22.5 -6 5
      vertex -22.5 -6 7.34764e-16
      vertex -22.5 -1.83691e-16 0
    endloop
  endfacet
  facet normal 1 0 0
    outer loop
      vertex -22.5 4.28612e-16 5
      vertex -22.5 -6 5
      vertex -22.5 -1.83691e-16 0
    endloop
  endfacet
  facet normal 0 -1.22461e-16 -1
    outer loop
      vertex -20 -6 5
      vertex -22.5 -6 5
      vertex -20 4.28612e-16 5
    endloop
  endfacet
  facet normal 0 -1.22461e-16 -1
    outer loop
      vertex -20 4.28612e-16 5
      vertex -22.5 -6 5
      vertex -22.5 4.28612e-16 5
    endloop
  endfacet
  facet normal -1 0 0
    outer loop
      vertex -20 4.28612e-16 5
      vertex -20 -1.83691e-16 0
      vertex -20 -6 5
    endloop
  endfacet
  facet normal -1 0 0
    outer loop
      vertex -20 -6 5
      vertex -20 -1.83691e-16 0
      vertex -20 -36.8 4.50655e-15
    endloop
  endfacet
  facet normal -1 0 0
    outer loop
      vertex -20 -6 5
      vertex -20 -36.8 4.50655e-15
      vertex -20 -36.8 6
    endloop
  endfacet
  facet normal -1 0 0
    outer loop
      vertex -20 -6 5
      vertex -20 -36.8 6
      vertex -20 -6 6
    endloop
  endfacet
  facet normal 0 -1.22461e-16 -1
    outer loop
      vertex -20 -1.83691e-16 0
      vertex -12 -1.83691e-16 0
      vertex -20 -36.8 4.50655e-15
    endloop
  endfacet
  facet normal 0 -1.22461e-16 -1
    outer loop
      vertex -20 -36.8 4.50655e-15
      vertex -12 -1.83691e-16 0
      vertex -12 -36.8 4.50655e-15
    endloop
  endfacet
  facet normal 1 0 0
    outer loop
      vertex -12 -1.83691e-16 0
      vertex -12 4.28612e-16 5
      vertex -12 -6 5
    endloop
  endfacet
  facet normal 1 0 0
    outer loop
      vertex -12 -36.8 6
      vertex -12 -1.83691e-16 0
      vertex -12 -6 5
    endloop
  endfacet
  facet normal 1 0 0
    outer loop
      vertex -12 -6 6
      vertex -12 -36.8 6
      vertex -12 -6 5
    endloop
  endfacet
  facet normal 1 0 0
    outer loop
      vertex -12 -36.8 6
      vertex -12 -36.8 4.50655e-15
      vertex -12 -1.83691e-16 0
    endloop
  endfacet
  facet normal 0 -1.22461e-16 -1
    outer loop
      vertex 0.8 -6 5
      vertex -12 -6 5
      vertex 0.8 4.28612e-16 5
    endloop
  endfacet
  facet normal 0 -1.22461e-16 -1
    outer loop
      vertex 0.8 4.28612e-16 5
      vertex -12 -6 5
      vertex -12 4.28612e-16 5
    endloop
  endfacet
  facet normal -1 0 0
    outer loop
      vertex 0.8 4.28612e-16 5
      vertex 0.8 -1.83691e-16 0
      vertex 0.8 -6 5
    endloop
  endfacet
  facet normal -1 0 0
    outer loop
      vertex 0.8 -6 5
      vertex 0.8 -1.83691e-16 0
      vertex 0.8 -36.8 4.50655e-15
    endloop
  endfacet
  facet normal -1 0 0
    outer loop
      vertex 0.8 -6 5
      vertex 0.8 -36.8 4.50655e-15
      vertex 0.8 -36.8 6
    endloop
  endfacet
  facet normal -1 0 0
    outer loop
      vertex 0.8 -6 5
      vertex 0.8 -36.8 6
      vertex 0.8 -6 6
    endloop
  endfacet
  facet normal 0 -1.22461e-16 -1
    outer loop
      vertex 0.8 -1.83691e-16 0
      vertex 8.8 -1.83691e-16 0
      vertex 0.8 -36.8 4.50655e-15
    endloop
  endfacet
  facet normal 0 -1.22461e-16 -1
    outer loop
      vertex 0.8 -36.8 4.50655e-15
      vertex 8.8 -1.83691e-16 0
      vertex 8.8 -11.2 1.37156e-15
    endloop
  endfacet
  facet normal 0 -1.22461e-16 -1
    outer loop
      vertex 8.8 -18.4 2.25328e-15
      vertex 8.8 -11.2 1.37156e-15
      vertex 24.8 -11.2 1.37156e-15
    endloop
  endfacet
  facet normal 0 -1.22461e-16 -1
    outer loop
      vertex 8.8 -18.4 2.25328e-15
      vertex 24.8 -11.2 1.37156e-15
      vertex 32 -12.8 1.5675e-15
    endloop
  endfacet
  facet normal 0 -1.22461e-16 -1
    outer loop
      vertex 24.8 -11.2 1.37156e-15
      vertex 37.6 -1.83691e-16 0
      vertex 32 -12.8 1.5675e-15
    endloop
  endfacet
  facet normal 0 -1.22461e-16 -1
    outer loop
      vertex 27.0286 -6 7.34764e-16
      vertex 22.5 -1.83691e-16 0
      vertex 27.5 -1.83691e-16 0
    endloop
  endfacet
  facet normal 0 -1.22461e-16 -1
    outer loop
      vertex 27.0286 -6 7.34764e-16
      vertex 27.5 -1.83691e-16 0
      vertex 27.5 -4.9 6.00057e-16
    endloop
  endfacet
  facet normal 0 -1.22461e-16 -1
    outer loop
      vertex 27.0286 -6 7.34764e-16
      vertex 37.6 -1.83691e-16 0
      vertex 24.8 -11.2 1.37156e-15
    endloop
  endfacet
  facet normal 0 -1.22461e-16 -1
    outer loop
      vertex 27.5 -4.9 6.00057e-16
      vertex 29.6 -1.83691e-16 0
      vertex 37.6 -1.83691e-16 0
    endloop
  endfacet
  facet normal 0 -1.22461e-16 -1
    outer loop
      vertex 27.5 -4.9 6.00057e-16
      vertex 37.6 -1.83691e-16 0
      vertex 27.0286 -6 7.34764e-16
    endloop
  endfacet
  facet normal 0 -1.22461e-16 -1
    outer loop
      vertex 27.2 -18.8 2.30226e-15
      vertex 34 -14.8 1.81242e-15
      vertex 28 -19.3 2.36349e-15
    endloop
  endfacet
  facet normal 0 -1.22461e-16 -1
    outer loop
      vertex 27.2 -18.8 2.30226e-15
      vertex 32 -12.8 1.5675e-15
      vertex 34 -14.8 1.81242e-15
    endloop
  endfacet
  facet normal 0 -1.22461e-16 -1
    outer loop
      vertex 28 -19.3 2.36349e-15
      vertex 34 -14.8 1.81242e-15
      vertex 35.1 -16.1 1.97162e-15
    endloop
  endfacet
  facet normal 0 -1.22461e-16 -1
    outer loop
      vertex 29.5 -20.8 2.54718e-15
      vertex 35.1 -16.1 1.97162e-15
      vertex 36 -17.6 2.15531e-15
    endloop
  endfacet
  facet normal 0 -1.22461e-16 -1
    outer loop
      vertex 30 -21.6 2.64515e-15
      vertex 36 -17.6 2.15531e-15
      vertex 36.7 -19.1 2.339e-15
    endloop
  endfacet
  facet normal 0 -1.22461e-16 -1
    outer loop
      vertex 30.3 -22.6 2.76761e-15
      vertex 36.7 -19.1 2.339e-15
      vertex 37.2 -20.4 2.4982e-15
    endloop
  endfacet
  facet normal 0 -1.22461e-16 -1
    outer loop
      vertex 30.4 -24 2.93906e-15
      vertex 37.2 -20.4 2.4982e-15
      vertex 37.5 -21.7 2.6574e-15
    endloop
  endfacet
  facet normal 0 -1.22461e-16 -1
    outer loop
      vertex 30 -26 3.18398e-15
      vertex 37.5 -21.7 2.6574e-15
      vertex 37.6 -23.2 2.84109e-15
    endloop
  endfacet
  facet normal 0 -1.22461e-16 -1
    outer loop
      vertex 27.9 -28.7 3.51462e-15
      vertex 37.6 -24 2.93906e-15
      vertex 37.4 -26.3 3.22071e-15
    endloop
  endfacet
  facet normal 0 -1.22461e-16 -1
    outer loop
      vertex 0.8 -36.8 4.50655e-15
      vertex 37.4 -26.3 3.22071e-15
      vertex 36.8 -28.4 3.47788e-15
    endloop
  endfacet
  facet normal 0 -1.22461e-16 -1
    outer loop
      vertex 0.8 -36.8 4.50655e-15
      vertex 36.8 -28.4 3.47788e-15
      vertex 35.8 -30.3 3.71056e-15
    endloop
  endfacet
  facet normal 0 -1.22461e-16 -1
    outer loop
      vertex 0.8 -36.8 4.50655e-15
      vertex 35.8 -30.3 3.71056e-15
      vertex 34.4 -32 3.91874e-15
    endloop
  endfacet
  facet normal 0 -1.22461e-16 -1
    outer loop
      vertex 0.8 -36.8 4.50655e-15
      vertex 34.4 -32 3.91874e-15
      vertex 32.7 -33.5 4.10243e-15
    endloop
  endfacet
  facet normal 0 -1.22461e-16 -1
    outer loop
      vertex 0.8 -36.8 4.50655e-15
      vertex 32.7 -33.5 4.10243e-15
      vertex 30.8 -34.8 4.26163e-15
    endloop
  endfacet
  facet normal 0 -1.22461e-16 -1
    outer loop
      vertex 0.8 -36.8 4.50655e-15
      vertex 30.8 -34.8 4.26163e-15
      vertex 28.7 -35.9 4.39634e-15
    endloop
  endfacet
  facet normal 0 -1.22461e-16 -1
    outer loop
      vertex 0.8 -36.8 4.50655e-15
      vertex 28.7 -35.9 4.39634e-15
      vertex 26.4 -36.8 4.50655e-15
    endloop
  endfacet
  facet normal 0 -1.22461e-16 -1
    outer loop
      vertex 0.8 -36.8 4.50655e-15
      vertex 8.8 -11.2 1.37156e-15
      vertex 8.8 -18.4 2.25328e-15
    endloop
  endfacet
  facet normal 0 -1.22461e-16 -1
    outer loop
      vertex 24.8 -29.6 3.62483e-15
      vertex 0.8 -36.8 4.50655e-15
      vertex 8.8 -29.6 3.62483e-15
    endloop
  endfacet
  facet normal 0 -1.22461e-16 -1
    outer loop
      vertex 30.3 -22.6 2.76761e-15
      vertex 37.2 -20.4 2.4982e-15
      vertex 30.4 -24 2.93906e-15
    endloop
  endfacet
  facet normal 0 -1.22461e-16 -1
    outer loop
      vertex 0.8 -36.8 4.50655e-15
      vertex 24.8 -29.6 3.62483e-15
      vertex 25.7 -29.5 3.61259e-15
    endloop
  endfacet
  facet normal 0 -1.22461e-16 -1
    outer loop
      vertex 0.8 -36.8 4.50655e-15
      vertex 25.7 -29.5 3.61259e-15
      vertex 26.8 -29.2 3.57585e-15
    endloop
  endfacet
  facet normal 0 -1.22461e-16 -1
    outer loop
      vertex 0.8 -36.8 4.50655e-15
      vertex 26.8 -29.2 3.57585e-15
      vertex 37.4 -26.3 3.22071e-15
    endloop
  endfacet
  facet normal 0 -1.22461e-16 -1
    outer loop
      vertex 28.8 -28 3.4289e-15
      vertex 37.6 -24 2.93906e-15
      vertex 27.9 -28.7 3.51462e-15
    endloop
  endfacet
  facet normal 0 -1.22461e-16 -1
    outer loop
      vertex 29.5 -27.1 3.31868e-15
      vertex 37.6 -24 2.93906e-15
      vertex 28.8 -28 3.4289e-15
    endloop
  endfacet
  facet normal 0 -1.22461e-16 -1
    outer loop
      vertex 27.9 -28.7 3.51462e-15
      vertex 37.4 -26.3 3.22071e-15
      vertex 26.8 -29.2 3.57585e-15
    endloop
  endfacet
  facet normal 0 -1.22461e-16 -1
    outer loop
      vertex 30.3 -24.9 3.04927e-15
      vertex 37.5 -21.7 2.6574e-15
      vertex 30 -26 3.18398e-15
    endloop
  endfacet
  facet normal 0 -1.22461e-16 -1
    outer loop
      vertex 28.8 -20 2.44921e-15
      vertex 35.1 -16.1 1.97162e-15
      vertex 29.5 -20.8 2.54718e-15
    endloop
  endfacet
  facet normal 0 -1.22461e-16 -1
    outer loop
      vertex 26.2 -18.5 2.26552e-15
      vertex 32 -12.8 1.5675e-15
      vertex 27.2 -18.8 2.30226e-15
    endloop
  endfacet
  facet normal 0 -1.22461e-16 -1
    outer loop
      vertex 24.8 -18.4 2.25328e-15
      vertex 32 -12.8 1.5675e-15
      vertex 26.2 -18.5 2.26552e-15
    endloop
  endfacet
  facet normal 0 -1.22461e-16 -1
    outer loop
      vertex 22.5 -1.83691e-16 0
      vertex 27.0286 -6 7.34764e-16
      vertex 22.5 -6 7.34764e-16
    endloop
  endfacet
  facet normal 0 -1.22461e-16 -1
    outer loop
      vertex 8.8 -18.4 2.25328e-15
      vertex 32 -12.8 1.5675e-15
      vertex 24.8 -18.4 2.25328e-15
    endloop
  endfacet
  facet normal 0 -1.22461e-16 -1
    outer loop
      vertex 8.8 -29.6 3.62483e-15
      vertex 0.8 -36.8 4.50655e-15
      vertex 8.8 -18.4 2.25328e-15
    endloop
  endfacet
  facet normal 0 -1.22461e-16 -1
    outer loop
      vertex 29.5 -20.8 2.54718e-15
      vertex 36 -17.6 2.15531e-15
      vertex 30 -21.6 2.64515e-15
    endloop
  endfacet
  facet normal 0 -1.22461e-16 -1
    outer loop
      vertex 28 -19.3 2.36349e-15
      vertex 35.1 -16.1 1.97162e-15
      vertex 28.8 -20 2.44921e-15
    endloop
  endfacet
  facet normal 0 -1.22461e-16 -1
    outer loop
      vertex 30 -21.6 2.64515e-15
      vertex 36.7 -19.1 2.339e-15
      vertex 30.3 -22.6 2.76761e-15
    endloop
  endfacet
  facet normal 0 -1.22461e-16 -1
    outer loop
      vertex 30.4 -24 2.93906e-15
      vertex 37.5 -21.7 2.6574e-15
      vertex 30.3 -24.9 3.04927e-15
    endloop
  endfacet
  facet normal 0 -1.22461e-16 -1
    outer loop
      vertex 30 -26 3.18398e-15
      vertex 37.6 -23.2 2.84109e-15
      vertex 37.6 -24 2.93906e-15
    endloop
  endfacet
  facet normal 0 -1.22461e-16 -1
    outer loop
      vertex 30 -26 3.18398e-15
      vertex 37.6 -24 2.93906e-15
      vertex 29.5 -27.1 3.31868e-15
    endloop
  endfacet
  facet normal 1 0 0
    outer loop
      vertex 8.8 -1.83691e-16 0
      vertex 8.8 4.28612e-16 5
      vertex 8.8 -6 5
    endloop
  endfacet
  facet normal 1 0 0
    outer loop
      vertex 8.8 -11.2 6
      vertex 8.8 -1.83691e-16 0
      vertex 8.8 -6 5
    endloop
  endfacet
  facet normal 1 0 0
    outer loop
      vertex 8.8 -6 6
      vertex 8.8 -11.2 6
      vertex 8.8 -6 5
    endloop
  endfacet
  facet normal 1 0 0
    outer loop
      vertex 8.8 -11.2 6
      vertex 8.8 -11.2 1.37156e-15
      vertex 8.8 -1.83691e-16 0
    endloop
  endfacet
  facet normal 0 -1.22461e-16 -1
    outer loop
      vertex 22.5 -6 5
      vertex 8.8 -6 5
      vertex 22.5 4.28612e-16 5
    endloop
  endfacet
  facet normal 0 -1.22461e-16 -1
    outer loop
      vertex 22.5 4.28612e-16 5
      vertex 8.8 -6 5
      vertex 8.8 4.28612e-16 5
    endloop
  endfacet
  facet normal -1 0 0
    outer loop
      vertex 22.5 -6 7.34764e-16
      vertex 22.5 -6 5
      vertex 22.5 -1.83691e-16 0
    endloop
  endfacet
  facet normal -1 0 0
    outer loop
      vertex 22.5 -1.83691e-16 0
      vertex 22.5 -6 5
      vertex 22.5 4.28612e-16 5
    endloop
  endfacet
  facet normal 1 0 0
    outer loop
      vertex 27.5 -1.83691e-16 0
      vertex 27.5 1.83691e-16 3
      vertex 27.5 -4.9 3
    endloop
  endfacet
  facet normal 1 0 0
    outer loop
      vertex 27.5 -4.9 6.00057e-16
      vertex 27.5 -1.83691e-16 0
      vertex 27.5 -4.9 3
    endloop
  endfacet
  facet normal 0.968493 3.04977e-17 0.249041
    outer loop
      vertex 27.5 1.83691e-16 3
      vertex 18.5 4.46981e-15 38
      vertex 18.5 -6 38
    endloop
  endfacet
  facet normal 0.968493 3.04977e-17 0.249041
    outer loop
      vertex 27.5 -4.9 3
      vertex 27.5 1.83691e-16 3
      vertex 27.0286 -6 4.83333
    endloop
  endfacet
  facet normal 0.968493 3.04977e-17 0.249041
    outer loop
      vertex 27.0286 -6 4.83333
      vertex 27.5 1.83691e-16 3
      vertex 18.5 -6 38
    endloop
  endfacet
  facet normal 0 1.22461e-16 1
    outer loop
      vertex 12.3958 4.46981e-15 38
      vertex 12.3958 -2 38
      vertex 15.0723 -2 38
    endloop
  endfacet
  facet normal 0 1.22461e-16 1
    outer loop
      vertex 18.5 4.46981e-15 38
      vertex 12.3958 4.46981e-15 38
      vertex 15.0723 -2 38
    endloop
  endfacet
  facet normal 0 1.22461e-16 1
    outer loop
      vertex 15.0723 -6 38
      vertex 18.5 -6 38
      vertex 15.0723 -2 38
    endloop
  endfacet
  facet normal 0 1.22461e-16 1
    outer loop
      vertex 18.5 -6 38
      vertex 18.5 4.46981e-15 38
      vertex 15.0723 -2 38
    endloop
  endfacet
  facet normal -0.743145 6.66347e-17 -0.669131
    outer loop
      vertex 13.7533 4.28519e-15 36.4923
      vertex 13.7533 -2 36.4923
      vertex 12.3958 4.46981e-15 38
    endloop
  endfacet
  facet normal -0.743145 6.66347e-17 -0.669131
    outer loop
      vertex 12.3958 4.46981e-15 38
      vertex 13.7533 -2 36.4923
      vertex 12.3958 -2 38
    endloop
  endfacet
  facet normal -0.866025 4.9792e-17 -0.5
    outer loop
      vertex 15.5303 -2 33.4145
      vertex 13.7533 -2 36.4923
      vertex 15.5303 3.90827e-15 33.4145
    endloop
  endfacet
  facet normal -0.866025 4.9792e-17 -0.5
    outer loop
      vertex 15.5303 3.90827e-15 33.4145
      vertex 13.7533 -2 36.4923
      vertex 13.7533 4.28519e-15 36.4923
    endloop
  endfacet
  facet normal -0.951057 3.07731e-17 -0.309017
    outer loop
      vertex 16.6285 -2 30.0345
      vertex 15.5303 -2 33.4145
      vertex 16.6285 3.49435e-15 30.0345
    endloop
  endfacet
  facet normal -0.951057 3.07731e-17 -0.309017
    outer loop
      vertex 16.6285 3.49435e-15 30.0345
      vertex 15.5303 -2 33.4145
      vertex 15.5303 3.90827e-15 33.4145
    endloop
  endfacet
  facet normal -0.994522 1.04094e-17 -0.104529
    outer loop
      vertex 17 -2 26.5
      vertex 16.6285 -2 30.0345
      vertex 17 3.06152e-15 26.5
    endloop
  endfacet
  facet normal -0.994522 1.04094e-17 -0.104529
    outer loop
      vertex 17 3.06152e-15 26.5
      vertex 16.6285 -2 30.0345
      vertex 16.6285 3.49435e-15 30.0345
    endloop
  endfacet
  facet normal -0.994522 -1.04094e-17 0.104529
    outer loop
      vertex 17 -2 26.5
      vertex 17 3.06152e-15 26.5
      vertex 16.6285 -2 22.9655
    endloop
  endfacet
  facet normal -0.994522 -1.04094e-17 0.104529
    outer loop
      vertex 16.6285 -2 22.9655
      vertex 17 3.06152e-15 26.5
      vertex 16.6285 2.62868e-15 22.9655
    endloop
  endfacet
  facet normal -0.951057 -3.07731e-17 0.309017
    outer loop
      vertex 16.6285 -2 22.9655
      vertex 16.6285 2.62868e-15 22.9655
      vertex 15.5303 -2 19.5855
    endloop
  endfacet
  facet normal -0.951057 -3.07731e-17 0.309017
    outer loop
      vertex 15.5303 -2 19.5855
      vertex 16.6285 2.62868e-15 22.9655
      vertex 15.5303 2.21476e-15 19.5855
    endloop
  endfacet
  facet normal -0.866025 -4.9792e-17 0.5
    outer loop
      vertex 15.5303 -2 19.5855
      vertex 15.5303 2.21476e-15 19.5855
      vertex 13.7533 -2 16.5077
    endloop
  endfacet
  facet normal -0.866025 -4.9792e-17 0.5
    outer loop
      vertex 13.7533 -2 16.5077
      vertex 15.5303 2.21476e-15 19.5855
      vertex 13.7533 1.83785e-15 16.5077
    endloop
  endfacet
  facet normal -0.743145 -6.66347e-17 0.669131
    outer loop
      vertex 13.7533 -2 16.5077
      vertex 13.7533 1.83785e-15 16.5077
      vertex 11.3752 -2 13.8665
    endloop
  endfacet
  facet normal -0.743145 -6.66347e-17 0.669131
    outer loop
      vertex 11.3752 -2 13.8665
      vertex 13.7533 1.83785e-15 16.5077
      vertex 11.3752 1.51441e-15 13.8665
    endloop
  endfacet
  facet normal -0.587785 -8.05651e-17 0.809017
    outer loop
      vertex 8.5 -2 11.7776
      vertex 11.3752 -2 13.8665
      vertex 11.3752 1.51441e-15 13.8665
    endloop
  endfacet
  facet normal -0.587785 -8.05651e-17 0.809017
    outer loop
      vertex 8.5 1.2586e-15 11.7776
      vertex 8.5 -2 11.7776
      vertex 11.3752 1.51441e-15 13.8665
    endloop
  endfacet
  facet normal -0.406737 -9.09745e-17 0.913545
    outer loop
      vertex 5.25329 -2 10.332
      vertex 8.5 -2 11.7776
      vertex 8.5 1.2586e-15 11.7776
    endloop
  endfacet
  facet normal -0.406737 -9.09745e-17 0.913545
    outer loop
      vertex 5.25329 1.08158e-15 10.332
      vertex 5.25329 -2 10.332
      vertex 8.5 1.2586e-15 11.7776
    endloop
  endfacet
  facet normal -0.207912 -9.74078e-17 0.978148
    outer loop
      vertex 1.77698 -2 9.59313
      vertex 5.25329 -2 10.332
      vertex 5.25329 1.08158e-15 10.332
    endloop
  endfacet
  facet normal -0.207912 -9.74078e-17 0.978148
    outer loop
      vertex 1.77698 9.9109e-16 9.59313
      vertex 1.77698 -2 9.59313
      vertex 5.25329 1.08158e-15 10.332
    endloop
  endfacet
  facet normal 0 -9.9584e-17 1
    outer loop
      vertex -1.77698 -2 9.59313
      vertex 1.77698 -2 9.59313
      vertex 1.77698 9.9109e-16 9.59313
    endloop
  endfacet
  facet normal 0 -9.9584e-17 1
    outer loop
      vertex -1.77698 9.9109e-16 9.59313
      vertex -1.77698 -2 9.59313
      vertex 1.77698 9.9109e-16 9.59313
    endloop
  endfacet
  facet normal 0.207912 -9.74078e-17 0.978148
    outer loop
      vertex -5.25329 -2 10.332
      vertex -1.77698 -2 9.59313
      vertex -1.77698 9.9109e-16 9.59313
    endloop
  endfacet
  facet normal 0.207912 -9.74078e-17 0.978148
    outer loop
      vertex -5.25329 1.08158e-15 10.332
      vertex -5.25329 -2 10.332
      vertex -1.77698 9.9109e-16 9.59313
    endloop
  endfacet
  facet normal 0.406737 -9.09745e-17 0.913545
    outer loop
      vertex -8.5 -2 11.7776
      vertex -5.25329 -2 10.332
      vertex -5.25329 1.08158e-15 10.332
    endloop
  endfacet
  facet normal 0.406737 -9.09745e-17 0.913545
    outer loop
      vertex -8.5 1.2586e-15 11.7776
      vertex -8.5 -2 11.7776
      vertex -5.25329 1.08158e-15 10.332
    endloop
  endfacet
  facet normal 0.587785 -8.05651e-17 0.809017
    outer loop
      vertex -11.3752 -2 13.8665
      vertex -8.5 -2 11.7776
      vertex -8.5 1.2586e-15 11.7776
    endloop
  endfacet
  facet normal 0.587785 -8.05651e-17 0.809017
    outer loop
      vertex -11.3752 1.51441e-15 13.8665
      vertex -11.3752 -2 13.8665
      vertex -8.5 1.2586e-15 11.7776
    endloop
  endfacet
  facet normal 0.743145 -6.66347e-17 0.669131
    outer loop
      vertex -13.7533 -2 16.5077
      vertex -11.3752 -2 13.8665
      vertex -11.3752 1.51441e-15 13.8665
    endloop
  endfacet
  facet normal 0.743145 -6.66347e-17 0.669131
    outer loop
      vertex -13.7533 1.83785e-15 16.5077
      vertex -13.7533 -2 16.5077
      vertex -11.3752 1.51441e-15 13.8665
    endloop
  endfacet
  facet normal 0.866025 -4.9792e-17 0.5
    outer loop
      vertex -15.5303 -2 19.5855
      vertex -13.7533 -2 16.5077
      vertex -13.7533 1.83785e-15 16.5077
    endloop
  endfacet
  facet normal 0.866025 -4.9792e-17 0.5
    outer loop
      vertex -15.5303 2.21476e-15 19.5855
      vertex -15.5303 -2 19.5855
      vertex -13.7533 1.83785e-15 16.5077
    endloop
  endfacet
  facet normal 0.951057 -3.07731e-17 0.309017
    outer loop
      vertex -16.6285 -2 22.9655
      vertex -15.5303 -2 19.5855
      vertex -15.5303 2.21476e-15 19.5855
    endloop
  endfacet
  facet normal 0.951057 -3.07731e-17 0.309017
    outer loop
      vertex -16.6285 2.62868e-15 22.9655
      vertex -16.6285 -2 22.9655
      vertex -15.5303 2.21476e-15 19.5855
    endloop
  endfacet
  facet normal 0.994522 -1.04094e-17 0.104529
    outer loop
      vertex -17 -2 26.5
      vertex -16.6285 -2 22.9655
      vertex -16.6285 2.62868e-15 22.9655
    endloop
  endfacet
  facet normal 0.994522 -1.04094e-17 0.104529
    outer loop
      vertex -17 3.06152e-15 26.5
      vertex -17 -2 26.5
      vertex -16.6285 2.62868e-15 22.9655
    endloop
  endfacet
  facet normal 0.994522 1.04094e-17 -0.104529
    outer loop
      vertex -16.6285 3.49435e-15 30.0345
      vertex -16.6285 -2 30.0345
      vertex -17 -2 26.5
    endloop
  endfacet
  facet normal 0.994522 1.04094e-17 -0.104529
    outer loop
      vertex -17 3.06152e-15 26.5
      vertex -16.6285 3.49435e-15 30.0345
      vertex -17 -2 26.5
    endloop
  endfacet
  facet normal 0.951057 3.07731e-17 -0.309017
    outer loop
      vertex -15.5303 3.90827e-15 33.4145
      vertex -15.5303 -2 33.4145
      vertex -16.6285 -2 30.0345
    endloop
  endfacet
  facet normal 0.951057 3.07731e-17 -0.309017
    outer loop
      vertex -16.6285 3.49435e-15 30.0345
      vertex -15.5303 3.90827e-15 33.4145
      vertex -16.6285 -2 30.0345
    endloop
  endfacet
  facet normal 0.866025 4.9792e-17 -0.5
    outer loop
      vertex -13.7533 4.28519e-15 36.4923
      vertex -13.7533 -2 36.4923
      vertex -15.5303 -2 33.4145
    endloop
  endfacet
  facet normal 0.866025 4.9792e-17 -0.5
    outer loop
      vertex -15.5303 3.90827e-15 33.4145
      vertex -13.7533 4.28519e-15 36.4923
      vertex -15.5303 -2 33.4145
    endloop
  endfacet
  facet normal 0.743145 6.66347e-17 -0.669131
    outer loop
      vertex -12.3958 4.46981e-15 38
      vertex -12.3958 -2 38
      vertex -13.7533 -2 36.4923
    endloop
  endfacet
  facet normal 0.743145 6.66347e-17 -0.669131
    outer loop
      vertex -13.7533 4.28519e-15 36.4923
      vertex -12.3958 4.46981e-15 38
      vertex -13.7533 -2 36.4923
    endloop
  endfacet
  facet normal 0 1.22461e-16 1
    outer loop
      vertex -15.0723 -2 38
      vertex -18.5 4.46981e-15 38
      vertex -18.5 -6 38
    endloop
  endfacet
  facet normal 0 1.22461e-16 1
    outer loop
      vertex -15.0723 -2 38
      vertex -12.3958 -2 38
      vertex -12.3958 4.46981e-15 38
    endloop
  endfacet
  facet normal 0 1.22461e-16 1
    outer loop
      vertex -12.3958 4.46981e-15 38
      vertex -18.5 4.46981e-15 38
      vertex -15.0723 -2 38
    endloop
  endfacet
  facet normal 0 1.22461e-16 1
    outer loop
      vertex -15.0723 -6 38
      vertex -15.0723 -2 38
      vertex -18.5 -6 38
    endloop
  endfacet
  facet normal 0 -1 1.22461e-16
    outer loop
      vertex -18.5 -6 38
      vertex -27.5 -6 3
      vertex -27.5 -6 7.34764e-16
    endloop
  endfacet
  facet normal 0 -1 1.22461e-16
    outer loop
      vertex -20 -6 6
      vertex -19 -6 26.5
      vertex -18.5 -6 38
    endloop
  endfacet
  facet normal 0 -1 1.22461e-16
    outer loop
      vertex -22.5 -6 5
      vertex -18.5 -6 38
      vertex -27.5 -6 7.34764e-16
    endloop
  endfacet
  facet normal 0 -1 1.22461e-16
    outer loop
      vertex -22.5 -6 7.34764e-16
      vertex -22.5 -6 5
      vertex -27.5 -6 7.34764e-16
    endloop
  endfacet
  facet normal 0 -1 1.22461e-16
    outer loop
      vertex -20 -6 6
      vertex -18.5848 -6 22.5497
      vertex -19 -6 26.5
    endloop
  endfacet
  facet normal 0 -1 1.22461e-16
    outer loop
      vertex -18.5848 -6 30.4503
      vertex -17.3574 -6 34.228
      vertex -18.5 -6 38
    endloop
  endfacet
  facet normal 0 -1 1.22461e-16
    outer loop
      vertex 0.8 -6 5
      vertex -12 -6 6
      vertex -12 -6 5
    endloop
  endfacet
  facet normal 0 -1 1.22461e-16
    outer loop
      vertex -12.7135 -6 12.3802
      vertex -15.3713 -6 15.3321
      vertex -12 -6 6
    endloop
  endfacet
  facet normal 0 -1 1.22461e-16
    outer loop
      vertex 0.8 -6 6
      vertex -1.98604 -6 7.60408
      vertex 0.8 -6 5
    endloop
  endfacet
  facet normal 0 -1 1.22461e-16
    outer loop
      vertex 22.5 -6 5
      vertex 8.8 -6 6
      vertex 8.8 -6 5
    endloop
  endfacet
  facet normal 0 -1 1.22461e-16
    outer loop
      vertex 9.5 -6 10.0455
      vertex 5.87132 -6 8.42993
      vertex 8.8 -6 6
    endloop
  endfacet
  facet normal 0 -1 1.22461e-16
    outer loop
      vertex 27.0286 -6 7.34764e-16
      vertex 22.5 -6 5
      vertex 22.5 -6 7.34764e-16
    endloop
  endfacet
  facet normal 0 -1 1.22461e-16
    outer loop
      vertex 27.0286 -6 4.83333
      vertex 22.5 -6 5
      vertex 27.0286 -6 7.34764e-16
    endloop
  endfacet
  facet normal 0 -1 1.22461e-16
    outer loop
      vertex 1.98604 -6 7.60408
      vertex -1.98604 -6 7.60408
      vertex 0.8 -6 6
    endloop
  endfacet
  facet normal 0 -1 1.22461e-16
    outer loop
      vertex 15.3713 -6 15.3321
      vertex 22.5 -6 5
      vertex 27.0286 -6 4.83333
    endloop
  endfacet
  facet normal 0 -1 1.22461e-16
    outer loop
      vertex 15.3713 -6 15.3321
      vertex 12.7135 -6 12.3802
      vertex 22.5 -6 5
    endloop
  endfacet
  facet normal 0 -1 1.22461e-16
    outer loop
      vertex 18.5 -6 38
      vertex 15.0723 -6 38
      vertex 15.3713 -6 37.6679
    endloop
  endfacet
  facet normal 0 -1 1.22461e-16
    outer loop
      vertex 18.5 -6 38
      vertex 17.3574 -6 34.228
      vertex 27.0286 -6 4.83333
    endloop
  endfacet
  facet normal 0 -1 1.22461e-16
    outer loop
      vertex 18.5 -6 38
      vertex 15.3713 -6 37.6679
      vertex 17.3574 -6 34.228
    endloop
  endfacet
  facet normal 0 -1 1.22461e-16
    outer loop
      vertex 17.3574 -6 34.228
      vertex 18.5848 -6 30.4503
      vertex 27.0286 -6 4.83333
    endloop
  endfacet
  facet normal 0 -1 1.22461e-16
    outer loop
      vertex 19 -6 26.5
      vertex 18.5848 -6 22.5497
      vertex 27.0286 -6 4.83333
    endloop
  endfacet
  facet normal 0 -1 1.22461e-16
    outer loop
      vertex 18.5848 -6 22.5497
      vertex 17.3574 -6 18.772
      vertex 27.0286 -6 4.83333
    endloop
  endfacet
  facet normal 0 -1 1.22461e-16
    outer loop
      vertex 17.3574 -6 18.772
      vertex 15.3713 -6 15.3321
      vertex 27.0286 -6 4.83333
    endloop
  endfacet
  facet normal 0 -1 1.22461e-16
    outer loop
      vertex 22.5 -6 5
      vertex 12.7135 -6 12.3802
      vertex 8.8 -6 6
    endloop
  endfacet
  facet normal 0 -1 1.22461e-16
    outer loop
      vertex 12.7135 -6 12.3802
      vertex 9.5 -6 10.0455
      vertex 8.8 -6 6
    endloop
  endfacet
  facet normal 0 -1 1.22461e-16
    outer loop
      vertex 8.8 -6 6
      vertex 5.87132 -6 8.42993
      vertex 0.8 -6 6
    endloop
  endfacet
  facet normal 0 -1 1.22461e-16
    outer loop
      vertex 5.87132 -6 8.42993
      vertex 1.98604 -6 7.60408
      vertex 0.8 -6 6
    endloop
  endfacet
  facet normal 0 -1 1.22461e-16
    outer loop
      vertex 0.8 -6 5
      vertex -1.98604 -6 7.60408
      vertex -12 -6 6
    endloop
  endfacet
  facet normal 0 -1 1.22461e-16
    outer loop
      vertex -1.98604 -6 7.60408
      vertex -5.87132 -6 8.42993
      vertex -12 -6 6
    endloop
  endfacet
  facet normal 0 -1 1.22461e-16
    outer loop
      vertex -5.87132 -6 8.42993
      vertex -9.5 -6 10.0455
      vertex -12 -6 6
    endloop
  endfacet
  facet normal 0 -1 1.22461e-16
    outer loop
      vertex -9.5 -6 10.0455
      vertex -12.7135 -6 12.3802
      vertex -12 -6 6
    endloop
  endfacet
  facet normal 0 -1 1.22461e-16
    outer loop
      vertex 18.5848 -6 30.4503
      vertex 19 -6 26.5
      vertex 27.0286 -6 4.83333
    endloop
  endfacet
  facet normal 0 -1 1.22461e-16
    outer loop
      vertex -18.5848 -6 30.4503
      vertex -18.5 -6 38
      vertex -19 -6 26.5
    endloop
  endfacet
  facet normal 0 -1 1.22461e-16
    outer loop
      vertex -15.0723 -6 38
      vertex -18.5 -6 38
      vertex -15.3713 -6 37.6679
    endloop
  endfacet
  facet normal 0 -1 1.22461e-16
    outer loop
      vertex -22.5 -6 5
      vertex -20 -6 6
      vertex -18.5 -6 38
    endloop
  endfacet
  facet normal 0 -1 1.22461e-16
    outer loop
      vertex -22.5 -6 5
      vertex -20 -6 5
      vertex -20 -6 6
    endloop
  endfacet
  facet normal 0 -1 1.22461e-16
    outer loop
      vertex -20 -6 6
      vertex -17.3574 -6 18.772
      vertex -18.5848 -6 22.5497
    endloop
  endfacet
  facet normal 0 -1 1.22461e-16
    outer loop
      vertex -20 -6 6
      vertex -15.3713 -6 15.3321
      vertex -17.3574 -6 18.772
    endloop
  endfacet
  facet normal 0 -1 1.22461e-16
    outer loop
      vertex -20 -6 6
      vertex -12 -6 6
      vertex -15.3713 -6 15.3321
    endloop
  endfacet
  facet normal 0 -1 1.22461e-16
    outer loop
      vertex -17.3574 -6 34.228
      vertex -15.3713 -6 37.6679
      vertex -18.5 -6 38
    endloop
  endfacet
  facet normal 0 1.22461e-16 1
    outer loop
      vertex -12 -6 6
      vertex -20 -6 6
      vertex -20 -36.8 6
    endloop
  endfacet
  facet normal 0 1.22461e-16 1
    outer loop
      vertex -12 -36.8 6
      vertex -12 -6 6
      vertex -20 -36.8 6
    endloop
  endfacet
  facet normal 0 -1 1.22461e-16
    outer loop
      vertex -12 -36.8 6
      vertex -20 -36.8 6
      vertex -20 -36.8 4.50655e-15
    endloop
  endfacet
  facet normal 0 -1 1.22461e-16
    outer loop
      vertex -12 -36.8 4.50655e-15
      vertex -12 -36.8 6
      vertex -20 -36.8 4.50655e-15
    endloop
  endfacet
  facet normal 0 1.22461e-16 1
    outer loop
      vertex 8.8 -6 6
      vertex 0.8 -6 6
      vertex 0.8 -36.8 6
    endloop
  endfacet
  facet normal 0 1.22461e-16 1
    outer loop
      vertex 8.8 -11.2 6
      vertex 8.8 -6 6
      vertex 0.8 -36.8 6
    endloop
  endfacet
  facet normal 0 1.22461e-16 1
    outer loop
      vertex 24.8 -11.2 6
      vertex 36 -17.6 6
      vertex 35.1 -16.1 6
    endloop
  endfacet
  facet normal 0 1.22461e-16 1
    outer loop
      vertex 24.8 -29.6 6
      vertex 8.8 -29.6 6
      vertex 26.4 -36.8 6
    endloop
  endfacet
  facet normal 0 1.22461e-16 1
    outer loop
      vertex 24.8 -11.2 6
      vertex 35.1 -16.1 6
      vertex 34 -14.8 6
    endloop
  endfacet
  facet normal 0 1.22461e-16 1
    outer loop
      vertex 24.8 -11.2 6
      vertex 36.7 -19.1 6
      vertex 36 -17.6 6
    endloop
  endfacet
  facet normal 0 1.22461e-16 1
    outer loop
      vertex 32 -12.8 6
      vertex 24.8 -11.2 6
      vertex 34 -14.8 6
    endloop
  endfacet
  facet normal 0 1.22461e-16 1
    outer loop
      vertex 8.8 -29.6 6
      vertex 8.8 -18.4 6
      vertex 0.8 -36.8 6
    endloop
  endfacet
  facet normal 0 1.22461e-16 1
    outer loop
      vertex 28 -19.3 6
      vertex 28.8 -20 6
      vertex 37.4 -26.3 6
    endloop
  endfacet
  facet normal 0 1.22461e-16 1
    outer loop
      vertex 26.4 -36.8 6
      vertex 8.8 -29.6 6
      vertex 0.8 -36.8 6
    endloop
  endfacet
  facet normal 0 1.22461e-16 1
    outer loop
      vertex 8.8 -18.4 6
      vertex 8.8 -11.2 6
      vertex 0.8 -36.8 6
    endloop
  endfacet
  facet normal 0 1.22461e-16 1
    outer loop
      vertex 8.8 -18.4 6
      vertex 24.8 -18.4 6
      vertex 8.8 -11.2 6
    endloop
  endfacet
  facet normal 0 1.22461e-16 1
    outer loop
      vertex 28.8 -20 6
      vertex 29.5 -20.8 6
      vertex 37.4 -26.3 6
    endloop
  endfacet
  facet normal 0 1.22461e-16 1
    outer loop
      vertex 37.6 -24 6
      vertex 28 -19.3 6
      vertex 37.4 -26.3 6
    endloop
  endfacet
  facet normal 0 1.22461e-16 1
    outer loop
      vertex 37.6 -24 6
      vertex 27.2 -18.8 6
      vertex 28 -19.3 6
    endloop
  endfacet
  facet normal 0 1.22461e-16 1
    outer loop
      vertex 30.3 -22.6 6
      vertex 30.4 -24 6
      vertex 36.8 -28.4 6
    endloop
  endfacet
  facet normal 0 1.22461e-16 1
    outer loop
      vertex 37.4 -26.3 6
      vertex 29.5 -20.8 6
      vertex 30 -21.6 6
    endloop
  endfacet
  facet normal 0 1.22461e-16 1
    outer loop
      vertex 37.4 -26.3 6
      vertex 30.3 -22.6 6
      vertex 36.8 -28.4 6
    endloop
  endfacet
  facet normal 0 1.22461e-16 1
    outer loop
      vertex 36.8 -28.4 6
      vertex 30.4 -24 6
      vertex 35.8 -30.3 6
    endloop
  endfacet
  facet normal 0 1.22461e-16 1
    outer loop
      vertex 30.4 -24 6
      vertex 30.3 -24.9 6
      vertex 35.8 -30.3 6
    endloop
  endfacet
  facet normal 0 1.22461e-16 1
    outer loop
      vertex 35.8 -30.3 6
      vertex 30 -26 6
      vertex 34.4 -32 6
    endloop
  endfacet
  facet normal 0 1.22461e-16 1
    outer loop
      vertex 34.4 -32 6
      vertex 29.5 -27.1 6
      vertex 32.7 -33.5 6
    endloop
  endfacet
  facet normal 0 1.22461e-16 1
    outer loop
      vertex 29.5 -27.1 6
      vertex 28.8 -28 6
      vertex 32.7 -33.5 6
    endloop
  endfacet
  facet normal 0 1.22461e-16 1
    outer loop
      vertex 32.7 -33.5 6
      vertex 27.9 -28.7 6
      vertex 30.8 -34.8 6
    endloop
  endfacet
  facet normal 0 1.22461e-16 1
    outer loop
      vertex 27.9 -28.7 6
      vertex 26.8 -29.2 6
      vertex 30.8 -34.8 6
    endloop
  endfacet
  facet normal 0 1.22461e-16 1
    outer loop
      vertex 30.8 -34.8 6
      vertex 25.7 -29.5 6
      vertex 28.7 -35.9 6
    endloop
  endfacet
  facet normal 0 1.22461e-16 1
    outer loop
      vertex 25.7 -29.5 6
      vertex 24.8 -29.6 6
      vertex 28.7 -35.9 6
    endloop
  endfacet
  facet normal 0 1.22461e-16 1
    outer loop
      vertex 29.6 5.51073e-16 6
      vertex 32 -12.8 6
      vertex 37.6 5.51073e-16 6
    endloop
  endfacet
  facet normal 0 1.22461e-16 1
    outer loop
      vertex 29.6 5.51073e-16 6
      vertex 24.8 -11.2 6
      vertex 32 -12.8 6
    endloop
  endfacet
  facet normal 0 1.22461e-16 1
    outer loop
      vertex 24.8 -11.2 6
      vertex 37.2 -20.4 6
      vertex 36.7 -19.1 6
    endloop
  endfacet
  facet normal 0 1.22461e-16 1
    outer loop
      vertex 24.8 -11.2 6
      vertex 37.5 -21.7 6
      vertex 37.2 -20.4 6
    endloop
  endfacet
  facet normal 0 1.22461e-16 1
    outer loop
      vertex 24.8 -11.2 6
      vertex 37.6 -23.2 6
      vertex 37.5 -21.7 6
    endloop
  endfacet
  facet normal 0 1.22461e-16 1
    outer loop
      vertex 24.8 -11.2 6
      vertex 37.6 -24 6
      vertex 37.6 -23.2 6
    endloop
  endfacet
  facet normal 0 1.22461e-16 1
    outer loop
      vertex 24.8 -11.2 6
      vertex 27.2 -18.8 6
      vertex 37.6 -24 6
    endloop
  endfacet
  facet normal 0 1.22461e-16 1
    outer loop
      vertex 30 -21.6 6
      vertex 30.3 -22.6 6
      vertex 37.4 -26.3 6
    endloop
  endfacet
  facet normal 0 1.22461e-16 1
    outer loop
      vertex 24.8 -11.2 6
      vertex 26.2 -18.5 6
      vertex 27.2 -18.8 6
    endloop
  endfacet
  facet normal 0 1.22461e-16 1
    outer loop
      vertex 24.8 -11.2 6
      vertex 24.8 -18.4 6
      vertex 26.2 -18.5 6
    endloop
  endfacet
  facet normal 0 1.22461e-16 1
    outer loop
      vertex 30.3 -24.9 6
      vertex 30 -26 6
      vertex 35.8 -30.3 6
    endloop
  endfacet
  facet normal 0 1.22461e-16 1
    outer loop
      vertex 30 -26 6
      vertex 29.5 -27.1 6
      vertex 34.4 -32 6
    endloop
  endfacet
  facet normal 0 1.22461e-16 1
    outer loop
      vertex 28.8 -28 6
      vertex 27.9 -28.7 6
      vertex 32.7 -33.5 6
    endloop
  endfacet
  facet normal 0 1.22461e-16 1
    outer loop
      vertex 26.8 -29.2 6
      vertex 25.7 -29.5 6
      vertex 30.8 -34.8 6
    endloop
  endfacet
  facet normal 0 1.22461e-16 1
    outer loop
      vertex 24.8 -29.6 6
      vertex 26.4 -36.8 6
      vertex 28.7 -35.9 6
    endloop
  endfacet
  facet normal 0 1.22461e-16 1
    outer loop
      vertex 24.8 -11.2 6
      vertex 8.8 -11.2 6
      vertex 24.8 -18.4 6
    endloop
  endfacet
  facet normal 0 -1 1.22461e-16
    outer loop
      vertex 26.4 -36.8 6
      vertex 0.8 -36.8 6
      vertex 0.8 -36.8 4.50655e-15
    endloop
  endfacet
  facet normal 0 -1 1.22461e-16
    outer loop
      vertex 26.4 -36.8 4.50655e-15
      vertex 26.4 -36.8 6
      vertex 0.8 -36.8 4.50655e-15
    endloop
  endfacet
  facet normal 0.364399 -0.931243 1.14041e-16
    outer loop
      vertex 26.4 -36.8 4.50655e-15
      vertex 28.7 -35.9 4.39634e-15
      vertex 28.7 -35.9 6
    endloop
  endfacet
  facet normal 0.364399 -0.931243 1.14041e-16
    outer loop
      vertex 26.4 -36.8 6
      vertex 26.4 -36.8 4.50655e-15
      vertex 28.7 -35.9 6
    endloop
  endfacet
  facet normal 0.464007 -0.885832 1.08479e-16
    outer loop
      vertex 28.7 -35.9 4.39634e-15
      vertex 30.8 -34.8 4.26163e-15
      vertex 30.8 -34.8 6
    endloop
  endfacet
  facet normal 0.464007 -0.885832 1.08479e-16
    outer loop
      vertex 28.7 -35.9 6
      vertex 28.7 -35.9 4.39634e-15
      vertex 30.8 -34.8 6
    endloop
  endfacet
  facet normal 0.564684 -0.825307 1.01068e-16
    outer loop
      vertex 30.8 -34.8 4.26163e-15
      vertex 32.7 -33.5 4.10243e-15
      vertex 32.7 -33.5 6
    endloop
  endfacet
  facet normal 0.564684 -0.825307 1.01068e-16
    outer loop
      vertex 30.8 -34.8 6
      vertex 30.8 -34.8 4.26163e-15
      vertex 32.7 -33.5 6
    endloop
  endfacet
  facet normal 0.661622 -0.749838 9.18256e-17
    outer loop
      vertex 32.7 -33.5 4.10243e-15
      vertex 34.4 -32 3.91874e-15
      vertex 34.4 -32 6
    endloop
  endfacet
  facet normal 0.661622 -0.749838 9.18256e-17
    outer loop
      vertex 32.7 -33.5 6
      vertex 32.7 -33.5 4.10243e-15
      vertex 34.4 -32 6
    endloop
  endfacet
  facet normal 0.77193 -0.635707 7.78491e-17
    outer loop
      vertex 34.4 -32 3.91874e-15
      vertex 35.8 -30.3 3.71056e-15
      vertex 35.8 -30.3 6
    endloop
  endfacet
  facet normal 0.77193 -0.635707 7.78491e-17
    outer loop
      vertex 34.4 -32 6
      vertex 34.4 -32 3.91874e-15
      vertex 35.8 -30.3 6
    endloop
  endfacet
  facet normal 0.884918 -0.465746 5.70356e-17
    outer loop
      vertex 35.8 -30.3 3.71056e-15
      vertex 36.8 -28.4 3.47788e-15
      vertex 36.8 -28.4 6
    endloop
  endfacet
  facet normal 0.884918 -0.465746 5.70356e-17
    outer loop
      vertex 35.8 -30.3 6
      vertex 35.8 -30.3 3.71056e-15
      vertex 36.8 -28.4 6
    endloop
  endfacet
  facet normal 0.961524 -0.274721 3.36425e-17
    outer loop
      vertex 36.8 -28.4 3.47788e-15
      vertex 37.4 -26.3 3.22071e-15
      vertex 37.4 -26.3 6
    endloop
  endfacet
  facet normal 0.961524 -0.274721 3.36425e-17
    outer loop
      vertex 36.8 -28.4 6
      vertex 36.8 -28.4 3.47788e-15
      vertex 37.4 -26.3 6
    endloop
  endfacet
  facet normal 0.996241 -0.0866296 1.06087e-17
    outer loop
      vertex 37.4 -26.3 3.22071e-15
      vertex 37.6 -24 2.93906e-15
      vertex 37.6 -24 6
    endloop
  endfacet
  facet normal 0.996241 -0.0866296 1.06087e-17
    outer loop
      vertex 37.4 -26.3 6
      vertex 37.4 -26.3 3.22071e-15
      vertex 37.6 -24 6
    endloop
  endfacet
  facet normal 1 0 0
    outer loop
      vertex 37.6 -23.2 2.84109e-15
      vertex 37.6 -23.2 6
      vertex 37.6 -24 6
    endloop
  endfacet
  facet normal 1 0 0
    outer loop
      vertex 37.6 -24 2.93906e-15
      vertex 37.6 -23.2 2.84109e-15
      vertex 37.6 -24 6
    endloop
  endfacet
  facet normal 0.997785 0.066519 -8.14596e-18
    outer loop
      vertex 37.6 -23.2 6
      vertex 37.6 -23.2 2.84109e-15
      vertex 37.5 -21.7 2.6574e-15
    endloop
  endfacet
  facet normal 0.997785 0.066519 -8.14596e-18
    outer loop
      vertex 37.5 -21.7 6
      vertex 37.6 -23.2 6
      vertex 37.5 -21.7 2.6574e-15
    endloop
  endfacet
  facet normal 0.974391 0.22486 -2.75364e-17
    outer loop
      vertex 37.5 -21.7 6
      vertex 37.5 -21.7 2.6574e-15
      vertex 37.2 -20.4 2.4982e-15
    endloop
  endfacet
  facet normal 0.974391 0.22486 -2.75364e-17
    outer loop
      vertex 37.2 -20.4 6
      vertex 37.5 -21.7 6
      vertex 37.2 -20.4 2.4982e-15
    endloop
  endfacet
  facet normal 0.933346 0.358979 -4.39608e-17
    outer loop
      vertex 37.2 -20.4 6
      vertex 37.2 -20.4 2.4982e-15
      vertex 36.7 -19.1 2.339e-15
    endloop
  endfacet
  facet normal 0.933346 0.358979 -4.39608e-17
    outer loop
      vertex 36.7 -19.1 6
      vertex 37.2 -20.4 6
      vertex 36.7 -19.1 2.339e-15
    endloop
  endfacet
  facet normal 0.906183 0.422885 -5.17868e-17
    outer loop
      vertex 36.7 -19.1 6
      vertex 36.7 -19.1 2.339e-15
      vertex 36 -17.6 2.15531e-15
    endloop
  endfacet
  facet normal 0.906183 0.422885 -5.17868e-17
    outer loop
      vertex 36 -17.6 6
      vertex 36.7 -19.1 6
      vertex 36 -17.6 2.15531e-15
    endloop
  endfacet
  facet normal 0.857493 0.514496 -6.30055e-17
    outer loop
      vertex 36 -17.6 6
      vertex 36 -17.6 2.15531e-15
      vertex 35.1 -16.1 1.97162e-15
    endloop
  endfacet
  facet normal 0.857493 0.514496 -6.30055e-17
    outer loop
      vertex 35.1 -16.1 6
      vertex 36 -17.6 6
      vertex 35.1 -16.1 1.97162e-15
    endloop
  endfacet
  facet normal 0.763386 0.645942 -7.91025e-17
    outer loop
      vertex 35.1 -16.1 6
      vertex 35.1 -16.1 1.97162e-15
      vertex 34 -14.8 1.81242e-15
    endloop
  endfacet
  facet normal 0.763386 0.645942 -7.91025e-17
    outer loop
      vertex 34 -14.8 6
      vertex 35.1 -16.1 6
      vertex 34 -14.8 1.81242e-15
    endloop
  endfacet
  facet normal 0.707107 0.707107 -8.65927e-17
    outer loop
      vertex 32 -12.8 1.5675e-15
      vertex 32 -12.8 6
      vertex 34 -14.8 6
    endloop
  endfacet
  facet normal 0.707107 0.707107 -8.65927e-17
    outer loop
      vertex 34 -14.8 1.81242e-15
      vertex 32 -12.8 1.5675e-15
      vertex 34 -14.8 6
    endloop
  endfacet
  facet normal 0.916157 -0.400819 4.90845e-17
    outer loop
      vertex 37.6 5.51073e-16 6
      vertex 32 -12.8 6
      vertex 32 -12.8 1.5675e-15
    endloop
  endfacet
  facet normal 0.916157 -0.400819 4.90845e-17
    outer loop
      vertex 37.6 -1.83691e-16 0
      vertex 37.6 5.51073e-16 6
      vertex 32 -12.8 1.5675e-15
    endloop
  endfacet
  facet normal 0 1 -1.22461e-16
    outer loop
      vertex 29.6 5.51073e-16 6
      vertex 37.6 5.51073e-16 6
      vertex 29.6 -1.83691e-16 0
    endloop
  endfacet
  facet normal 0 1 -1.22461e-16
    outer loop
      vertex 29.6 -1.83691e-16 0
      vertex 37.6 5.51073e-16 6
      vertex 37.6 -1.83691e-16 0
    endloop
  endfacet
  facet normal -0.919145 0.393919 -4.82396e-17
    outer loop
      vertex 27.0286 -6 7.34764e-16
      vertex 24.8 -11.2 1.37156e-15
      vertex 27.0286 -6 4.83333
    endloop
  endfacet
  facet normal -0.919145 0.393919 -4.82396e-17
    outer loop
      vertex 27.5 -4.9 6.00057e-16
      vertex 29.6 5.51073e-16 6
      vertex 29.6 -1.83691e-16 0
    endloop
  endfacet
  facet normal -0.919145 0.393919 -4.82396e-17
    outer loop
      vertex 27.5 -4.9 3
      vertex 29.6 5.51073e-16 6
      vertex 27.5 -4.9 6.00057e-16
    endloop
  endfacet
  facet normal -0.919145 0.393919 -4.82396e-17
    outer loop
      vertex 24.8 -11.2 6
      vertex 29.6 5.51073e-16 6
      vertex 27.0286 -6 4.83333
    endloop
  endfacet
  facet normal -0.919145 0.393919 -4.82396e-17
    outer loop
      vertex 24.8 -11.2 6
      vertex 27.0286 -6 4.83333
      vertex 24.8 -11.2 1.37156e-15
    endloop
  endfacet
  facet normal -0.919145 0.393919 -4.82396e-17
    outer loop
      vertex 27.0286 -6 4.83333
      vertex 29.6 5.51073e-16 6
      vertex 27.5 -4.9 3
    endloop
  endfacet
  facet normal 0 1 -1.22461e-16
    outer loop
      vertex 8.8 -11.2 6
      vertex 24.8 -11.2 6
      vertex 8.8 -11.2 1.37156e-15
    endloop
  endfacet
  facet normal 0 1 -1.22461e-16
    outer loop
      vertex 8.8 -11.2 1.37156e-15
      vertex 24.8 -11.2 6
      vertex 24.8 -11.2 1.37156e-15
    endloop
  endfacet
  facet normal 0 -1 1.22461e-16
    outer loop
      vertex 8.8 -18.4 2.25328e-15
      vertex 24.8 -18.4 2.25328e-15
      vertex 24.8 -18.4 6
    endloop
  endfacet
  facet normal 0 -1 1.22461e-16
    outer loop
      vertex 8.8 -18.4 6
      vertex 8.8 -18.4 2.25328e-15
      vertex 24.8 -18.4 6
    endloop
  endfacet
  facet normal 1 0 0
    outer loop
      vertex 8.8 -29.6 6
      vertex 8.8 -29.6 3.62483e-15
      vertex 8.8 -18.4 2.25328e-15
    endloop
  endfacet
  facet normal 1 0 0
    outer loop
      vertex 8.8 -18.4 6
      vertex 8.8 -29.6 6
      vertex 8.8 -18.4 2.25328e-15
    endloop
  endfacet
  facet normal -0.071247 -0.997459 1.22149e-16
    outer loop
      vertex 26.2 -18.5 6
      vertex 24.8 -18.4 6
      vertex 24.8 -18.4 2.25328e-15
    endloop
  endfacet
  facet normal -0.071247 -0.997459 1.22149e-16
    outer loop
      vertex 26.2 -18.5 2.26552e-15
      vertex 26.2 -18.5 6
      vertex 24.8 -18.4 2.25328e-15
    endloop
  endfacet
  facet normal -0.287348 -0.957826 1.17296e-16
    outer loop
      vertex 27.2 -18.8 6
      vertex 26.2 -18.5 6
      vertex 26.2 -18.5 2.26552e-15
    endloop
  endfacet
  facet normal -0.287348 -0.957826 1.17296e-16
    outer loop
      vertex 27.2 -18.8 2.30226e-15
      vertex 27.2 -18.8 6
      vertex 26.2 -18.5 2.26552e-15
    endloop
  endfacet
  facet normal -0.529999 -0.847998 1.03846e-16
    outer loop
      vertex 28 -19.3 6
      vertex 27.2 -18.8 6
      vertex 27.2 -18.8 2.30226e-15
    endloop
  endfacet
  facet normal -0.529999 -0.847998 1.03846e-16
    outer loop
      vertex 28 -19.3 2.36349e-15
      vertex 28 -19.3 6
      vertex 27.2 -18.8 2.30226e-15
    endloop
  endfacet
  facet normal -0.658505 -0.752577 9.2161e-17
    outer loop
      vertex 28.8 -20 6
      vertex 28 -19.3 6
      vertex 28 -19.3 2.36349e-15
    endloop
  endfacet
  facet normal -0.658505 -0.752577 9.2161e-17
    outer loop
      vertex 28.8 -20 2.44921e-15
      vertex 28.8 -20 6
      vertex 28 -19.3 2.36349e-15
    endloop
  endfacet
  facet normal -0.752577 -0.658505 8.06409e-17
    outer loop
      vertex 28.8 -20 6
      vertex 28.8 -20 2.44921e-15
      vertex 29.5 -20.8 6
    endloop
  endfacet
  facet normal -0.752577 -0.658505 8.06409e-17
    outer loop
      vertex 29.5 -20.8 6
      vertex 28.8 -20 2.44921e-15
      vertex 29.5 -20.8 2.54718e-15
    endloop
  endfacet
  facet normal -0.847998 -0.529999 6.4904e-17
    outer loop
      vertex 29.5 -20.8 6
      vertex 29.5 -20.8 2.54718e-15
      vertex 30 -21.6 6
    endloop
  endfacet
  facet normal -0.847998 -0.529999 6.4904e-17
    outer loop
      vertex 30 -21.6 6
      vertex 29.5 -20.8 2.54718e-15
      vertex 30 -21.6 2.64515e-15
    endloop
  endfacet
  facet normal -0.957826 -0.287348 3.51888e-17
    outer loop
      vertex 30 -21.6 6
      vertex 30 -21.6 2.64515e-15
      vertex 30.3 -22.6 6
    endloop
  endfacet
  facet normal -0.957826 -0.287348 3.51888e-17
    outer loop
      vertex 30.3 -22.6 6
      vertex 30 -21.6 2.64515e-15
      vertex 30.3 -22.6 2.76761e-15
    endloop
  endfacet
  facet normal -0.997459 -0.071247 8.72496e-18
    outer loop
      vertex 30.3 -22.6 6
      vertex 30.3 -22.6 2.76761e-15
      vertex 30.4 -24 6
    endloop
  endfacet
  facet normal -0.997459 -0.071247 8.72496e-18
    outer loop
      vertex 30.4 -24 6
      vertex 30.3 -22.6 2.76761e-15
      vertex 30.4 -24 2.93906e-15
    endloop
  endfacet
  facet normal -0.993884 0.110432 -1.35235e-17
    outer loop
      vertex 30.3 -24.9 6
      vertex 30.4 -24 6
      vertex 30.3 -24.9 3.04927e-15
    endloop
  endfacet
  facet normal -0.993884 0.110432 -1.35235e-17
    outer loop
      vertex 30.3 -24.9 3.04927e-15
      vertex 30.4 -24 6
      vertex 30.4 -24 2.93906e-15
    endloop
  endfacet
  facet normal -0.964764 0.263117 -3.22215e-17
    outer loop
      vertex 30 -26 6
      vertex 30.3 -24.9 6
      vertex 30 -26 3.18398e-15
    endloop
  endfacet
  facet normal -0.964764 0.263117 -3.22215e-17
    outer loop
      vertex 30 -26 3.18398e-15
      vertex 30.3 -24.9 6
      vertex 30.3 -24.9 3.04927e-15
    endloop
  endfacet
  facet normal -0.910366 0.413803 -5.06746e-17
    outer loop
      vertex 29.5 -27.1 6
      vertex 30 -26 6
      vertex 29.5 -27.1 3.31868e-15
    endloop
  endfacet
  facet normal -0.910366 0.413803 -5.06746e-17
    outer loop
      vertex 29.5 -27.1 3.31868e-15
      vertex 30 -26 6
      vertex 30 -26 3.18398e-15
    endloop
  endfacet
  facet normal -0.789352 0.613941 -7.51836e-17
    outer loop
      vertex 28.8 -28 6
      vertex 29.5 -27.1 6
      vertex 28.8 -28 3.4289e-15
    endloop
  endfacet
  facet normal -0.789352 0.613941 -7.51836e-17
    outer loop
      vertex 28.8 -28 3.4289e-15
      vertex 29.5 -27.1 6
      vertex 29.5 -27.1 3.31868e-15
    endloop
  endfacet
  facet normal -0.613941 0.789352 -9.66646e-17
    outer loop
      vertex 27.9 -28.7 6
      vertex 28.8 -28 6
      vertex 27.9 -28.7 3.51462e-15
    endloop
  endfacet
  facet normal -0.613941 0.789352 -9.66646e-17
    outer loop
      vertex 27.9 -28.7 3.51462e-15
      vertex 28.8 -28 6
      vertex 28.8 -28 3.4289e-15
    endloop
  endfacet
  facet normal -0.413803 0.910366 -1.11484e-16
    outer loop
      vertex 26.8 -29.2 6
      vertex 27.9 -28.7 6
      vertex 26.8 -29.2 3.57585e-15
    endloop
  endfacet
  facet normal -0.413803 0.910366 -1.11484e-16
    outer loop
      vertex 26.8 -29.2 3.57585e-15
      vertex 27.9 -28.7 6
      vertex 27.9 -28.7 3.51462e-15
    endloop
  endfacet
  facet normal -0.263117 0.964764 -1.18146e-16
    outer loop
      vertex 25.7 -29.5 6
      vertex 26.8 -29.2 6
      vertex 25.7 -29.5 3.61259e-15
    endloop
  endfacet
  facet normal -0.263117 0.964764 -1.18146e-16
    outer loop
      vertex 25.7 -29.5 3.61259e-15
      vertex 26.8 -29.2 6
      vertex 26.8 -29.2 3.57585e-15
    endloop
  endfacet
  facet normal -0.110432 0.993884 -1.21712e-16
    outer loop
      vertex 24.8 -29.6 6
      vertex 25.7 -29.5 6
      vertex 24.8 -29.6 3.62483e-15
    endloop
  endfacet
  facet normal -0.110432 0.993884 -1.21712e-16
    outer loop
      vertex 24.8 -29.6 3.62483e-15
      vertex 25.7 -29.5 6
      vertex 25.7 -29.5 3.61259e-15
    endloop
  endfacet
  facet normal 0 1 -1.22461e-16
    outer loop
      vertex 24.8 -29.6 3.62483e-15
      vertex 8.8 -29.6 3.62483e-15
      vertex 24.8 -29.6 6
    endloop
  endfacet
  facet normal 0 1 -1.22461e-16
    outer loop
      vertex 24.8 -29.6 6
      vertex 8.8 -29.6 3.62483e-15
      vertex 8.8 -29.6 6
    endloop
  endfacet
  facet normal -0.743145 6.66347e-17 -0.669131
    outer loop
      vertex 15.3713 -2 37.6679
      vertex 15.3713 -6 37.6679
      vertex 15.0723 -2 38
    endloop
  endfacet
  facet normal -0.743145 6.66347e-17 -0.669131
    outer loop
      vertex 15.0723 -2 38
      vertex 15.3713 -6 37.6679
      vertex 15.0723 -6 38
    endloop
  endfacet
  facet normal 0 -1 -9.9584e-17
    outer loop
      vertex -18.5848 -2 22.5497
      vertex -17.3574 -2 18.772
      vertex -15.3713 -2 15.3321
    endloop
  endfacet
  facet normal 0 -1 -9.9584e-17
    outer loop
      vertex -9.5 -2 10.0455
      vertex -18.5848 -2 22.5497
      vertex -12.7135 -2 12.3802
    endloop
  endfacet
  facet normal 0 -1 -9.9584e-17
    outer loop
      vertex -12.7135 -2 12.3802
      vertex -18.5848 -2 22.5497
      vertex -15.3713 -2 15.3321
    endloop
  endfacet
  facet normal 0 -1 -9.9584e-17
    outer loop
      vertex -13.7533 -2 16.5077
      vertex -18.5848 -2 22.5497
      vertex -9.5 -2 10.0455
    endloop
  endfacet
  facet normal 0 -1 -9.9584e-17
    outer loop
      vertex -8.5 -2 11.7776
      vertex -11.3752 -2 13.8665
      vertex -5.87132 -2 8.42993
    endloop
  endfacet
  facet normal 0 -1 -9.9584e-17
    outer loop
      vertex -1.77698 -2 9.59313
      vertex -5.25329 -2 10.332
      vertex -1.98604 -2 7.60408
    endloop
  endfacet
  facet normal 0 -1 -9.9584e-17
    outer loop
      vertex 1.77698 -2 9.59313
      vertex -1.77698 -2 9.59313
      vertex 1.98604 -2 7.60408
    endloop
  endfacet
  facet normal 0 -1 -9.9584e-17
    outer loop
      vertex 5.25329 -2 10.332
      vertex 1.77698 -2 9.59313
      vertex 5.87132 -2 8.42993
    endloop
  endfacet
  facet normal 0 -1 -9.9584e-17
    outer loop
      vertex 8.5 -2 11.7776
      vertex 5.25329 -2 10.332
      vertex 9.5 -2 10.0455
    endloop
  endfacet
  facet normal 0 -1 -9.9584e-17
    outer loop
      vertex 11.3752 -2 13.8665
      vertex 8.5 -2 11.7776
      vertex 12.7135 -2 12.3802
    endloop
  endfacet
  facet normal 0 -1 -9.9584e-17
    outer loop
      vertex 13.7533 -2 16.5077
      vertex 11.3752 -2 13.8665
      vertex 15.3713 -2 15.3321
    endloop
  endfacet
  facet normal 0 -1 -9.9584e-17
    outer loop
      vertex 15.5303 -2 19.5855
      vertex 13.7533 -2 16.5077
      vertex 17.3574 -2 18.772
    endloop
  endfacet
  facet normal 0 -1 -9.9584e-17
    outer loop
      vertex 16.6285 -2 22.9655
      vertex 15.5303 -2 19.5855
      vertex 18.5848 -2 22.5497
    endloop
  endfacet
  facet normal 0 -1 -9.9584e-17
    outer loop
      vertex -13.7533 -2 16.5077
      vertex -15.5303 -2 19.5855
      vertex -18.5848 -2 22.5497
    endloop
  endfacet
  facet normal 0 -1 -9.9584e-17
    outer loop
      vertex 13.7533 -2 36.4923
      vertex 15.5303 -2 33.4145
      vertex 17.3574 -2 34.228
    endloop
  endfacet
  facet normal 0 -1 -9.9584e-17
    outer loop
      vertex 16.6285 -2 30.0345
      vertex 17 -2 26.5
      vertex 18.5848 -2 30.4503
    endloop
  endfacet
  facet normal 0 -1 -9.9584e-17
    outer loop
      vertex 15.3713 -2 37.6679
      vertex 13.7533 -2 36.4923
      vertex 17.3574 -2 34.228
    endloop
  endfacet
  facet normal 0 -1 -9.9584e-17
    outer loop
      vertex 17.3574 -2 34.228
      vertex 15.5303 -2 33.4145
      vertex 18.5848 -2 30.4503
    endloop
  endfacet
  facet normal 0 -1 -9.9584e-17
    outer loop
      vertex 15.5303 -2 33.4145
      vertex 16.6285 -2 30.0345
      vertex 18.5848 -2 30.4503
    endloop
  endfacet
  facet normal 0 -1 -9.9584e-17
    outer loop
      vertex 18.5848 -2 30.4503
      vertex 17 -2 26.5
      vertex 19 -2 26.5
    endloop
  endfacet
  facet normal 0 -1 -9.9584e-17
    outer loop
      vertex 19 -2 26.5
      vertex 16.6285 -2 22.9655
      vertex 18.5848 -2 22.5497
    endloop
  endfacet
  facet normal 0 -1 -9.9584e-17
    outer loop
      vertex 18.5848 -2 22.5497
      vertex 15.5303 -2 19.5855
      vertex 17.3574 -2 18.772
    endloop
  endfacet
  facet normal 0 -1 -9.9584e-17
    outer loop
      vertex 17.3574 -2 18.772
      vertex 13.7533 -2 16.5077
      vertex 15.3713 -2 15.3321
    endloop
  endfacet
  facet normal 0 -1 -9.9584e-17
    outer loop
      vertex -16.6285 -2 22.9655
      vertex -17 -2 26.5
      vertex -18.5848 -2 22.5497
    endloop
  endfacet
  facet normal 0 -1 -9.9584e-17
    outer loop
      vertex 15.3713 -2 15.3321
      vertex 11.3752 -2 13.8665
      vertex 12.7135 -2 12.3802
    endloop
  endfacet
  facet normal 0 -1 -9.9584e-17
    outer loop
      vertex 12.7135 -2 12.3802
      vertex 8.5 -2 11.7776
      vertex 9.5 -2 10.0455
    endloop
  endfacet
  facet normal 0 -1 -9.9584e-17
    outer loop
      vertex 9.5 -2 10.0455
      vertex 5.25329 -2 10.332
      vertex 5.87132 -2 8.42993
    endloop
  endfacet
  facet normal 0 -1 -9.9584e-17
    outer loop
      vertex 5.87132 -2 8.42993
      vertex 1.77698 -2 9.59313
      vertex 1.98604 -2 7.60408
    endloop
  endfacet
  facet normal 0 -1 -9.9584e-17
    outer loop
      vertex 1.98604 -2 7.60408
      vertex -1.77698 -2 9.59313
      vertex -1.98604 -2 7.60408
    endloop
  endfacet
  facet normal 0 -1 -9.9584e-17
    outer loop
      vertex -1.98604 -2 7.60408
      vertex -5.25329 -2 10.332
      vertex -5.87132 -2 8.42993
    endloop
  endfacet
  facet normal 0 -1 -9.9584e-17
    outer loop
      vertex -5.25329 -2 10.332
      vertex -8.5 -2 11.7776
      vertex -5.87132 -2 8.42993
    endloop
  endfacet
  facet normal 0 -1 -9.9584e-17
    outer loop
      vertex -5.87132 -2 8.42993
      vertex -11.3752 -2 13.8665
      vertex -9.5 -2 10.0455
    endloop
  endfacet
  facet normal 0 -1 -9.9584e-17
    outer loop
      vertex -11.3752 -2 13.8665
      vertex -13.7533 -2 16.5077
      vertex -9.5 -2 10.0455
    endloop
  endfacet
  facet normal 0 -1 -9.9584e-17
    outer loop
      vertex 17 -2 26.5
      vertex 16.6285 -2 22.9655
      vertex 19 -2 26.5
    endloop
  endfacet
  facet normal 0 -1 -9.9584e-17
    outer loop
      vertex -16.6285 -2 30.0345
      vertex -18.5848 -2 22.5497
      vertex -17 -2 26.5
    endloop
  endfacet
  facet normal 0 -1 -9.9584e-17
    outer loop
      vertex -15.0723 -2 38
      vertex -18.5848 -2 22.5497
      vertex -16.6285 -2 30.0345
    endloop
  endfacet
  facet normal 0 -1 -9.9584e-17
    outer loop
      vertex -15.0723 -2 38
      vertex -16.6285 -2 30.0345
      vertex -15.5303 -2 33.4145
    endloop
  endfacet
  facet normal 0 -1 -9.9584e-17
    outer loop
      vertex -15.0723 -2 38
      vertex -15.5303 -2 33.4145
      vertex -13.7533 -2 36.4923
    endloop
  endfacet
  facet normal 0 -1 -9.9584e-17
    outer loop
      vertex -15.0723 -2 38
      vertex -13.7533 -2 36.4923
      vertex -12.3958 -2 38
    endloop
  endfacet
  facet normal 0 -1 -9.9584e-17
    outer loop
      vertex -15.3713 -2 37.6679
      vertex -18.5848 -2 22.5497
      vertex -15.0723 -2 38
    endloop
  endfacet
  facet normal 0 -1 -9.9584e-17
    outer loop
      vertex -17.3574 -2 34.228
      vertex -18.5848 -2 22.5497
      vertex -15.3713 -2 37.6679
    endloop
  endfacet
  facet normal 0 -1 -9.9584e-17
    outer loop
      vertex -18.5848 -2 30.4503
      vertex -18.5848 -2 22.5497
      vertex -17.3574 -2 34.228
    endloop
  endfacet
  facet normal 0 -1 -9.9584e-17
    outer loop
      vertex -19 -2 26.5
      vertex -18.5848 -2 22.5497
      vertex -18.5848 -2 30.4503
    endloop
  endfacet
  facet normal 0 -1 -9.9584e-17
    outer loop
      vertex 12.3958 -2 38
      vertex 15.3713 -2 37.6679
      vertex 15.0723 -2 38
    endloop
  endfacet
  facet normal 0 -1 -9.9584e-17
    outer loop
      vertex 12.3958 -2 38
      vertex 13.7533 -2 36.4923
      vertex 15.3713 -2 37.6679
    endloop
  endfacet
  facet normal 0 -1 -9.9584e-17
    outer loop
      vertex -15.5303 -2 19.5855
      vertex -16.6285 -2 22.9655
      vertex -18.5848 -2 22.5497
    endloop
  endfacet
  facet normal 0.743145 6.66347e-17 -0.669131
    outer loop
      vertex -15.0723 -2 38
      vertex -15.0723 -6 38
      vertex -15.3713 -6 37.6679
    endloop
  endfacet
  facet normal 0.743145 6.66347e-17 -0.669131
    outer loop
      vertex -15.3713 -2 37.6679
      vertex -15.0723 -2 38
      vertex -15.3713 -6 37.6679
    endloop
  endfacet
  facet normal 0.866025 4.9792e-17 -0.5
    outer loop
      vertex -15.3713 -2 37.6679
      vertex -15.3713 -6 37.6679
      vertex -17.3574 -6 34.228
    endloop
  endfacet
  facet normal 0.866025 4.9792e-17 -0.5
    outer loop
      vertex -17.3574 -2 34.228
      vertex -15.3713 -2 37.6679
      vertex -17.3574 -6 34.228
    endloop
  endfacet
  facet normal 0.951057 3.07731e-17 -0.309017
    outer loop
      vertex -17.3574 -2 34.228
      vertex -17.3574 -6 34.228
      vertex -18.5848 -6 30.4503
    endloop
  endfacet
  facet normal 0.951057 3.07731e-17 -0.309017
    outer loop
      vertex -18.5848 -2 30.4503
      vertex -17.3574 -2 34.228
      vertex -18.5848 -6 30.4503
    endloop
  endfacet
  facet normal 0.994522 1.04094e-17 -0.104529
    outer loop
      vertex -18.5848 -2 30.4503
      vertex -18.5848 -6 30.4503
      vertex -19 -6 26.5
    endloop
  endfacet
  facet normal 0.994522 1.04094e-17 -0.104529
    outer loop
      vertex -19 -2 26.5
      vertex -18.5848 -2 30.4503
      vertex -19 -6 26.5
    endloop
  endfacet
  facet normal 0.994522 -1.04094e-17 0.104529
    outer loop
      vertex -19 -6 26.5
      vertex -18.5848 -6 22.5497
      vertex -18.5848 -2 22.5497
    endloop
  endfacet
  facet normal 0.994522 -1.04094e-17 0.104529
    outer loop
      vertex -19 -2 26.5
      vertex -19 -6 26.5
      vertex -18.5848 -2 22.5497
    endloop
  endfacet
  facet normal 0.951057 -3.07731e-17 0.309017
    outer loop
      vertex -18.5848 -6 22.5497
      vertex -17.3574 -6 18.772
      vertex -17.3574 -2 18.772
    endloop
  endfacet
  facet normal 0.951057 -3.07731e-17 0.309017
    outer loop
      vertex -18.5848 -2 22.5497
      vertex -18.5848 -6 22.5497
      vertex -17.3574 -2 18.772
    endloop
  endfacet
  facet normal 0.866025 -4.9792e-17 0.5
    outer loop
      vertex -17.3574 -6 18.772
      vertex -15.3713 -6 15.3321
      vertex -15.3713 -2 15.3321
    endloop
  endfacet
  facet normal 0.866025 -4.9792e-17 0.5
    outer loop
      vertex -17.3574 -2 18.772
      vertex -17.3574 -6 18.772
      vertex -15.3713 -2 15.3321
    endloop
  endfacet
  facet normal 0.743145 -6.66347e-17 0.669131
    outer loop
      vertex -15.3713 -6 15.3321
      vertex -12.7135 -6 12.3802
      vertex -12.7135 -2 12.3802
    endloop
  endfacet
  facet normal 0.743145 -6.66347e-17 0.669131
    outer loop
      vertex -15.3713 -2 15.3321
      vertex -15.3713 -6 15.3321
      vertex -12.7135 -2 12.3802
    endloop
  endfacet
  facet normal 0.587785 -8.05651e-17 0.809017
    outer loop
      vertex -12.7135 -6 12.3802
      vertex -9.5 -6 10.0455
      vertex -9.5 -2 10.0455
    endloop
  endfacet
  facet normal 0.587785 -8.05651e-17 0.809017
    outer loop
      vertex -12.7135 -2 12.3802
      vertex -12.7135 -6 12.3802
      vertex -9.5 -2 10.0455
    endloop
  endfacet
  facet normal 0.406737 -9.09745e-17 0.913545
    outer loop
      vertex -9.5 -6 10.0455
      vertex -5.87132 -6 8.42993
      vertex -5.87132 -2 8.42993
    endloop
  endfacet
  facet normal 0.406737 -9.09745e-17 0.913545
    outer loop
      vertex -9.5 -2 10.0455
      vertex -9.5 -6 10.0455
      vertex -5.87132 -2 8.42993
    endloop
  endfacet
  facet normal 0.207912 -9.74078e-17 0.978148
    outer loop
      vertex -5.87132 -6 8.42993
      vertex -1.98604 -6 7.60408
      vertex -1.98604 -2 7.60408
    endloop
  endfacet
  facet normal 0.207912 -9.74078e-17 0.978148
    outer loop
      vertex -5.87132 -2 8.42993
      vertex -5.87132 -6 8.42993
      vertex -1.98604 -2 7.60408
    endloop
  endfacet
  facet normal 0 -9.9584e-17 1
    outer loop
      vertex -1.98604 -6 7.60408
      vertex 1.98604 -6 7.60408
      vertex 1.98604 -2 7.60408
    endloop
  endfacet
  facet normal 0 -9.9584e-17 1
    outer loop
      vertex -1.98604 -2 7.60408
      vertex -1.98604 -6 7.60408
      vertex 1.98604 -2 7.60408
    endloop
  endfacet
  facet normal -0.207912 -9.74078e-17 0.978148
    outer loop
      vertex 1.98604 -6 7.60408
      vertex 5.87132 -6 8.42993
      vertex 5.87132 -2 8.42993
    endloop
  endfacet
  facet normal -0.207912 -9.74078e-17 0.978148
    outer loop
      vertex 1.98604 -2 7.60408
      vertex 1.98604 -6 7.60408
      vertex 5.87132 -2 8.42993
    endloop
  endfacet
  facet normal -0.406737 -9.09745e-17 0.913545
    outer loop
      vertex 5.87132 -6 8.42993
      vertex 9.5 -6 10.0455
      vertex 9.5 -2 10.0455
    endloop
  endfacet
  facet normal -0.406737 -9.09745e-17 0.913545
    outer loop
      vertex 5.87132 -2 8.42993
      vertex 5.87132 -6 8.42993
      vertex 9.5 -2 10.0455
    endloop
  endfacet
  facet normal -0.587785 -8.05651e-17 0.809017
    outer loop
      vertex 9.5 -6 10.0455
      vertex 12.7135 -6 12.3802
      vertex 12.7135 -2 12.3802
    endloop
  endfacet
  facet normal -0.587785 -8.05651e-17 0.809017
    outer loop
      vertex 9.5 -2 10.0455
      vertex 9.5 -6 10.0455
      vertex 12.7135 -2 12.3802
    endloop
  endfacet
  facet normal -0.743145 -6.66347e-17 0.669131
    outer loop
      vertex 15.3713 -6 15.3321
      vertex 15.3713 -2 15.3321
      vertex 12.7135 -6 12.3802
    endloop
  endfacet
  facet normal -0.743145 -6.66347e-17 0.669131
    outer loop
      vertex 12.7135 -6 12.3802
      vertex 15.3713 -2 15.3321
      vertex 12.7135 -2 12.3802
    endloop
  endfacet
  facet normal -0.866025 -4.9792e-17 0.5
    outer loop
      vertex 17.3574 -6 18.772
      vertex 17.3574 -2 18.772
      vertex 15.3713 -6 15.3321
    endloop
  endfacet
  facet normal -0.866025 -4.9792e-17 0.5
    outer loop
      vertex 15.3713 -6 15.3321
      vertex 17.3574 -2 18.772
      vertex 15.3713 -2 15.3321
    endloop
  endfacet
  facet normal -0.951057 -3.07731e-17 0.309017
    outer loop
      vertex 18.5848 -6 22.5497
      vertex 18.5848 -2 22.5497
      vertex 17.3574 -6 18.772
    endloop
  endfacet
  facet normal -0.951057 -3.07731e-17 0.309017
    outer loop
      vertex 17.3574 -6 18.772
      vertex 18.5848 -2 22.5497
      vertex 17.3574 -2 18.772
    endloop
  endfacet
  facet normal -0.994522 -1.04094e-17 0.104529
    outer loop
      vertex 19 -6 26.5
      vertex 19 -2 26.5
      vertex 18.5848 -6 22.5497
    endloop
  endfacet
  facet normal -0.994522 -1.04094e-17 0.104529
    outer loop
      vertex 18.5848 -6 22.5497
      vertex 19 -2 26.5
      vertex 18.5848 -2 22.5497
    endloop
  endfacet
  facet normal -0.994522 1.04094e-17 -0.104529
    outer loop
      vertex 19 -6 26.5
      vertex 18.5848 -6 30.4503
      vertex 19 -2 26.5
    endloop
  endfacet
  facet normal -0.994522 1.04094e-17 -0.104529
    outer loop
      vertex 19 -2 26.5
      vertex 18.5848 -6 30.4503
      vertex 18.5848 -2 30.4503
    endloop
  endfacet
  facet normal -0.951057 3.07731e-17 -0.309017
    outer loop
      vertex 18.5848 -6 30.4503
      vertex 17.3574 -6 34.228
      vertex 18.5848 -2 30.4503
    endloop
  endfacet
  facet normal -0.951057 3.07731e-17 -0.309017
    outer loop
      vertex 18.5848 -2 30.4503
      vertex 17.3574 -6 34.228
      vertex 17.3574 -2 34.228
    endloop
  endfacet
  facet normal -0.866025 4.9792e-17 -0.5
    outer loop
      vertex 17.3574 -6 34.228
      vertex 15.3713 -6 37.6679
      vertex 17.3574 -2 34.228
    endloop
  endfacet
  facet normal -0.866025 4.9792e-17 -0.5
    outer loop
      vertex 17.3574 -2 34.228
      vertex 15.3713 -6 37.6679
      vertex 15.3713 -2 37.6679
    endloop
  endfacet
endsolid OpenSCAD_Model
