solid OpenSCAD_Model
  facet normal 0 1 -1.22461e-16
    outer loop
      vertex -34.4 5.51073e-16 6
      vertex -27.2 5.51073e-16 6
      vertex -34.4 -1.83691e-16 0
    endloop
  endfacet
  facet normal 0 1 -1.22461e-16
    outer loop
      vertex -34.4 -1.83691e-16 0
      vertex -27.2 5.51073e-16 6
      vertex -27.2 3.26562e-16 4.16667
    endloop
  endfacet
  facet normal 0 1 -1.22461e-16
    outer loop
      vertex -13.7533 4.28519e-15 36.4923
      vertex -18.5 4.46981e-15 38
      vertex -12.3958 4.46981e-15 38
    endloop
  endfacet
  facet normal 0 1 -1.22461e-16
    outer loop
      vertex -15.5303 3.90827e-15 33.4145
      vertex -18.5 4.46981e-15 38
      vertex -13.7533 4.28519e-15 36.4923
    endloop
  endfacet
  facet normal 0 1 -1.22461e-16
    outer loop
      vertex -27.2 3.26562e-16 4.16667
      vertex -18.5 4.46981e-15 38
      vertex -15.5303 3.90827e-15 33.4145
    endloop
  endfacet
  facet normal 0 1 -1.22461e-16
    outer loop
      vertex -27.2 3.26562e-16 4.16667
      vertex -15.5303 3.90827e-15 33.4145
      vertex -16.6285 3.49435e-15 30.0345
    endloop
  endfacet
  facet normal 0 1 -1.22461e-16
    outer loop
      vertex -4.8 4.28612e-16 5
      vertex 27.5 1.83691e-16 3
      vertex -4.8 -1.83691e-16 0
    endloop
  endfacet
  facet normal 0 1 -1.22461e-16
    outer loop
      vertex -27.2 3.26562e-16 4.16667
      vertex -17 3.06152e-15 26.5
      vertex -16.6285 2.62868e-15 22.9655
    endloop
  endfacet
  facet normal 0 1 -1.22461e-16
    outer loop
      vertex -27.2 3.26562e-16 4.16667
      vertex -8.5 1.2586e-15 11.7776
      vertex -34.4 -1.83691e-16 0
    endloop
  endfacet
  facet normal 0 1 -1.22461e-16
    outer loop
      vertex -16.6285 2.62868e-15 22.9655
      vertex -15.5303 2.21476e-15 19.5855
      vertex -27.2 3.26562e-16 4.16667
    endloop
  endfacet
  facet normal 0 1 -1.22461e-16
    outer loop
      vertex -15.5303 2.21476e-15 19.5855
      vertex -13.7533 1.83785e-15 16.5077
      vertex -27.2 3.26562e-16 4.16667
    endloop
  endfacet
  facet normal 0 1 -1.22461e-16
    outer loop
      vertex -13.7533 1.83785e-15 16.5077
      vertex -11.3752 1.51441e-15 13.8665
      vertex -27.2 3.26562e-16 4.16667
    endloop
  endfacet
  facet normal 0 1 -1.22461e-16
    outer loop
      vertex -11.3752 1.51441e-15 13.8665
      vertex -8.5 1.2586e-15 11.7776
      vertex -27.2 3.26562e-16 4.16667
    endloop
  endfacet
  facet normal 0 1 -1.22461e-16
    outer loop
      vertex -22.5 -1.83691e-16 0
      vertex -34.4 -1.83691e-16 0
      vertex -22.5 4.28612e-16 5
    endloop
  endfacet
  facet normal 0 1 -1.22461e-16
    outer loop
      vertex -22.5 4.28612e-16 5
      vertex -5.25329 1.08158e-15 10.332
      vertex -1.77698 9.9109e-16 9.59313
    endloop
  endfacet
  facet normal 0 1 -1.22461e-16
    outer loop
      vertex 8.5 1.2586e-15 11.7776
      vertex 27.5 1.83691e-16 3
      vertex 5.25329 1.08158e-15 10.332
    endloop
  endfacet
  facet normal 0 1 -1.22461e-16
    outer loop
      vertex 11.3752 1.51441e-15 13.8665
      vertex 27.5 1.83691e-16 3
      vertex 8.5 1.2586e-15 11.7776
    endloop
  endfacet
  facet normal 0 1 -1.22461e-16
    outer loop
      vertex 13.7533 1.83785e-15 16.5077
      vertex 27.5 1.83691e-16 3
      vertex 11.3752 1.51441e-15 13.8665
    endloop
  endfacet
  facet normal 0 1 -1.22461e-16
    outer loop
      vertex 15.5303 2.21476e-15 19.5855
      vertex 27.5 1.83691e-16 3
      vertex 13.7533 1.83785e-15 16.5077
    endloop
  endfacet
  facet normal 0 1 -1.22461e-16
    outer loop
      vertex 17 3.06152e-15 26.5
      vertex 18.5 4.46981e-15 38
      vertex 16.6285 2.62868e-15 22.9655
    endloop
  endfacet
  facet normal 0 1 -1.22461e-16
    outer loop
      vertex 16.6285 3.49435e-15 30.0345
      vertex 18.5 4.46981e-15 38
      vertex 17 3.06152e-15 26.5
    endloop
  endfacet
  facet normal 0 1 -1.22461e-16
    outer loop
      vertex 15.5303 3.90827e-15 33.4145
      vertex 18.5 4.46981e-15 38
      vertex 16.6285 3.49435e-15 30.0345
    endloop
  endfacet
  facet normal 0 1 -1.22461e-16
    outer loop
      vertex 13.7533 4.28519e-15 36.4923
      vertex 12.3958 4.46981e-15 38
      vertex 18.5 4.46981e-15 38
    endloop
  endfacet
  facet normal 0 1 -1.22461e-16
    outer loop
      vertex 13.7533 4.28519e-15 36.4923
      vertex 18.5 4.46981e-15 38
      vertex 15.5303 3.90827e-15 33.4145
    endloop
  endfacet
  facet normal 0 1 -1.22461e-16
    outer loop
      vertex 16.6285 2.62868e-15 22.9655
      vertex 18.5 4.46981e-15 38
      vertex 27.5 1.83691e-16 3
    endloop
  endfacet
  facet normal 0 1 -1.22461e-16
    outer loop
      vertex 16.6285 2.62868e-15 22.9655
      vertex 27.5 1.83691e-16 3
      vertex 15.5303 2.21476e-15 19.5855
    endloop
  endfacet
  facet normal 0 1 -1.22461e-16
    outer loop
      vertex -4.8 -1.83691e-16 0
      vertex 27.5 1.83691e-16 3
      vertex 27.5 -1.83691e-16 0
    endloop
  endfacet
  facet normal 0 1 -1.22461e-16
    outer loop
      vertex 1.77698 9.9109e-16 9.59313
      vertex 5.25329 1.08158e-15 10.332
      vertex -4.8 4.28612e-16 5
    endloop
  endfacet
  facet normal 0 1 -1.22461e-16
    outer loop
      vertex 5.25329 1.08158e-15 10.332
      vertex 27.5 1.83691e-16 3
      vertex -4.8 4.28612e-16 5
    endloop
  endfacet
  facet normal 0 1 -1.22461e-16
    outer loop
      vertex -8.5 1.2586e-15 11.7776
      vertex -5.25329 1.08158e-15 10.332
      vertex -22.5 4.28612e-16 5
    endloop
  endfacet
  facet normal 0 1 -1.22461e-16
    outer loop
      vertex -8.5 1.2586e-15 11.7776
      vertex -22.5 4.28612e-16 5
      vertex -34.4 -1.83691e-16 0
    endloop
  endfacet
  facet normal 0 1 -1.22461e-16
    outer loop
      vertex -22.5 4.28612e-16 5
      vertex -1.77698 9.9109e-16 9.59313
      vertex 1.77698 9.9109e-16 9.59313
    endloop
  endfacet
  facet normal 0 1 -1.22461e-16
    outer loop
      vertex -17 3.06152e-15 26.5
      vertex -27.2 3.26562e-16 4.16667
      vertex -16.6285 3.49435e-15 30.0345
    endloop
  endfacet
  facet normal 0 1 -1.22461e-16
    outer loop
      vertex -22.5 4.28612e-16 5
      vertex 1.77698 9.9109e-16 9.59313
      vertex -4.8 4.28612e-16 5
    endloop
  endfacet
  facet normal 0 1.22461e-16 1
    outer loop
      vertex -27.2 5.51073e-16 6
      vertex -34.4 5.51073e-16 6
      vertex -34.4 -36.8 6
    endloop
  endfacet
  facet normal 0 1.22461e-16 1
    outer loop
      vertex 26.4 -14.4 6
      vertex 35.8 -20 6
      vertex 34.4 -18.4 6
    endloop
  endfacet
  facet normal 0 1.22461e-16 1
    outer loop
      vertex -27.2 -26.4 6
      vertex -27.2 5.51073e-16 6
      vertex -34.4 -36.8 6
    endloop
  endfacet
  facet normal 0 1.22461e-16 1
    outer loop
      vertex 26.4 -14.4 6
      vertex 36.8 -21.6 6
      vertex 35.8 -20 6
    endloop
  endfacet
  facet normal 0 1.22461e-16 1
    outer loop
      vertex 26.4 -14.4 6
      vertex 37.4 -23.4 6
      vertex 36.8 -21.6 6
    endloop
  endfacet
  facet normal 0 1.22461e-16 1
    outer loop
      vertex -16 -15.2 6
      vertex -26.4 -36.8 6
      vertex -16 -25.6 6
    endloop
  endfacet
  facet normal 0 1.22461e-16 1
    outer loop
      vertex -16 -15.2 6
      vertex -27.2 -26.4 6
      vertex -26.4 -36.8 6
    endloop
  endfacet
  facet normal 0 1.22461e-16 1
    outer loop
      vertex 26.4 -14.4 6
      vertex 37.6 -25.6 6
      vertex 37.4 -23.4 6
    endloop
  endfacet
  facet normal 0 1.22461e-16 1
    outer loop
      vertex 8 -21.6 6
      vertex 8 -14.4 6
      vertex -4.8 -6 6
    endloop
  endfacet
  facet normal 0 1.22461e-16 1
    outer loop
      vertex 26.4 -29.6 6
      vertex 26.4 -36.8 6
      vertex 28.7 -36.5 6
    endloop
  endfacet
  facet normal 0 1.22461e-16 1
    outer loop
      vertex 29.2 -28.4 6
      vertex 27.9 -29.3 6
      vertex 35.8 -31.8 6
    endloop
  endfacet
  facet normal 0 1.22461e-16 1
    outer loop
      vertex 30.2 -9.6 6
      vertex 30.4 -11.2 6
      vertex 37.6 -11.2 6
    endloop
  endfacet
  facet normal 0 1.22461e-16 1
    outer loop
      vertex 30.1 -12.6 6
      vertex 29.2 -13.6 6
      vertex 36.8 -14.8 6
    endloop
  endfacet
  facet normal 0 1.22461e-16 1
    outer loop
      vertex 36.8 -6.8 6
      vertex 26.7286 -6 6
      vertex 37.4 -8.9 6
    endloop
  endfacet
  facet normal 0 1.22461e-16 1
    outer loop
      vertex 26.4 -29.6 6
      vertex 8 -29.6 6
      vertex 26.4 -36.8 6
    endloop
  endfacet
  facet normal 0 1.22461e-16 1
    outer loop
      vertex 26.4 -36.8 6
      vertex -4.8 -26.4 6
      vertex -4.8 -36.8 6
    endloop
  endfacet
  facet normal 0 1.22461e-16 1
    outer loop
      vertex -4.8 -26.4 6
      vertex -10.4 -20 6
      vertex -4.8 -36.8 6
    endloop
  endfacet
  facet normal 0 1.22461e-16 1
    outer loop
      vertex -10.4 -20 6
      vertex -16 -15.2 6
      vertex -4.8 -36.8 6
    endloop
  endfacet
  facet normal 0 1.22461e-16 1
    outer loop
      vertex -26.4 -36.8 6
      vertex -27.2 -26.4 6
      vertex -34.4 -36.8 6
    endloop
  endfacet
  facet normal 0 1.22461e-16 1
    outer loop
      vertex 26.4 -29.6 6
      vertex 28.7 -36.5 6
      vertex 30.8 -35.6 6
    endloop
  endfacet
  facet normal 0 1.22461e-16 1
    outer loop
      vertex 28 -22 6
      vertex 29.6 -23.2 6
      vertex 37.6 -25.6 6
    endloop
  endfacet
  facet normal 0 1.22461e-16 1
    outer loop
      vertex 27.9 -14.2 6
      vertex 26.4 -14.4 6
      vertex 35.8 -16.7 6
    endloop
  endfacet
  facet normal 0 1.22461e-16 1
    outer loop
      vertex 30.4 -11.2 6
      vertex 30.1 -12.6 6
      vertex 37.4 -12.9 6
    endloop
  endfacet
  facet normal 0 1.22461e-16 1
    outer loop
      vertex 26.7286 -6 6
      vertex 28 -7.4 6
      vertex 37.4 -8.9 6
    endloop
  endfacet
  facet normal 0 1.22461e-16 1
    outer loop
      vertex 26.7286 -6 6
      vertex 26.4 -7.2 6
      vertex 28 -7.4 6
    endloop
  endfacet
  facet normal 0 1.22461e-16 1
    outer loop
      vertex 37.4 -8.9 6
      vertex 29.6 -8 6
      vertex 37.6 -11.2 6
    endloop
  endfacet
  facet normal 0 1.22461e-16 1
    outer loop
      vertex 29.6 -8 6
      vertex 30.2 -9.6 6
      vertex 37.6 -11.2 6
    endloop
  endfacet
  facet normal 0 1.22461e-16 1
    outer loop
      vertex 37.6 -11.2 6
      vertex 30.4 -11.2 6
      vertex 37.4 -12.9 6
    endloop
  endfacet
  facet normal 0 1.22461e-16 1
    outer loop
      vertex 37.4 -12.9 6
      vertex 30.1 -12.6 6
      vertex 36.8 -14.8 6
    endloop
  endfacet
  facet normal 0 1.22461e-16 1
    outer loop
      vertex 36.8 -14.8 6
      vertex 29.2 -13.6 6
      vertex 35.8 -16.7 6
    endloop
  endfacet
  facet normal 0 1.22461e-16 1
    outer loop
      vertex 29.2 -13.6 6
      vertex 27.9 -14.2 6
      vertex 35.8 -16.7 6
    endloop
  endfacet
  facet normal 0 1.22461e-16 1
    outer loop
      vertex 8 -14.4 6
      vertex 8 -7.2 6
      vertex -4.8 -6 6
    endloop
  endfacet
  facet normal 0 1.22461e-16 1
    outer loop
      vertex 35.8 -16.7 6
      vertex 26.4 -14.4 6
      vertex 34.4 -18.4 6
    endloop
  endfacet
  facet normal 0 1.22461e-16 1
    outer loop
      vertex 26.4 -29.6 6
      vertex 30.8 -35.6 6
      vertex 32.7 -34.4 6
    endloop
  endfacet
  facet normal 0 1.22461e-16 1
    outer loop
      vertex 26.4 -36.8 6
      vertex 8 -29.6 6
      vertex -4.8 -26.4 6
    endloop
  endfacet
  facet normal 0 1.22461e-16 1
    outer loop
      vertex -16 -15.2 6
      vertex -16 -25.6 6
      vertex -4.8 -36.8 6
    endloop
  endfacet
  facet normal 0 1.22461e-16 1
    outer loop
      vertex 26.4 -14.4 6
      vertex 8 -14.4 6
      vertex 37.6 -25.6 6
    endloop
  endfacet
  facet normal 0 1.22461e-16 1
    outer loop
      vertex 28 -22 6
      vertex 8 -14.4 6
      vertex 26.4 -21.6 6
    endloop
  endfacet
  facet normal 0 1.22461e-16 1
    outer loop
      vertex 29.6 -23.2 6
      vertex 30.2 -24.2 6
      vertex 37.4 -27.9 6
    endloop
  endfacet
  facet normal 0 1.22461e-16 1
    outer loop
      vertex 37.6 -25.6 6
      vertex 8 -14.4 6
      vertex 28 -22 6
    endloop
  endfacet
  facet normal 0 1.22461e-16 1
    outer loop
      vertex 37.6 -25.6 6
      vertex 29.6 -23.2 6
      vertex 37.4 -27.9 6
    endloop
  endfacet
  facet normal 0 1.22461e-16 1
    outer loop
      vertex 37.4 -27.9 6
      vertex 30.4 -25.6 6
      vertex 36.8 -30 6
    endloop
  endfacet
  facet normal 0 1.22461e-16 1
    outer loop
      vertex 36.8 -30 6
      vertex 30.1 -27.1 6
      vertex 35.8 -31.8 6
    endloop
  endfacet
  facet normal 0 1.22461e-16 1
    outer loop
      vertex 30.1 -27.1 6
      vertex 29.2 -28.4 6
      vertex 35.8 -31.8 6
    endloop
  endfacet
  facet normal 0 1.22461e-16 1
    outer loop
      vertex 35.8 -31.8 6
      vertex 27.9 -29.3 6
      vertex 34.4 -33.2 6
    endloop
  endfacet
  facet normal 0 1.22461e-16 1
    outer loop
      vertex 8 -21.6 6
      vertex 26.4 -21.6 6
      vertex 8 -14.4 6
    endloop
  endfacet
  facet normal 0 1.22461e-16 1
    outer loop
      vertex 34.4 -33.2 6
      vertex 26.4 -29.6 6
      vertex 32.7 -34.4 6
    endloop
  endfacet
  facet normal 0 1.22461e-16 1
    outer loop
      vertex 26.7286 -0.0285714 6
      vertex 30.8 -0.8 6
      vertex 28.7 -0.2 6
    endloop
  endfacet
  facet normal 0 1.22461e-16 1
    outer loop
      vertex 26.7286 -0.0285714 6
      vertex 32.7 -1.8 6
      vertex 30.8 -0.8 6
    endloop
  endfacet
  facet normal 0 1.22461e-16 1
    outer loop
      vertex 26.7286 -0.0285714 6
      vertex 34.4 -3.2 6
      vertex 32.7 -1.8 6
    endloop
  endfacet
  facet normal 0 1.22461e-16 1
    outer loop
      vertex 26.7286 -0.0285714 6
      vertex 35.8 -4.9 6
      vertex 34.4 -3.2 6
    endloop
  endfacet
  facet normal 0 1.22461e-16 1
    outer loop
      vertex 26.7286 -0.0285714 6
      vertex 36.8 -6.8 6
      vertex 35.8 -4.9 6
    endloop
  endfacet
  facet normal 0 1.22461e-16 1
    outer loop
      vertex 26.7286 -0.0285714 6
      vertex 26.7286 -6 6
      vertex 36.8 -6.8 6
    endloop
  endfacet
  facet normal 0 1.22461e-16 1
    outer loop
      vertex 26.7286 -6 6
      vertex 8 -7.2 6
      vertex 26.4 -7.2 6
    endloop
  endfacet
  facet normal 0 1.22461e-16 1
    outer loop
      vertex 28 -7.4 6
      vertex 29.6 -8 6
      vertex 37.4 -8.9 6
    endloop
  endfacet
  facet normal 0 1.22461e-16 1
    outer loop
      vertex 26.7286 -6 6
      vertex -4.8 -6 6
      vertex 8 -7.2 6
    endloop
  endfacet
  facet normal 0 1.22461e-16 1
    outer loop
      vertex 27.9 -29.3 6
      vertex 26.4 -29.6 6
      vertex 34.4 -33.2 6
    endloop
  endfacet
  facet normal 0 1.22461e-16 1
    outer loop
      vertex 30.4 -25.6 6
      vertex 30.1 -27.1 6
      vertex 36.8 -30 6
    endloop
  endfacet
  facet normal 0 1.22461e-16 1
    outer loop
      vertex 30.2 -24.2 6
      vertex 30.4 -25.6 6
      vertex 37.4 -27.9 6
    endloop
  endfacet
  facet normal 0 1.22461e-16 1
    outer loop
      vertex -4.8 -6 6
      vertex 8 -29.6 6
      vertex 8 -21.6 6
    endloop
  endfacet
  facet normal 0 1.22461e-16 1
    outer loop
      vertex -4.8 -6 6
      vertex -4.8 -26.4 6
      vertex 8 -29.6 6
    endloop
  endfacet
  facet normal -1 0 0
    outer loop
      vertex -34.4 5.51073e-16 6
      vertex -34.4 -1.83691e-16 0
      vertex -34.4 -36.8 6
    endloop
  endfacet
  facet normal -1 0 0
    outer loop
      vertex -34.4 -36.8 6
      vertex -34.4 -1.83691e-16 0
      vertex -34.4 -36.8 4.50655e-15
    endloop
  endfacet
  facet normal 0 -1.22461e-16 -1
    outer loop
      vertex -27.2 -26.4 3.23296e-15
      vertex -34.4 -36.8 4.50655e-15
      vertex -27.2 -6 7.34764e-16
    endloop
  endfacet
  facet normal 0 -1.22461e-16 -1
    outer loop
      vertex -34.4 -1.83691e-16 0
      vertex -22.5 -1.83691e-16 0
      vertex -27.2 -6 7.34764e-16
    endloop
  endfacet
  facet normal 0 -1.22461e-16 -1
    outer loop
      vertex -34.4 -1.83691e-16 0
      vertex -27.2 -6 7.34764e-16
      vertex -34.4 -36.8 4.50655e-15
    endloop
  endfacet
  facet normal 0 -1.22461e-16 -1
    outer loop
      vertex -34.4 -36.8 4.50655e-15
      vertex -27.2 -26.4 3.23296e-15
      vertex -16 -15.2 1.8614e-15
    endloop
  endfacet
  facet normal 0 -1.22461e-16 -1
    outer loop
      vertex -16 -15.2 1.8614e-15
      vertex -10.4 -20 2.44921e-15
      vertex -34.4 -36.8 4.50655e-15
    endloop
  endfacet
  facet normal 0 -1.22461e-16 -1
    outer loop
      vertex -16 -25.6 3.13499e-15
      vertex -10.4 -20 2.44921e-15
      vertex -4.8 -26.4 3.23296e-15
    endloop
  endfacet
  facet normal 0 -1.22461e-16 -1
    outer loop
      vertex 8 -7.2 8.81717e-16
      vertex -4.8 -1.83691e-16 0
      vertex 27.5 -1.83691e-16 0
    endloop
  endfacet
  facet normal 0 -1.22461e-16 -1
    outer loop
      vertex 29.6 -8 9.79685e-16
      vertex 35.8 -4.9 6.00057e-16
      vertex 30.2 -9.6 1.17562e-15
    endloop
  endfacet
  facet normal 0 -1.22461e-16 -1
    outer loop
      vertex 26.4 -7.2 8.81717e-16
      vertex 32.7 -1.8 2.20429e-16
      vertex 34.4 -3.2 3.91874e-16
    endloop
  endfacet
  facet normal 0 -1.22461e-16 -1
    outer loop
      vertex 29.6 -8 9.79685e-16
      vertex 34.4 -3.2 3.91874e-16
      vertex 35.8 -4.9 6.00057e-16
    endloop
  endfacet
  facet normal 0 -1.22461e-16 -1
    outer loop
      vertex 30.2 -9.6 1.17562e-15
      vertex 35.8 -4.9 6.00057e-16
      vertex 36.8 -6.8 8.32732e-16
    endloop
  endfacet
  facet normal 0 -1.22461e-16 -1
    outer loop
      vertex 30.4 -11.2 1.37156e-15
      vertex 36.8 -6.8 8.32732e-16
      vertex 37.4 -8.9 1.0899e-15
    endloop
  endfacet
  facet normal 0 -1.22461e-16 -1
    outer loop
      vertex 29.2 -13.6 1.66546e-15
      vertex 37.4 -8.9 1.0899e-15
      vertex 37.6 -11.2 1.37156e-15
    endloop
  endfacet
  facet normal 0 -1.22461e-16 -1
    outer loop
      vertex 28 -22 2.69413e-15
      vertex 36.8 -21.6 2.64515e-15
      vertex 29.6 -23.2 2.84109e-15
    endloop
  endfacet
  facet normal 0 -1.22461e-16 -1
    outer loop
      vertex 8 -7.2 8.81717e-16
      vertex 27.5 -0.0956522 1.17136e-17
      vertex 28.7 -0.2 2.44921e-17
    endloop
  endfacet
  facet normal 0 -1.22461e-16 -1
    outer loop
      vertex 8 -7.2 8.81717e-16
      vertex 28.7 -0.2 2.44921e-17
      vertex 30.8 -0.8 9.79685e-17
    endloop
  endfacet
  facet normal 0 -1.22461e-16 -1
    outer loop
      vertex 8 -7.2 8.81717e-16
      vertex 30.8 -0.8 9.79685e-17
      vertex 32.7 -1.8 2.20429e-16
    endloop
  endfacet
  facet normal 0 -1.22461e-16 -1
    outer loop
      vertex 8 -7.2 8.81717e-16
      vertex 32.7 -1.8 2.20429e-16
      vertex 26.4 -7.2 8.81717e-16
    endloop
  endfacet
  facet normal 0 -1.22461e-16 -1
    outer loop
      vertex 26.4 -21.6 2.64515e-15
      vertex 34.4 -18.4 2.25328e-15
      vertex 35.8 -20 2.44921e-15
    endloop
  endfacet
  facet normal 0 -1.22461e-16 -1
    outer loop
      vertex 8 -21.6 2.64515e-15
      vertex 27.9 -14.2 1.73894e-15
      vertex 37.6 -11.2 1.37156e-15
    endloop
  endfacet
  facet normal 0 -1.22461e-16 -1
    outer loop
      vertex 30.4 -25.6 3.13499e-15
      vertex 37.4 -23.4 2.86558e-15
      vertex 37.6 -25.6 3.13499e-15
    endloop
  endfacet
  facet normal 0 -1.22461e-16 -1
    outer loop
      vertex 29.2 -28.4 3.47788e-15
      vertex 37.6 -25.6 3.13499e-15
      vertex 37.4 -27.9 3.41665e-15
    endloop
  endfacet
  facet normal 0 -1.22461e-16 -1
    outer loop
      vertex 26.4 -29.6 3.62483e-15
      vertex 37.4 -27.9 3.41665e-15
      vertex 36.8 -30 3.67382e-15
    endloop
  endfacet
  facet normal 0 -1.22461e-16 -1
    outer loop
      vertex -4.8 -36.8 4.50655e-15
      vertex 28.7 -36.5 4.46981e-15
      vertex 26.4 -36.8 4.50655e-15
    endloop
  endfacet
  facet normal 0 -1.22461e-16 -1
    outer loop
      vertex -34.4 -36.8 4.50655e-15
      vertex -10.4 -20 2.44921e-15
      vertex -16 -25.6 3.13499e-15
    endloop
  endfacet
  facet normal 0 -1.22461e-16 -1
    outer loop
      vertex 8 -7.2 8.81717e-16
      vertex 27.5 -1.83691e-16 0
      vertex 27.5 -0.0956522 1.17136e-17
    endloop
  endfacet
  facet normal 0 -1.22461e-16 -1
    outer loop
      vertex -4.8 -26.4 3.23296e-15
      vertex -4.8 -1.83691e-16 0
      vertex 8 -7.2 8.81717e-16
    endloop
  endfacet
  facet normal 0 -1.22461e-16 -1
    outer loop
      vertex 26.4 -14.4 1.76343e-15
      vertex -4.8 -26.4 3.23296e-15
      vertex 8 -14.4 1.76343e-15
    endloop
  endfacet
  facet normal 0 -1.22461e-16 -1
    outer loop
      vertex -4.8 -26.4 3.23296e-15
      vertex 8 -7.2 8.81717e-16
      vertex 8 -14.4 1.76343e-15
    endloop
  endfacet
  facet normal 0 -1.22461e-16 -1
    outer loop
      vertex 26.4 -7.2 8.81717e-16
      vertex 34.4 -3.2 3.91874e-16
      vertex 28 -7.4 9.06209e-16
    endloop
  endfacet
  facet normal 0 -1.22461e-16 -1
    outer loop
      vertex 30.4 -11.2 1.37156e-15
      vertex 37.4 -8.9 1.0899e-15
      vertex 30.1 -12.6 1.543e-15
    endloop
  endfacet
  facet normal 0 -1.22461e-16 -1
    outer loop
      vertex 27.9 -14.2 1.73894e-15
      vertex 29.2 -13.6 1.66546e-15
      vertex 37.6 -11.2 1.37156e-15
    endloop
  endfacet
  facet normal 0 -1.22461e-16 -1
    outer loop
      vertex 8 -21.6 2.64515e-15
      vertex 26.4 -14.4 1.76343e-15
      vertex 27.9 -14.2 1.73894e-15
    endloop
  endfacet
  facet normal 0 -1.22461e-16 -1
    outer loop
      vertex 30.1 -12.6 1.543e-15
      vertex 37.4 -8.9 1.0899e-15
      vertex 29.2 -13.6 1.66546e-15
    endloop
  endfacet
  facet normal 0 -1.22461e-16 -1
    outer loop
      vertex 8 -21.6 2.64515e-15
      vertex 37.6 -11.2 1.37156e-15
      vertex 37.4 -12.9 1.57974e-15
    endloop
  endfacet
  facet normal 0 -1.22461e-16 -1
    outer loop
      vertex 8 -21.6 2.64515e-15
      vertex 37.4 -12.9 1.57974e-15
      vertex 36.8 -14.8 1.81242e-15
    endloop
  endfacet
  facet normal 0 -1.22461e-16 -1
    outer loop
      vertex 8 -21.6 2.64515e-15
      vertex 35.8 -16.7 2.04509e-15
      vertex 34.4 -18.4 2.25328e-15
    endloop
  endfacet
  facet normal 0 -1.22461e-16 -1
    outer loop
      vertex 8 -21.6 2.64515e-15
      vertex 36.8 -14.8 1.81242e-15
      vertex 35.8 -16.7 2.04509e-15
    endloop
  endfacet
  facet normal 0 -1.22461e-16 -1
    outer loop
      vertex 28 -7.4 9.06209e-16
      vertex 34.4 -3.2 3.91874e-16
      vertex 29.6 -8 9.79685e-16
    endloop
  endfacet
  facet normal 0 -1.22461e-16 -1
    outer loop
      vertex 8 -21.6 2.64515e-15
      vertex 34.4 -18.4 2.25328e-15
      vertex 26.4 -21.6 2.64515e-15
    endloop
  endfacet
  facet normal 0 -1.22461e-16 -1
    outer loop
      vertex 30.2 -9.6 1.17562e-15
      vertex 36.8 -6.8 8.32732e-16
      vertex 30.4 -11.2 1.37156e-15
    endloop
  endfacet
  facet normal 0 -1.22461e-16 -1
    outer loop
      vertex -4.8 -26.4 3.23296e-15
      vertex 26.4 -14.4 1.76343e-15
      vertex 8 -21.6 2.64515e-15
    endloop
  endfacet
  facet normal 0 -1.22461e-16 -1
    outer loop
      vertex 8 -29.6 3.62483e-15
      vertex -4.8 -26.4 3.23296e-15
      vertex 8 -21.6 2.64515e-15
    endloop
  endfacet
  facet normal 0 -1.22461e-16 -1
    outer loop
      vertex 27.9 -29.3 3.5881e-15
      vertex 37.4 -27.9 3.41665e-15
      vertex 26.4 -29.6 3.62483e-15
    endloop
  endfacet
  facet normal 0 -1.22461e-16 -1
    outer loop
      vertex 30.1 -27.1 3.31868e-15
      vertex 37.6 -25.6 3.13499e-15
      vertex 29.2 -28.4 3.47788e-15
    endloop
  endfacet
  facet normal 0 -1.22461e-16 -1
    outer loop
      vertex 30.2 -24.2 2.96355e-15
      vertex 37.4 -23.4 2.86558e-15
      vertex 30.4 -25.6 3.13499e-15
    endloop
  endfacet
  facet normal 0 -1.22461e-16 -1
    outer loop
      vertex 36.8 -21.6 2.64515e-15
      vertex 37.4 -23.4 2.86558e-15
      vertex 30.2 -24.2 2.96355e-15
    endloop
  endfacet
  facet normal 0 -1.22461e-16 -1
    outer loop
      vertex 36.8 -21.6 2.64515e-15
      vertex 30.2 -24.2 2.96355e-15
      vertex 29.6 -23.2 2.84109e-15
    endloop
  endfacet
  facet normal 0 -1.22461e-16 -1
    outer loop
      vertex 35.8 -20 2.44921e-15
      vertex 36.8 -21.6 2.64515e-15
      vertex 28 -22 2.69413e-15
    endloop
  endfacet
  facet normal 0 -1.22461e-16 -1
    outer loop
      vertex -27.2 -6 7.34764e-16
      vertex -22.5 -1.83691e-16 0
      vertex -22.5 -6 7.34764e-16
    endloop
  endfacet
  facet normal 0 -1.22461e-16 -1
    outer loop
      vertex 26.4 -21.6 2.64515e-15
      vertex 35.8 -20 2.44921e-15
      vertex 28 -22 2.69413e-15
    endloop
  endfacet
  facet normal 0 -1.22461e-16 -1
    outer loop
      vertex 30.4 -25.6 3.13499e-15
      vertex 37.6 -25.6 3.13499e-15
      vertex 30.1 -27.1 3.31868e-15
    endloop
  endfacet
  facet normal 0 -1.22461e-16 -1
    outer loop
      vertex -16 -25.6 3.13499e-15
      vertex -4.8 -26.4 3.23296e-15
      vertex 8 -29.6 3.62483e-15
    endloop
  endfacet
  facet normal 0 -1.22461e-16 -1
    outer loop
      vertex 29.2 -28.4 3.47788e-15
      vertex 37.4 -27.9 3.41665e-15
      vertex 27.9 -29.3 3.5881e-15
    endloop
  endfacet
  facet normal 0 -1.22461e-16 -1
    outer loop
      vertex 8 -29.6 3.62483e-15
      vertex 26.4 -29.6 3.62483e-15
      vertex 36.8 -30 3.67382e-15
    endloop
  endfacet
  facet normal 0 -1.22461e-16 -1
    outer loop
      vertex 8 -29.6 3.62483e-15
      vertex 36.8 -30 3.67382e-15
      vertex 35.8 -31.8 3.89425e-15
    endloop
  endfacet
  facet normal 0 -1.22461e-16 -1
    outer loop
      vertex 8 -29.6 3.62483e-15
      vertex 35.8 -31.8 3.89425e-15
      vertex 34.4 -33.2 4.06569e-15
    endloop
  endfacet
  facet normal 0 -1.22461e-16 -1
    outer loop
      vertex 8 -29.6 3.62483e-15
      vertex 34.4 -33.2 4.06569e-15
      vertex 32.7 -34.4 4.21265e-15
    endloop
  endfacet
  facet normal 0 -1.22461e-16 -1
    outer loop
      vertex -16 -25.6 3.13499e-15
      vertex 8 -29.6 3.62483e-15
      vertex 32.7 -34.4 4.21265e-15
    endloop
  endfacet
  facet normal 0 -1.22461e-16 -1
    outer loop
      vertex -16 -25.6 3.13499e-15
      vertex 32.7 -34.4 4.21265e-15
      vertex 30.8 -35.6 4.3596e-15
    endloop
  endfacet
  facet normal 0 -1.22461e-16 -1
    outer loop
      vertex -16 -25.6 3.13499e-15
      vertex 30.8 -35.6 4.3596e-15
      vertex 28.7 -36.5 4.46981e-15
    endloop
  endfacet
  facet normal 0 -1.22461e-16 -1
    outer loop
      vertex -16 -25.6 3.13499e-15
      vertex 28.7 -36.5 4.46981e-15
      vertex -4.8 -36.8 4.50655e-15
    endloop
  endfacet
  facet normal 0 -1.22461e-16 -1
    outer loop
      vertex -26.4 -36.8 4.50655e-15
      vertex -34.4 -36.8 4.50655e-15
      vertex -16 -25.6 3.13499e-15
    endloop
  endfacet
  facet normal 1 0 0
    outer loop
      vertex -22.5 -6 5
      vertex -22.5 -6 7.34764e-16
      vertex -22.5 -1.83691e-16 0
    endloop
  endfacet
  facet normal 1 0 0
    outer loop
      vertex -22.5 4.28612e-16 5
      vertex -22.5 -6 5
      vertex -22.5 -1.83691e-16 0
    endloop
  endfacet
  facet normal 0 -1.22461e-16 -1
    outer loop
      vertex -4.8 -6 5
      vertex -22.5 -6 5
      vertex -4.8 4.28612e-16 5
    endloop
  endfacet
  facet normal 0 -1.22461e-16 -1
    outer loop
      vertex -4.8 4.28612e-16 5
      vertex -22.5 -6 5
      vertex -22.5 4.28612e-16 5
    endloop
  endfacet
  facet normal -1 0 0
    outer loop
      vertex -4.8 4.28612e-16 5
      vertex -4.8 -1.83691e-16 0
      vertex -4.8 -6 5
    endloop
  endfacet
  facet normal -1 0 0
    outer loop
      vertex -4.8 -6 5
      vertex -4.8 -1.83691e-16 0
      vertex -4.8 -26.4 3.23296e-15
    endloop
  endfacet
  facet normal -1 0 0
    outer loop
      vertex -4.8 -6 5
      vertex -4.8 -26.4 3.23296e-15
      vertex -4.8 -26.4 6
    endloop
  endfacet
  facet normal -1 0 0
    outer loop
      vertex -4.8 -6 5
      vertex -4.8 -26.4 6
      vertex -4.8 -6 6
    endloop
  endfacet
  facet normal 1 0 0
    outer loop
      vertex 27.5 -1.83691e-16 0
      vertex 27.5 1.83691e-16 3
      vertex 27.5 -0.0956522 3
    endloop
  endfacet
  facet normal 1 0 0
    outer loop
      vertex 27.5 -0.0956522 1.17136e-17
      vertex 27.5 -1.83691e-16 0
      vertex 27.5 -0.0956522 3
    endloop
  endfacet
  facet normal 0.968493 3.04977e-17 0.249041
    outer loop
      vertex 26.7286 -0.0285714 6
      vertex 18.5 4.46981e-15 38
      vertex 18.5 -6 38
    endloop
  endfacet
  facet normal 0.968493 3.04977e-17 0.249041
    outer loop
      vertex 26.7286 -0.0285714 6
      vertex 27.5 -0.0956522 3
      vertex 27.5 1.83691e-16 3
    endloop
  endfacet
  facet normal 0.968493 3.04977e-17 0.249041
    outer loop
      vertex 27.5 1.83691e-16 3
      vertex 18.5 4.46981e-15 38
      vertex 26.7286 -0.0285714 6
    endloop
  endfacet
  facet normal 0.968493 3.04977e-17 0.249041
    outer loop
      vertex 26.7286 -6 6
      vertex 26.7286 -0.0285714 6
      vertex 18.5 -6 38
    endloop
  endfacet
  facet normal 0 1.22461e-16 1
    outer loop
      vertex 12.3958 4.46981e-15 38
      vertex 12.3958 -2 38
      vertex 15.0723 -2 38
    endloop
  endfacet
  facet normal 0 1.22461e-16 1
    outer loop
      vertex 18.5 4.46981e-15 38
      vertex 12.3958 4.46981e-15 38
      vertex 15.0723 -2 38
    endloop
  endfacet
  facet normal 0 1.22461e-16 1
    outer loop
      vertex 15.0723 -6 38
      vertex 18.5 -6 38
      vertex 15.0723 -2 38
    endloop
  endfacet
  facet normal 0 1.22461e-16 1
    outer loop
      vertex 18.5 -6 38
      vertex 18.5 4.46981e-15 38
      vertex 15.0723 -2 38
    endloop
  endfacet
  facet normal -0.743145 6.66347e-17 -0.669131
    outer loop
      vertex 13.7533 4.28519e-15 36.4923
      vertex 13.7533 -2 36.4923
      vertex 12.3958 4.46981e-15 38
    endloop
  endfacet
  facet normal -0.743145 6.66347e-17 -0.669131
    outer loop
      vertex 12.3958 4.46981e-15 38
      vertex 13.7533 -2 36.4923
      vertex 12.3958 -2 38
    endloop
  endfacet
  facet normal -0.866025 4.9792e-17 -0.5
    outer loop
      vertex 15.5303 -2 33.4145
      vertex 13.7533 -2 36.4923
      vertex 15.5303 3.90827e-15 33.4145
    endloop
  endfacet
  facet normal -0.866025 4.9792e-17 -0.5
    outer loop
      vertex 15.5303 3.90827e-15 33.4145
      vertex 13.7533 -2 36.4923
      vertex 13.7533 4.28519e-15 36.4923
    endloop
  endfacet
  facet normal -0.951057 3.07731e-17 -0.309017
    outer loop
      vertex 16.6285 -2 30.0345
      vertex 15.5303 -2 33.4145
      vertex 16.6285 3.49435e-15 30.0345
    endloop
  endfacet
  facet normal -0.951057 3.07731e-17 -0.309017
    outer loop
      vertex 16.6285 3.49435e-15 30.0345
      vertex 15.5303 -2 33.4145
      vertex 15.5303 3.90827e-15 33.4145
    endloop
  endfacet
  facet normal -0.994522 1.04094e-17 -0.104529
    outer loop
      vertex 17 -2 26.5
      vertex 16.6285 -2 30.0345
      vertex 17 3.06152e-15 26.5
    endloop
  endfacet
  facet normal -0.994522 1.04094e-17 -0.104529
    outer loop
      vertex 17 3.06152e-15 26.5
      vertex 16.6285 -2 30.0345
      vertex 16.6285 3.49435e-15 30.0345
    endloop
  endfacet
  facet normal -0.994522 -1.04094e-17 0.104529
    outer loop
      vertex 17 -2 26.5
      vertex 17 3.06152e-15 26.5
      vertex 16.6285 -2 22.9655
    endloop
  endfacet
  facet normal -0.994522 -1.04094e-17 0.104529
    outer loop
      vertex 16.6285 -2 22.9655
      vertex 17 3.06152e-15 26.5
      vertex 16.6285 2.62868e-15 22.9655
    endloop
  endfacet
  facet normal -0.951057 -3.07731e-17 0.309017
    outer loop
      vertex 16.6285 -2 22.9655
      vertex 16.6285 2.62868e-15 22.9655
      vertex 15.5303 -2 19.5855
    endloop
  endfacet
  facet normal -0.951057 -3.07731e-17 0.309017
    outer loop
      vertex 15.5303 -2 19.5855
      vertex 16.6285 2.62868e-15 22.9655
      vertex 15.5303 2.21476e-15 19.5855
    endloop
  endfacet
  facet normal -0.866025 -4.9792e-17 0.5
    outer loop
      vertex 15.5303 -2 19.5855
      vertex 15.5303 2.21476e-15 19.5855
      vertex 13.7533 -2 16.5077
    endloop
  endfacet
  facet normal -0.866025 -4.9792e-17 0.5
    outer loop
      vertex 13.7533 -2 16.5077
      vertex 15.5303 2.21476e-15 19.5855
      vertex 13.7533 1.83785e-15 16.5077
    endloop
  endfacet
  facet normal -0.743145 -6.66347e-17 0.669131
    outer loop
      vertex 13.7533 -2 16.5077
      vertex 13.7533 1.83785e-15 16.5077
      vertex 11.3752 -2 13.8665
    endloop
  endfacet
  facet normal -0.743145 -6.66347e-17 0.669131
    outer loop
      vertex 11.3752 -2 13.8665
      vertex 13.7533 1.83785e-15 16.5077
      vertex 11.3752 1.51441e-15 13.8665
    endloop
  endfacet
  facet normal -0.587785 -8.05651e-17 0.809017
    outer loop
      vertex 8.5 -2 11.7776
      vertex 11.3752 -2 13.8665
      vertex 11.3752 1.51441e-15 13.8665
    endloop
  endfacet
  facet normal -0.587785 -8.05651e-17 0.809017
    outer loop
      vertex 8.5 1.2586e-15 11.7776
      vertex 8.5 -2 11.7776
      vertex 11.3752 1.51441e-15 13.8665
    endloop
  endfacet
  facet normal -0.406737 -9.09745e-17 0.913545
    outer loop
      vertex 5.25329 -2 10.332
      vertex 8.5 -2 11.7776
      vertex 8.5 1.2586e-15 11.7776
    endloop
  endfacet
  facet normal -0.406737 -9.09745e-17 0.913545
    outer loop
      vertex 5.25329 1.08158e-15 10.332
      vertex 5.25329 -2 10.332
      vertex 8.5 1.2586e-15 11.7776
    endloop
  endfacet
  facet normal -0.207912 -9.74078e-17 0.978148
    outer loop
      vertex 1.77698 -2 9.59313
      vertex 5.25329 -2 10.332
      vertex 5.25329 1.08158e-15 10.332
    endloop
  endfacet
  facet normal -0.207912 -9.74078e-17 0.978148
    outer loop
      vertex 1.77698 9.9109e-16 9.59313
      vertex 1.77698 -2 9.59313
      vertex 5.25329 1.08158e-15 10.332
    endloop
  endfacet
  facet normal 0 -9.9584e-17 1
    outer loop
      vertex -1.77698 -2 9.59313
      vertex 1.77698 -2 9.59313
      vertex 1.77698 9.9109e-16 9.59313
    endloop
  endfacet
  facet normal 0 -9.9584e-17 1
    outer loop
      vertex -1.77698 9.9109e-16 9.59313
      vertex -1.77698 -2 9.59313
      vertex 1.77698 9.9109e-16 9.59313
    endloop
  endfacet
  facet normal 0.207912 -9.74078e-17 0.978148
    outer loop
      vertex -5.25329 -2 10.332
      vertex -1.77698 -2 9.59313
      vertex -1.77698 9.9109e-16 9.59313
    endloop
  endfacet
  facet normal 0.207912 -9.74078e-17 0.978148
    outer loop
      vertex -5.25329 1.08158e-15 10.332
      vertex -5.25329 -2 10.332
      vertex -1.77698 9.9109e-16 9.59313
    endloop
  endfacet
  facet normal 0.406737 -9.09745e-17 0.913545
    outer loop
      vertex -8.5 -2 11.7776
      vertex -5.25329 -2 10.332
      vertex -5.25329 1.08158e-15 10.332
    endloop
  endfacet
  facet normal 0.406737 -9.09745e-17 0.913545
    outer loop
      vertex -8.5 1.2586e-15 11.7776
      vertex -8.5 -2 11.7776
      vertex -5.25329 1.08158e-15 10.332
    endloop
  endfacet
  facet normal 0.587785 -8.05651e-17 0.809017
    outer loop
      vertex -11.3752 -2 13.8665
      vertex -8.5 -2 11.7776
      vertex -8.5 1.2586e-15 11.7776
    endloop
  endfacet
  facet normal 0.587785 -8.05651e-17 0.809017
    outer loop
      vertex -11.3752 1.51441e-15 13.8665
      vertex -11.3752 -2 13.8665
      vertex -8.5 1.2586e-15 11.7776
    endloop
  endfacet
  facet normal 0.743145 -6.66347e-17 0.669131
    outer loop
      vertex -13.7533 -2 16.5077
      vertex -11.3752 -2 13.8665
      vertex -11.3752 1.51441e-15 13.8665
    endloop
  endfacet
  facet normal 0.743145 -6.66347e-17 0.669131
    outer loop
      vertex -13.7533 1.83785e-15 16.5077
      vertex -13.7533 -2 16.5077
      vertex -11.3752 1.51441e-15 13.8665
    endloop
  endfacet
  facet normal 0.866025 -4.9792e-17 0.5
    outer loop
      vertex -15.5303 -2 19.5855
      vertex -13.7533 -2 16.5077
      vertex -13.7533 1.83785e-15 16.5077
    endloop
  endfacet
  facet normal 0.866025 -4.9792e-17 0.5
    outer loop
      vertex -15.5303 2.21476e-15 19.5855
      vertex -15.5303 -2 19.5855
      vertex -13.7533 1.83785e-15 16.5077
    endloop
  endfacet
  facet normal 0.951057 -3.07731e-17 0.309017
    outer loop
      vertex -16.6285 -2 22.9655
      vertex -15.5303 -2 19.5855
      vertex -15.5303 2.21476e-15 19.5855
    endloop
  endfacet
  facet normal 0.951057 -3.07731e-17 0.309017
    outer loop
      vertex -16.6285 2.62868e-15 22.9655
      vertex -16.6285 -2 22.9655
      vertex -15.5303 2.21476e-15 19.5855
    endloop
  endfacet
  facet normal 0.994522 -1.04094e-17 0.104529
    outer loop
      vertex -17 -2 26.5
      vertex -16.6285 -2 22.9655
      vertex -16.6285 2.62868e-15 22.9655
    endloop
  endfacet
  facet normal 0.994522 -1.04094e-17 0.104529
    outer loop
      vertex -17 3.06152e-15 26.5
      vertex -17 -2 26.5
      vertex -16.6285 2.62868e-15 22.9655
    endloop
  endfacet
  facet normal 0.994522 1.04094e-17 -0.104529
    outer loop
      vertex -16.6285 3.49435e-15 30.0345
      vertex -16.6285 -2 30.0345
      vertex -17 -2 26.5
    endloop
  endfacet
  facet normal 0.994522 1.04094e-17 -0.104529
    outer loop
      vertex -17 3.06152e-15 26.5
      vertex -16.6285 3.49435e-15 30.0345
      vertex -17 -2 26.5
    endloop
  endfacet
  facet normal 0.951057 3.07731e-17 -0.309017
    outer loop
      vertex -15.5303 3.90827e-15 33.4145
      vertex -15.5303 -2 33.4145
      vertex -16.6285 -2 30.0345
    endloop
  endfacet
  facet normal 0.951057 3.07731e-17 -0.309017
    outer loop
      vertex -16.6285 3.49435e-15 30.0345
      vertex -15.5303 3.90827e-15 33.4145
      vertex -16.6285 -2 30.0345
    endloop
  endfacet
  facet normal 0.866025 4.9792e-17 -0.5
    outer loop
      vertex -13.7533 4.28519e-15 36.4923
      vertex -13.7533 -2 36.4923
      vertex -15.5303 -2 33.4145
    endloop
  endfacet
  facet normal 0.866025 4.9792e-17 -0.5
    outer loop
      vertex -15.5303 3.90827e-15 33.4145
      vertex -13.7533 4.28519e-15 36.4923
      vertex -15.5303 -2 33.4145
    endloop
  endfacet
  facet normal 0.743145 6.66347e-17 -0.669131
    outer loop
      vertex -12.3958 4.46981e-15 38
      vertex -12.3958 -2 38
      vertex -13.7533 -2 36.4923
    endloop
  endfacet
  facet normal 0.743145 6.66347e-17 -0.669131
    outer loop
      vertex -13.7533 4.28519e-15 36.4923
      vertex -12.3958 4.46981e-15 38
      vertex -13.7533 -2 36.4923
    endloop
  endfacet
  facet normal 0 1.22461e-16 1
    outer loop
      vertex -15.0723 -2 38
      vertex -18.5 4.46981e-15 38
      vertex -18.5 -6 38
    endloop
  endfacet
  facet normal 0 1.22461e-16 1
    outer loop
      vertex -15.0723 -2 38
      vertex -12.3958 -2 38
      vertex -12.3958 4.46981e-15 38
    endloop
  endfacet
  facet normal 0 1.22461e-16 1
    outer loop
      vertex -12.3958 4.46981e-15 38
      vertex -18.5 4.46981e-15 38
      vertex -15.0723 -2 38
    endloop
  endfacet
  facet normal 0 1.22461e-16 1
    outer loop
      vertex -15.0723 -6 38
      vertex -15.0723 -2 38
      vertex -18.5 -6 38
    endloop
  endfacet
  facet normal -0.968493 3.04977e-17 0.249041
    outer loop
      vertex -27.2 3.26562e-16 4.16667
      vertex -27.2 -6 4.16667
      vertex -18.5 4.46981e-15 38
    endloop
  endfacet
  facet normal -0.968493 3.04977e-17 0.249041
    outer loop
      vertex -18.5 4.46981e-15 38
      vertex -27.2 -6 4.16667
      vertex -18.5 -6 38
    endloop
  endfacet
  facet normal 1 0 0
    outer loop
      vertex -27.2 3.26562e-16 4.16667
      vertex -27.2 5.51073e-16 6
      vertex -27.2 -26.4 6
    endloop
  endfacet
  facet normal 1 0 0
    outer loop
      vertex -27.2 -6 4.16667
      vertex -27.2 3.26562e-16 4.16667
      vertex -27.2 -26.4 6
    endloop
  endfacet
  facet normal 1 0 0
    outer loop
      vertex -27.2 -26.4 3.23296e-15
      vertex -27.2 -6 4.16667
      vertex -27.2 -26.4 6
    endloop
  endfacet
  facet normal 1 0 0
    outer loop
      vertex -27.2 -6 7.34764e-16
      vertex -27.2 -6 4.16667
      vertex -27.2 -26.4 3.23296e-15
    endloop
  endfacet
  facet normal -0.707107 0.707107 -8.65927e-17
    outer loop
      vertex -27.2 -26.4 6
      vertex -16 -15.2 6
      vertex -27.2 -26.4 3.23296e-15
    endloop
  endfacet
  facet normal -0.707107 0.707107 -8.65927e-17
    outer loop
      vertex -27.2 -26.4 3.23296e-15
      vertex -16 -15.2 6
      vertex -16 -15.2 1.8614e-15
    endloop
  endfacet
  facet normal 0.650791 0.759257 -9.2979e-17
    outer loop
      vertex -16 -15.2 6
      vertex -10.4 -20 6
      vertex -16 -15.2 1.8614e-15
    endloop
  endfacet
  facet normal 0.650791 0.759257 -9.2979e-17
    outer loop
      vertex -16 -15.2 1.8614e-15
      vertex -10.4 -20 6
      vertex -10.4 -20 2.44921e-15
    endloop
  endfacet
  facet normal 0.752577 0.658505 -8.06409e-17
    outer loop
      vertex -10.4 -20 2.44921e-15
      vertex -10.4 -20 6
      vertex -4.8 -26.4 6
    endloop
  endfacet
  facet normal 0.752577 0.658505 -8.06409e-17
    outer loop
      vertex -4.8 -26.4 3.23296e-15
      vertex -10.4 -20 2.44921e-15
      vertex -4.8 -26.4 6
    endloop
  endfacet
  facet normal 0 -1 1.22461e-16
    outer loop
      vertex -18.5 -6 38
      vertex -27.2 -6 4.16667
      vertex -27.2 -6 7.34764e-16
    endloop
  endfacet
  facet normal 0 -1 1.22461e-16
    outer loop
      vertex -22.5 -6 5
      vertex -18.5 -6 38
      vertex -27.2 -6 7.34764e-16
    endloop
  endfacet
  facet normal 0 -1 1.22461e-16
    outer loop
      vertex -22.5 -6 7.34764e-16
      vertex -22.5 -6 5
      vertex -27.2 -6 7.34764e-16
    endloop
  endfacet
  facet normal 0 -1 1.22461e-16
    outer loop
      vertex -5.87132 -6 8.42993
      vertex -9.5 -6 10.0455
      vertex -4.8 -6 5
    endloop
  endfacet
  facet normal 0 -1 1.22461e-16
    outer loop
      vertex 15.3713 -6 15.3321
      vertex 12.7135 -6 12.3802
      vertex 26.7286 -6 6
    endloop
  endfacet
  facet normal 0 -1 1.22461e-16
    outer loop
      vertex 1.98604 -6 7.60408
      vertex -1.98604 -6 7.60408
      vertex -4.8 -6 6
    endloop
  endfacet
  facet normal 0 -1 1.22461e-16
    outer loop
      vertex 18.5 -6 38
      vertex 15.0723 -6 38
      vertex 15.3713 -6 37.6679
    endloop
  endfacet
  facet normal 0 -1 1.22461e-16
    outer loop
      vertex 18.5 -6 38
      vertex 17.3574 -6 34.228
      vertex 26.7286 -6 6
    endloop
  endfacet
  facet normal 0 -1 1.22461e-16
    outer loop
      vertex 18.5 -6 38
      vertex 15.3713 -6 37.6679
      vertex 17.3574 -6 34.228
    endloop
  endfacet
  facet normal 0 -1 1.22461e-16
    outer loop
      vertex 17.3574 -6 34.228
      vertex 18.5848 -6 30.4503
      vertex 26.7286 -6 6
    endloop
  endfacet
  facet normal 0 -1 1.22461e-16
    outer loop
      vertex 19 -6 26.5
      vertex 18.5848 -6 22.5497
      vertex 26.7286 -6 6
    endloop
  endfacet
  facet normal 0 -1 1.22461e-16
    outer loop
      vertex 18.5848 -6 22.5497
      vertex 17.3574 -6 18.772
      vertex 26.7286 -6 6
    endloop
  endfacet
  facet normal 0 -1 1.22461e-16
    outer loop
      vertex 17.3574 -6 18.772
      vertex 15.3713 -6 15.3321
      vertex 26.7286 -6 6
    endloop
  endfacet
  facet normal 0 -1 1.22461e-16
    outer loop
      vertex -1.98604 -6 7.60408
      vertex -5.87132 -6 8.42993
      vertex -4.8 -6 6
    endloop
  endfacet
  facet normal 0 -1 1.22461e-16
    outer loop
      vertex 26.7286 -6 6
      vertex 12.7135 -6 12.3802
      vertex 9.5 -6 10.0455
    endloop
  endfacet
  facet normal 0 -1 1.22461e-16
    outer loop
      vertex 26.7286 -6 6
      vertex 5.87132 -6 8.42993
      vertex -4.8 -6 6
    endloop
  endfacet
  facet normal 0 -1 1.22461e-16
    outer loop
      vertex 26.7286 -6 6
      vertex 9.5 -6 10.0455
      vertex 5.87132 -6 8.42993
    endloop
  endfacet
  facet normal 0 -1 1.22461e-16
    outer loop
      vertex 5.87132 -6 8.42993
      vertex 1.98604 -6 7.60408
      vertex -4.8 -6 6
    endloop
  endfacet
  facet normal 0 -1 1.22461e-16
    outer loop
      vertex -4.8 -6 6
      vertex -5.87132 -6 8.42993
      vertex -4.8 -6 5
    endloop
  endfacet
  facet normal 0 -1 1.22461e-16
    outer loop
      vertex 18.5848 -6 30.4503
      vertex 19 -6 26.5
      vertex 26.7286 -6 6
    endloop
  endfacet
  facet normal 0 -1 1.22461e-16
    outer loop
      vertex -18.5848 -6 30.4503
      vertex -17.3574 -6 34.228
      vertex -18.5 -6 38
    endloop
  endfacet
  facet normal 0 -1 1.22461e-16
    outer loop
      vertex -18.5848 -6 30.4503
      vertex -18.5 -6 38
      vertex -19 -6 26.5
    endloop
  endfacet
  facet normal 0 -1 1.22461e-16
    outer loop
      vertex -15.0723 -6 38
      vertex -18.5 -6 38
      vertex -15.3713 -6 37.6679
    endloop
  endfacet
  facet normal 0 -1 1.22461e-16
    outer loop
      vertex -22.5 -6 5
      vertex -19 -6 26.5
      vertex -18.5 -6 38
    endloop
  endfacet
  facet normal 0 -1 1.22461e-16
    outer loop
      vertex -22.5 -6 5
      vertex -18.5848 -6 22.5497
      vertex -19 -6 26.5
    endloop
  endfacet
  facet normal 0 -1 1.22461e-16
    outer loop
      vertex -22.5 -6 5
      vertex -17.3574 -6 18.772
      vertex -18.5848 -6 22.5497
    endloop
  endfacet
  facet normal 0 -1 1.22461e-16
    outer loop
      vertex -22.5 -6 5
      vertex -15.3713 -6 15.3321
      vertex -17.3574 -6 18.772
    endloop
  endfacet
  facet normal 0 -1 1.22461e-16
    outer loop
      vertex -22.5 -6 5
      vertex -12.7135 -6 12.3802
      vertex -15.3713 -6 15.3321
    endloop
  endfacet
  facet normal 0 -1 1.22461e-16
    outer loop
      vertex -22.5 -6 5
      vertex -9.5 -6 10.0455
      vertex -12.7135 -6 12.3802
    endloop
  endfacet
  facet normal 0 -1 1.22461e-16
    outer loop
      vertex -22.5 -6 5
      vertex -4.8 -6 5
      vertex -9.5 -6 10.0455
    endloop
  endfacet
  facet normal 0 -1 1.22461e-16
    outer loop
      vertex -17.3574 -6 34.228
      vertex -15.3713 -6 37.6679
      vertex -18.5 -6 38
    endloop
  endfacet
  facet normal 0.0866296 0.996241 -1.22e-16
    outer loop
      vertex 28.7 -0.2 2.44921e-17
      vertex 27.5 -0.0956522 1.17136e-17
      vertex 28.7 -0.2 6
    endloop
  endfacet
  facet normal 0.0866296 0.996241 -1.22e-16
    outer loop
      vertex 28.7 -0.2 6
      vertex 27.5 -0.0956522 1.17136e-17
      vertex 27.5 -0.0956522 3
    endloop
  endfacet
  facet normal 0.0866296 0.996241 -1.22e-16
    outer loop
      vertex 28.7 -0.2 6
      vertex 27.5 -0.0956522 3
      vertex 26.7286 -0.0285714 6
    endloop
  endfacet
  facet normal 0.274721 0.961524 -1.17749e-16
    outer loop
      vertex 30.8 -0.8 9.79685e-17
      vertex 28.7 -0.2 2.44921e-17
      vertex 30.8 -0.8 6
    endloop
  endfacet
  facet normal 0.274721 0.961524 -1.17749e-16
    outer loop
      vertex 30.8 -0.8 6
      vertex 28.7 -0.2 2.44921e-17
      vertex 28.7 -0.2 6
    endloop
  endfacet
  facet normal 0.465746 0.884918 -1.08368e-16
    outer loop
      vertex 32.7 -1.8 2.20429e-16
      vertex 30.8 -0.8 9.79685e-17
      vertex 32.7 -1.8 6
    endloop
  endfacet
  facet normal 0.465746 0.884918 -1.08368e-16
    outer loop
      vertex 32.7 -1.8 6
      vertex 30.8 -0.8 9.79685e-17
      vertex 30.8 -0.8 6
    endloop
  endfacet
  facet normal 0.635707 0.77193 -9.45311e-17
    outer loop
      vertex 34.4 -3.2 3.91874e-16
      vertex 32.7 -1.8 2.20429e-16
      vertex 34.4 -3.2 6
    endloop
  endfacet
  facet normal 0.635707 0.77193 -9.45311e-17
    outer loop
      vertex 34.4 -3.2 6
      vertex 32.7 -1.8 2.20429e-16
      vertex 32.7 -1.8 6
    endloop
  endfacet
  facet normal 0.77193 0.635707 -7.78491e-17
    outer loop
      vertex 35.8 -4.9 6
      vertex 35.8 -4.9 6.00057e-16
      vertex 34.4 -3.2 3.91874e-16
    endloop
  endfacet
  facet normal 0.77193 0.635707 -7.78491e-17
    outer loop
      vertex 34.4 -3.2 6
      vertex 35.8 -4.9 6
      vertex 34.4 -3.2 3.91874e-16
    endloop
  endfacet
  facet normal 0.884918 0.465746 -5.70356e-17
    outer loop
      vertex 36.8 -6.8 6
      vertex 36.8 -6.8 8.32732e-16
      vertex 35.8 -4.9 6.00057e-16
    endloop
  endfacet
  facet normal 0.884918 0.465746 -5.70356e-17
    outer loop
      vertex 35.8 -4.9 6
      vertex 36.8 -6.8 6
      vertex 35.8 -4.9 6.00057e-16
    endloop
  endfacet
  facet normal 0.961524 0.274721 -3.36425e-17
    outer loop
      vertex 37.4 -8.9 6
      vertex 37.4 -8.9 1.0899e-15
      vertex 36.8 -6.8 8.32732e-16
    endloop
  endfacet
  facet normal 0.961524 0.274721 -3.36425e-17
    outer loop
      vertex 36.8 -6.8 6
      vertex 37.4 -8.9 6
      vertex 36.8 -6.8 8.32732e-16
    endloop
  endfacet
  facet normal 0.996241 0.0866296 -1.06087e-17
    outer loop
      vertex 37.6 -11.2 6
      vertex 37.6 -11.2 1.37156e-15
      vertex 37.4 -8.9 1.0899e-15
    endloop
  endfacet
  facet normal 0.996241 0.0866296 -1.06087e-17
    outer loop
      vertex 37.4 -8.9 6
      vertex 37.6 -11.2 6
      vertex 37.4 -8.9 1.0899e-15
    endloop
  endfacet
  facet normal 0.993151 -0.116841 1.43085e-17
    outer loop
      vertex 37.4 -12.9 1.57974e-15
      vertex 37.6 -11.2 1.37156e-15
      vertex 37.6 -11.2 6
    endloop
  endfacet
  facet normal 0.993151 -0.116841 1.43085e-17
    outer loop
      vertex 37.4 -12.9 6
      vertex 37.4 -12.9 1.57974e-15
      vertex 37.6 -11.2 6
    endloop
  endfacet
  facet normal 0.953583 -0.301131 3.68767e-17
    outer loop
      vertex 36.8 -14.8 1.81242e-15
      vertex 37.4 -12.9 1.57974e-15
      vertex 37.4 -12.9 6
    endloop
  endfacet
  facet normal 0.953583 -0.301131 3.68767e-17
    outer loop
      vertex 36.8 -14.8 6
      vertex 36.8 -14.8 1.81242e-15
      vertex 37.4 -12.9 6
    endloop
  endfacet
  facet normal 0.884918 -0.465746 5.70356e-17
    outer loop
      vertex 35.8 -16.7 2.04509e-15
      vertex 36.8 -14.8 1.81242e-15
      vertex 36.8 -14.8 6
    endloop
  endfacet
  facet normal 0.884918 -0.465746 5.70356e-17
    outer loop
      vertex 35.8 -16.7 6
      vertex 35.8 -16.7 2.04509e-15
      vertex 36.8 -14.8 6
    endloop
  endfacet
  facet normal 0.77193 -0.635707 7.78491e-17
    outer loop
      vertex 34.4 -18.4 2.25328e-15
      vertex 35.8 -16.7 2.04509e-15
      vertex 35.8 -16.7 6
    endloop
  endfacet
  facet normal 0.77193 -0.635707 7.78491e-17
    outer loop
      vertex 34.4 -18.4 6
      vertex 34.4 -18.4 2.25328e-15
      vertex 35.8 -16.7 6
    endloop
  endfacet
  facet normal 0.752577 0.658505 -8.06409e-17
    outer loop
      vertex 35.8 -20 6
      vertex 35.8 -20 2.44921e-15
      vertex 34.4 -18.4 2.25328e-15
    endloop
  endfacet
  facet normal 0.752577 0.658505 -8.06409e-17
    outer loop
      vertex 34.4 -18.4 6
      vertex 35.8 -20 6
      vertex 34.4 -18.4 2.25328e-15
    endloop
  endfacet
  facet normal 0.847998 0.529999 -6.4904e-17
    outer loop
      vertex 36.8 -21.6 6
      vertex 36.8 -21.6 2.64515e-15
      vertex 35.8 -20 2.44921e-15
    endloop
  endfacet
  facet normal 0.847998 0.529999 -6.4904e-17
    outer loop
      vertex 35.8 -20 6
      vertex 36.8 -21.6 6
      vertex 35.8 -20 2.44921e-15
    endloop
  endfacet
  facet normal 0.948683 0.316228 -3.87255e-17
    outer loop
      vertex 37.4 -23.4 6
      vertex 37.4 -23.4 2.86558e-15
      vertex 36.8 -21.6 2.64515e-15
    endloop
  endfacet
  facet normal 0.948683 0.316228 -3.87255e-17
    outer loop
      vertex 36.8 -21.6 6
      vertex 37.4 -23.4 6
      vertex 36.8 -21.6 2.64515e-15
    endloop
  endfacet
  facet normal 0.995893 0.0905357 -1.10871e-17
    outer loop
      vertex 37.6 -25.6 6
      vertex 37.6 -25.6 3.13499e-15
      vertex 37.4 -23.4 2.86558e-15
    endloop
  endfacet
  facet normal 0.995893 0.0905357 -1.10871e-17
    outer loop
      vertex 37.4 -23.4 6
      vertex 37.6 -25.6 6
      vertex 37.4 -23.4 2.86558e-15
    endloop
  endfacet
  facet normal 0.996241 -0.0866296 1.06087e-17
    outer loop
      vertex 37.4 -27.9 3.41665e-15
      vertex 37.6 -25.6 3.13499e-15
      vertex 37.6 -25.6 6
    endloop
  endfacet
  facet normal 0.996241 -0.0866296 1.06087e-17
    outer loop
      vertex 37.4 -27.9 6
      vertex 37.4 -27.9 3.41665e-15
      vertex 37.6 -25.6 6
    endloop
  endfacet
  facet normal 0.961524 -0.274721 3.36425e-17
    outer loop
      vertex 36.8 -30 3.67382e-15
      vertex 37.4 -27.9 3.41665e-15
      vertex 37.4 -27.9 6
    endloop
  endfacet
  facet normal 0.961524 -0.274721 3.36425e-17
    outer loop
      vertex 36.8 -30 6
      vertex 36.8 -30 3.67382e-15
      vertex 37.4 -27.9 6
    endloop
  endfacet
  facet normal 0.874157 -0.485643 5.94721e-17
    outer loop
      vertex 35.8 -31.8 3.89425e-15
      vertex 36.8 -30 3.67382e-15
      vertex 36.8 -30 6
    endloop
  endfacet
  facet normal 0.874157 -0.485643 5.94721e-17
    outer loop
      vertex 35.8 -31.8 6
      vertex 35.8 -31.8 3.89425e-15
      vertex 36.8 -30 6
    endloop
  endfacet
  facet normal 0.707107 -0.707107 8.65927e-17
    outer loop
      vertex 34.4 -33.2 4.06569e-15
      vertex 35.8 -31.8 3.89425e-15
      vertex 35.8 -31.8 6
    endloop
  endfacet
  facet normal 0.707107 -0.707107 8.65927e-17
    outer loop
      vertex 34.4 -33.2 6
      vertex 34.4 -33.2 4.06569e-15
      vertex 35.8 -31.8 6
    endloop
  endfacet
  facet normal 0.576683 -0.816968 1.00046e-16
    outer loop
      vertex 32.7 -34.4 4.21265e-15
      vertex 34.4 -33.2 4.06569e-15
      vertex 34.4 -33.2 6
    endloop
  endfacet
  facet normal 0.576683 -0.816968 1.00046e-16
    outer loop
      vertex 32.7 -34.4 6
      vertex 32.7 -34.4 4.21265e-15
      vertex 34.4 -33.2 6
    endloop
  endfacet
  facet normal 0.533993 -0.845489 1.03539e-16
    outer loop
      vertex 30.8 -35.6 4.3596e-15
      vertex 32.7 -34.4 4.21265e-15
      vertex 32.7 -34.4 6
    endloop
  endfacet
  facet normal 0.533993 -0.845489 1.03539e-16
    outer loop
      vertex 30.8 -35.6 6
      vertex 30.8 -35.6 4.3596e-15
      vertex 32.7 -34.4 6
    endloop
  endfacet
  facet normal 0.393919 -0.919145 1.12559e-16
    outer loop
      vertex 28.7 -36.5 4.46981e-15
      vertex 30.8 -35.6 4.3596e-15
      vertex 30.8 -35.6 6
    endloop
  endfacet
  facet normal 0.393919 -0.919145 1.12559e-16
    outer loop
      vertex 28.7 -36.5 6
      vertex 28.7 -36.5 4.46981e-15
      vertex 30.8 -35.6 6
    endloop
  endfacet
  facet normal 0.129339 -0.9916 1.21432e-16
    outer loop
      vertex 26.4 -36.8 4.50655e-15
      vertex 28.7 -36.5 4.46981e-15
      vertex 28.7 -36.5 6
    endloop
  endfacet
  facet normal 0.129339 -0.9916 1.21432e-16
    outer loop
      vertex 26.4 -36.8 6
      vertex 26.4 -36.8 4.50655e-15
      vertex 28.7 -36.5 6
    endloop
  endfacet
  facet normal 0 -1 1.22461e-16
    outer loop
      vertex 26.4 -36.8 6
      vertex -4.8 -36.8 6
      vertex -4.8 -36.8 4.50655e-15
    endloop
  endfacet
  facet normal 0 -1 1.22461e-16
    outer loop
      vertex 26.4 -36.8 4.50655e-15
      vertex 26.4 -36.8 6
      vertex -4.8 -36.8 4.50655e-15
    endloop
  endfacet
  facet normal -0.707107 -0.707107 8.65927e-17
    outer loop
      vertex -16 -25.6 6
      vertex -16 -25.6 3.13499e-15
      vertex -4.8 -36.8 6
    endloop
  endfacet
  facet normal -0.707107 -0.707107 8.65927e-17
    outer loop
      vertex -4.8 -36.8 6
      vertex -16 -25.6 3.13499e-15
      vertex -4.8 -36.8 4.50655e-15
    endloop
  endfacet
  facet normal 0.732793 -0.680451 8.33285e-17
    outer loop
      vertex -16 -25.6 6
      vertex -26.4 -36.8 6
      vertex -26.4 -36.8 4.50655e-15
    endloop
  endfacet
  facet normal 0.732793 -0.680451 8.33285e-17
    outer loop
      vertex -16 -25.6 3.13499e-15
      vertex -16 -25.6 6
      vertex -26.4 -36.8 4.50655e-15
    endloop
  endfacet
  facet normal 0 -1 1.22461e-16
    outer loop
      vertex -26.4 -36.8 6
      vertex -34.4 -36.8 6
      vertex -34.4 -36.8 4.50655e-15
    endloop
  endfacet
  facet normal 0 -1 1.22461e-16
    outer loop
      vertex -26.4 -36.8 4.50655e-15
      vertex -26.4 -36.8 6
      vertex -34.4 -36.8 4.50655e-15
    endloop
  endfacet
  facet normal 0 1 -1.22461e-16
    outer loop
      vertex 26.4 -14.4 1.76343e-15
      vertex 8 -14.4 1.76343e-15
      vertex 26.4 -14.4 6
    endloop
  endfacet
  facet normal 0 1 -1.22461e-16
    outer loop
      vertex 26.4 -14.4 6
      vertex 8 -14.4 1.76343e-15
      vertex 8 -14.4 6
    endloop
  endfacet
  facet normal 1 0 0
    outer loop
      vertex 8 -14.4 6
      vertex 8 -14.4 1.76343e-15
      vertex 8 -7.2 8.81717e-16
    endloop
  endfacet
  facet normal 1 0 0
    outer loop
      vertex 8 -7.2 6
      vertex 8 -14.4 6
      vertex 8 -7.2 8.81717e-16
    endloop
  endfacet
  facet normal -0.132164 0.991228 -1.21386e-16
    outer loop
      vertex 26.4 -14.4 6
      vertex 27.9 -14.2 6
      vertex 26.4 -14.4 1.76343e-15
    endloop
  endfacet
  facet normal -0.132164 0.991228 -1.21386e-16
    outer loop
      vertex 26.4 -14.4 1.76343e-15
      vertex 27.9 -14.2 6
      vertex 27.9 -14.2 1.73894e-15
    endloop
  endfacet
  facet normal -0.419058 0.907959 -1.11189e-16
    outer loop
      vertex 27.9 -14.2 6
      vertex 29.2 -13.6 6
      vertex 27.9 -14.2 1.73894e-15
    endloop
  endfacet
  facet normal -0.419058 0.907959 -1.11189e-16
    outer loop
      vertex 27.9 -14.2 1.73894e-15
      vertex 29.2 -13.6 6
      vertex 29.2 -13.6 1.66546e-15
    endloop
  endfacet
  facet normal -0.743294 0.668965 -8.19218e-17
    outer loop
      vertex 29.2 -13.6 6
      vertex 30.1 -12.6 6
      vertex 29.2 -13.6 1.66546e-15
    endloop
  endfacet
  facet normal -0.743294 0.668965 -8.19218e-17
    outer loop
      vertex 29.2 -13.6 1.66546e-15
      vertex 30.1 -12.6 6
      vertex 30.1 -12.6 1.543e-15
    endloop
  endfacet
  facet normal -0.977802 0.209529 -2.56591e-17
    outer loop
      vertex 30.1 -12.6 6
      vertex 30.4 -11.2 6
      vertex 30.1 -12.6 1.543e-15
    endloop
  endfacet
  facet normal -0.977802 0.209529 -2.56591e-17
    outer loop
      vertex 30.1 -12.6 1.543e-15
      vertex 30.4 -11.2 6
      vertex 30.4 -11.2 1.37156e-15
    endloop
  endfacet
  facet normal -0.992278 -0.124035 1.51894e-17
    outer loop
      vertex 30.2 -9.6 6
      vertex 30.2 -9.6 1.17562e-15
      vertex 30.4 -11.2 6
    endloop
  endfacet
  facet normal -0.992278 -0.124035 1.51894e-17
    outer loop
      vertex 30.4 -11.2 6
      vertex 30.2 -9.6 1.17562e-15
      vertex 30.4 -11.2 1.37156e-15
    endloop
  endfacet
  facet normal -0.936329 -0.351123 4.29988e-17
    outer loop
      vertex 29.6 -8 6
      vertex 29.6 -8 9.79685e-16
      vertex 30.2 -9.6 6
    endloop
  endfacet
  facet normal -0.936329 -0.351123 4.29988e-17
    outer loop
      vertex 30.2 -9.6 6
      vertex 29.6 -8 9.79685e-16
      vertex 30.2 -9.6 1.17562e-15
    endloop
  endfacet
  facet normal -0.351123 -0.936329 1.14663e-16
    outer loop
      vertex 29.6 -8 6
      vertex 28 -7.4 6
      vertex 28 -7.4 9.06209e-16
    endloop
  endfacet
  facet normal -0.351123 -0.936329 1.14663e-16
    outer loop
      vertex 29.6 -8 9.79685e-16
      vertex 29.6 -8 6
      vertex 28 -7.4 9.06209e-16
    endloop
  endfacet
  facet normal -0.124035 -0.992278 1.21515e-16
    outer loop
      vertex 28 -7.4 6
      vertex 26.4 -7.2 6
      vertex 26.4 -7.2 8.81717e-16
    endloop
  endfacet
  facet normal -0.124035 -0.992278 1.21515e-16
    outer loop
      vertex 28 -7.4 9.06209e-16
      vertex 28 -7.4 6
      vertex 26.4 -7.2 8.81717e-16
    endloop
  endfacet
  facet normal 0 -1 1.22461e-16
    outer loop
      vertex 8 -7.2 8.81717e-16
      vertex 26.4 -7.2 8.81717e-16
      vertex 26.4 -7.2 6
    endloop
  endfacet
  facet normal 0 -1 1.22461e-16
    outer loop
      vertex 8 -7.2 6
      vertex 8 -7.2 8.81717e-16
      vertex 26.4 -7.2 6
    endloop
  endfacet
  facet normal 0 1 -1.22461e-16
    outer loop
      vertex 26.4 -29.6 3.62483e-15
      vertex 8 -29.6 3.62483e-15
      vertex 26.4 -29.6 6
    endloop
  endfacet
  facet normal 0 1 -1.22461e-16
    outer loop
      vertex 26.4 -29.6 6
      vertex 8 -29.6 3.62483e-15
      vertex 8 -29.6 6
    endloop
  endfacet
  facet normal 1 0 0
    outer loop
      vertex 8 -29.6 6
      vertex 8 -29.6 3.62483e-15
      vertex 8 -21.6 2.64515e-15
    endloop
  endfacet
  facet normal 1 0 0
    outer loop
      vertex 8 -21.6 6
      vertex 8 -29.6 6
      vertex 8 -21.6 2.64515e-15
    endloop
  endfacet
  facet normal -0.196116 0.980581 -1.20083e-16
    outer loop
      vertex 26.4 -29.6 6
      vertex 27.9 -29.3 6
      vertex 26.4 -29.6 3.62483e-15
    endloop
  endfacet
  facet normal -0.196116 0.980581 -1.20083e-16
    outer loop
      vertex 26.4 -29.6 3.62483e-15
      vertex 27.9 -29.3 6
      vertex 27.9 -29.3 3.5881e-15
    endloop
  endfacet
  facet normal -0.56921 0.822192 -1.00686e-16
    outer loop
      vertex 27.9 -29.3 6
      vertex 29.2 -28.4 6
      vertex 27.9 -29.3 3.5881e-15
    endloop
  endfacet
  facet normal -0.56921 0.822192 -1.00686e-16
    outer loop
      vertex 27.9 -29.3 3.5881e-15
      vertex 29.2 -28.4 6
      vertex 29.2 -28.4 3.47788e-15
    endloop
  endfacet
  facet normal -0.822192 0.56921 -6.97058e-17
    outer loop
      vertex 29.2 -28.4 6
      vertex 30.1 -27.1 6
      vertex 29.2 -28.4 3.47788e-15
    endloop
  endfacet
  facet normal -0.822192 0.56921 -6.97058e-17
    outer loop
      vertex 29.2 -28.4 3.47788e-15
      vertex 30.1 -27.1 6
      vertex 30.1 -27.1 3.31868e-15
    endloop
  endfacet
  facet normal -0.980581 0.196116 -2.40165e-17
    outer loop
      vertex 30.1 -27.1 6
      vertex 30.4 -25.6 6
      vertex 30.1 -27.1 3.31868e-15
    endloop
  endfacet
  facet normal -0.980581 0.196116 -2.40165e-17
    outer loop
      vertex 30.1 -27.1 3.31868e-15
      vertex 30.4 -25.6 6
      vertex 30.4 -25.6 3.13499e-15
    endloop
  endfacet
  facet normal -0.989949 -0.141421 1.73185e-17
    outer loop
      vertex 30.2 -24.2 6
      vertex 30.2 -24.2 2.96355e-15
      vertex 30.4 -25.6 6
    endloop
  endfacet
  facet normal -0.989949 -0.141421 1.73185e-17
    outer loop
      vertex 30.4 -25.6 6
      vertex 30.2 -24.2 2.96355e-15
      vertex 30.4 -25.6 3.13499e-15
    endloop
  endfacet
  facet normal -0.857493 -0.514496 6.30055e-17
    outer loop
      vertex 29.6 -23.2 6
      vertex 29.6 -23.2 2.84109e-15
      vertex 30.2 -24.2 6
    endloop
  endfacet
  facet normal -0.857493 -0.514496 6.30055e-17
    outer loop
      vertex 30.2 -24.2 6
      vertex 29.6 -23.2 2.84109e-15
      vertex 30.2 -24.2 2.96355e-15
    endloop
  endfacet
  facet normal -0.6 -0.8 9.79685e-17
    outer loop
      vertex 29.6 -23.2 6
      vertex 28 -22 6
      vertex 28 -22 2.69413e-15
    endloop
  endfacet
  facet normal -0.6 -0.8 9.79685e-17
    outer loop
      vertex 29.6 -23.2 2.84109e-15
      vertex 29.6 -23.2 6
      vertex 28 -22 2.69413e-15
    endloop
  endfacet
  facet normal -0.242536 -0.970143 1.18804e-16
    outer loop
      vertex 28 -22 6
      vertex 26.4 -21.6 6
      vertex 26.4 -21.6 2.64515e-15
    endloop
  endfacet
  facet normal -0.242536 -0.970143 1.18804e-16
    outer loop
      vertex 28 -22 2.69413e-15
      vertex 28 -22 6
      vertex 26.4 -21.6 2.64515e-15
    endloop
  endfacet
  facet normal 0 -1 1.22461e-16
    outer loop
      vertex 8 -21.6 2.64515e-15
      vertex 26.4 -21.6 2.64515e-15
      vertex 26.4 -21.6 6
    endloop
  endfacet
  facet normal 0 -1 1.22461e-16
    outer loop
      vertex 8 -21.6 6
      vertex 8 -21.6 2.64515e-15
      vertex 26.4 -21.6 6
    endloop
  endfacet
  facet normal -0.743145 6.66347e-17 -0.669131
    outer loop
      vertex 15.3713 -2 37.6679
      vertex 15.3713 -6 37.6679
      vertex 15.0723 -2 38
    endloop
  endfacet
  facet normal -0.743145 6.66347e-17 -0.669131
    outer loop
      vertex 15.0723 -2 38
      vertex 15.3713 -6 37.6679
      vertex 15.0723 -6 38
    endloop
  endfacet
  facet normal 0 -1 -9.9584e-17
    outer loop
      vertex -18.5848 -2 22.5497
      vertex -17.3574 -2 18.772
      vertex -15.3713 -2 15.3321
    endloop
  endfacet
  facet normal 0 -1 -9.9584e-17
    outer loop
      vertex -9.5 -2 10.0455
      vertex -18.5848 -2 22.5497
      vertex -12.7135 -2 12.3802
    endloop
  endfacet
  facet normal 0 -1 -9.9584e-17
    outer loop
      vertex -12.7135 -2 12.3802
      vertex -18.5848 -2 22.5497
      vertex -15.3713 -2 15.3321
    endloop
  endfacet
  facet normal 0 -1 -9.9584e-17
    outer loop
      vertex -13.7533 -2 16.5077
      vertex -18.5848 -2 22.5497
      vertex -9.5 -2 10.0455
    endloop
  endfacet
  facet normal 0 -1 -9.9584e-17
    outer loop
      vertex -8.5 -2 11.7776
      vertex -11.3752 -2 13.8665
      vertex -5.87132 -2 8.42993
    endloop
  endfacet
  facet normal 0 -1 -9.9584e-17
    outer loop
      vertex -1.77698 -2 9.59313
      vertex -5.25329 -2 10.332
      vertex -1.98604 -2 7.60408
    endloop
  endfacet
  facet normal 0 -1 -9.9584e-17
    outer loop
      vertex 1.77698 -2 9.59313
      vertex -1.77698 -2 9.59313
      vertex 1.98604 -2 7.60408
    endloop
  endfacet
  facet normal 0 -1 -9.9584e-17
    outer loop
      vertex 5.25329 -2 10.332
      vertex 1.77698 -2 9.59313
      vertex 5.87132 -2 8.42993
    endloop
  endfacet
  facet normal 0 -1 -9.9584e-17
    outer loop
      vertex 8.5 -2 11.7776
      vertex 5.25329 -2 10.332
      vertex 9.5 -2 10.0455
    endloop
  endfacet
  facet normal 0 -1 -9.9584e-17
    outer loop
      vertex 11.3752 -2 13.8665
      vertex 8.5 -2 11.7776
      vertex 12.7135 -2 12.3802
    endloop
  endfacet
  facet normal 0 -1 -9.9584e-17
    outer loop
      vertex 13.7533 -2 16.5077
      vertex 11.3752 -2 13.8665
      vertex 15.3713 -2 15.3321
    endloop
  endfacet
  facet normal 0 -1 -9.9584e-17
    outer loop
      vertex 15.5303 -2 19.5855
      vertex 13.7533 -2 16.5077
      vertex 17.3574 -2 18.772
    endloop
  endfacet
  facet normal 0 -1 -9.9584e-17
    outer loop
      vertex 16.6285 -2 22.9655
      vertex 15.5303 -2 19.5855
      vertex 18.5848 -2 22.5497
    endloop
  endfacet
  facet normal 0 -1 -9.9584e-17
    outer loop
      vertex -13.7533 -2 16.5077
      vertex -15.5303 -2 19.5855
      vertex -18.5848 -2 22.5497
    endloop
  endfacet
  facet normal 0 -1 -9.9584e-17
    outer loop
      vertex 13.7533 -2 36.4923
      vertex 15.5303 -2 33.4145
      vertex 17.3574 -2 34.228
    endloop
  endfacet
  facet normal 0 -1 -9.9584e-17
    outer loop
      vertex 16.6285 -2 30.0345
      vertex 17 -2 26.5
      vertex 18.5848 -2 30.4503
    endloop
  endfacet
  facet normal 0 -1 -9.9584e-17
    outer loop
      vertex 15.3713 -2 37.6679
      vertex 13.7533 -2 36.4923
      vertex 17.3574 -2 34.228
    endloop
  endfacet
  facet normal 0 -1 -9.9584e-17
    outer loop
      vertex 17.3574 -2 34.228
      vertex 15.5303 -2 33.4145
      vertex 18.5848 -2 30.4503
    endloop
  endfacet
  facet normal 0 -1 -9.9584e-17
    outer loop
      vertex 15.5303 -2 33.4145
      vertex 16.6285 -2 30.0345
      vertex 18.5848 -2 30.4503
    endloop
  endfacet
  facet normal 0 -1 -9.9584e-17
    outer loop
      vertex 18.5848 -2 30.4503
      vertex 17 -2 26.5
      vertex 19 -2 26.5
    endloop
  endfacet
  facet normal 0 -1 -9.9584e-17
    outer loop
      vertex 19 -2 26.5
      vertex 16.6285 -2 22.9655
      vertex 18.5848 -2 22.5497
    endloop
  endfacet
  facet normal 0 -1 -9.9584e-17
    outer loop
      vertex 18.5848 -2 22.5497
      vertex 15.5303 -2 19.5855
      vertex 17.3574 -2 18.772
    endloop
  endfacet
  facet normal 0 -1 -9.9584e-17
    outer loop
      vertex 17.3574 -2 18.772
      vertex 13.7533 -2 16.5077
      vertex 15.3713 -2 15.3321
    endloop
  endfacet
  facet normal 0 -1 -9.9584e-17
    outer loop
      vertex -16.6285 -2 22.9655
      vertex -17 -2 26.5
      vertex -18.5848 -2 22.5497
    endloop
  endfacet
  facet normal 0 -1 -9.9584e-17
    outer loop
      vertex 15.3713 -2 15.3321
      vertex 11.3752 -2 13.8665
      vertex 12.7135 -2 12.3802
    endloop
  endfacet
  facet normal 0 -1 -9.9584e-17
    outer loop
      vertex 12.7135 -2 12.3802
      vertex 8.5 -2 11.7776
      vertex 9.5 -2 10.0455
    endloop
  endfacet
  facet normal 0 -1 -9.9584e-17
    outer loop
      vertex 9.5 -2 10.0455
      vertex 5.25329 -2 10.332
      vertex 5.87132 -2 8.42993
    endloop
  endfacet
  facet normal 0 -1 -9.9584e-17
    outer loop
      vertex 5.87132 -2 8.42993
      vertex 1.77698 -2 9.59313
      vertex 1.98604 -2 7.60408
    endloop
  endfacet
  facet normal 0 -1 -9.9584e-17
    outer loop
      vertex 1.98604 -2 7.60408
      vertex -1.77698 -2 9.59313
      vertex -1.98604 -2 7.60408
    endloop
  endfacet
  facet normal 0 -1 -9.9584e-17
    outer loop
      vertex -1.98604 -2 7.60408
      vertex -5.25329 -2 10.332
      vertex -5.87132 -2 8.42993
    endloop
  endfacet
  facet normal 0 -1 -9.9584e-17
    outer loop
      vertex -5.25329 -2 10.332
      vertex -8.5 -2 11.7776
      vertex -5.87132 -2 8.42993
    endloop
  endfacet
  facet normal 0 -1 -9.9584e-17
    outer loop
      vertex -5.87132 -2 8.42993
      vertex -11.3752 -2 13.8665
      vertex -9.5 -2 10.0455
    endloop
  endfacet
  facet normal 0 -1 -9.9584e-17
    outer loop
      vertex -11.3752 -2 13.8665
      vertex -13.7533 -2 16.5077
      vertex -9.5 -2 10.0455
    endloop
  endfacet
  facet normal 0 -1 -9.9584e-17
    outer loop
      vertex 17 -2 26.5
      vertex 16.6285 -2 22.9655
      vertex 19 -2 26.5
    endloop
  endfacet
  facet normal 0 -1 -9.9584e-17
    outer loop
      vertex -16.6285 -2 30.0345
      vertex -18.5848 -2 22.5497
      vertex -17 -2 26.5
    endloop
  endfacet
  facet normal 0 -1 -9.9584e-17
    outer loop
      vertex -15.0723 -2 38
      vertex -18.5848 -2 22.5497
      vertex -16.6285 -2 30.0345
    endloop
  endfacet
  facet normal 0 -1 -9.9584e-17
    outer loop
      vertex -15.0723 -2 38
      vertex -16.6285 -2 30.0345
      vertex -15.5303 -2 33.4145
    endloop
  endfacet
  facet normal 0 -1 -9.9584e-17
    outer loop
      vertex -15.0723 -2 38
      vertex -15.5303 -2 33.4145
      vertex -13.7533 -2 36.4923
    endloop
  endfacet
  facet normal 0 -1 -9.9584e-17
    outer loop
      vertex -15.0723 -2 38
      vertex -13.7533 -2 36.4923
      vertex -12.3958 -2 38
    endloop
  endfacet
  facet normal 0 -1 -9.9584e-17
    outer loop
      vertex -15.3713 -2 37.6679
      vertex -18.5848 -2 22.5497
      vertex -15.0723 -2 38
    endloop
  endfacet
  facet normal 0 -1 -9.9584e-17
    outer loop
      vertex -17.3574 -2 34.228
      vertex -18.5848 -2 22.5497
      vertex -15.3713 -2 37.6679
    endloop
  endfacet
  facet normal 0 -1 -9.9584e-17
    outer loop
      vertex -18.5848 -2 30.4503
      vertex -18.5848 -2 22.5497
      vertex -17.3574 -2 34.228
    endloop
  endfacet
  facet normal 0 -1 -9.9584e-17
    outer loop
      vertex -19 -2 26.5
      vertex -18.5848 -2 22.5497
      vertex -18.5848 -2 30.4503
    endloop
  endfacet
  facet normal 0 -1 -9.9584e-17
    outer loop
      vertex 12.3958 -2 38
      vertex 15.3713 -2 37.6679
      vertex 15.0723 -2 38
    endloop
  endfacet
  facet normal 0 -1 -9.9584e-17
    outer loop
      vertex 12.3958 -2 38
      vertex 13.7533 -2 36.4923
      vertex 15.3713 -2 37.6679
    endloop
  endfacet
  facet normal 0 -1 -9.9584e-17
    outer loop
      vertex -15.5303 -2 19.5855
      vertex -16.6285 -2 22.9655
      vertex -18.5848 -2 22.5497
    endloop
  endfacet
  facet normal 0.743145 6.66347e-17 -0.669131
    outer loop
      vertex -15.0723 -2 38
      vertex -15.0723 -6 38
      vertex -15.3713 -6 37.6679
    endloop
  endfacet
  facet normal 0.743145 6.66347e-17 -0.669131
    outer loop
      vertex -15.3713 -2 37.6679
      vertex -15.0723 -2 38
      vertex -15.3713 -6 37.6679
    endloop
  endfacet
  facet normal 0.866025 4.9792e-17 -0.5
    outer loop
      vertex -15.3713 -2 37.6679
      vertex -15.3713 -6 37.6679
      vertex -17.3574 -6 34.228
    endloop
  endfacet
  facet normal 0.866025 4.9792e-17 -0.5
    outer loop
      vertex -17.3574 -2 34.228
      vertex -15.3713 -2 37.6679
      vertex -17.3574 -6 34.228
    endloop
  endfacet
  facet normal 0.951057 3.07731e-17 -0.309017
    outer loop
      vertex -17.3574 -2 34.228
      vertex -17.3574 -6 34.228
      vertex -18.5848 -6 30.4503
    endloop
  endfacet
  facet normal 0.951057 3.07731e-17 -0.309017
    outer loop
      vertex -18.5848 -2 30.4503
      vertex -17.3574 -2 34.228
      vertex -18.5848 -6 30.4503
    endloop
  endfacet
  facet normal 0.994522 1.04094e-17 -0.104529
    outer loop
      vertex -18.5848 -2 30.4503
      vertex -18.5848 -6 30.4503
      vertex -19 -6 26.5
    endloop
  endfacet
  facet normal 0.994522 1.04094e-17 -0.104529
    outer loop
      vertex -19 -2 26.5
      vertex -18.5848 -2 30.4503
      vertex -19 -6 26.5
    endloop
  endfacet
  facet normal 0.994522 -1.04094e-17 0.104529
    outer loop
      vertex -19 -6 26.5
      vertex -18.5848 -6 22.5497
      vertex -18.5848 -2 22.5497
    endloop
  endfacet
  facet normal 0.994522 -1.04094e-17 0.104529
    outer loop
      vertex -19 -2 26.5
      vertex -19 -6 26.5
      vertex -18.5848 -2 22.5497
    endloop
  endfacet
  facet normal 0.951057 -3.07731e-17 0.309017
    outer loop
      vertex -18.5848 -6 22.5497
      vertex -17.3574 -6 18.772
      vertex -17.3574 -2 18.772
    endloop
  endfacet
  facet normal 0.951057 -3.07731e-17 0.309017
    outer loop
      vertex -18.5848 -2 22.5497
      vertex -18.5848 -6 22.5497
      vertex -17.3574 -2 18.772
    endloop
  endfacet
  facet normal 0.866025 -4.9792e-17 0.5
    outer loop
      vertex -17.3574 -6 18.772
      vertex -15.3713 -6 15.3321
      vertex -15.3713 -2 15.3321
    endloop
  endfacet
  facet normal 0.866025 -4.9792e-17 0.5
    outer loop
      vertex -17.3574 -2 18.772
      vertex -17.3574 -6 18.772
      vertex -15.3713 -2 15.3321
    endloop
  endfacet
  facet normal 0.743145 -6.66347e-17 0.669131
    outer loop
      vertex -15.3713 -6 15.3321
      vertex -12.7135 -6 12.3802
      vertex -12.7135 -2 12.3802
    endloop
  endfacet
  facet normal 0.743145 -6.66347e-17 0.669131
    outer loop
      vertex -15.3713 -2 15.3321
      vertex -15.3713 -6 15.3321
      vertex -12.7135 -2 12.3802
    endloop
  endfacet
  facet normal 0.587785 -8.05651e-17 0.809017
    outer loop
      vertex -12.7135 -6 12.3802
      vertex -9.5 -6 10.0455
      vertex -9.5 -2 10.0455
    endloop
  endfacet
  facet normal 0.587785 -8.05651e-17 0.809017
    outer loop
      vertex -12.7135 -2 12.3802
      vertex -12.7135 -6 12.3802
      vertex -9.5 -2 10.0455
    endloop
  endfacet
  facet normal 0.406737 -9.09745e-17 0.913545
    outer loop
      vertex -9.5 -6 10.0455
      vertex -5.87132 -6 8.42993
      vertex -5.87132 -2 8.42993
    endloop
  endfacet
  facet normal 0.406737 -9.09745e-17 0.913545
    outer loop
      vertex -9.5 -2 10.0455
      vertex -9.5 -6 10.0455
      vertex -5.87132 -2 8.42993
    endloop
  endfacet
  facet normal 0.207912 -9.74078e-17 0.978148
    outer loop
      vertex -5.87132 -6 8.42993
      vertex -1.98604 -6 7.60408
      vertex -1.98604 -2 7.60408
    endloop
  endfacet
  facet normal 0.207912 -9.74078e-17 0.978148
    outer loop
      vertex -5.87132 -2 8.42993
      vertex -5.87132 -6 8.42993
      vertex -1.98604 -2 7.60408
    endloop
  endfacet
  facet normal 0 -9.9584e-17 1
    outer loop
      vertex -1.98604 -6 7.60408
      vertex 1.98604 -6 7.60408
      vertex 1.98604 -2 7.60408
    endloop
  endfacet
  facet normal 0 -9.9584e-17 1
    outer loop
      vertex -1.98604 -2 7.60408
      vertex -1.98604 -6 7.60408
      vertex 1.98604 -2 7.60408
    endloop
  endfacet
  facet normal -0.207912 -9.74078e-17 0.978148
    outer loop
      vertex 1.98604 -6 7.60408
      vertex 5.87132 -6 8.42993
      vertex 5.87132 -2 8.42993
    endloop
  endfacet
  facet normal -0.207912 -9.74078e-17 0.978148
    outer loop
      vertex 1.98604 -2 7.60408
      vertex 1.98604 -6 7.60408
      vertex 5.87132 -2 8.42993
    endloop
  endfacet
  facet normal -0.406737 -9.09745e-17 0.913545
    outer loop
      vertex 5.87132 -6 8.42993
      vertex 9.5 -6 10.0455
      vertex 9.5 -2 10.0455
    endloop
  endfacet
  facet normal -0.406737 -9.09745e-17 0.913545
    outer loop
      vertex 5.87132 -2 8.42993
      vertex 5.87132 -6 8.42993
      vertex 9.5 -2 10.0455
    endloop
  endfacet
  facet normal -0.587785 -8.05651e-17 0.809017
    outer loop
      vertex 9.5 -6 10.0455
      vertex 12.7135 -6 12.3802
      vertex 12.7135 -2 12.3802
    endloop
  endfacet
  facet normal -0.587785 -8.05651e-17 0.809017
    outer loop
      vertex 9.5 -2 10.0455
      vertex 9.5 -6 10.0455
      vertex 12.7135 -2 12.3802
    endloop
  endfacet
  facet normal -0.743145 -6.66347e-17 0.669131
    outer loop
      vertex 15.3713 -6 15.3321
      vertex 15.3713 -2 15.3321
      vertex 12.7135 -6 12.3802
    endloop
  endfacet
  facet normal -0.743145 -6.66347e-17 0.669131
    outer loop
      vertex 12.7135 -6 12.3802
      vertex 15.3713 -2 15.3321
      vertex 12.7135 -2 12.3802
    endloop
  endfacet
  facet normal -0.866025 -4.9792e-17 0.5
    outer loop
      vertex 17.3574 -6 18.772
      vertex 17.3574 -2 18.772
      vertex 15.3713 -6 15.3321
    endloop
  endfacet
  facet normal -0.866025 -4.9792e-17 0.5
    outer loop
      vertex 15.3713 -6 15.3321
      vertex 17.3574 -2 18.772
      vertex 15.3713 -2 15.3321
    endloop
  endfacet
  facet normal -0.951057 -3.07731e-17 0.309017
    outer loop
      vertex 18.5848 -6 22.5497
      vertex 18.5848 -2 22.5497
      vertex 17.3574 -6 18.772
    endloop
  endfacet
  facet normal -0.951057 -3.07731e-17 0.309017
    outer loop
      vertex 17.3574 -6 18.772
      vertex 18.5848 -2 22.5497
      vertex 17.3574 -2 18.772
    endloop
  endfacet
  facet normal -0.994522 -1.04094e-17 0.104529
    outer loop
      vertex 19 -6 26.5
      vertex 19 -2 26.5
      vertex 18.5848 -6 22.5497
    endloop
  endfacet
  facet normal -0.994522 -1.04094e-17 0.104529
    outer loop
      vertex 18.5848 -6 22.5497
      vertex 19 -2 26.5
      vertex 18.5848 -2 22.5497
    endloop
  endfacet
  facet normal -0.994522 1.04094e-17 -0.104529
    outer loop
      vertex 19 -6 26.5
      vertex 18.5848 -6 30.4503
      vertex 19 -2 26.5
    endloop
  endfacet
  facet normal -0.994522 1.04094e-17 -0.104529
    outer loop
      vertex 19 -2 26.5
      vertex 18.5848 -6 30.4503
      vertex 18.5848 -2 30.4503
    endloop
  endfacet
  facet normal -0.951057 3.07731e-17 -0.309017
    outer loop
      vertex 18.5848 -6 30.4503
      vertex 17.3574 -6 34.228
      vertex 18.5848 -2 30.4503
    endloop
  endfacet
  facet normal -0.951057 3.07731e-17 -0.309017
    outer loop
      vertex 18.5848 -2 30.4503
      vertex 17.3574 -6 34.228
      vertex 17.3574 -2 34.228
    endloop
  endfacet
  facet normal -0.866025 4.9792e-17 -0.5
    outer loop
      vertex 17.3574 -6 34.228
      vertex 15.3713 -6 37.6679
      vertex 17.3574 -2 34.228
    endloop
  endfacet
  facet normal -0.866025 4.9792e-17 -0.5
    outer loop
      vertex 17.3574 -2 34.228
      vertex 15.3713 -6 37.6679
      vertex 15.3713 -2 37.6679
    endloop
  endfacet
endsolid OpenSCAD_Model
