solid OpenSCAD_Model
  facet normal 0 1 -1.22461e-16
    outer loop
      vertex -34.8 -29.6 6
      vertex -20.4 -29.6 6
      vertex -34.8 -29.6 3.62483e-15
    endloop
  endfacet
  facet normal 0 1 -1.22461e-16
    outer loop
      vertex -34.8 -29.6 3.62483e-15
      vertex -20.4 -29.6 6
      vertex -20.4 -29.6 3.62483e-15
    endloop
  endfacet
  facet normal 0 1.22461e-16 1
    outer loop
      vertex -20.4 -29.6 6
      vertex -34.8 -29.6 6
      vertex -34.8 -36 6
    endloop
  endfacet
  facet normal 0 1.22461e-16 1
    outer loop
      vertex 27.2 -35.8 6
      vertex -20.4 -29.6 6
      vertex 24.8 -36 6
    endloop
  endfacet
  facet normal 0 1.22461e-16 1
    outer loop
      vertex 24.8 -36 6
      vertex -20.4 -29.6 6
      vertex -34.8 -36 6
    endloop
  endfacet
  facet normal 0 1.22461e-16 1
    outer loop
      vertex -13.2 -29.6 6
      vertex -20.4 -6 6
      vertex -20.4 -29.6 6
    endloop
  endfacet
  facet normal 0 1.22461e-16 1
    outer loop
      vertex 29.6 -35.2 6
      vertex -20.4 -29.6 6
      vertex 27.2 -35.8 6
    endloop
  endfacet
  facet normal 0 1.22461e-16 1
    outer loop
      vertex 31.8 -34.2 6
      vertex -20.4 -29.6 6
      vertex 29.6 -35.2 6
    endloop
  endfacet
  facet normal 0 1.22461e-16 1
    outer loop
      vertex 33.6 -32.8 6
      vertex -20.4 -29.6 6
      vertex 31.8 -34.2 6
    endloop
  endfacet
  facet normal 0 1.22461e-16 1
    outer loop
      vertex 35.1 -31 6
      vertex -20.4 -29.6 6
      vertex 33.6 -32.8 6
    endloop
  endfacet
  facet normal 0 1.22461e-16 1
    outer loop
      vertex 0.8 -29.6 6
      vertex -13.2 -29.6 6
      vertex 35.1 -31 6
    endloop
  endfacet
  facet normal 0 1.22461e-16 1
    outer loop
      vertex 29.5 -27 6
      vertex 28.8 -27.6 6
      vertex 37.3 -26.4 6
    endloop
  endfacet
  facet normal 0 1.22461e-16 1
    outer loop
      vertex 0.8 -6 6
      vertex 8.8 -28.8 6
      vertex 8.8 -18.4 6
    endloop
  endfacet
  facet normal 0 1.22461e-16 1
    outer loop
      vertex 0.8 -6 6
      vertex 0.8 -29.6 6
      vertex 8.8 -28.8 6
    endloop
  endfacet
  facet normal 0 1.22461e-16 1
    outer loop
      vertex 36.4 -28.8 6
      vertex 0.8 -29.6 6
      vertex 35.1 -31 6
    endloop
  endfacet
  facet normal 0 1.22461e-16 1
    outer loop
      vertex -13.2 -29.6 6
      vertex -20.4 -29.6 6
      vertex 35.1 -31 6
    endloop
  endfacet
  facet normal 0 1.22461e-16 1
    outer loop
      vertex -13.2 -29.6 6
      vertex -13.2 -6 6
      vertex -20.4 -6 6
    endloop
  endfacet
  facet normal 0 1.22461e-16 1
    outer loop
      vertex 29.6 -12 6
      vertex 8.8 -18.4 6
      vertex 31.8 -13 6
    endloop
  endfacet
  facet normal 0 1.22461e-16 1
    outer loop
      vertex 35.1 -16.2 6
      vertex 24.8 -18.4 6
      vertex 36.4 -18.4 6
    endloop
  endfacet
  facet normal 0 1.22461e-16 1
    outer loop
      vertex 24.8 -18.4 6
      vertex 27 -18.8 6
      vertex 36.4 -18.4 6
    endloop
  endfacet
  facet normal 0 1.22461e-16 1
    outer loop
      vertex 36.4 -18.4 6
      vertex 28.8 -20 6
      vertex 37.3 -21 6
    endloop
  endfacet
  facet normal 0 1.22461e-16 1
    outer loop
      vertex 28.8 -20 6
      vertex 30 -21.8 6
      vertex 37.3 -21 6
    endloop
  endfacet
  facet normal 0 1.22461e-16 1
    outer loop
      vertex 37.3 -21 6
      vertex 30.4 -24 6
      vertex 37.6 -24 6
    endloop
  endfacet
  facet normal 0 1.22461e-16 1
    outer loop
      vertex 37.6 -24 6
      vertex 30.3 -24.9 6
      vertex 37.3 -26.4 6
    endloop
  endfacet
  facet normal 0 1.22461e-16 1
    outer loop
      vertex 8.8 -28.8 6
      vertex 0.8 -29.6 6
      vertex 24.8 -28.8 6
    endloop
  endfacet
  facet normal 0 1.22461e-16 1
    outer loop
      vertex 30.3 -24.9 6
      vertex 30 -26 6
      vertex 37.3 -26.4 6
    endloop
  endfacet
  facet normal 0 1.22461e-16 1
    outer loop
      vertex 24.8 -28.8 6
      vertex 0.8 -29.6 6
      vertex 36.4 -28.8 6
    endloop
  endfacet
  facet normal 0 1.22461e-16 1
    outer loop
      vertex 0.8 -6 6
      vertex 8.8 -18.4 6
      vertex 8.8 -11.2 6
    endloop
  endfacet
  facet normal 0 1.22461e-16 1
    outer loop
      vertex 37.3 -26.4 6
      vertex 28.8 -27.6 6
      vertex 36.4 -28.8 6
    endloop
  endfacet
  facet normal 0 1.22461e-16 1
    outer loop
      vertex 28.8 -27.6 6
      vertex 27.9 -28 6
      vertex 36.4 -28.8 6
    endloop
  endfacet
  facet normal 0 1.22461e-16 1
    outer loop
      vertex 27.9 -28 6
      vertex 26.8 -28.4 6
      vertex 36.4 -28.8 6
    endloop
  endfacet
  facet normal 0 1.22461e-16 1
    outer loop
      vertex 26.8 -28.4 6
      vertex 25.7 -28.7 6
      vertex 36.4 -28.8 6
    endloop
  endfacet
  facet normal 0 1.22461e-16 1
    outer loop
      vertex 25.7 -28.7 6
      vertex 24.8 -28.8 6
      vertex 36.4 -28.8 6
    endloop
  endfacet
  facet normal 0 1.22461e-16 1
    outer loop
      vertex 0.8 -6 6
      vertex 8.8 -11.2 6
      vertex 8.8 -6 6
    endloop
  endfacet
  facet normal 0 1.22461e-16 1
    outer loop
      vertex 8.8 -11.2 6
      vertex 27.2 -11.4 6
      vertex 24.8 -11.2 6
    endloop
  endfacet
  facet normal 0 1.22461e-16 1
    outer loop
      vertex 8.8 -11.2 6
      vertex 29.6 -12 6
      vertex 27.2 -11.4 6
    endloop
  endfacet
  facet normal 0 1.22461e-16 1
    outer loop
      vertex 8.8 -11.2 6
      vertex 8.8 -18.4 6
      vertex 29.6 -12 6
    endloop
  endfacet
  facet normal 0 1.22461e-16 1
    outer loop
      vertex 8.8 -18.4 6
      vertex 33.6 -14.4 6
      vertex 31.8 -13 6
    endloop
  endfacet
  facet normal 0 1.22461e-16 1
    outer loop
      vertex 8.8 -18.4 6
      vertex 35.1 -16.2 6
      vertex 33.6 -14.4 6
    endloop
  endfacet
  facet normal 0 1.22461e-16 1
    outer loop
      vertex 8.8 -18.4 6
      vertex 24.8 -18.4 6
      vertex 35.1 -16.2 6
    endloop
  endfacet
  facet normal 0 1.22461e-16 1
    outer loop
      vertex 27 -18.8 6
      vertex 28.8 -20 6
      vertex 36.4 -18.4 6
    endloop
  endfacet
  facet normal 0 1.22461e-16 1
    outer loop
      vertex 30 -21.8 6
      vertex 30.4 -24 6
      vertex 37.3 -21 6
    endloop
  endfacet
  facet normal 0 1.22461e-16 1
    outer loop
      vertex 30.4 -24 6
      vertex 30.3 -24.9 6
      vertex 37.6 -24 6
    endloop
  endfacet
  facet normal 0 1.22461e-16 1
    outer loop
      vertex 30 -26 6
      vertex 29.5 -27 6
      vertex 37.3 -26.4 6
    endloop
  endfacet
  facet normal -1 0 0
    outer loop
      vertex -34.8 -29.6 6
      vertex -34.8 -29.6 3.62483e-15
      vertex -34.8 -36 6
    endloop
  endfacet
  facet normal -1 0 0
    outer loop
      vertex -34.8 -36 6
      vertex -34.8 -29.6 3.62483e-15
      vertex -34.8 -36 4.40858e-15
    endloop
  endfacet
  facet normal 0 -1.22461e-16 -1
    outer loop
      vertex -34.8 -29.6 3.62483e-15
      vertex -20.4 -29.6 3.62483e-15
      vertex -34.8 -36 4.40858e-15
    endloop
  endfacet
  facet normal 0 -1.22461e-16 -1
    outer loop
      vertex -13.2 -1.83691e-16 0
      vertex -20.4 -29.6 3.62483e-15
      vertex -20.4 -1.83691e-16 0
    endloop
  endfacet
  facet normal 0 -1.22461e-16 -1
    outer loop
      vertex -13.2 -29.6 3.62483e-15
      vertex -20.4 -29.6 3.62483e-15
      vertex -13.2 -1.83691e-16 0
    endloop
  endfacet
  facet normal 0 -1.22461e-16 -1
    outer loop
      vertex -34.8 -36 4.40858e-15
      vertex -20.4 -29.6 3.62483e-15
      vertex -13.2 -29.6 3.62483e-15
    endloop
  endfacet
  facet normal 0 -1.22461e-16 -1
    outer loop
      vertex -34.8 -36 4.40858e-15
      vertex -13.2 -29.6 3.62483e-15
      vertex 0.8 -29.6 3.62483e-15
    endloop
  endfacet
  facet normal 0 -1.22461e-16 -1
    outer loop
      vertex 0.8 -29.6 3.62483e-15
      vertex 0.8 -1.83691e-16 0
      vertex 8.8 -1.83691e-16 0
    endloop
  endfacet
  facet normal 0 -1.22461e-16 -1
    outer loop
      vertex 0.8 -29.6 3.62483e-15
      vertex 8.8 -1.83691e-16 0
      vertex 8.8 -11.2 1.37156e-15
    endloop
  endfacet
  facet normal 0 -1.22461e-16 -1
    outer loop
      vertex 8.8 -18.4 2.25328e-15
      vertex 8.8 -11.2 1.37156e-15
      vertex 24.8 -11.2 1.37156e-15
    endloop
  endfacet
  facet normal 0 -1.22461e-16 -1
    outer loop
      vertex 8.8 -28.8 3.52687e-15
      vertex 0.8 -29.6 3.62483e-15
      vertex 8.8 -18.4 2.25328e-15
    endloop
  endfacet
  facet normal 0 -1.22461e-16 -1
    outer loop
      vertex 24.8 -18.4 2.25328e-15
      vertex 33.6 -14.4 1.76343e-15
      vertex 27 -18.8 2.30226e-15
    endloop
  endfacet
  facet normal 0 -1.22461e-16 -1
    outer loop
      vertex 24.8 -18.4 2.25328e-15
      vertex 31.8 -13 1.59199e-15
      vertex 33.6 -14.4 1.76343e-15
    endloop
  endfacet
  facet normal 0 -1.22461e-16 -1
    outer loop
      vertex 27 -18.8 2.30226e-15
      vertex 33.6 -14.4 1.76343e-15
      vertex 35.1 -16.2 1.98386e-15
    endloop
  endfacet
  facet normal 0 -1.22461e-16 -1
    outer loop
      vertex 28.8 -20 2.44921e-15
      vertex 35.1 -16.2 1.98386e-15
      vertex 36.4 -18.4 2.25328e-15
    endloop
  endfacet
  facet normal 0 -1.22461e-16 -1
    outer loop
      vertex 30 -21.8 2.66964e-15
      vertex 36.4 -18.4 2.25328e-15
      vertex 37.3 -21 2.57167e-15
    endloop
  endfacet
  facet normal 0 -1.22461e-16 -1
    outer loop
      vertex 30.3 -24.9 3.04927e-15
      vertex 37.3 -21 2.57167e-15
      vertex 37.6 -24 2.93906e-15
    endloop
  endfacet
  facet normal 0 -1.22461e-16 -1
    outer loop
      vertex 29.5 -27 3.30644e-15
      vertex 37.6 -24 2.93906e-15
      vertex 37.3 -26.4 3.23296e-15
    endloop
  endfacet
  facet normal 0 -1.22461e-16 -1
    outer loop
      vertex 25.7 -28.7 3.51462e-15
      vertex 37.3 -26.4 3.23296e-15
      vertex 36.4 -28.8 3.52687e-15
    endloop
  endfacet
  facet normal 0 -1.22461e-16 -1
    outer loop
      vertex -34.8 -36 4.40858e-15
      vertex 36.4 -28.8 3.52687e-15
      vertex 35.1 -31 3.79628e-15
    endloop
  endfacet
  facet normal 0 -1.22461e-16 -1
    outer loop
      vertex -34.8 -36 4.40858e-15
      vertex 35.1 -31 3.79628e-15
      vertex 33.6 -32.8 4.01671e-15
    endloop
  endfacet
  facet normal 0 -1.22461e-16 -1
    outer loop
      vertex -34.8 -36 4.40858e-15
      vertex 33.6 -32.8 4.01671e-15
      vertex 31.8 -34.2 4.18815e-15
    endloop
  endfacet
  facet normal 0 -1.22461e-16 -1
    outer loop
      vertex -34.8 -36 4.40858e-15
      vertex 31.8 -34.2 4.18815e-15
      vertex 29.6 -35.2 4.31061e-15
    endloop
  endfacet
  facet normal 0 -1.22461e-16 -1
    outer loop
      vertex -34.8 -36 4.40858e-15
      vertex 29.6 -35.2 4.31061e-15
      vertex 27.2 -35.8 4.38409e-15
    endloop
  endfacet
  facet normal 0 -1.22461e-16 -1
    outer loop
      vertex -34.8 -36 4.40858e-15
      vertex 27.2 -35.8 4.38409e-15
      vertex 24.8 -36 4.40858e-15
    endloop
  endfacet
  facet normal 0 -1.22461e-16 -1
    outer loop
      vertex 0.8 -29.6 3.62483e-15
      vertex 8.8 -11.2 1.37156e-15
      vertex 8.8 -18.4 2.25328e-15
    endloop
  endfacet
  facet normal 0 -1.22461e-16 -1
    outer loop
      vertex 8.8 -28.8 3.52687e-15
      vertex -34.8 -36 4.40858e-15
      vertex 0.8 -29.6 3.62483e-15
    endloop
  endfacet
  facet normal 0 -1.22461e-16 -1
    outer loop
      vertex 24.8 -28.8 3.52687e-15
      vertex -34.8 -36 4.40858e-15
      vertex 8.8 -28.8 3.52687e-15
    endloop
  endfacet
  facet normal 0 -1.22461e-16 -1
    outer loop
      vertex 29.5 -27 3.30644e-15
      vertex 37.3 -26.4 3.23296e-15
      vertex 28.8 -27.6 3.37991e-15
    endloop
  endfacet
  facet normal 0 -1.22461e-16 -1
    outer loop
      vertex -34.8 -36 4.40858e-15
      vertex 24.8 -28.8 3.52687e-15
      vertex 36.4 -28.8 3.52687e-15
    endloop
  endfacet
  facet normal 0 -1.22461e-16 -1
    outer loop
      vertex 24.8 -28.8 3.52687e-15
      vertex 25.7 -28.7 3.51462e-15
      vertex 36.4 -28.8 3.52687e-15
    endloop
  endfacet
  facet normal 0 -1.22461e-16 -1
    outer loop
      vertex 27.9 -28 3.4289e-15
      vertex 37.3 -26.4 3.23296e-15
      vertex 26.8 -28.4 3.47788e-15
    endloop
  endfacet
  facet normal 0 -1.22461e-16 -1
    outer loop
      vertex 26.8 -28.4 3.47788e-15
      vertex 37.3 -26.4 3.23296e-15
      vertex 25.7 -28.7 3.51462e-15
    endloop
  endfacet
  facet normal 0 -1.22461e-16 -1
    outer loop
      vertex 28.8 -27.6 3.37991e-15
      vertex 37.3 -26.4 3.23296e-15
      vertex 27.9 -28 3.4289e-15
    endloop
  endfacet
  facet normal 0 -1.22461e-16 -1
    outer loop
      vertex 30 -26 3.18398e-15
      vertex 37.6 -24 2.93906e-15
      vertex 29.5 -27 3.30644e-15
    endloop
  endfacet
  facet normal 0 -1.22461e-16 -1
    outer loop
      vertex 30.3 -24.9 3.04927e-15
      vertex 37.6 -24 2.93906e-15
      vertex 30 -26 3.18398e-15
    endloop
  endfacet
  facet normal 0 -1.22461e-16 -1
    outer loop
      vertex 30.4 -24 2.93906e-15
      vertex 37.3 -21 2.57167e-15
      vertex 30.3 -24.9 3.04927e-15
    endloop
  endfacet
  facet normal 0 -1.22461e-16 -1
    outer loop
      vertex 27 -18.8 2.30226e-15
      vertex 35.1 -16.2 1.98386e-15
      vertex 28.8 -20 2.44921e-15
    endloop
  endfacet
  facet normal 0 -1.22461e-16 -1
    outer loop
      vertex 8.8 -18.4 2.25328e-15
      vertex 24.8 -11.2 1.37156e-15
      vertex 27.2 -11.4 1.39605e-15
    endloop
  endfacet
  facet normal 0 -1.22461e-16 -1
    outer loop
      vertex 8.8 -18.4 2.25328e-15
      vertex 27.2 -11.4 1.39605e-15
      vertex 29.6 -12 1.46953e-15
    endloop
  endfacet
  facet normal 0 -1.22461e-16 -1
    outer loop
      vertex 8.8 -18.4 2.25328e-15
      vertex 29.6 -12 1.46953e-15
      vertex 31.8 -13 1.59199e-15
    endloop
  endfacet
  facet normal 0 -1.22461e-16 -1
    outer loop
      vertex 8.8 -18.4 2.25328e-15
      vertex 31.8 -13 1.59199e-15
      vertex 24.8 -18.4 2.25328e-15
    endloop
  endfacet
  facet normal 0 -1.22461e-16 -1
    outer loop
      vertex 28.8 -20 2.44921e-15
      vertex 36.4 -18.4 2.25328e-15
      vertex 30 -21.8 2.66964e-15
    endloop
  endfacet
  facet normal 0 -1.22461e-16 -1
    outer loop
      vertex 30 -21.8 2.66964e-15
      vertex 37.3 -21 2.57167e-15
      vertex 30.4 -24 2.93906e-15
    endloop
  endfacet
  facet normal -1 0 0
    outer loop
      vertex -20.4 4.28612e-16 5
      vertex -20.4 -1.83691e-16 0
      vertex -20.4 -6 5
    endloop
  endfacet
  facet normal -1 0 0
    outer loop
      vertex -20.4 -6 5
      vertex -20.4 -1.83691e-16 0
      vertex -20.4 -29.6 3.62483e-15
    endloop
  endfacet
  facet normal -1 0 0
    outer loop
      vertex -20.4 -6 5
      vertex -20.4 -29.6 3.62483e-15
      vertex -20.4 -29.6 6
    endloop
  endfacet
  facet normal -1 0 0
    outer loop
      vertex -20.4 -6 5
      vertex -20.4 -29.6 6
      vertex -20.4 -6 6
    endloop
  endfacet
  facet normal 0 -1 1.22461e-16
    outer loop
      vertex -18.5 -6 38
      vertex -27.5 -6 3
      vertex -27.5 -6 7.34764e-16
    endloop
  endfacet
  facet normal 0 -1 1.22461e-16
    outer loop
      vertex -20.4 -6 6
      vertex -19 -6 26.5
      vertex -18.5 -6 38
    endloop
  endfacet
  facet normal 0 -1 1.22461e-16
    outer loop
      vertex -22.5 -6 5
      vertex -18.5 -6 38
      vertex -27.5 -6 7.34764e-16
    endloop
  endfacet
  facet normal 0 -1 1.22461e-16
    outer loop
      vertex -22.5 -6 7.34764e-16
      vertex -22.5 -6 5
      vertex -27.5 -6 7.34764e-16
    endloop
  endfacet
  facet normal 0 -1 1.22461e-16
    outer loop
      vertex -20.4 -6 6
      vertex -18.5848 -6 22.5497
      vertex -19 -6 26.5
    endloop
  endfacet
  facet normal 0 -1 1.22461e-16
    outer loop
      vertex -18.5848 -6 30.4503
      vertex -17.3574 -6 34.228
      vertex -18.5 -6 38
    endloop
  endfacet
  facet normal 0 -1 1.22461e-16
    outer loop
      vertex 0.8 -6 5
      vertex -13.2 -6 6
      vertex -13.2 -6 5
    endloop
  endfacet
  facet normal 0 -1 1.22461e-16
    outer loop
      vertex -12.7135 -6 12.3802
      vertex -15.3713 -6 15.3321
      vertex -13.2 -6 6
    endloop
  endfacet
  facet normal 0 -1 1.22461e-16
    outer loop
      vertex 0.8 -6 6
      vertex -1.98604 -6 7.60408
      vertex 0.8 -6 5
    endloop
  endfacet
  facet normal 0 -1 1.22461e-16
    outer loop
      vertex 22.5 -6 5
      vertex 8.8 -6 6
      vertex 8.8 -6 5
    endloop
  endfacet
  facet normal 0 -1 1.22461e-16
    outer loop
      vertex 9.5 -6 10.0455
      vertex 5.87132 -6 8.42993
      vertex 8.8 -6 6
    endloop
  endfacet
  facet normal 0 -1 1.22461e-16
    outer loop
      vertex 27.5 -6 7.34764e-16
      vertex 22.5 -6 5
      vertex 22.5 -6 7.34764e-16
    endloop
  endfacet
  facet normal 0 -1 1.22461e-16
    outer loop
      vertex 27.5 -6 3
      vertex 22.5 -6 5
      vertex 27.5 -6 7.34764e-16
    endloop
  endfacet
  facet normal 0 -1 1.22461e-16
    outer loop
      vertex 1.98604 -6 7.60408
      vertex -1.98604 -6 7.60408
      vertex 0.8 -6 6
    endloop
  endfacet
  facet normal 0 -1 1.22461e-16
    outer loop
      vertex 15.3713 -6 15.3321
      vertex 22.5 -6 5
      vertex 27.5 -6 3
    endloop
  endfacet
  facet normal 0 -1 1.22461e-16
    outer loop
      vertex 15.3713 -6 15.3321
      vertex 12.7135 -6 12.3802
      vertex 22.5 -6 5
    endloop
  endfacet
  facet normal 0 -1 1.22461e-16
    outer loop
      vertex 18.5 -6 38
      vertex 15.0723 -6 38
      vertex 15.3713 -6 37.6679
    endloop
  endfacet
  facet normal 0 -1 1.22461e-16
    outer loop
      vertex 18.5 -6 38
      vertex 15.3713 -6 37.6679
      vertex 17.3574 -6 34.228
    endloop
  endfacet
  facet normal 0 -1 1.22461e-16
    outer loop
      vertex 18.5 -6 38
      vertex 18.5848 -6 30.4503
      vertex 27.5 -6 3
    endloop
  endfacet
  facet normal 0 -1 1.22461e-16
    outer loop
      vertex 18.5 -6 38
      vertex 17.3574 -6 34.228
      vertex 18.5848 -6 30.4503
    endloop
  endfacet
  facet normal 0 -1 1.22461e-16
    outer loop
      vertex 19 -6 26.5
      vertex 18.5848 -6 22.5497
      vertex 27.5 -6 3
    endloop
  endfacet
  facet normal 0 -1 1.22461e-16
    outer loop
      vertex 18.5848 -6 22.5497
      vertex 17.3574 -6 18.772
      vertex 27.5 -6 3
    endloop
  endfacet
  facet normal 0 -1 1.22461e-16
    outer loop
      vertex 17.3574 -6 18.772
      vertex 15.3713 -6 15.3321
      vertex 27.5 -6 3
    endloop
  endfacet
  facet normal 0 -1 1.22461e-16
    outer loop
      vertex 22.5 -6 5
      vertex 12.7135 -6 12.3802
      vertex 8.8 -6 6
    endloop
  endfacet
  facet normal 0 -1 1.22461e-16
    outer loop
      vertex 12.7135 -6 12.3802
      vertex 9.5 -6 10.0455
      vertex 8.8 -6 6
    endloop
  endfacet
  facet normal 0 -1 1.22461e-16
    outer loop
      vertex 8.8 -6 6
      vertex 5.87132 -6 8.42993
      vertex 0.8 -6 6
    endloop
  endfacet
  facet normal 0 -1 1.22461e-16
    outer loop
      vertex 5.87132 -6 8.42993
      vertex 1.98604 -6 7.60408
      vertex 0.8 -6 6
    endloop
  endfacet
  facet normal 0 -1 1.22461e-16
    outer loop
      vertex 0.8 -6 5
      vertex -1.98604 -6 7.60408
      vertex -13.2 -6 6
    endloop
  endfacet
  facet normal 0 -1 1.22461e-16
    outer loop
      vertex -1.98604 -6 7.60408
      vertex -5.87132 -6 8.42993
      vertex -13.2 -6 6
    endloop
  endfacet
  facet normal 0 -1 1.22461e-16
    outer loop
      vertex -5.87132 -6 8.42993
      vertex -9.5 -6 10.0455
      vertex -13.2 -6 6
    endloop
  endfacet
  facet normal 0 -1 1.22461e-16
    outer loop
      vertex -9.5 -6 10.0455
      vertex -12.7135 -6 12.3802
      vertex -13.2 -6 6
    endloop
  endfacet
  facet normal 0 -1 1.22461e-16
    outer loop
      vertex 18.5848 -6 30.4503
      vertex 19 -6 26.5
      vertex 27.5 -6 3
    endloop
  endfacet
  facet normal 0 -1 1.22461e-16
    outer loop
      vertex -18.5848 -6 30.4503
      vertex -18.5 -6 38
      vertex -19 -6 26.5
    endloop
  endfacet
  facet normal 0 -1 1.22461e-16
    outer loop
      vertex -15.0723 -6 38
      vertex -18.5 -6 38
      vertex -15.3713 -6 37.6679
    endloop
  endfacet
  facet normal 0 -1 1.22461e-16
    outer loop
      vertex -22.5 -6 5
      vertex -20.4 -6 6
      vertex -18.5 -6 38
    endloop
  endfacet
  facet normal 0 -1 1.22461e-16
    outer loop
      vertex -22.5 -6 5
      vertex -20.4 -6 5
      vertex -20.4 -6 6
    endloop
  endfacet
  facet normal 0 -1 1.22461e-16
    outer loop
      vertex -20.4 -6 6
      vertex -17.3574 -6 18.772
      vertex -18.5848 -6 22.5497
    endloop
  endfacet
  facet normal 0 -1 1.22461e-16
    outer loop
      vertex -20.4 -6 6
      vertex -15.3713 -6 15.3321
      vertex -17.3574 -6 18.772
    endloop
  endfacet
  facet normal 0 -1 1.22461e-16
    outer loop
      vertex -20.4 -6 6
      vertex -13.2 -6 6
      vertex -15.3713 -6 15.3321
    endloop
  endfacet
  facet normal 0 -1 1.22461e-16
    outer loop
      vertex -17.3574 -6 34.228
      vertex -15.3713 -6 37.6679
      vertex -18.5 -6 38
    endloop
  endfacet
  facet normal 1 0 0
    outer loop
      vertex -13.2 -1.83691e-16 0
      vertex -13.2 4.28612e-16 5
      vertex -13.2 -6 5
    endloop
  endfacet
  facet normal 1 0 0
    outer loop
      vertex -13.2 -29.6 6
      vertex -13.2 -1.83691e-16 0
      vertex -13.2 -6 5
    endloop
  endfacet
  facet normal 1 0 0
    outer loop
      vertex -13.2 -6 6
      vertex -13.2 -29.6 6
      vertex -13.2 -6 5
    endloop
  endfacet
  facet normal 1 0 0
    outer loop
      vertex -13.2 -29.6 6
      vertex -13.2 -29.6 3.62483e-15
      vertex -13.2 -1.83691e-16 0
    endloop
  endfacet
  facet normal 0 1 -1.22461e-16
    outer loop
      vertex -13.2 -29.6 6
      vertex 0.8 -29.6 6
      vertex -13.2 -29.6 3.62483e-15
    endloop
  endfacet
  facet normal 0 1 -1.22461e-16
    outer loop
      vertex -13.2 -29.6 3.62483e-15
      vertex 0.8 -29.6 6
      vertex 0.8 -29.6 3.62483e-15
    endloop
  endfacet
  facet normal -1 0 0
    outer loop
      vertex 0.8 4.28612e-16 5
      vertex 0.8 -1.83691e-16 0
      vertex 0.8 -6 5
    endloop
  endfacet
  facet normal -1 0 0
    outer loop
      vertex 0.8 -6 5
      vertex 0.8 -1.83691e-16 0
      vertex 0.8 -29.6 3.62483e-15
    endloop
  endfacet
  facet normal -1 0 0
    outer loop
      vertex 0.8 -6 5
      vertex 0.8 -29.6 3.62483e-15
      vertex 0.8 -29.6 6
    endloop
  endfacet
  facet normal -1 0 0
    outer loop
      vertex 0.8 -6 5
      vertex 0.8 -29.6 6
      vertex 0.8 -6 6
    endloop
  endfacet
  facet normal 1 0 0
    outer loop
      vertex 8.8 -1.83691e-16 0
      vertex 8.8 4.28612e-16 5
      vertex 8.8 -6 5
    endloop
  endfacet
  facet normal 1 0 0
    outer loop
      vertex 8.8 -11.2 6
      vertex 8.8 -1.83691e-16 0
      vertex 8.8 -6 5
    endloop
  endfacet
  facet normal 1 0 0
    outer loop
      vertex 8.8 -6 6
      vertex 8.8 -11.2 6
      vertex 8.8 -6 5
    endloop
  endfacet
  facet normal 1 0 0
    outer loop
      vertex 8.8 -11.2 6
      vertex 8.8 -11.2 1.37156e-15
      vertex 8.8 -1.83691e-16 0
    endloop
  endfacet
  facet normal 0 1 -1.22461e-16
    outer loop
      vertex 8.8 -11.2 6
      vertex 24.8 -11.2 6
      vertex 8.8 -11.2 1.37156e-15
    endloop
  endfacet
  facet normal 0 1 -1.22461e-16
    outer loop
      vertex 8.8 -11.2 1.37156e-15
      vertex 24.8 -11.2 6
      vertex 24.8 -11.2 1.37156e-15
    endloop
  endfacet
  facet normal 0.0830455 0.996546 -1.22038e-16
    outer loop
      vertex 27.2 -11.4 1.39605e-15
      vertex 24.8 -11.2 1.37156e-15
      vertex 27.2 -11.4 6
    endloop
  endfacet
  facet normal 0.0830455 0.996546 -1.22038e-16
    outer loop
      vertex 27.2 -11.4 6
      vertex 24.8 -11.2 1.37156e-15
      vertex 24.8 -11.2 6
    endloop
  endfacet
  facet normal 0.242536 0.970143 -1.18804e-16
    outer loop
      vertex 29.6 -12 1.46953e-15
      vertex 27.2 -11.4 1.39605e-15
      vertex 29.6 -12 6
    endloop
  endfacet
  facet normal 0.242536 0.970143 -1.18804e-16
    outer loop
      vertex 29.6 -12 6
      vertex 27.2 -11.4 1.39605e-15
      vertex 27.2 -11.4 6
    endloop
  endfacet
  facet normal 0.413803 0.910366 -1.11484e-16
    outer loop
      vertex 31.8 -13 1.59199e-15
      vertex 29.6 -12 1.46953e-15
      vertex 31.8 -13 6
    endloop
  endfacet
  facet normal 0.413803 0.910366 -1.11484e-16
    outer loop
      vertex 31.8 -13 6
      vertex 29.6 -12 1.46953e-15
      vertex 29.6 -12 6
    endloop
  endfacet
  facet normal 0.613941 0.789352 -9.66646e-17
    outer loop
      vertex 33.6 -14.4 1.76343e-15
      vertex 31.8 -13 1.59199e-15
      vertex 33.6 -14.4 6
    endloop
  endfacet
  facet normal 0.613941 0.789352 -9.66646e-17
    outer loop
      vertex 33.6 -14.4 6
      vertex 31.8 -13 1.59199e-15
      vertex 31.8 -13 6
    endloop
  endfacet
  facet normal 0.768221 0.640184 -7.83974e-17
    outer loop
      vertex 35.1 -16.2 6
      vertex 35.1 -16.2 1.98386e-15
      vertex 33.6 -14.4 1.76343e-15
    endloop
  endfacet
  facet normal 0.768221 0.640184 -7.83974e-17
    outer loop
      vertex 33.6 -14.4 6
      vertex 35.1 -16.2 6
      vertex 33.6 -14.4 1.76343e-15
    endloop
  endfacet
  facet normal 0.860927 0.508729 -6.22993e-17
    outer loop
      vertex 36.4 -18.4 6
      vertex 36.4 -18.4 2.25328e-15
      vertex 35.1 -16.2 1.98386e-15
    endloop
  endfacet
  facet normal 0.860927 0.508729 -6.22993e-17
    outer loop
      vertex 35.1 -16.2 6
      vertex 36.4 -18.4 6
      vertex 35.1 -16.2 1.98386e-15
    endloop
  endfacet
  facet normal 0.944986 0.327111 -4.00582e-17
    outer loop
      vertex 37.3 -21 6
      vertex 37.3 -21 2.57167e-15
      vertex 36.4 -18.4 2.25328e-15
    endloop
  endfacet
  facet normal 0.944986 0.327111 -4.00582e-17
    outer loop
      vertex 36.4 -18.4 6
      vertex 37.3 -21 6
      vertex 36.4 -18.4 2.25328e-15
    endloop
  endfacet
  facet normal 0.995037 0.0995037 -1.21853e-17
    outer loop
      vertex 37.6 -24 6
      vertex 37.6 -24 2.93906e-15
      vertex 37.3 -21 2.57167e-15
    endloop
  endfacet
  facet normal 0.995037 0.0995037 -1.21853e-17
    outer loop
      vertex 37.3 -21 6
      vertex 37.6 -24 6
      vertex 37.3 -21 2.57167e-15
    endloop
  endfacet
  facet normal 0.992278 -0.124035 1.51894e-17
    outer loop
      vertex 37.3 -26.4 3.23296e-15
      vertex 37.6 -24 2.93906e-15
      vertex 37.6 -24 6
    endloop
  endfacet
  facet normal 0.992278 -0.124035 1.51894e-17
    outer loop
      vertex 37.3 -26.4 6
      vertex 37.3 -26.4 3.23296e-15
      vertex 37.6 -24 6
    endloop
  endfacet
  facet normal 0.936329 -0.351123 4.29988e-17
    outer loop
      vertex 36.4 -28.8 3.52687e-15
      vertex 37.3 -26.4 3.23296e-15
      vertex 37.3 -26.4 6
    endloop
  endfacet
  facet normal 0.936329 -0.351123 4.29988e-17
    outer loop
      vertex 36.4 -28.8 6
      vertex 36.4 -28.8 3.52687e-15
      vertex 37.3 -26.4 6
    endloop
  endfacet
  facet normal 0.860927 -0.508729 6.22993e-17
    outer loop
      vertex 35.1 -31 3.79628e-15
      vertex 36.4 -28.8 3.52687e-15
      vertex 36.4 -28.8 6
    endloop
  endfacet
  facet normal 0.860927 -0.508729 6.22993e-17
    outer loop
      vertex 35.1 -31 6
      vertex 35.1 -31 3.79628e-15
      vertex 36.4 -28.8 6
    endloop
  endfacet
  facet normal 0.768221 -0.640184 7.83974e-17
    outer loop
      vertex 33.6 -32.8 4.01671e-15
      vertex 35.1 -31 3.79628e-15
      vertex 35.1 -31 6
    endloop
  endfacet
  facet normal 0.768221 -0.640184 7.83974e-17
    outer loop
      vertex 33.6 -32.8 6
      vertex 33.6 -32.8 4.01671e-15
      vertex 35.1 -31 6
    endloop
  endfacet
  facet normal 0.613941 -0.789352 9.66646e-17
    outer loop
      vertex 31.8 -34.2 4.18815e-15
      vertex 33.6 -32.8 4.01671e-15
      vertex 33.6 -32.8 6
    endloop
  endfacet
  facet normal 0.613941 -0.789352 9.66646e-17
    outer loop
      vertex 31.8 -34.2 6
      vertex 31.8 -34.2 4.18815e-15
      vertex 33.6 -32.8 6
    endloop
  endfacet
  facet normal 0.413803 -0.910366 1.11484e-16
    outer loop
      vertex 29.6 -35.2 4.31061e-15
      vertex 31.8 -34.2 4.18815e-15
      vertex 31.8 -34.2 6
    endloop
  endfacet
  facet normal 0.413803 -0.910366 1.11484e-16
    outer loop
      vertex 29.6 -35.2 6
      vertex 29.6 -35.2 4.31061e-15
      vertex 31.8 -34.2 6
    endloop
  endfacet
  facet normal 0.242536 -0.970143 1.18804e-16
    outer loop
      vertex 27.2 -35.8 4.38409e-15
      vertex 29.6 -35.2 4.31061e-15
      vertex 29.6 -35.2 6
    endloop
  endfacet
  facet normal 0.242536 -0.970143 1.18804e-16
    outer loop
      vertex 27.2 -35.8 6
      vertex 27.2 -35.8 4.38409e-15
      vertex 29.6 -35.2 6
    endloop
  endfacet
  facet normal 0.0830455 -0.996546 1.22038e-16
    outer loop
      vertex 24.8 -36 4.40858e-15
      vertex 27.2 -35.8 4.38409e-15
      vertex 27.2 -35.8 6
    endloop
  endfacet
  facet normal 0.0830455 -0.996546 1.22038e-16
    outer loop
      vertex 24.8 -36 6
      vertex 24.8 -36 4.40858e-15
      vertex 27.2 -35.8 6
    endloop
  endfacet
  facet normal 0 -1 1.22461e-16
    outer loop
      vertex 24.8 -36 6
      vertex -34.8 -36 6
      vertex -34.8 -36 4.40858e-15
    endloop
  endfacet
  facet normal 0 -1 1.22461e-16
    outer loop
      vertex 24.8 -36 4.40858e-15
      vertex 24.8 -36 6
      vertex -34.8 -36 4.40858e-15
    endloop
  endfacet
  facet normal 0 1 -1.22461e-16
    outer loop
      vertex 24.8 -28.8 3.52687e-15
      vertex 8.8 -28.8 3.52687e-15
      vertex 24.8 -28.8 6
    endloop
  endfacet
  facet normal 0 1 -1.22461e-16
    outer loop
      vertex 24.8 -28.8 6
      vertex 8.8 -28.8 3.52687e-15
      vertex 8.8 -28.8 6
    endloop
  endfacet
  facet normal 1 0 0
    outer loop
      vertex 8.8 -28.8 6
      vertex 8.8 -28.8 3.52687e-15
      vertex 8.8 -18.4 2.25328e-15
    endloop
  endfacet
  facet normal 1 0 0
    outer loop
      vertex 8.8 -18.4 6
      vertex 8.8 -28.8 6
      vertex 8.8 -18.4 2.25328e-15
    endloop
  endfacet
  facet normal -0.110432 0.993884 -1.21712e-16
    outer loop
      vertex 24.8 -28.8 6
      vertex 25.7 -28.7 6
      vertex 24.8 -28.8 3.52687e-15
    endloop
  endfacet
  facet normal -0.110432 0.993884 -1.21712e-16
    outer loop
      vertex 24.8 -28.8 3.52687e-15
      vertex 25.7 -28.7 6
      vertex 25.7 -28.7 3.51462e-15
    endloop
  endfacet
  facet normal -0.263117 0.964764 -1.18146e-16
    outer loop
      vertex 25.7 -28.7 6
      vertex 26.8 -28.4 6
      vertex 25.7 -28.7 3.51462e-15
    endloop
  endfacet
  facet normal -0.263117 0.964764 -1.18146e-16
    outer loop
      vertex 25.7 -28.7 3.51462e-15
      vertex 26.8 -28.4 6
      vertex 26.8 -28.4 3.47788e-15
    endloop
  endfacet
  facet normal -0.341743 0.939793 -1.15088e-16
    outer loop
      vertex 26.8 -28.4 6
      vertex 27.9 -28 6
      vertex 26.8 -28.4 3.47788e-15
    endloop
  endfacet
  facet normal -0.341743 0.939793 -1.15088e-16
    outer loop
      vertex 26.8 -28.4 3.47788e-15
      vertex 27.9 -28 6
      vertex 27.9 -28 3.4289e-15
    endloop
  endfacet
  facet normal -0.406138 0.913812 -1.11906e-16
    outer loop
      vertex 27.9 -28 6
      vertex 28.8 -27.6 6
      vertex 27.9 -28 3.4289e-15
    endloop
  endfacet
  facet normal -0.406138 0.913812 -1.11906e-16
    outer loop
      vertex 27.9 -28 3.4289e-15
      vertex 28.8 -27.6 6
      vertex 28.8 -27.6 3.37991e-15
    endloop
  endfacet
  facet normal -0.650791 0.759257 -9.2979e-17
    outer loop
      vertex 28.8 -27.6 6
      vertex 29.5 -27 6
      vertex 28.8 -27.6 3.37991e-15
    endloop
  endfacet
  facet normal -0.650791 0.759257 -9.2979e-17
    outer loop
      vertex 28.8 -27.6 3.37991e-15
      vertex 29.5 -27 6
      vertex 29.5 -27 3.30644e-15
    endloop
  endfacet
  facet normal -0.894427 0.447214 -5.47661e-17
    outer loop
      vertex 29.5 -27 6
      vertex 30 -26 6
      vertex 29.5 -27 3.30644e-15
    endloop
  endfacet
  facet normal -0.894427 0.447214 -5.47661e-17
    outer loop
      vertex 29.5 -27 3.30644e-15
      vertex 30 -26 6
      vertex 30 -26 3.18398e-15
    endloop
  endfacet
  facet normal -0.964764 0.263117 -3.22215e-17
    outer loop
      vertex 30 -26 6
      vertex 30.3 -24.9 6
      vertex 30 -26 3.18398e-15
    endloop
  endfacet
  facet normal -0.964764 0.263117 -3.22215e-17
    outer loop
      vertex 30 -26 3.18398e-15
      vertex 30.3 -24.9 6
      vertex 30.3 -24.9 3.04927e-15
    endloop
  endfacet
  facet normal -0.993884 0.110432 -1.35235e-17
    outer loop
      vertex 30.3 -24.9 6
      vertex 30.4 -24 6
      vertex 30.3 -24.9 3.04927e-15
    endloop
  endfacet
  facet normal -0.993884 0.110432 -1.35235e-17
    outer loop
      vertex 30.3 -24.9 3.04927e-15
      vertex 30.4 -24 6
      vertex 30.4 -24 2.93906e-15
    endloop
  endfacet
  facet normal -0.98387 -0.178885 2.19064e-17
    outer loop
      vertex 30 -21.8 6
      vertex 30 -21.8 2.66964e-15
      vertex 30.4 -24 6
    endloop
  endfacet
  facet normal -0.98387 -0.178885 2.19064e-17
    outer loop
      vertex 30.4 -24 6
      vertex 30 -21.8 2.66964e-15
      vertex 30.4 -24 2.93906e-15
    endloop
  endfacet
  facet normal -0.83205 -0.5547 6.79289e-17
    outer loop
      vertex 28.8 -20 6
      vertex 28.8 -20 2.44921e-15
      vertex 30 -21.8 6
    endloop
  endfacet
  facet normal -0.83205 -0.5547 6.79289e-17
    outer loop
      vertex 30 -21.8 6
      vertex 28.8 -20 2.44921e-15
      vertex 30 -21.8 2.66964e-15
    endloop
  endfacet
  facet normal -0.5547 -0.83205 1.01893e-16
    outer loop
      vertex 28.8 -20 6
      vertex 27 -18.8 6
      vertex 27 -18.8 2.30226e-15
    endloop
  endfacet
  facet normal -0.5547 -0.83205 1.01893e-16
    outer loop
      vertex 28.8 -20 2.44921e-15
      vertex 28.8 -20 6
      vertex 27 -18.8 2.30226e-15
    endloop
  endfacet
  facet normal -0.178885 -0.98387 1.20485e-16
    outer loop
      vertex 27 -18.8 6
      vertex 24.8 -18.4 6
      vertex 24.8 -18.4 2.25328e-15
    endloop
  endfacet
  facet normal -0.178885 -0.98387 1.20485e-16
    outer loop
      vertex 27 -18.8 2.30226e-15
      vertex 27 -18.8 6
      vertex 24.8 -18.4 2.25328e-15
    endloop
  endfacet
  facet normal 0 -1 1.22461e-16
    outer loop
      vertex 8.8 -18.4 2.25328e-15
      vertex 24.8 -18.4 2.25328e-15
      vertex 24.8 -18.4 6
    endloop
  endfacet
  facet normal 0 -1 1.22461e-16
    outer loop
      vertex 8.8 -18.4 6
      vertex 8.8 -18.4 2.25328e-15
      vertex 24.8 -18.4 6
    endloop
  endfacet
  facet normal 0 1 -1.22461e-16
    outer loop
      vertex -27.5 1.83691e-16 3
      vertex -18.5 4.46981e-15 38
      vertex -27.5 -1.83691e-16 0
    endloop
  endfacet
  facet normal 0 1 -1.22461e-16
    outer loop
      vertex -13.7533 4.28519e-15 36.4923
      vertex -18.5 4.46981e-15 38
      vertex -12.3958 4.46981e-15 38
    endloop
  endfacet
  facet normal 0 1 -1.22461e-16
    outer loop
      vertex -15.5303 3.90827e-15 33.4145
      vertex -18.5 4.46981e-15 38
      vertex -13.7533 4.28519e-15 36.4923
    endloop
  endfacet
  facet normal 0 1 -1.22461e-16
    outer loop
      vertex -27.5 -1.83691e-16 0
      vertex -18.5 4.46981e-15 38
      vertex -15.5303 3.90827e-15 33.4145
    endloop
  endfacet
  facet normal 0 1 -1.22461e-16
    outer loop
      vertex -27.5 -1.83691e-16 0
      vertex -15.5303 3.90827e-15 33.4145
      vertex -16.6285 3.49435e-15 30.0345
    endloop
  endfacet
  facet normal 0 1 -1.22461e-16
    outer loop
      vertex -16.6285 2.62868e-15 22.9655
      vertex -27.5 -1.83691e-16 0
      vertex -17 3.06152e-15 26.5
    endloop
  endfacet
  facet normal 0 1 -1.22461e-16
    outer loop
      vertex -13.2 4.28612e-16 5
      vertex 5.25329 1.08158e-15 10.332
      vertex 0.8 4.28612e-16 5
    endloop
  endfacet
  facet normal 0 1 -1.22461e-16
    outer loop
      vertex 22.5 4.28612e-16 5
      vertex 27.5 1.83691e-16 3
      vertex 22.5 -1.83691e-16 0
    endloop
  endfacet
  facet normal 0 1 -1.22461e-16
    outer loop
      vertex -27.5 -1.83691e-16 0
      vertex -16.6285 2.62868e-15 22.9655
      vertex -15.5303 2.21476e-15 19.5855
    endloop
  endfacet
  facet normal 0 1 -1.22461e-16
    outer loop
      vertex -15.5303 2.21476e-15 19.5855
      vertex -13.7533 1.83785e-15 16.5077
      vertex -27.5 -1.83691e-16 0
    endloop
  endfacet
  facet normal 0 1 -1.22461e-16
    outer loop
      vertex -22.5 -1.83691e-16 0
      vertex -27.5 -1.83691e-16 0
      vertex -22.5 4.28612e-16 5
    endloop
  endfacet
  facet normal 0 1 -1.22461e-16
    outer loop
      vertex -22.5 4.28612e-16 5
      vertex -11.3752 1.51441e-15 13.8665
      vertex -20.4 4.28612e-16 5
    endloop
  endfacet
  facet normal 0 1 -1.22461e-16
    outer loop
      vertex -20.4 4.28612e-16 5
      vertex -5.25329 1.08158e-15 10.332
      vertex -1.77698 9.9109e-16 9.59313
    endloop
  endfacet
  facet normal 0 1 -1.22461e-16
    outer loop
      vertex 8.8 4.28612e-16 5
      vertex 5.25329 1.08158e-15 10.332
      vertex 22.5 4.28612e-16 5
    endloop
  endfacet
  facet normal 0 1 -1.22461e-16
    outer loop
      vertex 11.3752 1.51441e-15 13.8665
      vertex 27.5 1.83691e-16 3
      vertex 8.5 1.2586e-15 11.7776
    endloop
  endfacet
  facet normal 0 1 -1.22461e-16
    outer loop
      vertex 13.7533 1.83785e-15 16.5077
      vertex 27.5 1.83691e-16 3
      vertex 11.3752 1.51441e-15 13.8665
    endloop
  endfacet
  facet normal 0 1 -1.22461e-16
    outer loop
      vertex 15.5303 2.21476e-15 19.5855
      vertex 27.5 1.83691e-16 3
      vertex 13.7533 1.83785e-15 16.5077
    endloop
  endfacet
  facet normal 0 1 -1.22461e-16
    outer loop
      vertex 17 3.06152e-15 26.5
      vertex 18.5 4.46981e-15 38
      vertex 16.6285 2.62868e-15 22.9655
    endloop
  endfacet
  facet normal 0 1 -1.22461e-16
    outer loop
      vertex 16.6285 3.49435e-15 30.0345
      vertex 18.5 4.46981e-15 38
      vertex 17 3.06152e-15 26.5
    endloop
  endfacet
  facet normal 0 1 -1.22461e-16
    outer loop
      vertex 15.5303 3.90827e-15 33.4145
      vertex 18.5 4.46981e-15 38
      vertex 16.6285 3.49435e-15 30.0345
    endloop
  endfacet
  facet normal 0 1 -1.22461e-16
    outer loop
      vertex 13.7533 4.28519e-15 36.4923
      vertex 12.3958 4.46981e-15 38
      vertex 18.5 4.46981e-15 38
    endloop
  endfacet
  facet normal 0 1 -1.22461e-16
    outer loop
      vertex 13.7533 4.28519e-15 36.4923
      vertex 18.5 4.46981e-15 38
      vertex 15.5303 3.90827e-15 33.4145
    endloop
  endfacet
  facet normal 0 1 -1.22461e-16
    outer loop
      vertex 16.6285 2.62868e-15 22.9655
      vertex 18.5 4.46981e-15 38
      vertex 27.5 1.83691e-16 3
    endloop
  endfacet
  facet normal 0 1 -1.22461e-16
    outer loop
      vertex 16.6285 2.62868e-15 22.9655
      vertex 27.5 1.83691e-16 3
      vertex 15.5303 2.21476e-15 19.5855
    endloop
  endfacet
  facet normal 0 1 -1.22461e-16
    outer loop
      vertex 22.5 -1.83691e-16 0
      vertex 27.5 1.83691e-16 3
      vertex 27.5 -1.83691e-16 0
    endloop
  endfacet
  facet normal 0 1 -1.22461e-16
    outer loop
      vertex 8.5 1.2586e-15 11.7776
      vertex 27.5 1.83691e-16 3
      vertex 22.5 4.28612e-16 5
    endloop
  endfacet
  facet normal 0 1 -1.22461e-16
    outer loop
      vertex 8.5 1.2586e-15 11.7776
      vertex 22.5 4.28612e-16 5
      vertex 5.25329 1.08158e-15 10.332
    endloop
  endfacet
  facet normal 0 1 -1.22461e-16
    outer loop
      vertex -13.2 4.28612e-16 5
      vertex 1.77698 9.9109e-16 9.59313
      vertex 5.25329 1.08158e-15 10.332
    endloop
  endfacet
  facet normal 0 1 -1.22461e-16
    outer loop
      vertex 5.25329 1.08158e-15 10.332
      vertex 8.8 4.28612e-16 5
      vertex 0.8 4.28612e-16 5
    endloop
  endfacet
  facet normal 0 1 -1.22461e-16
    outer loop
      vertex -13.2 -1.83691e-16 0
      vertex -20.4 -1.83691e-16 0
      vertex -13.2 4.28612e-16 5
    endloop
  endfacet
  facet normal 0 1 -1.22461e-16
    outer loop
      vertex -1.77698 9.9109e-16 9.59313
      vertex 1.77698 9.9109e-16 9.59313
      vertex -13.2 4.28612e-16 5
    endloop
  endfacet
  facet normal 0 1 -1.22461e-16
    outer loop
      vertex -11.3752 1.51441e-15 13.8665
      vertex -8.5 1.2586e-15 11.7776
      vertex -20.4 4.28612e-16 5
    endloop
  endfacet
  facet normal 0 1 -1.22461e-16
    outer loop
      vertex -13.7533 1.83785e-15 16.5077
      vertex -11.3752 1.51441e-15 13.8665
      vertex -22.5 4.28612e-16 5
    endloop
  endfacet
  facet normal 0 1 -1.22461e-16
    outer loop
      vertex -13.7533 1.83785e-15 16.5077
      vertex -22.5 4.28612e-16 5
      vertex -27.5 -1.83691e-16 0
    endloop
  endfacet
  facet normal 0 1 -1.22461e-16
    outer loop
      vertex -20.4 4.28612e-16 5
      vertex -8.5 1.2586e-15 11.7776
      vertex -5.25329 1.08158e-15 10.332
    endloop
  endfacet
  facet normal 0 1 -1.22461e-16
    outer loop
      vertex -17 3.06152e-15 26.5
      vertex -27.5 -1.83691e-16 0
      vertex -16.6285 3.49435e-15 30.0345
    endloop
  endfacet
  facet normal 0 1 -1.22461e-16
    outer loop
      vertex -20.4 4.28612e-16 5
      vertex -13.2 4.28612e-16 5
      vertex -20.4 -1.83691e-16 0
    endloop
  endfacet
  facet normal 0 1 -1.22461e-16
    outer loop
      vertex 8.8 -1.83691e-16 0
      vertex 0.8 -1.83691e-16 0
      vertex 8.8 4.28612e-16 5
    endloop
  endfacet
  facet normal 0 1 -1.22461e-16
    outer loop
      vertex 0.8 4.28612e-16 5
      vertex 8.8 4.28612e-16 5
      vertex 0.8 -1.83691e-16 0
    endloop
  endfacet
  facet normal 0 1 -1.22461e-16
    outer loop
      vertex -20.4 4.28612e-16 5
      vertex -1.77698 9.9109e-16 9.59313
      vertex -13.2 4.28612e-16 5
    endloop
  endfacet
  facet normal 0 -1.22461e-16 -1
    outer loop
      vertex -20.4 -6 5
      vertex -22.5 -6 5
      vertex -20.4 4.28612e-16 5
    endloop
  endfacet
  facet normal 0 -1.22461e-16 -1
    outer loop
      vertex -20.4 4.28612e-16 5
      vertex -22.5 -6 5
      vertex -22.5 4.28612e-16 5
    endloop
  endfacet
  facet normal -0.968493 3.04977e-17 0.249041
    outer loop
      vertex -27.5 1.83691e-16 3
      vertex -27.5 -6 3
      vertex -18.5 4.46981e-15 38
    endloop
  endfacet
  facet normal -0.968493 3.04977e-17 0.249041
    outer loop
      vertex -18.5 4.46981e-15 38
      vertex -27.5 -6 3
      vertex -18.5 -6 38
    endloop
  endfacet
  facet normal 0 1.22461e-16 1
    outer loop
      vertex -15.0723 -2 38
      vertex -18.5 4.46981e-15 38
      vertex -18.5 -6 38
    endloop
  endfacet
  facet normal 0 1.22461e-16 1
    outer loop
      vertex -15.0723 -2 38
      vertex -12.3958 -2 38
      vertex -12.3958 4.46981e-15 38
    endloop
  endfacet
  facet normal 0 1.22461e-16 1
    outer loop
      vertex -12.3958 4.46981e-15 38
      vertex -18.5 4.46981e-15 38
      vertex -15.0723 -2 38
    endloop
  endfacet
  facet normal 0 1.22461e-16 1
    outer loop
      vertex -15.0723 -6 38
      vertex -15.0723 -2 38
      vertex -18.5 -6 38
    endloop
  endfacet
  facet normal 0.743145 6.66347e-17 -0.669131
    outer loop
      vertex -15.0723 -2 38
      vertex -15.0723 -6 38
      vertex -15.3713 -6 37.6679
    endloop
  endfacet
  facet normal 0.743145 6.66347e-17 -0.669131
    outer loop
      vertex -15.3713 -2 37.6679
      vertex -15.0723 -2 38
      vertex -15.3713 -6 37.6679
    endloop
  endfacet
  facet normal 0.866025 4.9792e-17 -0.5
    outer loop
      vertex -15.3713 -2 37.6679
      vertex -15.3713 -6 37.6679
      vertex -17.3574 -6 34.228
    endloop
  endfacet
  facet normal 0.866025 4.9792e-17 -0.5
    outer loop
      vertex -17.3574 -2 34.228
      vertex -15.3713 -2 37.6679
      vertex -17.3574 -6 34.228
    endloop
  endfacet
  facet normal 0.951057 3.07731e-17 -0.309017
    outer loop
      vertex -17.3574 -2 34.228
      vertex -17.3574 -6 34.228
      vertex -18.5848 -6 30.4503
    endloop
  endfacet
  facet normal 0.951057 3.07731e-17 -0.309017
    outer loop
      vertex -18.5848 -2 30.4503
      vertex -17.3574 -2 34.228
      vertex -18.5848 -6 30.4503
    endloop
  endfacet
  facet normal 0.994522 1.04094e-17 -0.104529
    outer loop
      vertex -18.5848 -2 30.4503
      vertex -18.5848 -6 30.4503
      vertex -19 -6 26.5
    endloop
  endfacet
  facet normal 0.994522 1.04094e-17 -0.104529
    outer loop
      vertex -19 -2 26.5
      vertex -18.5848 -2 30.4503
      vertex -19 -6 26.5
    endloop
  endfacet
  facet normal 0.994522 -1.04094e-17 0.104529
    outer loop
      vertex -19 -6 26.5
      vertex -18.5848 -6 22.5497
      vertex -18.5848 -2 22.5497
    endloop
  endfacet
  facet normal 0.994522 -1.04094e-17 0.104529
    outer loop
      vertex -19 -2 26.5
      vertex -19 -6 26.5
      vertex -18.5848 -2 22.5497
    endloop
  endfacet
  facet normal 0.951057 -3.07731e-17 0.309017
    outer loop
      vertex -18.5848 -6 22.5497
      vertex -17.3574 -6 18.772
      vertex -17.3574 -2 18.772
    endloop
  endfacet
  facet normal 0.951057 -3.07731e-17 0.309017
    outer loop
      vertex -18.5848 -2 22.5497
      vertex -18.5848 -6 22.5497
      vertex -17.3574 -2 18.772
    endloop
  endfacet
  facet normal 0.866025 -4.9792e-17 0.5
    outer loop
      vertex -17.3574 -6 18.772
      vertex -15.3713 -6 15.3321
      vertex -15.3713 -2 15.3321
    endloop
  endfacet
  facet normal 0.866025 -4.9792e-17 0.5
    outer loop
      vertex -17.3574 -2 18.772
      vertex -17.3574 -6 18.772
      vertex -15.3713 -2 15.3321
    endloop
  endfacet
  facet normal 0.743145 -6.66347e-17 0.669131
    outer loop
      vertex -15.3713 -6 15.3321
      vertex -12.7135 -6 12.3802
      vertex -12.7135 -2 12.3802
    endloop
  endfacet
  facet normal 0.743145 -6.66347e-17 0.669131
    outer loop
      vertex -15.3713 -2 15.3321
      vertex -15.3713 -6 15.3321
      vertex -12.7135 -2 12.3802
    endloop
  endfacet
  facet normal 0.587785 -8.05651e-17 0.809017
    outer loop
      vertex -12.7135 -6 12.3802
      vertex -9.5 -6 10.0455
      vertex -9.5 -2 10.0455
    endloop
  endfacet
  facet normal 0.587785 -8.05651e-17 0.809017
    outer loop
      vertex -12.7135 -2 12.3802
      vertex -12.7135 -6 12.3802
      vertex -9.5 -2 10.0455
    endloop
  endfacet
  facet normal 0.406737 -9.09745e-17 0.913545
    outer loop
      vertex -9.5 -6 10.0455
      vertex -5.87132 -6 8.42993
      vertex -5.87132 -2 8.42993
    endloop
  endfacet
  facet normal 0.406737 -9.09745e-17 0.913545
    outer loop
      vertex -9.5 -2 10.0455
      vertex -9.5 -6 10.0455
      vertex -5.87132 -2 8.42993
    endloop
  endfacet
  facet normal 0.207912 -9.74078e-17 0.978148
    outer loop
      vertex -5.87132 -6 8.42993
      vertex -1.98604 -6 7.60408
      vertex -1.98604 -2 7.60408
    endloop
  endfacet
  facet normal 0.207912 -9.74078e-17 0.978148
    outer loop
      vertex -5.87132 -2 8.42993
      vertex -5.87132 -6 8.42993
      vertex -1.98604 -2 7.60408
    endloop
  endfacet
  facet normal 0 -9.9584e-17 1
    outer loop
      vertex -1.98604 -6 7.60408
      vertex 1.98604 -6 7.60408
      vertex 1.98604 -2 7.60408
    endloop
  endfacet
  facet normal 0 -9.9584e-17 1
    outer loop
      vertex -1.98604 -2 7.60408
      vertex -1.98604 -6 7.60408
      vertex 1.98604 -2 7.60408
    endloop
  endfacet
  facet normal -0.207912 -9.74078e-17 0.978148
    outer loop
      vertex 1.98604 -6 7.60408
      vertex 5.87132 -6 8.42993
      vertex 5.87132 -2 8.42993
    endloop
  endfacet
  facet normal -0.207912 -9.74078e-17 0.978148
    outer loop
      vertex 1.98604 -2 7.60408
      vertex 1.98604 -6 7.60408
      vertex 5.87132 -2 8.42993
    endloop
  endfacet
  facet normal -0.406737 -9.09745e-17 0.913545
    outer loop
      vertex 5.87132 -6 8.42993
      vertex 9.5 -6 10.0455
      vertex 9.5 -2 10.0455
    endloop
  endfacet
  facet normal -0.406737 -9.09745e-17 0.913545
    outer loop
      vertex 5.87132 -2 8.42993
      vertex 5.87132 -6 8.42993
      vertex 9.5 -2 10.0455
    endloop
  endfacet
  facet normal -0.587785 -8.05651e-17 0.809017
    outer loop
      vertex 9.5 -6 10.0455
      vertex 12.7135 -6 12.3802
      vertex 12.7135 -2 12.3802
    endloop
  endfacet
  facet normal -0.587785 -8.05651e-17 0.809017
    outer loop
      vertex 9.5 -2 10.0455
      vertex 9.5 -6 10.0455
      vertex 12.7135 -2 12.3802
    endloop
  endfacet
  facet normal -0.743145 -6.66347e-17 0.669131
    outer loop
      vertex 15.3713 -6 15.3321
      vertex 15.3713 -2 15.3321
      vertex 12.7135 -6 12.3802
    endloop
  endfacet
  facet normal -0.743145 -6.66347e-17 0.669131
    outer loop
      vertex 12.7135 -6 12.3802
      vertex 15.3713 -2 15.3321
      vertex 12.7135 -2 12.3802
    endloop
  endfacet
  facet normal -0.866025 -4.9792e-17 0.5
    outer loop
      vertex 17.3574 -6 18.772
      vertex 17.3574 -2 18.772
      vertex 15.3713 -6 15.3321
    endloop
  endfacet
  facet normal -0.866025 -4.9792e-17 0.5
    outer loop
      vertex 15.3713 -6 15.3321
      vertex 17.3574 -2 18.772
      vertex 15.3713 -2 15.3321
    endloop
  endfacet
  facet normal -0.951057 -3.07731e-17 0.309017
    outer loop
      vertex 18.5848 -6 22.5497
      vertex 18.5848 -2 22.5497
      vertex 17.3574 -6 18.772
    endloop
  endfacet
  facet normal -0.951057 -3.07731e-17 0.309017
    outer loop
      vertex 17.3574 -6 18.772
      vertex 18.5848 -2 22.5497
      vertex 17.3574 -2 18.772
    endloop
  endfacet
  facet normal -0.994522 -1.04094e-17 0.104529
    outer loop
      vertex 19 -6 26.5
      vertex 19 -2 26.5
      vertex 18.5848 -6 22.5497
    endloop
  endfacet
  facet normal -0.994522 -1.04094e-17 0.104529
    outer loop
      vertex 18.5848 -6 22.5497
      vertex 19 -2 26.5
      vertex 18.5848 -2 22.5497
    endloop
  endfacet
  facet normal -0.994522 1.04094e-17 -0.104529
    outer loop
      vertex 19 -6 26.5
      vertex 18.5848 -6 30.4503
      vertex 19 -2 26.5
    endloop
  endfacet
  facet normal -0.994522 1.04094e-17 -0.104529
    outer loop
      vertex 19 -2 26.5
      vertex 18.5848 -6 30.4503
      vertex 18.5848 -2 30.4503
    endloop
  endfacet
  facet normal -0.951057 3.07731e-17 -0.309017
    outer loop
      vertex 18.5848 -6 30.4503
      vertex 17.3574 -6 34.228
      vertex 18.5848 -2 30.4503
    endloop
  endfacet
  facet normal -0.951057 3.07731e-17 -0.309017
    outer loop
      vertex 18.5848 -2 30.4503
      vertex 17.3574 -6 34.228
      vertex 17.3574 -2 34.228
    endloop
  endfacet
  facet normal -0.866025 4.9792e-17 -0.5
    outer loop
      vertex 17.3574 -6 34.228
      vertex 15.3713 -6 37.6679
      vertex 17.3574 -2 34.228
    endloop
  endfacet
  facet normal -0.866025 4.9792e-17 -0.5
    outer loop
      vertex 17.3574 -2 34.228
      vertex 15.3713 -6 37.6679
      vertex 15.3713 -2 37.6679
    endloop
  endfacet
  facet normal -0.743145 6.66347e-17 -0.669131
    outer loop
      vertex 15.3713 -2 37.6679
      vertex 15.3713 -6 37.6679
      vertex 15.0723 -2 38
    endloop
  endfacet
  facet normal -0.743145 6.66347e-17 -0.669131
    outer loop
      vertex 15.0723 -2 38
      vertex 15.3713 -6 37.6679
      vertex 15.0723 -6 38
    endloop
  endfacet
  facet normal 0 1.22461e-16 1
    outer loop
      vertex 12.3958 4.46981e-15 38
      vertex 12.3958 -2 38
      vertex 15.0723 -2 38
    endloop
  endfacet
  facet normal 0 1.22461e-16 1
    outer loop
      vertex 18.5 4.46981e-15 38
      vertex 12.3958 4.46981e-15 38
      vertex 15.0723 -2 38
    endloop
  endfacet
  facet normal 0 1.22461e-16 1
    outer loop
      vertex 15.0723 -6 38
      vertex 18.5 -6 38
      vertex 15.0723 -2 38
    endloop
  endfacet
  facet normal 0 1.22461e-16 1
    outer loop
      vertex 18.5 -6 38
      vertex 18.5 4.46981e-15 38
      vertex 15.0723 -2 38
    endloop
  endfacet
  facet normal 0.968493 3.04977e-17 0.249041
    outer loop
      vertex 27.5 1.83691e-16 3
      vertex 18.5 4.46981e-15 38
      vertex 18.5 -6 38
    endloop
  endfacet
  facet normal 0.968493 3.04977e-17 0.249041
    outer loop
      vertex 27.5 -6 3
      vertex 27.5 1.83691e-16 3
      vertex 18.5 -6 38
    endloop
  endfacet
  facet normal 1 0 0
    outer loop
      vertex 27.5 -1.83691e-16 0
      vertex 27.5 1.83691e-16 3
      vertex 27.5 -6 3
    endloop
  endfacet
  facet normal 1 0 0
    outer loop
      vertex 27.5 -6 7.34764e-16
      vertex 27.5 -1.83691e-16 0
      vertex 27.5 -6 3
    endloop
  endfacet
  facet normal 0 -1.22461e-16 -1
    outer loop
      vertex 22.5 -1.83691e-16 0
      vertex 27.5 -1.83691e-16 0
      vertex 22.5 -6 7.34764e-16
    endloop
  endfacet
  facet normal 0 -1.22461e-16 -1
    outer loop
      vertex 22.5 -6 7.34764e-16
      vertex 27.5 -1.83691e-16 0
      vertex 27.5 -6 7.34764e-16
    endloop
  endfacet
  facet normal -1 0 0
    outer loop
      vertex 22.5 -6 7.34764e-16
      vertex 22.5 -6 5
      vertex 22.5 -1.83691e-16 0
    endloop
  endfacet
  facet normal -1 0 0
    outer loop
      vertex 22.5 -1.83691e-16 0
      vertex 22.5 -6 5
      vertex 22.5 4.28612e-16 5
    endloop
  endfacet
  facet normal 0 -1.22461e-16 -1
    outer loop
      vertex 22.5 -6 5
      vertex 8.8 -6 5
      vertex 22.5 4.28612e-16 5
    endloop
  endfacet
  facet normal 0 -1.22461e-16 -1
    outer loop
      vertex 22.5 4.28612e-16 5
      vertex 8.8 -6 5
      vertex 8.8 4.28612e-16 5
    endloop
  endfacet
  facet normal 0 -1.22461e-16 -1
    outer loop
      vertex 0.8 -6 5
      vertex -13.2 -6 5
      vertex 0.8 4.28612e-16 5
    endloop
  endfacet
  facet normal 0 -1.22461e-16 -1
    outer loop
      vertex 0.8 4.28612e-16 5
      vertex -13.2 -6 5
      vertex -13.2 4.28612e-16 5
    endloop
  endfacet
  facet normal 1 0 0
    outer loop
      vertex -22.5 -6 5
      vertex -22.5 -6 7.34764e-16
      vertex -22.5 -1.83691e-16 0
    endloop
  endfacet
  facet normal 1 0 0
    outer loop
      vertex -22.5 4.28612e-16 5
      vertex -22.5 -6 5
      vertex -22.5 -1.83691e-16 0
    endloop
  endfacet
  facet normal 0 -1.22461e-16 -1
    outer loop
      vertex -27.5 -1.83691e-16 0
      vertex -22.5 -1.83691e-16 0
      vertex -27.5 -6 7.34764e-16
    endloop
  endfacet
  facet normal 0 -1.22461e-16 -1
    outer loop
      vertex -27.5 -6 7.34764e-16
      vertex -22.5 -1.83691e-16 0
      vertex -22.5 -6 7.34764e-16
    endloop
  endfacet
  facet normal -1 0 0
    outer loop
      vertex -27.5 1.83691e-16 3
      vertex -27.5 -1.83691e-16 0
      vertex -27.5 -6 3
    endloop
  endfacet
  facet normal -1 0 0
    outer loop
      vertex -27.5 -6 3
      vertex -27.5 -1.83691e-16 0
      vertex -27.5 -6 7.34764e-16
    endloop
  endfacet
  facet normal -0.743145 6.66347e-17 -0.669131
    outer loop
      vertex 13.7533 4.28519e-15 36.4923
      vertex 13.7533 -2 36.4923
      vertex 12.3958 4.46981e-15 38
    endloop
  endfacet
  facet normal -0.743145 6.66347e-17 -0.669131
    outer loop
      vertex 12.3958 4.46981e-15 38
      vertex 13.7533 -2 36.4923
      vertex 12.3958 -2 38
    endloop
  endfacet
  facet normal -0.866025 4.9792e-17 -0.5
    outer loop
      vertex 15.5303 -2 33.4145
      vertex 13.7533 -2 36.4923
      vertex 15.5303 3.90827e-15 33.4145
    endloop
  endfacet
  facet normal -0.866025 4.9792e-17 -0.5
    outer loop
      vertex 15.5303 3.90827e-15 33.4145
      vertex 13.7533 -2 36.4923
      vertex 13.7533 4.28519e-15 36.4923
    endloop
  endfacet
  facet normal -0.951057 3.07731e-17 -0.309017
    outer loop
      vertex 16.6285 -2 30.0345
      vertex 15.5303 -2 33.4145
      vertex 16.6285 3.49435e-15 30.0345
    endloop
  endfacet
  facet normal -0.951057 3.07731e-17 -0.309017
    outer loop
      vertex 16.6285 3.49435e-15 30.0345
      vertex 15.5303 -2 33.4145
      vertex 15.5303 3.90827e-15 33.4145
    endloop
  endfacet
  facet normal -0.994522 1.04094e-17 -0.104529
    outer loop
      vertex 17 -2 26.5
      vertex 16.6285 -2 30.0345
      vertex 17 3.06152e-15 26.5
    endloop
  endfacet
  facet normal -0.994522 1.04094e-17 -0.104529
    outer loop
      vertex 17 3.06152e-15 26.5
      vertex 16.6285 -2 30.0345
      vertex 16.6285 3.49435e-15 30.0345
    endloop
  endfacet
  facet normal -0.994522 -1.04094e-17 0.104529
    outer loop
      vertex 17 -2 26.5
      vertex 17 3.06152e-15 26.5
      vertex 16.6285 -2 22.9655
    endloop
  endfacet
  facet normal -0.994522 -1.04094e-17 0.104529
    outer loop
      vertex 16.6285 -2 22.9655
      vertex 17 3.06152e-15 26.5
      vertex 16.6285 2.62868e-15 22.9655
    endloop
  endfacet
  facet normal -0.951057 -3.07731e-17 0.309017
    outer loop
      vertex 16.6285 -2 22.9655
      vertex 16.6285 2.62868e-15 22.9655
      vertex 15.5303 -2 19.5855
    endloop
  endfacet
  facet normal -0.951057 -3.07731e-17 0.309017
    outer loop
      vertex 15.5303 -2 19.5855
      vertex 16.6285 2.62868e-15 22.9655
      vertex 15.5303 2.21476e-15 19.5855
    endloop
  endfacet
  facet normal -0.866025 -4.9792e-17 0.5
    outer loop
      vertex 15.5303 -2 19.5855
      vertex 15.5303 2.21476e-15 19.5855
      vertex 13.7533 -2 16.5077
    endloop
  endfacet
  facet normal -0.866025 -4.9792e-17 0.5
    outer loop
      vertex 13.7533 -2 16.5077
      vertex 15.5303 2.21476e-15 19.5855
      vertex 13.7533 1.83785e-15 16.5077
    endloop
  endfacet
  facet normal -0.743145 -6.66347e-17 0.669131
    outer loop
      vertex 13.7533 -2 16.5077
      vertex 13.7533 1.83785e-15 16.5077
      vertex 11.3752 -2 13.8665
    endloop
  endfacet
  facet normal -0.743145 -6.66347e-17 0.669131
    outer loop
      vertex 11.3752 -2 13.8665
      vertex 13.7533 1.83785e-15 16.5077
      vertex 11.3752 1.51441e-15 13.8665
    endloop
  endfacet
  facet normal -0.587785 -8.05651e-17 0.809017
    outer loop
      vertex 8.5 -2 11.7776
      vertex 11.3752 -2 13.8665
      vertex 11.3752 1.51441e-15 13.8665
    endloop
  endfacet
  facet normal -0.587785 -8.05651e-17 0.809017
    outer loop
      vertex 8.5 1.2586e-15 11.7776
      vertex 8.5 -2 11.7776
      vertex 11.3752 1.51441e-15 13.8665
    endloop
  endfacet
  facet normal -0.406737 -9.09745e-17 0.913545
    outer loop
      vertex 5.25329 -2 10.332
      vertex 8.5 -2 11.7776
      vertex 8.5 1.2586e-15 11.7776
    endloop
  endfacet
  facet normal -0.406737 -9.09745e-17 0.913545
    outer loop
      vertex 5.25329 1.08158e-15 10.332
      vertex 5.25329 -2 10.332
      vertex 8.5 1.2586e-15 11.7776
    endloop
  endfacet
  facet normal -0.207912 -9.74078e-17 0.978148
    outer loop
      vertex 1.77698 -2 9.59313
      vertex 5.25329 -2 10.332
      vertex 5.25329 1.08158e-15 10.332
    endloop
  endfacet
  facet normal -0.207912 -9.74078e-17 0.978148
    outer loop
      vertex 1.77698 9.9109e-16 9.59313
      vertex 1.77698 -2 9.59313
      vertex 5.25329 1.08158e-15 10.332
    endloop
  endfacet
  facet normal 0 -9.9584e-17 1
    outer loop
      vertex -1.77698 -2 9.59313
      vertex 1.77698 -2 9.59313
      vertex 1.77698 9.9109e-16 9.59313
    endloop
  endfacet
  facet normal 0 -9.9584e-17 1
    outer loop
      vertex -1.77698 9.9109e-16 9.59313
      vertex -1.77698 -2 9.59313
      vertex 1.77698 9.9109e-16 9.59313
    endloop
  endfacet
  facet normal 0.207912 -9.74078e-17 0.978148
    outer loop
      vertex -5.25329 -2 10.332
      vertex -1.77698 -2 9.59313
      vertex -1.77698 9.9109e-16 9.59313
    endloop
  endfacet
  facet normal 0.207912 -9.74078e-17 0.978148
    outer loop
      vertex -5.25329 1.08158e-15 10.332
      vertex -5.25329 -2 10.332
      vertex -1.77698 9.9109e-16 9.59313
    endloop
  endfacet
  facet normal 0.406737 -9.09745e-17 0.913545
    outer loop
      vertex -8.5 -2 11.7776
      vertex -5.25329 -2 10.332
      vertex -5.25329 1.08158e-15 10.332
    endloop
  endfacet
  facet normal 0.406737 -9.09745e-17 0.913545
    outer loop
      vertex -8.5 1.2586e-15 11.7776
      vertex -8.5 -2 11.7776
      vertex -5.25329 1.08158e-15 10.332
    endloop
  endfacet
  facet normal 0.587785 -8.05651e-17 0.809017
    outer loop
      vertex -11.3752 -2 13.8665
      vertex -8.5 -2 11.7776
      vertex -8.5 1.2586e-15 11.7776
    endloop
  endfacet
  facet normal 0.587785 -8.05651e-17 0.809017
    outer loop
      vertex -11.3752 1.51441e-15 13.8665
      vertex -11.3752 -2 13.8665
      vertex -8.5 1.2586e-15 11.7776
    endloop
  endfacet
  facet normal 0.743145 -6.66347e-17 0.669131
    outer loop
      vertex -13.7533 -2 16.5077
      vertex -11.3752 -2 13.8665
      vertex -11.3752 1.51441e-15 13.8665
    endloop
  endfacet
  facet normal 0.743145 -6.66347e-17 0.669131
    outer loop
      vertex -13.7533 1.83785e-15 16.5077
      vertex -13.7533 -2 16.5077
      vertex -11.3752 1.51441e-15 13.8665
    endloop
  endfacet
  facet normal 0.866025 -4.9792e-17 0.5
    outer loop
      vertex -15.5303 -2 19.5855
      vertex -13.7533 -2 16.5077
      vertex -13.7533 1.83785e-15 16.5077
    endloop
  endfacet
  facet normal 0.866025 -4.9792e-17 0.5
    outer loop
      vertex -15.5303 2.21476e-15 19.5855
      vertex -15.5303 -2 19.5855
      vertex -13.7533 1.83785e-15 16.5077
    endloop
  endfacet
  facet normal 0.951057 -3.07731e-17 0.309017
    outer loop
      vertex -16.6285 -2 22.9655
      vertex -15.5303 -2 19.5855
      vertex -15.5303 2.21476e-15 19.5855
    endloop
  endfacet
  facet normal 0.951057 -3.07731e-17 0.309017
    outer loop
      vertex -16.6285 2.62868e-15 22.9655
      vertex -16.6285 -2 22.9655
      vertex -15.5303 2.21476e-15 19.5855
    endloop
  endfacet
  facet normal 0.994522 -1.04094e-17 0.104529
    outer loop
      vertex -17 -2 26.5
      vertex -16.6285 -2 22.9655
      vertex -16.6285 2.62868e-15 22.9655
    endloop
  endfacet
  facet normal 0.994522 -1.04094e-17 0.104529
    outer loop
      vertex -17 3.06152e-15 26.5
      vertex -17 -2 26.5
      vertex -16.6285 2.62868e-15 22.9655
    endloop
  endfacet
  facet normal 0.994522 1.04094e-17 -0.104529
    outer loop
      vertex -16.6285 3.49435e-15 30.0345
      vertex -16.6285 -2 30.0345
      vertex -17 -2 26.5
    endloop
  endfacet
  facet normal 0.994522 1.04094e-17 -0.104529
    outer loop
      vertex -17 3.06152e-15 26.5
      vertex -16.6285 3.49435e-15 30.0345
      vertex -17 -2 26.5
    endloop
  endfacet
  facet normal 0.951057 3.07731e-17 -0.309017
    outer loop
      vertex -15.5303 3.90827e-15 33.4145
      vertex -15.5303 -2 33.4145
      vertex -16.6285 -2 30.0345
    endloop
  endfacet
  facet normal 0.951057 3.07731e-17 -0.309017
    outer loop
      vertex -16.6285 3.49435e-15 30.0345
      vertex -15.5303 3.90827e-15 33.4145
      vertex -16.6285 -2 30.0345
    endloop
  endfacet
  facet normal 0.866025 4.9792e-17 -0.5
    outer loop
      vertex -13.7533 4.28519e-15 36.4923
      vertex -13.7533 -2 36.4923
      vertex -15.5303 -2 33.4145
    endloop
  endfacet
  facet normal 0.866025 4.9792e-17 -0.5
    outer loop
      vertex -15.5303 3.90827e-15 33.4145
      vertex -13.7533 4.28519e-15 36.4923
      vertex -15.5303 -2 33.4145
    endloop
  endfacet
  facet normal 0.743145 6.66347e-17 -0.669131
    outer loop
      vertex -12.3958 4.46981e-15 38
      vertex -12.3958 -2 38
      vertex -13.7533 -2 36.4923
    endloop
  endfacet
  facet normal 0.743145 6.66347e-17 -0.669131
    outer loop
      vertex -13.7533 4.28519e-15 36.4923
      vertex -12.3958 4.46981e-15 38
      vertex -13.7533 -2 36.4923
    endloop
  endfacet
  facet normal 0 -1 -9.9584e-17
    outer loop
      vertex -18.5848 -2 22.5497
      vertex -17.3574 -2 18.772
      vertex -15.3713 -2 15.3321
    endloop
  endfacet
  facet normal 0 -1 -9.9584e-17
    outer loop
      vertex -9.5 -2 10.0455
      vertex -18.5848 -2 22.5497
      vertex -12.7135 -2 12.3802
    endloop
  endfacet
  facet normal 0 -1 -9.9584e-17
    outer loop
      vertex -12.7135 -2 12.3802
      vertex -18.5848 -2 22.5497
      vertex -15.3713 -2 15.3321
    endloop
  endfacet
  facet normal 0 -1 -9.9584e-17
    outer loop
      vertex -13.7533 -2 16.5077
      vertex -18.5848 -2 22.5497
      vertex -9.5 -2 10.0455
    endloop
  endfacet
  facet normal 0 -1 -9.9584e-17
    outer loop
      vertex -8.5 -2 11.7776
      vertex -11.3752 -2 13.8665
      vertex -5.87132 -2 8.42993
    endloop
  endfacet
  facet normal 0 -1 -9.9584e-17
    outer loop
      vertex -1.77698 -2 9.59313
      vertex -5.25329 -2 10.332
      vertex -1.98604 -2 7.60408
    endloop
  endfacet
  facet normal 0 -1 -9.9584e-17
    outer loop
      vertex 1.77698 -2 9.59313
      vertex -1.77698 -2 9.59313
      vertex 1.98604 -2 7.60408
    endloop
  endfacet
  facet normal 0 -1 -9.9584e-17
    outer loop
      vertex 5.25329 -2 10.332
      vertex 1.77698 -2 9.59313
      vertex 5.87132 -2 8.42993
    endloop
  endfacet
  facet normal 0 -1 -9.9584e-17
    outer loop
      vertex 8.5 -2 11.7776
      vertex 5.25329 -2 10.332
      vertex 9.5 -2 10.0455
    endloop
  endfacet
  facet normal 0 -1 -9.9584e-17
    outer loop
      vertex 11.3752 -2 13.8665
      vertex 8.5 -2 11.7776
      vertex 12.7135 -2 12.3802
    endloop
  endfacet
  facet normal 0 -1 -9.9584e-17
    outer loop
      vertex 13.7533 -2 16.5077
      vertex 11.3752 -2 13.8665
      vertex 15.3713 -2 15.3321
    endloop
  endfacet
  facet normal 0 -1 -9.9584e-17
    outer loop
      vertex 15.5303 -2 19.5855
      vertex 13.7533 -2 16.5077
      vertex 17.3574 -2 18.772
    endloop
  endfacet
  facet normal 0 -1 -9.9584e-17
    outer loop
      vertex 16.6285 -2 22.9655
      vertex 15.5303 -2 19.5855
      vertex 18.5848 -2 22.5497
    endloop
  endfacet
  facet normal 0 -1 -9.9584e-17
    outer loop
      vertex -13.7533 -2 16.5077
      vertex -15.5303 -2 19.5855
      vertex -18.5848 -2 22.5497
    endloop
  endfacet
  facet normal 0 -1 -9.9584e-17
    outer loop
      vertex 13.7533 -2 36.4923
      vertex 15.5303 -2 33.4145
      vertex 17.3574 -2 34.228
    endloop
  endfacet
  facet normal 0 -1 -9.9584e-17
    outer loop
      vertex 16.6285 -2 30.0345
      vertex 17 -2 26.5
      vertex 18.5848 -2 30.4503
    endloop
  endfacet
  facet normal 0 -1 -9.9584e-17
    outer loop
      vertex 15.3713 -2 37.6679
      vertex 13.7533 -2 36.4923
      vertex 17.3574 -2 34.228
    endloop
  endfacet
  facet normal 0 -1 -9.9584e-17
    outer loop
      vertex 17.3574 -2 34.228
      vertex 15.5303 -2 33.4145
      vertex 18.5848 -2 30.4503
    endloop
  endfacet
  facet normal 0 -1 -9.9584e-17
    outer loop
      vertex 15.5303 -2 33.4145
      vertex 16.6285 -2 30.0345
      vertex 18.5848 -2 30.4503
    endloop
  endfacet
  facet normal 0 -1 -9.9584e-17
    outer loop
      vertex 18.5848 -2 30.4503
      vertex 17 -2 26.5
      vertex 19 -2 26.5
    endloop
  endfacet
  facet normal 0 -1 -9.9584e-17
    outer loop
      vertex 19 -2 26.5
      vertex 16.6285 -2 22.9655
      vertex 18.5848 -2 22.5497
    endloop
  endfacet
  facet normal 0 -1 -9.9584e-17
    outer loop
      vertex 18.5848 -2 22.5497
      vertex 15.5303 -2 19.5855
      vertex 17.3574 -2 18.772
    endloop
  endfacet
  facet normal 0 -1 -9.9584e-17
    outer loop
      vertex 17.3574 -2 18.772
      vertex 13.7533 -2 16.5077
      vertex 15.3713 -2 15.3321
    endloop
  endfacet
  facet normal 0 -1 -9.9584e-17
    outer loop
      vertex -16.6285 -2 22.9655
      vertex -17 -2 26.5
      vertex -18.5848 -2 22.5497
    endloop
  endfacet
  facet normal 0 -1 -9.9584e-17
    outer loop
      vertex 15.3713 -2 15.3321
      vertex 11.3752 -2 13.8665
      vertex 12.7135 -2 12.3802
    endloop
  endfacet
  facet normal 0 -1 -9.9584e-17
    outer loop
      vertex 12.7135 -2 12.3802
      vertex 8.5 -2 11.7776
      vertex 9.5 -2 10.0455
    endloop
  endfacet
  facet normal 0 -1 -9.9584e-17
    outer loop
      vertex 9.5 -2 10.0455
      vertex 5.25329 -2 10.332
      vertex 5.87132 -2 8.42993
    endloop
  endfacet
  facet normal 0 -1 -9.9584e-17
    outer loop
      vertex 5.87132 -2 8.42993
      vertex 1.77698 -2 9.59313
      vertex 1.98604 -2 7.60408
    endloop
  endfacet
  facet normal 0 -1 -9.9584e-17
    outer loop
      vertex 1.98604 -2 7.60408
      vertex -1.77698 -2 9.59313
      vertex -1.98604 -2 7.60408
    endloop
  endfacet
  facet normal 0 -1 -9.9584e-17
    outer loop
      vertex -1.98604 -2 7.60408
      vertex -5.25329 -2 10.332
      vertex -5.87132 -2 8.42993
    endloop
  endfacet
  facet normal 0 -1 -9.9584e-17
    outer loop
      vertex -5.25329 -2 10.332
      vertex -8.5 -2 11.7776
      vertex -5.87132 -2 8.42993
    endloop
  endfacet
  facet normal 0 -1 -9.9584e-17
    outer loop
      vertex -5.87132 -2 8.42993
      vertex -11.3752 -2 13.8665
      vertex -9.5 -2 10.0455
    endloop
  endfacet
  facet normal 0 -1 -9.9584e-17
    outer loop
      vertex -11.3752 -2 13.8665
      vertex -13.7533 -2 16.5077
      vertex -9.5 -2 10.0455
    endloop
  endfacet
  facet normal 0 -1 -9.9584e-17
    outer loop
      vertex 17 -2 26.5
      vertex 16.6285 -2 22.9655
      vertex 19 -2 26.5
    endloop
  endfacet
  facet normal 0 -1 -9.9584e-17
    outer loop
      vertex -16.6285 -2 30.0345
      vertex -18.5848 -2 22.5497
      vertex -17 -2 26.5
    endloop
  endfacet
  facet normal 0 -1 -9.9584e-17
    outer loop
      vertex -15.0723 -2 38
      vertex -18.5848 -2 22.5497
      vertex -16.6285 -2 30.0345
    endloop
  endfacet
  facet normal 0 -1 -9.9584e-17
    outer loop
      vertex -15.0723 -2 38
      vertex -16.6285 -2 30.0345
      vertex -15.5303 -2 33.4145
    endloop
  endfacet
  facet normal 0 -1 -9.9584e-17
    outer loop
      vertex -15.0723 -2 38
      vertex -15.5303 -2 33.4145
      vertex -13.7533 -2 36.4923
    endloop
  endfacet
  facet normal 0 -1 -9.9584e-17
    outer loop
      vertex -15.0723 -2 38
      vertex -13.7533 -2 36.4923
      vertex -12.3958 -2 38
    endloop
  endfacet
  facet normal 0 -1 -9.9584e-17
    outer loop
      vertex -15.3713 -2 37.6679
      vertex -18.5848 -2 22.5497
      vertex -15.0723 -2 38
    endloop
  endfacet
  facet normal 0 -1 -9.9584e-17
    outer loop
      vertex -17.3574 -2 34.228
      vertex -18.5848 -2 22.5497
      vertex -15.3713 -2 37.6679
    endloop
  endfacet
  facet normal 0 -1 -9.9584e-17
    outer loop
      vertex -18.5848 -2 30.4503
      vertex -18.5848 -2 22.5497
      vertex -17.3574 -2 34.228
    endloop
  endfacet
  facet normal 0 -1 -9.9584e-17
    outer loop
      vertex -19 -2 26.5
      vertex -18.5848 -2 22.5497
      vertex -18.5848 -2 30.4503
    endloop
  endfacet
  facet normal 0 -1 -9.9584e-17
    outer loop
      vertex 12.3958 -2 38
      vertex 15.3713 -2 37.6679
      vertex 15.0723 -2 38
    endloop
  endfacet
  facet normal 0 -1 -9.9584e-17
    outer loop
      vertex 12.3958 -2 38
      vertex 13.7533 -2 36.4923
      vertex 15.3713 -2 37.6679
    endloop
  endfacet
  facet normal 0 -1 -9.9584e-17
    outer loop
      vertex -15.5303 -2 19.5855
      vertex -16.6285 -2 22.9655
      vertex -18.5848 -2 22.5497
    endloop
  endfacet
endsolid OpenSCAD_Model
